<?xml version="1.0" encoding="utf-8" standalone="no"?>
<!DOCTYPE svg PUBLIC "-//W3C//DTD SVG 1.1//EN"
  "http://www.w3.org/Graphics/SVG/1.1/DTD/svg11.dtd">
<svg xmlns:xlink="http://www.w3.org/1999/xlink" width="1194.811875pt" height="621.796563pt" viewBox="0 0 1194.811875 621.796563" xmlns="http://www.w3.org/2000/svg" version="1.1">
 <metadata>
  <rdf:RDF xmlns:dc="http://purl.org/dc/elements/1.1/" xmlns:cc="http://creativecommons.org/ns#" xmlns:rdf="http://www.w3.org/1999/02/22-rdf-syntax-ns#">
   <cc:Work>
    <dc:type rdf:resource="http://purl.org/dc/dcmitype/StillImage"/>
    <dc:date>2022-10-10T00:43:28.985982</dc:date>
    <dc:format>image/svg+xml</dc:format>
    <dc:creator>
     <cc:Agent>
      <dc:title>Matplotlib v3.6.1, https://matplotlib.org/</dc:title>
     </cc:Agent>
    </dc:creator>
   </cc:Work>
  </rdf:RDF>
 </metadata>
 <defs>
  <style type="text/css">*{stroke-linejoin: round; stroke-linecap: butt}</style>
 </defs>
 <g id="figure_1">
  <g id="patch_1">
   <path d="M 0 621.796563 
L 1194.811875 621.796563 
L 1194.811875 0 
L 0 0 
L 0 621.796563 
z
" style="fill: none"/>
  </g>
  <g id="axes_1">
   <g id="patch_2">
    <path d="M 71.611875 550.8 
L 1187.611875 550.8 
L 1187.611875 7.2 
L 71.611875 7.2 
z
" style="fill: #ffffff"/>
   </g>
   <g id="matplotlib.axis_1">
    <g id="xtick_1">
     <g id="line2d_1">
      <path d="M 76.753511 550.8 
L 76.753511 7.2 
" clip-path="url(#pb168f56f12)" style="fill: none; stroke: #cccccc; stroke-width: 2; stroke-linecap: round"/>
     </g>
     <g id="line2d_2">
      <defs>
       <path id="m48d04c4829" d="M 0 0 
L 0 12 
" style="stroke: #262626; stroke-width: 2.5"/>
      </defs>
      <g>
       <use xlink:href="#m48d04c4829" x="76.753511" y="550.8" style="fill: #262626; stroke: #262626; stroke-width: 2.5"/>
      </g>
     </g>
     <g id="text_1">
      <!-- 0.2 -->
      <g style="fill: #262626" transform="translate(62.530855 582.8) scale(0.22 -0.22)">
       <defs>
        <path id="FiraSans-Regular-30" d="M 1786 4346 
Q 2496 4346 2857 3779 
Q 3219 3213 3219 2138 
Q 3219 1062 2857 492 
Q 2496 -77 1786 -77 
Q 1075 -77 713 492 
Q 352 1062 352 2138 
Q 352 3213 713 3779 
Q 1075 4346 1786 4346 
z
M 1786 3878 
Q 1370 3878 1168 3468 
Q 966 3059 966 2138 
Q 966 1216 1168 803 
Q 1370 390 1786 390 
Q 2195 390 2400 803 
Q 2605 1216 2605 2138 
Q 2605 3053 2400 3465 
Q 2195 3878 1786 3878 
z
" transform="scale(0.015625)"/>
        <path id="FiraSans-Regular-2e" d="M 762 813 
Q 954 813 1082 685 
Q 1210 557 1210 371 
Q 1210 186 1082 54 
Q 954 -77 762 -77 
Q 576 -77 448 54 
Q 320 186 320 371 
Q 320 557 448 685 
Q 576 813 762 813 
z
" transform="scale(0.015625)"/>
        <path id="FiraSans-Regular-32" d="M 1459 4346 
Q 1843 4346 2134 4192 
Q 2426 4038 2586 3772 
Q 2746 3507 2746 3174 
Q 2746 2784 2570 2425 
Q 2394 2067 2029 1651 
Q 1664 1235 922 493 
L 2848 493 
L 2778 0 
L 250 0 
L 250 467 
Q 1107 1357 1465 1769 
Q 1824 2182 1977 2489 
Q 2131 2797 2131 3149 
Q 2131 3482 1939 3670 
Q 1747 3859 1427 3859 
Q 1165 3859 966 3750 
Q 768 3642 544 3392 
L 160 3699 
Q 422 4026 742 4186 
Q 1062 4346 1459 4346 
z
" transform="scale(0.015625)"/>
       </defs>
       <use xlink:href="#FiraSans-Regular-30"/>
       <use xlink:href="#FiraSans-Regular-2e" x="55.799988"/>
       <use xlink:href="#FiraSans-Regular-32" x="79.799973"/>
      </g>
     </g>
    </g>
    <g id="xtick_2">
     <g id="line2d_3">
      <path d="M 209.269897 550.8 
L 209.269897 7.2 
" clip-path="url(#pb168f56f12)" style="fill: none; stroke: #cccccc; stroke-width: 2; stroke-linecap: round"/>
     </g>
     <g id="line2d_4">
      <g>
       <use xlink:href="#m48d04c4829" x="209.269897" y="550.8" style="fill: #262626; stroke: #262626; stroke-width: 2.5"/>
      </g>
     </g>
     <g id="text_2">
      <!-- 0.3 -->
      <g style="fill: #262626" transform="translate(195.002553 582.8) scale(0.22 -0.22)">
       <defs>
        <path id="FiraSans-Regular-33" d="M 1440 4346 
Q 1837 4346 2121 4198 
Q 2406 4051 2556 3801 
Q 2707 3552 2707 3258 
Q 2707 2867 2480 2614 
Q 2253 2362 1875 2272 
Q 2304 2234 2573 1965 
Q 2842 1696 2842 1235 
Q 2842 864 2662 563 
Q 2483 262 2150 92 
Q 1818 -77 1382 -77 
Q 992 -77 665 67 
Q 339 211 96 499 
L 448 826 
Q 659 608 880 505 
Q 1101 403 1363 403 
Q 1766 403 1996 630 
Q 2227 858 2227 1242 
Q 2227 1664 2009 1837 
Q 1792 2010 1376 2010 
L 1056 2010 
L 1126 2464 
L 1344 2464 
Q 1677 2464 1897 2662 
Q 2118 2861 2118 3219 
Q 2118 3520 1926 3696 
Q 1734 3872 1408 3872 
Q 1158 3872 950 3782 
Q 742 3693 525 3488 
L 218 3840 
Q 762 4346 1440 4346 
z
" transform="scale(0.015625)"/>
       </defs>
       <use xlink:href="#FiraSans-Regular-30"/>
       <use xlink:href="#FiraSans-Regular-2e" x="55.799988"/>
       <use xlink:href="#FiraSans-Regular-33" x="79.799973"/>
      </g>
     </g>
    </g>
    <g id="xtick_3">
     <g id="line2d_5">
      <path d="M 341.786284 550.8 
L 341.786284 7.2 
" clip-path="url(#pb168f56f12)" style="fill: none; stroke: #cccccc; stroke-width: 2; stroke-linecap: round"/>
     </g>
     <g id="line2d_6">
      <g>
       <use xlink:href="#m48d04c4829" x="341.786284" y="550.8" style="fill: #262626; stroke: #262626; stroke-width: 2.5"/>
      </g>
     </g>
     <g id="text_3">
      <!-- 0.4 -->
      <g style="fill: #262626" transform="translate(327.156284 582.8) scale(0.22 -0.22)">
       <defs>
        <path id="FiraSans-Regular-34" d="M 3213 1523 
L 3213 1056 
L 2656 1056 
L 2656 0 
L 2086 0 
L 2086 1056 
L 256 1056 
L 256 1478 
L 1542 4346 
L 2035 4141 
L 877 1523 
L 2093 1523 
L 2144 2675 
L 2656 2675 
L 2656 1523 
L 3213 1523 
z
" transform="scale(0.015625)"/>
       </defs>
       <use xlink:href="#FiraSans-Regular-30"/>
       <use xlink:href="#FiraSans-Regular-2e" x="55.799988"/>
       <use xlink:href="#FiraSans-Regular-34" x="79.799973"/>
      </g>
     </g>
    </g>
    <g id="xtick_4">
     <g id="line2d_7">
      <path d="M 474.30267 550.8 
L 474.30267 7.2 
" clip-path="url(#pb168f56f12)" style="fill: none; stroke: #cccccc; stroke-width: 2; stroke-linecap: round"/>
     </g>
     <g id="line2d_8">
      <g>
       <use xlink:href="#m48d04c4829" x="474.30267" y="550.8" style="fill: #262626; stroke: #262626; stroke-width: 2.5"/>
      </g>
     </g>
     <g id="text_4">
      <!-- 0.5 -->
      <g style="fill: #262626" transform="translate(460.014701 582.8) scale(0.22 -0.22)">
       <defs>
        <path id="FiraSans-Regular-35" d="M 2688 3821 
L 1018 3821 
L 1018 2560 
Q 1344 2726 1702 2726 
Q 2253 2726 2585 2364 
Q 2918 2003 2918 1370 
Q 2918 947 2732 617 
Q 2547 288 2211 105 
Q 1875 -77 1434 -77 
Q 1043 -77 736 60 
Q 429 198 166 467 
L 512 806 
Q 717 602 934 502 
Q 1152 403 1427 403 
Q 1837 403 2070 659 
Q 2304 915 2304 1382 
Q 2304 1850 2093 2061 
Q 1882 2272 1523 2272 
Q 1357 2272 1216 2237 
Q 1075 2202 915 2125 
L 454 2125 
L 454 4282 
L 2771 4282 
L 2688 3821 
z
" transform="scale(0.015625)"/>
       </defs>
       <use xlink:href="#FiraSans-Regular-30"/>
       <use xlink:href="#FiraSans-Regular-2e" x="55.799988"/>
       <use xlink:href="#FiraSans-Regular-35" x="79.799973"/>
      </g>
     </g>
    </g>
    <g id="xtick_5">
     <g id="line2d_9">
      <path d="M 606.819057 550.8 
L 606.819057 7.2 
" clip-path="url(#pb168f56f12)" style="fill: none; stroke: #cccccc; stroke-width: 2; stroke-linecap: round"/>
     </g>
     <g id="line2d_10">
      <g>
       <use xlink:href="#m48d04c4829" x="606.819057" y="550.8" style="fill: #262626; stroke: #262626; stroke-width: 2.5"/>
      </g>
     </g>
     <g id="text_5">
      <!-- 0.6 -->
      <g style="fill: #262626" transform="translate(592.178744 582.8) scale(0.22 -0.22)">
       <defs>
        <path id="FiraSans-Regular-36" d="M 1971 2816 
Q 2298 2816 2566 2662 
Q 2835 2509 2995 2201 
Q 3155 1894 3155 1453 
Q 3155 998 2972 649 
Q 2790 301 2480 112 
Q 2170 -77 1792 -77 
Q 1043 -77 697 476 
Q 352 1030 352 2010 
Q 352 2707 547 3235 
Q 742 3763 1107 4054 
Q 1472 4346 1971 4346 
Q 2458 4346 2854 4083 
L 2624 3693 
Q 2323 3878 1965 3878 
Q 1504 3878 1235 3436 
Q 966 2995 941 2253 
Q 1338 2816 1971 2816 
z
M 1792 390 
Q 2163 390 2361 672 
Q 2560 954 2560 1434 
Q 2560 2349 1869 2349 
Q 1587 2349 1350 2192 
Q 1114 2035 947 1760 
Q 966 1056 1168 723 
Q 1370 390 1792 390 
z
" transform="scale(0.015625)"/>
       </defs>
       <use xlink:href="#FiraSans-Regular-30"/>
       <use xlink:href="#FiraSans-Regular-2e" x="55.799988"/>
       <use xlink:href="#FiraSans-Regular-36" x="79.799973"/>
      </g>
     </g>
    </g>
    <g id="xtick_6">
     <g id="line2d_11">
      <path d="M 739.335443 550.8 
L 739.335443 7.2 
" clip-path="url(#pb168f56f12)" style="fill: none; stroke: #cccccc; stroke-width: 2; stroke-linecap: round"/>
     </g>
     <g id="line2d_12">
      <g>
       <use xlink:href="#m48d04c4829" x="739.335443" y="550.8" style="fill: #262626; stroke: #262626; stroke-width: 2.5"/>
      </g>
     </g>
     <g id="text_6">
      <!-- 0.7 -->
      <g style="fill: #262626" transform="translate(725.673099 582.8) scale(0.22 -0.22)">
       <defs>
        <path id="FiraSans-Regular-37" d="M 2650 4282 
L 2650 3840 
L 1050 -64 
L 512 115 
L 2054 3802 
L 160 3802 
L 160 4282 
L 2650 4282 
z
" transform="scale(0.015625)"/>
       </defs>
       <use xlink:href="#FiraSans-Regular-30"/>
       <use xlink:href="#FiraSans-Regular-2e" x="55.799988"/>
       <use xlink:href="#FiraSans-Regular-37" x="79.799973"/>
      </g>
     </g>
    </g>
    <g id="xtick_7">
     <g id="line2d_13">
      <path d="M 871.851829 550.8 
L 871.851829 7.2 
" clip-path="url(#pb168f56f12)" style="fill: none; stroke: #cccccc; stroke-width: 2; stroke-linecap: round"/>
     </g>
     <g id="line2d_14">
      <g>
       <use xlink:href="#m48d04c4829" x="871.851829" y="550.8" style="fill: #262626; stroke: #262626; stroke-width: 2.5"/>
      </g>
     </g>
     <g id="text_7">
      <!-- 0.8 -->
      <g style="fill: #262626" transform="translate(857.013861 582.8) scale(0.22 -0.22)">
       <defs>
        <path id="FiraSans-Regular-38" d="M 2336 2298 
Q 3238 1933 3238 1146 
Q 3238 794 3049 515 
Q 2861 237 2521 80 
Q 2182 -77 1754 -77 
Q 1318 -77 985 76 
Q 653 230 470 505 
Q 288 781 288 1133 
Q 288 1530 502 1798 
Q 717 2067 1133 2246 
Q 794 2419 630 2665 
Q 467 2912 467 3245 
Q 467 3590 649 3840 
Q 832 4090 1129 4218 
Q 1427 4346 1766 4346 
Q 2099 4346 2396 4224 
Q 2694 4102 2880 3856 
Q 3066 3610 3066 3264 
Q 3066 2944 2886 2713 
Q 2707 2483 2336 2298 
z
M 1766 3904 
Q 1434 3904 1238 3731 
Q 1043 3558 1043 3238 
Q 1043 2931 1232 2771 
Q 1421 2611 1837 2477 
L 1946 2438 
Q 2234 2605 2362 2790 
Q 2490 2976 2490 3245 
Q 2490 3546 2301 3725 
Q 2112 3904 1766 3904 
z
M 1760 390 
Q 2157 390 2390 595 
Q 2624 800 2624 1139 
Q 2624 1370 2534 1526 
Q 2445 1683 2246 1801 
Q 2048 1920 1690 2042 
L 1530 2099 
Q 1210 1946 1056 1712 
Q 902 1478 902 1133 
Q 902 781 1132 585 
Q 1363 390 1760 390 
z
" transform="scale(0.015625)"/>
       </defs>
       <use xlink:href="#FiraSans-Regular-30"/>
       <use xlink:href="#FiraSans-Regular-2e" x="55.799988"/>
       <use xlink:href="#FiraSans-Regular-38" x="79.799973"/>
      </g>
     </g>
    </g>
    <g id="xtick_8">
     <g id="line2d_15">
      <path d="M 1004.368216 550.8 
L 1004.368216 7.2 
" clip-path="url(#pb168f56f12)" style="fill: none; stroke: #cccccc; stroke-width: 2; stroke-linecap: round"/>
     </g>
     <g id="line2d_16">
      <g>
       <use xlink:href="#m48d04c4829" x="1004.368216" y="550.8" style="fill: #262626; stroke: #262626; stroke-width: 2.5"/>
      </g>
     </g>
     <g id="text_8">
      <!-- 0.9 -->
      <g style="fill: #262626" transform="translate(989.81556 582.8) scale(0.22 -0.22)">
       <defs>
        <path id="FiraSans-Regular-39" d="M 1658 4346 
Q 2336 4346 2688 3901 
Q 3040 3456 3040 2682 
Q 3040 1805 2803 1270 
Q 2566 736 2080 419 
Q 1594 102 762 -141 
L 627 301 
Q 1485 544 1942 960 
Q 2400 1376 2432 2067 
Q 2285 1837 2035 1696 
Q 1786 1555 1472 1555 
Q 1139 1555 870 1724 
Q 602 1894 445 2204 
Q 288 2515 288 2931 
Q 288 3366 473 3686 
Q 659 4006 969 4176 
Q 1280 4346 1658 4346 
z
M 1594 2016 
Q 2099 2016 2445 2547 
Q 2458 3258 2269 3568 
Q 2080 3878 1670 3878 
Q 1293 3878 1088 3628 
Q 883 3379 883 2918 
Q 883 2470 1075 2243 
Q 1267 2016 1594 2016 
z
" transform="scale(0.015625)"/>
       </defs>
       <use xlink:href="#FiraSans-Regular-30"/>
       <use xlink:href="#FiraSans-Regular-2e" x="55.799988"/>
       <use xlink:href="#FiraSans-Regular-39" x="79.799973"/>
      </g>
     </g>
    </g>
    <g id="xtick_9">
     <g id="line2d_17">
      <path d="M 1136.884602 550.8 
L 1136.884602 7.2 
" clip-path="url(#pb168f56f12)" style="fill: none; stroke: #cccccc; stroke-width: 2; stroke-linecap: round"/>
     </g>
     <g id="line2d_18">
      <g>
       <use xlink:href="#m48d04c4829" x="1136.884602" y="550.8" style="fill: #262626; stroke: #262626; stroke-width: 2.5"/>
      </g>
     </g>
     <g id="text_9">
      <!-- 1.0 -->
      <g style="fill: #262626" transform="translate(1123.34429 582.8) scale(0.22 -0.22)">
       <defs>
        <path id="FiraSans-Regular-31" d="M 2067 4282 
L 2067 0 
L 1478 0 
L 1478 3654 
L 480 3046 
L 224 3462 
L 1549 4282 
L 2067 4282 
z
" transform="scale(0.015625)"/>
       </defs>
       <use xlink:href="#FiraSans-Regular-31"/>
       <use xlink:href="#FiraSans-Regular-2e" x="43.299988"/>
       <use xlink:href="#FiraSans-Regular-30" x="67.299973"/>
      </g>
     </g>
    </g>
    <g id="text_10">
     <!-- Reach Factor -->
     <g style="fill: #262626" transform="translate(559.209375 609.485313) scale(0.24 -0.24)">
      <defs>
       <path id="FiraSans-Regular-52" d="M 1933 1869 
L 1248 1869 
L 1248 0 
L 640 0 
L 640 4410 
L 1798 4410 
Q 2624 4410 3049 4096 
Q 3475 3782 3475 3162 
Q 3475 2701 3238 2413 
Q 3002 2125 2522 1978 
L 3712 0 
L 2989 0 
L 1933 1869 
z
M 1862 2336 
Q 2342 2336 2585 2531 
Q 2829 2726 2829 3162 
Q 2829 3571 2582 3753 
Q 2336 3936 1792 3936 
L 1248 3936 
L 1248 2336 
L 1862 2336 
z
" transform="scale(0.015625)"/>
       <path id="FiraSans-Regular-65" d="M 3155 1786 
Q 3155 1638 3142 1485 
L 992 1485 
Q 1030 928 1273 665 
Q 1517 403 1901 403 
Q 2144 403 2349 473 
Q 2554 544 2778 698 
L 3034 346 
Q 2496 -77 1856 -77 
Q 1152 -77 758 384 
Q 365 845 365 1651 
Q 365 2176 534 2582 
Q 704 2989 1021 3219 
Q 1338 3450 1766 3450 
Q 2438 3450 2796 3008 
Q 3155 2566 3155 1786 
z
M 2573 1958 
Q 2573 2458 2374 2720 
Q 2176 2982 1779 2982 
Q 1056 2982 992 1920 
L 2573 1920 
L 2573 1958 
z
" transform="scale(0.015625)"/>
       <path id="FiraSans-Regular-61" d="M 2880 787 
Q 2880 582 2950 483 
Q 3021 384 3162 333 
L 3027 -77 
Q 2765 -45 2605 70 
Q 2445 186 2368 429 
Q 2029 -77 1363 -77 
Q 864 -77 576 204 
Q 288 486 288 941 
Q 288 1478 675 1766 
Q 1062 2054 1773 2054 
L 2291 2054 
L 2291 2304 
Q 2291 2662 2118 2816 
Q 1946 2970 1587 2970 
Q 1216 2970 678 2790 
L 531 3219 
Q 1158 3450 1696 3450 
Q 2291 3450 2585 3158 
Q 2880 2867 2880 2330 
L 2880 787 
z
M 1498 365 
Q 2003 365 2291 890 
L 2291 1664 
L 1850 1664 
Q 915 1664 915 973 
Q 915 672 1062 518 
Q 1210 365 1498 365 
z
" transform="scale(0.015625)"/>
       <path id="FiraSans-Regular-63" d="M 1837 3450 
Q 2138 3450 2387 3363 
Q 2637 3277 2867 3085 
L 2586 2714 
Q 2406 2842 2236 2902 
Q 2067 2963 1862 2963 
Q 1453 2963 1225 2636 
Q 998 2310 998 1670 
Q 998 1030 1222 726 
Q 1446 422 1862 422 
Q 2061 422 2227 483 
Q 2394 544 2598 678 
L 2867 294 
Q 2406 -77 1837 -77 
Q 1152 -77 758 384 
Q 365 845 365 1658 
Q 365 2195 544 2598 
Q 723 3002 1052 3226 
Q 1382 3450 1837 3450 
z
" transform="scale(0.015625)"/>
       <path id="FiraSans-Regular-68" d="M 2195 3450 
Q 2656 3450 2915 3174 
Q 3174 2899 3174 2419 
L 3174 0 
L 2586 0 
L 2586 2336 
Q 2586 2694 2448 2841 
Q 2310 2989 2048 2989 
Q 1786 2989 1581 2835 
Q 1376 2682 1197 2400 
L 1197 0 
L 608 0 
L 608 4723 
L 1197 4787 
L 1197 2906 
Q 1594 3450 2195 3450 
z
" transform="scale(0.015625)"/>
       <path id="FiraSans-Regular-20" transform="scale(0.015625)"/>
       <path id="FiraSans-Regular-46" d="M 640 0 
L 640 4410 
L 2982 4410 
L 2912 3923 
L 1248 3923 
L 1248 2419 
L 2688 2419 
L 2688 1939 
L 1248 1939 
L 1248 0 
L 640 0 
z
" transform="scale(0.015625)"/>
       <path id="FiraSans-Regular-74" d="M 2310 154 
Q 1978 -77 1555 -77 
Q 1126 -77 886 169 
Q 646 416 646 883 
L 646 2918 
L 58 2918 
L 58 3373 
L 646 3373 
L 646 4134 
L 1235 4205 
L 1235 3373 
L 2035 3373 
L 1971 2918 
L 1235 2918 
L 1235 909 
Q 1235 646 1328 528 
Q 1421 410 1638 410 
Q 1837 410 2086 544 
L 2310 154 
z
" transform="scale(0.015625)"/>
       <path id="FiraSans-Regular-6f" d="M 1875 3450 
Q 2586 3450 2979 2976 
Q 3373 2502 3373 1690 
Q 3373 1165 3193 765 
Q 3014 365 2675 144 
Q 2336 -77 1869 -77 
Q 1158 -77 761 396 
Q 365 870 365 1683 
Q 365 2208 544 2608 
Q 723 3008 1062 3229 
Q 1402 3450 1875 3450 
z
M 1875 2976 
Q 998 2976 998 1683 
Q 998 397 1869 397 
Q 2739 397 2739 1690 
Q 2739 2976 1875 2976 
z
" transform="scale(0.015625)"/>
       <path id="FiraSans-Regular-72" d="M 2074 3450 
Q 2253 3450 2406 3411 
L 2298 2835 
Q 2144 2874 2003 2874 
Q 1690 2874 1498 2643 
Q 1306 2413 1197 1926 
L 1197 0 
L 608 0 
L 608 3373 
L 1114 3373 
L 1171 2688 
Q 1306 3066 1536 3258 
Q 1766 3450 2074 3450 
z
" transform="scale(0.015625)"/>
      </defs>
      <use xlink:href="#FiraSans-Regular-52"/>
      <use xlink:href="#FiraSans-Regular-65" x="60.499985"/>
      <use xlink:href="#FiraSans-Regular-61" x="114.999969"/>
      <use xlink:href="#FiraSans-Regular-63" x="169.399963"/>
      <use xlink:href="#FiraSans-Regular-68" x="217.199951"/>
      <use xlink:href="#FiraSans-Regular-20" x="275.799942"/>
      <use xlink:href="#FiraSans-Regular-46" x="302.299927"/>
      <use xlink:href="#FiraSans-Regular-61" x="351.399918"/>
      <use xlink:href="#FiraSans-Regular-63" x="405.799911"/>
      <use xlink:href="#FiraSans-Regular-74" x="453.599899"/>
      <use xlink:href="#FiraSans-Regular-6f" x="489.69989"/>
      <use xlink:href="#FiraSans-Regular-72" x="548.099884"/>
     </g>
    </g>
   </g>
   <g id="matplotlib.axis_2">
    <g id="ytick_1">
     <g id="line2d_19">
      <path d="M 71.611875 550.8 
L 1187.611875 550.8 
" clip-path="url(#pb168f56f12)" style="fill: none; stroke: #cccccc; stroke-width: 2; stroke-linecap: round"/>
     </g>
     <g id="line2d_20">
      <defs>
       <path id="m44c32da59e" d="M 0 0 
L -12 0 
" style="stroke: #262626; stroke-width: 2.5"/>
      </defs>
      <g>
       <use xlink:href="#m44c32da59e" x="71.611875" y="550.8" style="fill: #262626; stroke: #262626; stroke-width: 2.5"/>
      </g>
     </g>
     <g id="text_11">
      <!-- 0 -->
      <g style="fill: #262626" transform="translate(43.836562 559.05) scale(0.22 -0.22)">
       <use xlink:href="#FiraSans-Regular-30"/>
      </g>
     </g>
    </g>
    <g id="ytick_2">
     <g id="line2d_21">
      <path d="M 71.611875 447.257143 
L 1187.611875 447.257143 
" clip-path="url(#pb168f56f12)" style="fill: none; stroke: #cccccc; stroke-width: 2; stroke-linecap: round"/>
     </g>
     <g id="line2d_22">
      <g>
       <use xlink:href="#m44c32da59e" x="71.611875" y="447.257143" style="fill: #262626; stroke: #262626; stroke-width: 2.5"/>
      </g>
     </g>
     <g id="text_12">
      <!-- 2 -->
      <g style="fill: #262626" transform="translate(45.221875 455.507143) scale(0.22 -0.22)">
       <use xlink:href="#FiraSans-Regular-32"/>
      </g>
     </g>
    </g>
    <g id="ytick_3">
     <g id="line2d_23">
      <path d="M 71.611875 343.714286 
L 1187.611875 343.714286 
" clip-path="url(#pb168f56f12)" style="fill: none; stroke: #cccccc; stroke-width: 2; stroke-linecap: round"/>
     </g>
     <g id="line2d_24">
      <g>
       <use xlink:href="#m44c32da59e" x="71.611875" y="343.714286" style="fill: #262626; stroke: #262626; stroke-width: 2.5"/>
      </g>
     </g>
     <g id="text_13">
      <!-- 4 -->
      <g style="fill: #262626" transform="translate(44.407187 351.964286) scale(0.22 -0.22)">
       <use xlink:href="#FiraSans-Regular-34"/>
      </g>
     </g>
    </g>
    <g id="ytick_4">
     <g id="line2d_25">
      <path d="M 71.611875 240.171429 
L 1187.611875 240.171429 
" clip-path="url(#pb168f56f12)" style="fill: none; stroke: #cccccc; stroke-width: 2; stroke-linecap: round"/>
     </g>
     <g id="line2d_26">
      <g>
       <use xlink:href="#m44c32da59e" x="71.611875" y="240.171429" style="fill: #262626; stroke: #262626; stroke-width: 2.5"/>
      </g>
     </g>
     <g id="text_14">
      <!-- 6 -->
      <g style="fill: #262626" transform="translate(44.386562 248.421429) scale(0.22 -0.22)">
       <use xlink:href="#FiraSans-Regular-36"/>
      </g>
     </g>
    </g>
    <g id="ytick_5">
     <g id="line2d_27">
      <path d="M 71.611875 136.628571 
L 1187.611875 136.628571 
" clip-path="url(#pb168f56f12)" style="fill: none; stroke: #cccccc; stroke-width: 2; stroke-linecap: round"/>
     </g>
     <g id="line2d_28">
      <g>
       <use xlink:href="#m44c32da59e" x="71.611875" y="136.628571" style="fill: #262626; stroke: #262626; stroke-width: 2.5"/>
      </g>
     </g>
     <g id="text_15">
      <!-- 8 -->
      <g style="fill: #262626" transform="translate(43.99125 144.878571) scale(0.22 -0.22)">
       <use xlink:href="#FiraSans-Regular-38"/>
      </g>
     </g>
    </g>
    <g id="ytick_6">
     <g id="line2d_29">
      <path d="M 71.611875 33.085714 
L 1187.611875 33.085714 
" clip-path="url(#pb168f56f12)" style="fill: none; stroke: #cccccc; stroke-width: 2; stroke-linecap: round"/>
     </g>
     <g id="line2d_30">
      <g>
       <use xlink:href="#m44c32da59e" x="71.611875" y="33.085714" style="fill: #262626; stroke: #262626; stroke-width: 2.5"/>
      </g>
     </g>
     <g id="text_16">
      <!-- 10 -->
      <g style="fill: #262626" transform="translate(34.31125 41.335714) scale(0.22 -0.22)">
       <use xlink:href="#FiraSans-Regular-31"/>
       <use xlink:href="#FiraSans-Regular-30" x="43.299988"/>
      </g>
     </g>
    </g>
    <g id="text_17">
     <!-- Labs -->
     <g style="fill: #262626" transform="translate(25.2 304.2375) rotate(-90) scale(0.24 -0.24)">
      <defs>
       <path id="FiraSans-Regular-4c" d="M 1248 4410 
L 1248 531 
L 3059 531 
L 2989 0 
L 640 0 
L 640 4410 
L 1248 4410 
z
" transform="scale(0.015625)"/>
       <path id="FiraSans-Regular-62" d="M 2150 3450 
Q 2726 3450 3065 2986 
Q 3405 2522 3405 1690 
Q 3405 1165 3245 765 
Q 3085 365 2784 144 
Q 2483 -77 2080 -77 
Q 1549 -77 1184 371 
L 1126 0 
L 608 0 
L 608 4730 
L 1197 4800 
L 1197 2950 
Q 1562 3450 2150 3450 
z
M 1939 390 
Q 2330 390 2550 707 
Q 2771 1024 2771 1690 
Q 2771 2374 2566 2678 
Q 2362 2982 1984 2982 
Q 1536 2982 1197 2458 
L 1197 845 
Q 1331 634 1526 512 
Q 1722 390 1939 390 
z
" transform="scale(0.015625)"/>
       <path id="FiraSans-Regular-73" d="M 1523 3450 
Q 1869 3450 2144 3354 
Q 2419 3258 2669 3066 
L 2419 2694 
Q 2189 2842 1981 2912 
Q 1773 2982 1542 2982 
Q 1254 2982 1088 2864 
Q 922 2746 922 2541 
Q 922 2336 1078 2221 
Q 1235 2106 1645 1997 
Q 2208 1856 2486 1613 
Q 2765 1370 2765 947 
Q 2765 448 2377 185 
Q 1990 -77 1434 -77 
Q 666 -77 160 365 
L 474 723 
Q 902 397 1421 397 
Q 1754 397 1949 534 
Q 2144 672 2144 909 
Q 2144 1082 2073 1187 
Q 2003 1293 1830 1373 
Q 1658 1453 1325 1542 
Q 787 1683 547 1920 
Q 307 2157 307 2522 
Q 307 2784 464 2998 
Q 621 3213 899 3331 
Q 1178 3450 1523 3450 
z
" transform="scale(0.015625)"/>
      </defs>
      <use xlink:href="#FiraSans-Regular-4c"/>
      <use xlink:href="#FiraSans-Regular-61" x="49.799988"/>
      <use xlink:href="#FiraSans-Regular-62" x="104.199982"/>
      <use xlink:href="#FiraSans-Regular-73" x="163.599976"/>
     </g>
    </g>
   </g>
   <g id="patch_3">
    <path d="M 122.339148 550.8 
L 147.702784 550.8 
L 147.702784 499.028571 
L 122.339148 499.028571 
z
" clip-path="url(#pb168f56f12)" style="fill: #ff0000; stroke: #ffffff; stroke-width: 2; stroke-linejoin: miter"/>
   </g>
   <g id="patch_4">
    <path d="M 147.702784 550.8 
L 173.06642 550.8 
L 173.06642 499.028571 
L 147.702784 499.028571 
z
" clip-path="url(#pb168f56f12)" style="fill: #ff0000; stroke: #ffffff; stroke-width: 2; stroke-linejoin: miter"/>
   </g>
   <g id="patch_5">
    <path d="M 173.06642 550.8 
L 198.430057 550.8 
L 198.430057 550.8 
L 173.06642 550.8 
z
" clip-path="url(#pb168f56f12)" style="fill: #ff0000; stroke: #ffffff; stroke-width: 2; stroke-linejoin: miter"/>
   </g>
   <g id="patch_6">
    <path d="M 198.430057 550.8 
L 223.793693 550.8 
L 223.793693 550.8 
L 198.430057 550.8 
z
" clip-path="url(#pb168f56f12)" style="fill: #ff0000; stroke: #ffffff; stroke-width: 2; stroke-linejoin: miter"/>
   </g>
   <g id="patch_7">
    <path d="M 223.793693 550.8 
L 249.15733 550.8 
L 249.15733 499.028571 
L 223.793693 499.028571 
z
" clip-path="url(#pb168f56f12)" style="fill: #ff0000; stroke: #ffffff; stroke-width: 2; stroke-linejoin: miter"/>
   </g>
   <g id="patch_8">
    <path d="M 249.15733 550.8 
L 274.520966 550.8 
L 274.520966 550.8 
L 249.15733 550.8 
z
" clip-path="url(#pb168f56f12)" style="fill: #ff0000; stroke: #ffffff; stroke-width: 2; stroke-linejoin: miter"/>
   </g>
   <g id="patch_9">
    <path d="M 274.520966 550.8 
L 299.884602 550.8 
L 299.884602 550.8 
L 274.520966 550.8 
z
" clip-path="url(#pb168f56f12)" style="fill: #ff0000; stroke: #ffffff; stroke-width: 2; stroke-linejoin: miter"/>
   </g>
   <g id="patch_10">
    <path d="M 299.884602 550.8 
L 325.248239 550.8 
L 325.248239 550.8 
L 299.884602 550.8 
z
" clip-path="url(#pb168f56f12)" style="fill: #ff0000; stroke: #ffffff; stroke-width: 2; stroke-linejoin: miter"/>
   </g>
   <g id="patch_11">
    <path d="M 325.248239 550.8 
L 350.611875 550.8 
L 350.611875 550.8 
L 325.248239 550.8 
z
" clip-path="url(#pb168f56f12)" style="fill: #ff0000; stroke: #ffffff; stroke-width: 2; stroke-linejoin: miter"/>
   </g>
   <g id="patch_12">
    <path d="M 350.611875 550.8 
L 375.975511 550.8 
L 375.975511 550.8 
L 350.611875 550.8 
z
" clip-path="url(#pb168f56f12)" style="fill: #ff0000; stroke: #ffffff; stroke-width: 2; stroke-linejoin: miter"/>
   </g>
   <g id="patch_13">
    <path d="M 375.975511 550.8 
L 401.339148 550.8 
L 401.339148 499.028571 
L 375.975511 499.028571 
z
" clip-path="url(#pb168f56f12)" style="fill: #ff0000; stroke: #ffffff; stroke-width: 2; stroke-linejoin: miter"/>
   </g>
   <g id="patch_14">
    <path d="M 401.339148 550.8 
L 426.702784 550.8 
L 426.702784 550.8 
L 401.339148 550.8 
z
" clip-path="url(#pb168f56f12)" style="fill: #ff0000; stroke: #ffffff; stroke-width: 2; stroke-linejoin: miter"/>
   </g>
   <g id="patch_15">
    <path d="M 426.702784 550.8 
L 452.06642 550.8 
L 452.06642 550.8 
L 426.702784 550.8 
z
" clip-path="url(#pb168f56f12)" style="fill: #ff0000; stroke: #ffffff; stroke-width: 2; stroke-linejoin: miter"/>
   </g>
   <g id="patch_16">
    <path d="M 452.06642 550.8 
L 477.430057 550.8 
L 477.430057 550.8 
L 452.06642 550.8 
z
" clip-path="url(#pb168f56f12)" style="fill: #ff0000; stroke: #ffffff; stroke-width: 2; stroke-linejoin: miter"/>
   </g>
   <g id="patch_17">
    <path d="M 477.430057 550.8 
L 502.793693 550.8 
L 502.793693 550.8 
L 477.430057 550.8 
z
" clip-path="url(#pb168f56f12)" style="fill: #ff0000; stroke: #ffffff; stroke-width: 2; stroke-linejoin: miter"/>
   </g>
   <g id="patch_18">
    <path d="M 502.793693 550.8 
L 528.15733 550.8 
L 528.15733 499.028571 
L 502.793693 499.028571 
z
" clip-path="url(#pb168f56f12)" style="fill: #ff0000; stroke: #ffffff; stroke-width: 2; stroke-linejoin: miter"/>
   </g>
   <g id="patch_19">
    <path d="M 528.15733 550.8 
L 553.520966 550.8 
L 553.520966 550.8 
L 528.15733 550.8 
z
" clip-path="url(#pb168f56f12)" style="fill: #ff0000; stroke: #ffffff; stroke-width: 2; stroke-linejoin: miter"/>
   </g>
   <g id="patch_20">
    <path d="M 553.520966 550.8 
L 578.884602 550.8 
L 578.884602 447.257143 
L 553.520966 447.257143 
z
" clip-path="url(#pb168f56f12)" style="fill: #ff0000; stroke: #ffffff; stroke-width: 2; stroke-linejoin: miter"/>
   </g>
   <g id="patch_21">
    <path d="M 578.884602 550.8 
L 604.248239 550.8 
L 604.248239 499.028571 
L 578.884602 499.028571 
z
" clip-path="url(#pb168f56f12)" style="fill: #ff0000; stroke: #ffffff; stroke-width: 2; stroke-linejoin: miter"/>
   </g>
   <g id="patch_22">
    <path d="M 604.248239 550.8 
L 629.611875 550.8 
L 629.611875 499.028571 
L 604.248239 499.028571 
z
" clip-path="url(#pb168f56f12)" style="fill: #ff0000; stroke: #ffffff; stroke-width: 2; stroke-linejoin: miter"/>
   </g>
   <g id="patch_23">
    <path d="M 629.611875 550.8 
L 654.975511 550.8 
L 654.975511 550.8 
L 629.611875 550.8 
z
" clip-path="url(#pb168f56f12)" style="fill: #ff0000; stroke: #ffffff; stroke-width: 2; stroke-linejoin: miter"/>
   </g>
   <g id="patch_24">
    <path d="M 654.975511 550.8 
L 680.339148 550.8 
L 680.339148 447.257143 
L 654.975511 447.257143 
z
" clip-path="url(#pb168f56f12)" style="fill: #ff0000; stroke: #ffffff; stroke-width: 2; stroke-linejoin: miter"/>
   </g>
   <g id="patch_25">
    <path d="M 680.339148 550.8 
L 705.702784 550.8 
L 705.702784 550.8 
L 680.339148 550.8 
z
" clip-path="url(#pb168f56f12)" style="fill: #ff0000; stroke: #ffffff; stroke-width: 2; stroke-linejoin: miter"/>
   </g>
   <g id="patch_26">
    <path d="M 705.702784 550.8 
L 731.06642 550.8 
L 731.06642 447.257143 
L 705.702784 447.257143 
z
" clip-path="url(#pb168f56f12)" style="fill: #ff0000; stroke: #ffffff; stroke-width: 2; stroke-linejoin: miter"/>
   </g>
   <g id="patch_27">
    <path d="M 731.06642 550.8 
L 756.430057 550.8 
L 756.430057 395.485714 
L 731.06642 395.485714 
z
" clip-path="url(#pb168f56f12)" style="fill: #ff0000; stroke: #ffffff; stroke-width: 2; stroke-linejoin: miter"/>
   </g>
   <g id="patch_28">
    <path d="M 756.430057 550.8 
L 781.793693 550.8 
L 781.793693 447.257143 
L 756.430057 447.257143 
z
" clip-path="url(#pb168f56f12)" style="fill: #ff0000; stroke: #ffffff; stroke-width: 2; stroke-linejoin: miter"/>
   </g>
   <g id="patch_29">
    <path d="M 781.793693 550.8 
L 807.15733 550.8 
L 807.15733 499.028571 
L 781.793693 499.028571 
z
" clip-path="url(#pb168f56f12)" style="fill: #ff0000; stroke: #ffffff; stroke-width: 2; stroke-linejoin: miter"/>
   </g>
   <g id="patch_30">
    <path d="M 807.15733 550.8 
L 832.520966 550.8 
L 832.520966 499.028571 
L 807.15733 499.028571 
z
" clip-path="url(#pb168f56f12)" style="fill: #ff0000; stroke: #ffffff; stroke-width: 2; stroke-linejoin: miter"/>
   </g>
   <g id="patch_31">
    <path d="M 832.520966 550.8 
L 857.884602 550.8 
L 857.884602 499.028571 
L 832.520966 499.028571 
z
" clip-path="url(#pb168f56f12)" style="fill: #ff0000; stroke: #ffffff; stroke-width: 2; stroke-linejoin: miter"/>
   </g>
   <g id="patch_32">
    <path d="M 857.884602 550.8 
L 883.248239 550.8 
L 883.248239 291.942857 
L 857.884602 291.942857 
z
" clip-path="url(#pb168f56f12)" style="fill: #ff0000; stroke: #ffffff; stroke-width: 2; stroke-linejoin: miter"/>
   </g>
   <g id="patch_33">
    <path d="M 883.248239 550.8 
L 908.611875 550.8 
L 908.611875 447.257143 
L 883.248239 447.257143 
z
" clip-path="url(#pb168f56f12)" style="fill: #ff0000; stroke: #ffffff; stroke-width: 2; stroke-linejoin: miter"/>
   </g>
   <g id="patch_34">
    <path d="M 908.611875 550.8 
L 933.975511 550.8 
L 933.975511 499.028571 
L 908.611875 499.028571 
z
" clip-path="url(#pb168f56f12)" style="fill: #ff0000; stroke: #ffffff; stroke-width: 2; stroke-linejoin: miter"/>
   </g>
   <g id="patch_35">
    <path d="M 933.975511 550.8 
L 959.339148 550.8 
L 959.339148 343.714286 
L 933.975511 343.714286 
z
" clip-path="url(#pb168f56f12)" style="fill: #ff0000; stroke: #ffffff; stroke-width: 2; stroke-linejoin: miter"/>
   </g>
   <g id="patch_36">
    <path d="M 959.339148 550.8 
L 984.702784 550.8 
L 984.702784 188.4 
L 959.339148 188.4 
z
" clip-path="url(#pb168f56f12)" style="fill: #ff0000; stroke: #ffffff; stroke-width: 2; stroke-linejoin: miter"/>
   </g>
   <g id="patch_37">
    <path d="M 984.702784 550.8 
L 1010.06642 550.8 
L 1010.06642 188.4 
L 984.702784 188.4 
z
" clip-path="url(#pb168f56f12)" style="fill: #ff0000; stroke: #ffffff; stroke-width: 2; stroke-linejoin: miter"/>
   </g>
   <g id="patch_38">
    <path d="M 1010.06642 550.8 
L 1035.430057 550.8 
L 1035.430057 33.085714 
L 1010.06642 33.085714 
z
" clip-path="url(#pb168f56f12)" style="fill: #ff0000; stroke: #ffffff; stroke-width: 2; stroke-linejoin: miter"/>
   </g>
   <g id="patch_39">
    <path d="M 1035.430057 550.8 
L 1060.793693 550.8 
L 1060.793693 291.942857 
L 1035.430057 291.942857 
z
" clip-path="url(#pb168f56f12)" style="fill: #ff0000; stroke: #ffffff; stroke-width: 2; stroke-linejoin: miter"/>
   </g>
   <g id="patch_40">
    <path d="M 1060.793693 550.8 
L 1086.15733 550.8 
L 1086.15733 395.485714 
L 1060.793693 395.485714 
z
" clip-path="url(#pb168f56f12)" style="fill: #ff0000; stroke: #ffffff; stroke-width: 2; stroke-linejoin: miter"/>
   </g>
   <g id="patch_41">
    <path d="M 1086.15733 550.8 
L 1111.520966 550.8 
L 1111.520966 499.028571 
L 1086.15733 499.028571 
z
" clip-path="url(#pb168f56f12)" style="fill: #ff0000; stroke: #ffffff; stroke-width: 2; stroke-linejoin: miter"/>
   </g>
   <g id="patch_42">
    <path d="M 1111.520966 550.8 
L 1136.884602 550.8 
L 1136.884602 447.257143 
L 1111.520966 447.257143 
z
" clip-path="url(#pb168f56f12)" style="fill: #ff0000; stroke: #ffffff; stroke-width: 2; stroke-linejoin: miter"/>
   </g>
   <g id="patch_43">
    <path d="M 71.611875 550.8 
L 71.611875 7.2 
" style="fill: none; stroke: #262626; stroke-width: 2.5; stroke-linejoin: miter; stroke-linecap: square"/>
   </g>
   <g id="patch_44">
    <path d="M 1187.611875 550.8 
L 1187.611875 7.2 
" style="fill: none; stroke: #262626; stroke-width: 2.5; stroke-linejoin: miter; stroke-linecap: square"/>
   </g>
   <g id="patch_45">
    <path d="M 71.611875 550.8 
L 1187.611875 550.8 
" style="fill: none; stroke: #262626; stroke-width: 2.5; stroke-linejoin: miter; stroke-linecap: square"/>
   </g>
   <g id="patch_46">
    <path d="M 71.611875 7.2 
L 1187.611875 7.2 
" style="fill: none; stroke: #262626; stroke-width: 2.5; stroke-linejoin: miter; stroke-linecap: square"/>
   </g>
  </g>
 </g>
 <defs>
  <clipPath id="pb168f56f12">
   <rect x="71.611875" y="7.2" width="1116" height="543.6"/>
  </clipPath>
 </defs>
</svg>
