<?xml version="1.0" encoding="utf-8" standalone="no"?>
<!DOCTYPE svg PUBLIC "-//W3C//DTD SVG 1.1//EN"
  "http://www.w3.org/Graphics/SVG/1.1/DTD/svg11.dtd">
<svg height="2096.419062pt" version="1.1" viewBox="0 0 2096.630469 2096.419062" width="2096.630469pt" xmlns="http://www.w3.org/2000/svg" xmlns:xlink="http://www.w3.org/1999/xlink">
 <metadata>
  <rdf:RDF xmlns:cc="http://creativecommons.org/ns#" xmlns:dc="http://purl.org/dc/elements/1.1/" xmlns:rdf="http://www.w3.org/1999/02/22-rdf-syntax-ns#">
   <cc:Work>
    <dc:type rdf:resource="http://purl.org/dc/dcmitype/StillImage"/>
    <dc:date>2022-01-06T12:11:44.704879</dc:date>
    <dc:format>image/svg+xml</dc:format>
    <dc:creator>
     <cc:Agent>
      <dc:title>Matplotlib v3.4.3, https://matplotlib.org/</dc:title>
     </cc:Agent>
    </dc:creator>
   </cc:Work>
  </rdf:RDF>
 </metadata>
 <defs>
  <style type="text/css">*{stroke-linecap:butt;stroke-linejoin:round;}</style>
 </defs>
 <g id="figure_1">
  <g id="patch_1">
   <path d="M 0 2096.419062 
L 2096.630469 2096.419062 
L 2096.630469 0 
L 0 0 
z
" style="fill:#ffffff;"/>
  </g>
  <g id="axes_1">
   <g id="patch_2">
    <path d="M 379.940469 961.38 
L 2089.430469 961.38 
L 2089.430469 7.2 
L 379.940469 7.2 
z
" style="fill:#ffffff;"/>
   </g>
   <g id="matplotlib.axis_1">
    <g id="xtick_1">
     <g id="line2d_1">
      <path clip-path="url(#pc500f96f8a)" d="M 379.940469 961.38 
L 379.940469 7.2 
" style="fill:none;stroke:#cccccc;stroke-linecap:round;stroke-width:2;"/>
     </g>
     <g id="text_1">
      <!-- 0.0 -->
      <g style="fill:#262626;" transform="translate(353.700312 1001.954844)scale(0.33 -0.33)">
       <defs>
        <path d="M 2034 4250 
Q 1547 4250 1301 3770 
Q 1056 3291 1056 2328 
Q 1056 1369 1301 889 
Q 1547 409 2034 409 
Q 2525 409 2770 889 
Q 3016 1369 3016 2328 
Q 3016 3291 2770 3770 
Q 2525 4250 2034 4250 
z
M 2034 4750 
Q 2819 4750 3233 4129 
Q 3647 3509 3647 2328 
Q 3647 1150 3233 529 
Q 2819 -91 2034 -91 
Q 1250 -91 836 529 
Q 422 1150 422 2328 
Q 422 3509 836 4129 
Q 1250 4750 2034 4750 
z
" id="DejaVuSans-30" transform="scale(0.015625)"/>
        <path d="M 684 794 
L 1344 794 
L 1344 0 
L 684 0 
L 684 794 
z
" id="DejaVuSans-2e" transform="scale(0.015625)"/>
       </defs>
       <use xlink:href="#DejaVuSans-30"/>
       <use x="63.623047" xlink:href="#DejaVuSans-2e"/>
       <use x="95.410156" xlink:href="#DejaVuSans-30"/>
      </g>
     </g>
    </g>
    <g id="xtick_2">
     <g id="line2d_2">
      <path clip-path="url(#pc500f96f8a)" d="M 594.162273 961.38 
L 594.162273 7.2 
" style="fill:none;stroke:#cccccc;stroke-linecap:round;stroke-width:2;"/>
     </g>
     <g id="text_2">
      <!-- 2.5 -->
      <g style="fill:#262626;" transform="translate(567.922117 1001.954844)scale(0.33 -0.33)">
       <defs>
        <path d="M 1228 531 
L 3431 531 
L 3431 0 
L 469 0 
L 469 531 
Q 828 903 1448 1529 
Q 2069 2156 2228 2338 
Q 2531 2678 2651 2914 
Q 2772 3150 2772 3378 
Q 2772 3750 2511 3984 
Q 2250 4219 1831 4219 
Q 1534 4219 1204 4116 
Q 875 4013 500 3803 
L 500 4441 
Q 881 4594 1212 4672 
Q 1544 4750 1819 4750 
Q 2544 4750 2975 4387 
Q 3406 4025 3406 3419 
Q 3406 3131 3298 2873 
Q 3191 2616 2906 2266 
Q 2828 2175 2409 1742 
Q 1991 1309 1228 531 
z
" id="DejaVuSans-32" transform="scale(0.015625)"/>
        <path d="M 691 4666 
L 3169 4666 
L 3169 4134 
L 1269 4134 
L 1269 2991 
Q 1406 3038 1543 3061 
Q 1681 3084 1819 3084 
Q 2600 3084 3056 2656 
Q 3513 2228 3513 1497 
Q 3513 744 3044 326 
Q 2575 -91 1722 -91 
Q 1428 -91 1123 -41 
Q 819 9 494 109 
L 494 744 
Q 775 591 1075 516 
Q 1375 441 1709 441 
Q 2250 441 2565 725 
Q 2881 1009 2881 1497 
Q 2881 1984 2565 2268 
Q 2250 2553 1709 2553 
Q 1456 2553 1204 2497 
Q 953 2441 691 2322 
L 691 4666 
z
" id="DejaVuSans-35" transform="scale(0.015625)"/>
       </defs>
       <use xlink:href="#DejaVuSans-32"/>
       <use x="63.623047" xlink:href="#DejaVuSans-2e"/>
       <use x="95.410156" xlink:href="#DejaVuSans-35"/>
      </g>
     </g>
    </g>
    <g id="xtick_3">
     <g id="line2d_3">
      <path clip-path="url(#pc500f96f8a)" d="M 808.384078 961.38 
L 808.384078 7.2 
" style="fill:none;stroke:#cccccc;stroke-linecap:round;stroke-width:2;"/>
     </g>
     <g id="text_3">
      <!-- 5.0 -->
      <g style="fill:#262626;" transform="translate(782.143922 1001.954844)scale(0.33 -0.33)">
       <use xlink:href="#DejaVuSans-35"/>
       <use x="63.623047" xlink:href="#DejaVuSans-2e"/>
       <use x="95.410156" xlink:href="#DejaVuSans-30"/>
      </g>
     </g>
    </g>
    <g id="xtick_4">
     <g id="line2d_4">
      <path clip-path="url(#pc500f96f8a)" d="M 1022.605882 961.38 
L 1022.605882 7.2 
" style="fill:none;stroke:#cccccc;stroke-linecap:round;stroke-width:2;"/>
     </g>
     <g id="text_4">
      <!-- 7.5 -->
      <g style="fill:#262626;" transform="translate(996.365726 1001.954844)scale(0.33 -0.33)">
       <defs>
        <path d="M 525 4666 
L 3525 4666 
L 3525 4397 
L 1831 0 
L 1172 0 
L 2766 4134 
L 525 4134 
L 525 4666 
z
" id="DejaVuSans-37" transform="scale(0.015625)"/>
       </defs>
       <use xlink:href="#DejaVuSans-37"/>
       <use x="63.623047" xlink:href="#DejaVuSans-2e"/>
       <use x="95.410156" xlink:href="#DejaVuSans-35"/>
      </g>
     </g>
    </g>
    <g id="xtick_5">
     <g id="line2d_5">
      <path clip-path="url(#pc500f96f8a)" d="M 1236.827687 961.38 
L 1236.827687 7.2 
" style="fill:none;stroke:#cccccc;stroke-linecap:round;stroke-width:2;"/>
     </g>
     <g id="text_5">
      <!-- 10.0 -->
      <g style="fill:#262626;" transform="translate(1200.089406 1001.954844)scale(0.33 -0.33)">
       <defs>
        <path d="M 794 531 
L 1825 531 
L 1825 4091 
L 703 3866 
L 703 4441 
L 1819 4666 
L 2450 4666 
L 2450 531 
L 3481 531 
L 3481 0 
L 794 0 
L 794 531 
z
" id="DejaVuSans-31" transform="scale(0.015625)"/>
       </defs>
       <use xlink:href="#DejaVuSans-31"/>
       <use x="63.623047" xlink:href="#DejaVuSans-30"/>
       <use x="127.246094" xlink:href="#DejaVuSans-2e"/>
       <use x="159.033203" xlink:href="#DejaVuSans-30"/>
      </g>
     </g>
    </g>
    <g id="xtick_6">
     <g id="line2d_6">
      <path clip-path="url(#pc500f96f8a)" d="M 1451.049491 961.38 
L 1451.049491 7.2 
" style="fill:none;stroke:#cccccc;stroke-linecap:round;stroke-width:2;"/>
     </g>
     <g id="text_6">
      <!-- 12.5 -->
      <g style="fill:#262626;" transform="translate(1414.31121 1001.954844)scale(0.33 -0.33)">
       <use xlink:href="#DejaVuSans-31"/>
       <use x="63.623047" xlink:href="#DejaVuSans-32"/>
       <use x="127.246094" xlink:href="#DejaVuSans-2e"/>
       <use x="159.033203" xlink:href="#DejaVuSans-35"/>
      </g>
     </g>
    </g>
    <g id="xtick_7">
     <g id="line2d_7">
      <path clip-path="url(#pc500f96f8a)" d="M 1665.271296 961.38 
L 1665.271296 7.2 
" style="fill:none;stroke:#cccccc;stroke-linecap:round;stroke-width:2;"/>
     </g>
     <g id="text_7">
      <!-- 15.0 -->
      <g style="fill:#262626;" transform="translate(1628.533015 1001.954844)scale(0.33 -0.33)">
       <use xlink:href="#DejaVuSans-31"/>
       <use x="63.623047" xlink:href="#DejaVuSans-35"/>
       <use x="127.246094" xlink:href="#DejaVuSans-2e"/>
       <use x="159.033203" xlink:href="#DejaVuSans-30"/>
      </g>
     </g>
    </g>
    <g id="xtick_8">
     <g id="line2d_8">
      <path clip-path="url(#pc500f96f8a)" d="M 1879.4931 961.38 
L 1879.4931 7.2 
" style="fill:none;stroke:#cccccc;stroke-linecap:round;stroke-width:2;"/>
     </g>
     <g id="text_8">
      <!-- 17.5 -->
      <g style="fill:#262626;" transform="translate(1842.754819 1001.954844)scale(0.33 -0.33)">
       <use xlink:href="#DejaVuSans-31"/>
       <use x="63.623047" xlink:href="#DejaVuSans-37"/>
       <use x="127.246094" xlink:href="#DejaVuSans-2e"/>
       <use x="159.033203" xlink:href="#DejaVuSans-35"/>
      </g>
     </g>
    </g>
   </g>
   <g id="matplotlib.axis_2">
    <g id="ytick_1">
     <g id="line2d_9">
      <path clip-path="url(#pc500f96f8a)" d="M 379.940469 921.6225 
L 2089.430469 921.6225 
" style="fill:none;stroke:#cccccc;stroke-linecap:round;stroke-width:2;"/>
     </g>
     <g id="text_9">
      <!-- Fab Lab -->
      <g style="fill:#262626;" transform="translate(237.25125 934.159922)scale(0.33 -0.33)">
       <defs>
        <path d="M 628 4666 
L 3309 4666 
L 3309 4134 
L 1259 4134 
L 1259 2759 
L 3109 2759 
L 3109 2228 
L 1259 2228 
L 1259 0 
L 628 0 
L 628 4666 
z
" id="DejaVuSans-46" transform="scale(0.015625)"/>
        <path d="M 2194 1759 
Q 1497 1759 1228 1600 
Q 959 1441 959 1056 
Q 959 750 1161 570 
Q 1363 391 1709 391 
Q 2188 391 2477 730 
Q 2766 1069 2766 1631 
L 2766 1759 
L 2194 1759 
z
M 3341 1997 
L 3341 0 
L 2766 0 
L 2766 531 
Q 2569 213 2275 61 
Q 1981 -91 1556 -91 
Q 1019 -91 701 211 
Q 384 513 384 1019 
Q 384 1609 779 1909 
Q 1175 2209 1959 2209 
L 2766 2209 
L 2766 2266 
Q 2766 2663 2505 2880 
Q 2244 3097 1772 3097 
Q 1472 3097 1187 3025 
Q 903 2953 641 2809 
L 641 3341 
Q 956 3463 1253 3523 
Q 1550 3584 1831 3584 
Q 2591 3584 2966 3190 
Q 3341 2797 3341 1997 
z
" id="DejaVuSans-61" transform="scale(0.015625)"/>
        <path d="M 3116 1747 
Q 3116 2381 2855 2742 
Q 2594 3103 2138 3103 
Q 1681 3103 1420 2742 
Q 1159 2381 1159 1747 
Q 1159 1113 1420 752 
Q 1681 391 2138 391 
Q 2594 391 2855 752 
Q 3116 1113 3116 1747 
z
M 1159 2969 
Q 1341 3281 1617 3432 
Q 1894 3584 2278 3584 
Q 2916 3584 3314 3078 
Q 3713 2572 3713 1747 
Q 3713 922 3314 415 
Q 2916 -91 2278 -91 
Q 1894 -91 1617 61 
Q 1341 213 1159 525 
L 1159 0 
L 581 0 
L 581 4863 
L 1159 4863 
L 1159 2969 
z
" id="DejaVuSans-62" transform="scale(0.015625)"/>
        <path id="DejaVuSans-20" transform="scale(0.015625)"/>
        <path d="M 628 4666 
L 1259 4666 
L 1259 531 
L 3531 531 
L 3531 0 
L 628 0 
L 628 4666 
z
" id="DejaVuSans-4c" transform="scale(0.015625)"/>
       </defs>
       <use xlink:href="#DejaVuSans-46"/>
       <use x="48.394531" xlink:href="#DejaVuSans-61"/>
       <use x="109.673828" xlink:href="#DejaVuSans-62"/>
       <use x="173.150391" xlink:href="#DejaVuSans-20"/>
       <use x="204.9375" xlink:href="#DejaVuSans-4c"/>
       <use x="260.650391" xlink:href="#DejaVuSans-61"/>
       <use x="321.929688" xlink:href="#DejaVuSans-62"/>
      </g>
     </g>
    </g>
    <g id="ytick_2">
     <g id="line2d_10">
      <path clip-path="url(#pc500f96f8a)" d="M 379.940469 842.1075 
L 2089.430469 842.1075 
" style="fill:none;stroke:#cccccc;stroke-linecap:round;stroke-width:2;"/>
     </g>
     <g id="text_10">
      <!-- Makerspace -->
      <g style="fill:#262626;" transform="translate(167.146875 854.644922)scale(0.33 -0.33)">
       <defs>
        <path d="M 628 4666 
L 1569 4666 
L 2759 1491 
L 3956 4666 
L 4897 4666 
L 4897 0 
L 4281 0 
L 4281 4097 
L 3078 897 
L 2444 897 
L 1241 4097 
L 1241 0 
L 628 0 
L 628 4666 
z
" id="DejaVuSans-4d" transform="scale(0.015625)"/>
        <path d="M 581 4863 
L 1159 4863 
L 1159 1991 
L 2875 3500 
L 3609 3500 
L 1753 1863 
L 3688 0 
L 2938 0 
L 1159 1709 
L 1159 0 
L 581 0 
L 581 4863 
z
" id="DejaVuSans-6b" transform="scale(0.015625)"/>
        <path d="M 3597 1894 
L 3597 1613 
L 953 1613 
Q 991 1019 1311 708 
Q 1631 397 2203 397 
Q 2534 397 2845 478 
Q 3156 559 3463 722 
L 3463 178 
Q 3153 47 2828 -22 
Q 2503 -91 2169 -91 
Q 1331 -91 842 396 
Q 353 884 353 1716 
Q 353 2575 817 3079 
Q 1281 3584 2069 3584 
Q 2775 3584 3186 3129 
Q 3597 2675 3597 1894 
z
M 3022 2063 
Q 3016 2534 2758 2815 
Q 2500 3097 2075 3097 
Q 1594 3097 1305 2825 
Q 1016 2553 972 2059 
L 3022 2063 
z
" id="DejaVuSans-65" transform="scale(0.015625)"/>
        <path d="M 2631 2963 
Q 2534 3019 2420 3045 
Q 2306 3072 2169 3072 
Q 1681 3072 1420 2755 
Q 1159 2438 1159 1844 
L 1159 0 
L 581 0 
L 581 3500 
L 1159 3500 
L 1159 2956 
Q 1341 3275 1631 3429 
Q 1922 3584 2338 3584 
Q 2397 3584 2469 3576 
Q 2541 3569 2628 3553 
L 2631 2963 
z
" id="DejaVuSans-72" transform="scale(0.015625)"/>
        <path d="M 2834 3397 
L 2834 2853 
Q 2591 2978 2328 3040 
Q 2066 3103 1784 3103 
Q 1356 3103 1142 2972 
Q 928 2841 928 2578 
Q 928 2378 1081 2264 
Q 1234 2150 1697 2047 
L 1894 2003 
Q 2506 1872 2764 1633 
Q 3022 1394 3022 966 
Q 3022 478 2636 193 
Q 2250 -91 1575 -91 
Q 1294 -91 989 -36 
Q 684 19 347 128 
L 347 722 
Q 666 556 975 473 
Q 1284 391 1588 391 
Q 1994 391 2212 530 
Q 2431 669 2431 922 
Q 2431 1156 2273 1281 
Q 2116 1406 1581 1522 
L 1381 1569 
Q 847 1681 609 1914 
Q 372 2147 372 2553 
Q 372 3047 722 3315 
Q 1072 3584 1716 3584 
Q 2034 3584 2315 3537 
Q 2597 3491 2834 3397 
z
" id="DejaVuSans-73" transform="scale(0.015625)"/>
        <path d="M 1159 525 
L 1159 -1331 
L 581 -1331 
L 581 3500 
L 1159 3500 
L 1159 2969 
Q 1341 3281 1617 3432 
Q 1894 3584 2278 3584 
Q 2916 3584 3314 3078 
Q 3713 2572 3713 1747 
Q 3713 922 3314 415 
Q 2916 -91 2278 -91 
Q 1894 -91 1617 61 
Q 1341 213 1159 525 
z
M 3116 1747 
Q 3116 2381 2855 2742 
Q 2594 3103 2138 3103 
Q 1681 3103 1420 2742 
Q 1159 2381 1159 1747 
Q 1159 1113 1420 752 
Q 1681 391 2138 391 
Q 2594 391 2855 752 
Q 3116 1113 3116 1747 
z
" id="DejaVuSans-70" transform="scale(0.015625)"/>
        <path d="M 3122 3366 
L 3122 2828 
Q 2878 2963 2633 3030 
Q 2388 3097 2138 3097 
Q 1578 3097 1268 2742 
Q 959 2388 959 1747 
Q 959 1106 1268 751 
Q 1578 397 2138 397 
Q 2388 397 2633 464 
Q 2878 531 3122 666 
L 3122 134 
Q 2881 22 2623 -34 
Q 2366 -91 2075 -91 
Q 1284 -91 818 406 
Q 353 903 353 1747 
Q 353 2603 823 3093 
Q 1294 3584 2113 3584 
Q 2378 3584 2631 3529 
Q 2884 3475 3122 3366 
z
" id="DejaVuSans-63" transform="scale(0.015625)"/>
       </defs>
       <use xlink:href="#DejaVuSans-4d"/>
       <use x="86.279297" xlink:href="#DejaVuSans-61"/>
       <use x="147.558594" xlink:href="#DejaVuSans-6b"/>
       <use x="201.84375" xlink:href="#DejaVuSans-65"/>
       <use x="263.367188" xlink:href="#DejaVuSans-72"/>
       <use x="304.480469" xlink:href="#DejaVuSans-73"/>
       <use x="356.580078" xlink:href="#DejaVuSans-70"/>
       <use x="420.056641" xlink:href="#DejaVuSans-61"/>
       <use x="481.335938" xlink:href="#DejaVuSans-63"/>
       <use x="536.316406" xlink:href="#DejaVuSans-65"/>
      </g>
     </g>
    </g>
    <g id="ytick_3">
     <g id="line2d_11">
      <path clip-path="url(#pc500f96f8a)" d="M 379.940469 762.5925 
L 2089.430469 762.5925 
" style="fill:none;stroke:#cccccc;stroke-linecap:round;stroke-width:2;"/>
     </g>
     <g id="text_11">
      <!-- City Space -->
      <g style="fill:#262626;" transform="translate(188.7 775.129922)scale(0.33 -0.33)">
       <defs>
        <path d="M 4122 4306 
L 4122 3641 
Q 3803 3938 3442 4084 
Q 3081 4231 2675 4231 
Q 1875 4231 1450 3742 
Q 1025 3253 1025 2328 
Q 1025 1406 1450 917 
Q 1875 428 2675 428 
Q 3081 428 3442 575 
Q 3803 722 4122 1019 
L 4122 359 
Q 3791 134 3420 21 
Q 3050 -91 2638 -91 
Q 1578 -91 968 557 
Q 359 1206 359 2328 
Q 359 3453 968 4101 
Q 1578 4750 2638 4750 
Q 3056 4750 3426 4639 
Q 3797 4528 4122 4306 
z
" id="DejaVuSans-43" transform="scale(0.015625)"/>
        <path d="M 603 3500 
L 1178 3500 
L 1178 0 
L 603 0 
L 603 3500 
z
M 603 4863 
L 1178 4863 
L 1178 4134 
L 603 4134 
L 603 4863 
z
" id="DejaVuSans-69" transform="scale(0.015625)"/>
        <path d="M 1172 4494 
L 1172 3500 
L 2356 3500 
L 2356 3053 
L 1172 3053 
L 1172 1153 
Q 1172 725 1289 603 
Q 1406 481 1766 481 
L 2356 481 
L 2356 0 
L 1766 0 
Q 1100 0 847 248 
Q 594 497 594 1153 
L 594 3053 
L 172 3053 
L 172 3500 
L 594 3500 
L 594 4494 
L 1172 4494 
z
" id="DejaVuSans-74" transform="scale(0.015625)"/>
        <path d="M 2059 -325 
Q 1816 -950 1584 -1140 
Q 1353 -1331 966 -1331 
L 506 -1331 
L 506 -850 
L 844 -850 
Q 1081 -850 1212 -737 
Q 1344 -625 1503 -206 
L 1606 56 
L 191 3500 
L 800 3500 
L 1894 763 
L 2988 3500 
L 3597 3500 
L 2059 -325 
z
" id="DejaVuSans-79" transform="scale(0.015625)"/>
        <path d="M 3425 4513 
L 3425 3897 
Q 3066 4069 2747 4153 
Q 2428 4238 2131 4238 
Q 1616 4238 1336 4038 
Q 1056 3838 1056 3469 
Q 1056 3159 1242 3001 
Q 1428 2844 1947 2747 
L 2328 2669 
Q 3034 2534 3370 2195 
Q 3706 1856 3706 1288 
Q 3706 609 3251 259 
Q 2797 -91 1919 -91 
Q 1588 -91 1214 -16 
Q 841 59 441 206 
L 441 856 
Q 825 641 1194 531 
Q 1563 422 1919 422 
Q 2459 422 2753 634 
Q 3047 847 3047 1241 
Q 3047 1584 2836 1778 
Q 2625 1972 2144 2069 
L 1759 2144 
Q 1053 2284 737 2584 
Q 422 2884 422 3419 
Q 422 4038 858 4394 
Q 1294 4750 2059 4750 
Q 2388 4750 2728 4690 
Q 3069 4631 3425 4513 
z
" id="DejaVuSans-53" transform="scale(0.015625)"/>
       </defs>
       <use xlink:href="#DejaVuSans-43"/>
       <use x="69.824219" xlink:href="#DejaVuSans-69"/>
       <use x="97.607422" xlink:href="#DejaVuSans-74"/>
       <use x="136.816406" xlink:href="#DejaVuSans-79"/>
       <use x="195.996094" xlink:href="#DejaVuSans-20"/>
       <use x="227.783203" xlink:href="#DejaVuSans-53"/>
       <use x="291.259766" xlink:href="#DejaVuSans-70"/>
       <use x="354.736328" xlink:href="#DejaVuSans-61"/>
       <use x="416.015625" xlink:href="#DejaVuSans-63"/>
       <use x="470.996094" xlink:href="#DejaVuSans-65"/>
      </g>
     </g>
    </g>
    <g id="ytick_4">
     <g id="line2d_12">
      <path clip-path="url(#pc500f96f8a)" d="M 379.940469 683.0775 
L 2089.430469 683.0775 
" style="fill:none;stroke:#cccccc;stroke-linecap:round;stroke-width:2;"/>
     </g>
     <g id="text_12">
      <!-- Hackerspace -->
      <g style="fill:#262626;" transform="translate(152.657812 695.614922)scale(0.33 -0.33)">
       <defs>
        <path d="M 628 4666 
L 1259 4666 
L 1259 2753 
L 3553 2753 
L 3553 4666 
L 4184 4666 
L 4184 0 
L 3553 0 
L 3553 2222 
L 1259 2222 
L 1259 0 
L 628 0 
L 628 4666 
z
" id="DejaVuSans-48" transform="scale(0.015625)"/>
       </defs>
       <use xlink:href="#DejaVuSans-48"/>
       <use x="75.195312" xlink:href="#DejaVuSans-61"/>
       <use x="136.474609" xlink:href="#DejaVuSans-63"/>
       <use x="191.455078" xlink:href="#DejaVuSans-6b"/>
       <use x="245.740234" xlink:href="#DejaVuSans-65"/>
       <use x="307.263672" xlink:href="#DejaVuSans-72"/>
       <use x="348.376953" xlink:href="#DejaVuSans-73"/>
       <use x="400.476562" xlink:href="#DejaVuSans-70"/>
       <use x="463.953125" xlink:href="#DejaVuSans-61"/>
       <use x="525.232422" xlink:href="#DejaVuSans-63"/>
       <use x="580.212891" xlink:href="#DejaVuSans-65"/>
      </g>
     </g>
    </g>
    <g id="ytick_5">
     <g id="line2d_13">
      <path clip-path="url(#pc500f96f8a)" d="M 379.940469 603.5625 
L 2089.430469 603.5625 
" style="fill:none;stroke:#cccccc;stroke-linecap:round;stroke-width:2;"/>
     </g>
     <g id="text_13">
      <!-- Ateneu de Fabricació -->
      <g style="fill:#262626;" transform="translate(19.090312 616.099922)scale(0.33 -0.33)">
       <defs>
        <path d="M 2188 4044 
L 1331 1722 
L 3047 1722 
L 2188 4044 
z
M 1831 4666 
L 2547 4666 
L 4325 0 
L 3669 0 
L 3244 1197 
L 1141 1197 
L 716 0 
L 50 0 
L 1831 4666 
z
" id="DejaVuSans-41" transform="scale(0.015625)"/>
        <path d="M 3513 2113 
L 3513 0 
L 2938 0 
L 2938 2094 
Q 2938 2591 2744 2837 
Q 2550 3084 2163 3084 
Q 1697 3084 1428 2787 
Q 1159 2491 1159 1978 
L 1159 0 
L 581 0 
L 581 3500 
L 1159 3500 
L 1159 2956 
Q 1366 3272 1645 3428 
Q 1925 3584 2291 3584 
Q 2894 3584 3203 3211 
Q 3513 2838 3513 2113 
z
" id="DejaVuSans-6e" transform="scale(0.015625)"/>
        <path d="M 544 1381 
L 544 3500 
L 1119 3500 
L 1119 1403 
Q 1119 906 1312 657 
Q 1506 409 1894 409 
Q 2359 409 2629 706 
Q 2900 1003 2900 1516 
L 2900 3500 
L 3475 3500 
L 3475 0 
L 2900 0 
L 2900 538 
Q 2691 219 2414 64 
Q 2138 -91 1772 -91 
Q 1169 -91 856 284 
Q 544 659 544 1381 
z
M 1991 3584 
L 1991 3584 
z
" id="DejaVuSans-75" transform="scale(0.015625)"/>
        <path d="M 2906 2969 
L 2906 4863 
L 3481 4863 
L 3481 0 
L 2906 0 
L 2906 525 
Q 2725 213 2448 61 
Q 2172 -91 1784 -91 
Q 1150 -91 751 415 
Q 353 922 353 1747 
Q 353 2572 751 3078 
Q 1150 3584 1784 3584 
Q 2172 3584 2448 3432 
Q 2725 3281 2906 2969 
z
M 947 1747 
Q 947 1113 1208 752 
Q 1469 391 1925 391 
Q 2381 391 2643 752 
Q 2906 1113 2906 1747 
Q 2906 2381 2643 2742 
Q 2381 3103 1925 3103 
Q 1469 3103 1208 2742 
Q 947 2381 947 1747 
z
" id="DejaVuSans-64" transform="scale(0.015625)"/>
        <path d="M 1959 3097 
Q 1497 3097 1228 2736 
Q 959 2375 959 1747 
Q 959 1119 1226 758 
Q 1494 397 1959 397 
Q 2419 397 2687 759 
Q 2956 1122 2956 1747 
Q 2956 2369 2687 2733 
Q 2419 3097 1959 3097 
z
M 1959 3584 
Q 2709 3584 3137 3096 
Q 3566 2609 3566 1747 
Q 3566 888 3137 398 
Q 2709 -91 1959 -91 
Q 1206 -91 779 398 
Q 353 888 353 1747 
Q 353 2609 779 3096 
Q 1206 3584 1959 3584 
z
M 2394 5119 
L 3016 5119 
L 1998 3944 
L 1519 3944 
L 2394 5119 
z
" id="DejaVuSans-f3" transform="scale(0.015625)"/>
       </defs>
       <use xlink:href="#DejaVuSans-41"/>
       <use x="66.658203" xlink:href="#DejaVuSans-74"/>
       <use x="105.867188" xlink:href="#DejaVuSans-65"/>
       <use x="167.390625" xlink:href="#DejaVuSans-6e"/>
       <use x="230.769531" xlink:href="#DejaVuSans-65"/>
       <use x="292.292969" xlink:href="#DejaVuSans-75"/>
       <use x="355.671875" xlink:href="#DejaVuSans-20"/>
       <use x="387.458984" xlink:href="#DejaVuSans-64"/>
       <use x="450.935547" xlink:href="#DejaVuSans-65"/>
       <use x="512.458984" xlink:href="#DejaVuSans-20"/>
       <use x="544.246094" xlink:href="#DejaVuSans-46"/>
       <use x="592.640625" xlink:href="#DejaVuSans-61"/>
       <use x="653.919922" xlink:href="#DejaVuSans-62"/>
       <use x="717.396484" xlink:href="#DejaVuSans-72"/>
       <use x="758.509766" xlink:href="#DejaVuSans-69"/>
       <use x="786.292969" xlink:href="#DejaVuSans-63"/>
       <use x="841.273438" xlink:href="#DejaVuSans-61"/>
       <use x="902.552734" xlink:href="#DejaVuSans-63"/>
       <use x="957.533203" xlink:href="#DejaVuSans-69"/>
       <use x="985.316406" xlink:href="#DejaVuSans-f3"/>
      </g>
     </g>
    </g>
    <g id="ytick_6">
     <g id="line2d_14">
      <path clip-path="url(#pc500f96f8a)" d="M 379.940469 524.0475 
L 2089.430469 524.0475 
" style="fill:none;stroke:#cccccc;stroke-linecap:round;stroke-width:2;"/>
     </g>
     <g id="text_14">
      <!-- Service -->
      <g style="fill:#262626;" transform="translate(242.469375 536.584922)scale(0.33 -0.33)">
       <defs>
        <path d="M 191 3500 
L 800 3500 
L 1894 563 
L 2988 3500 
L 3597 3500 
L 2284 0 
L 1503 0 
L 191 3500 
z
" id="DejaVuSans-76" transform="scale(0.015625)"/>
       </defs>
       <use xlink:href="#DejaVuSans-53"/>
       <use x="63.476562" xlink:href="#DejaVuSans-65"/>
       <use x="125" xlink:href="#DejaVuSans-72"/>
       <use x="166.113281" xlink:href="#DejaVuSans-76"/>
       <use x="225.292969" xlink:href="#DejaVuSans-69"/>
       <use x="253.076172" xlink:href="#DejaVuSans-63"/>
       <use x="308.056641" xlink:href="#DejaVuSans-65"/>
      </g>
     </g>
    </g>
    <g id="ytick_7">
     <g id="line2d_15">
      <path clip-path="url(#pc500f96f8a)" d="M 379.940469 444.5325 
L 2089.430469 444.5325 
" style="fill:none;stroke:#cccccc;stroke-linecap:round;stroke-width:2;"/>
     </g>
     <g id="text_15">
      <!-- University Lab -->
      <g style="fill:#262626;" transform="translate(127.928437 457.069922)scale(0.33 -0.33)">
       <defs>
        <path d="M 556 4666 
L 1191 4666 
L 1191 1831 
Q 1191 1081 1462 751 
Q 1734 422 2344 422 
Q 2950 422 3222 751 
Q 3494 1081 3494 1831 
L 3494 4666 
L 4128 4666 
L 4128 1753 
Q 4128 841 3676 375 
Q 3225 -91 2344 -91 
Q 1459 -91 1007 375 
Q 556 841 556 1753 
L 556 4666 
z
" id="DejaVuSans-55" transform="scale(0.015625)"/>
       </defs>
       <use xlink:href="#DejaVuSans-55"/>
       <use x="73.193359" xlink:href="#DejaVuSans-6e"/>
       <use x="136.572266" xlink:href="#DejaVuSans-69"/>
       <use x="164.355469" xlink:href="#DejaVuSans-76"/>
       <use x="223.535156" xlink:href="#DejaVuSans-65"/>
       <use x="285.058594" xlink:href="#DejaVuSans-72"/>
       <use x="326.171875" xlink:href="#DejaVuSans-73"/>
       <use x="378.271484" xlink:href="#DejaVuSans-69"/>
       <use x="406.054688" xlink:href="#DejaVuSans-74"/>
       <use x="445.263672" xlink:href="#DejaVuSans-79"/>
       <use x="504.443359" xlink:href="#DejaVuSans-20"/>
       <use x="536.230469" xlink:href="#DejaVuSans-4c"/>
       <use x="591.943359" xlink:href="#DejaVuSans-61"/>
       <use x="653.222656" xlink:href="#DejaVuSans-62"/>
      </g>
     </g>
    </g>
    <g id="ytick_8">
     <g id="line2d_16">
      <path clip-path="url(#pc500f96f8a)" d="M 379.940469 365.0175 
L 2089.430469 365.0175 
" style="fill:none;stroke:#cccccc;stroke-linecap:round;stroke-width:2;"/>
     </g>
     <g id="text_16">
      <!-- Incubator/Accelerator -->
      <g style="fill:#262626;" transform="translate(7.2 377.554922)scale(0.33 -0.33)">
       <defs>
        <path d="M 628 4666 
L 1259 4666 
L 1259 0 
L 628 0 
L 628 4666 
z
" id="DejaVuSans-49" transform="scale(0.015625)"/>
        <path d="M 1959 3097 
Q 1497 3097 1228 2736 
Q 959 2375 959 1747 
Q 959 1119 1226 758 
Q 1494 397 1959 397 
Q 2419 397 2687 759 
Q 2956 1122 2956 1747 
Q 2956 2369 2687 2733 
Q 2419 3097 1959 3097 
z
M 1959 3584 
Q 2709 3584 3137 3096 
Q 3566 2609 3566 1747 
Q 3566 888 3137 398 
Q 2709 -91 1959 -91 
Q 1206 -91 779 398 
Q 353 888 353 1747 
Q 353 2609 779 3096 
Q 1206 3584 1959 3584 
z
" id="DejaVuSans-6f" transform="scale(0.015625)"/>
        <path d="M 1625 4666 
L 2156 4666 
L 531 -594 
L 0 -594 
L 1625 4666 
z
" id="DejaVuSans-2f" transform="scale(0.015625)"/>
        <path d="M 603 4863 
L 1178 4863 
L 1178 0 
L 603 0 
L 603 4863 
z
" id="DejaVuSans-6c" transform="scale(0.015625)"/>
       </defs>
       <use xlink:href="#DejaVuSans-49"/>
       <use x="29.492188" xlink:href="#DejaVuSans-6e"/>
       <use x="92.871094" xlink:href="#DejaVuSans-63"/>
       <use x="147.851562" xlink:href="#DejaVuSans-75"/>
       <use x="211.230469" xlink:href="#DejaVuSans-62"/>
       <use x="274.707031" xlink:href="#DejaVuSans-61"/>
       <use x="335.986328" xlink:href="#DejaVuSans-74"/>
       <use x="375.195312" xlink:href="#DejaVuSans-6f"/>
       <use x="436.376953" xlink:href="#DejaVuSans-72"/>
       <use x="477.490234" xlink:href="#DejaVuSans-2f"/>
       <use x="511.181641" xlink:href="#DejaVuSans-41"/>
       <use x="577.839844" xlink:href="#DejaVuSans-63"/>
       <use x="632.820312" xlink:href="#DejaVuSans-63"/>
       <use x="687.800781" xlink:href="#DejaVuSans-65"/>
       <use x="749.324219" xlink:href="#DejaVuSans-6c"/>
       <use x="777.107422" xlink:href="#DejaVuSans-65"/>
       <use x="838.630859" xlink:href="#DejaVuSans-72"/>
       <use x="879.744141" xlink:href="#DejaVuSans-61"/>
       <use x="941.023438" xlink:href="#DejaVuSans-74"/>
       <use x="980.232422" xlink:href="#DejaVuSans-6f"/>
       <use x="1041.414062" xlink:href="#DejaVuSans-72"/>
      </g>
     </g>
    </g>
    <g id="ytick_9">
     <g id="line2d_17">
      <path clip-path="url(#pc500f96f8a)" d="M 379.940469 285.5025 
L 2089.430469 285.5025 
" style="fill:none;stroke:#cccccc;stroke-linecap:round;stroke-width:2;"/>
     </g>
     <g id="text_17">
      <!-- DIYBio Lab -->
      <g style="fill:#262626;" transform="translate(187.09125 298.039922)scale(0.33 -0.33)">
       <defs>
        <path d="M 1259 4147 
L 1259 519 
L 2022 519 
Q 2988 519 3436 956 
Q 3884 1394 3884 2338 
Q 3884 3275 3436 3711 
Q 2988 4147 2022 4147 
L 1259 4147 
z
M 628 4666 
L 1925 4666 
Q 3281 4666 3915 4102 
Q 4550 3538 4550 2338 
Q 4550 1131 3912 565 
Q 3275 0 1925 0 
L 628 0 
L 628 4666 
z
" id="DejaVuSans-44" transform="scale(0.015625)"/>
        <path d="M -13 4666 
L 666 4666 
L 1959 2747 
L 3244 4666 
L 3922 4666 
L 2272 2222 
L 2272 0 
L 1638 0 
L 1638 2222 
L -13 4666 
z
" id="DejaVuSans-59" transform="scale(0.015625)"/>
        <path d="M 1259 2228 
L 1259 519 
L 2272 519 
Q 2781 519 3026 730 
Q 3272 941 3272 1375 
Q 3272 1813 3026 2020 
Q 2781 2228 2272 2228 
L 1259 2228 
z
M 1259 4147 
L 1259 2741 
L 2194 2741 
Q 2656 2741 2882 2914 
Q 3109 3088 3109 3444 
Q 3109 3797 2882 3972 
Q 2656 4147 2194 4147 
L 1259 4147 
z
M 628 4666 
L 2241 4666 
Q 2963 4666 3353 4366 
Q 3744 4066 3744 3513 
Q 3744 3084 3544 2831 
Q 3344 2578 2956 2516 
Q 3422 2416 3680 2098 
Q 3938 1781 3938 1306 
Q 3938 681 3513 340 
Q 3088 0 2303 0 
L 628 0 
L 628 4666 
z
" id="DejaVuSans-42" transform="scale(0.015625)"/>
       </defs>
       <use xlink:href="#DejaVuSans-44"/>
       <use x="77.001953" xlink:href="#DejaVuSans-49"/>
       <use x="106.494141" xlink:href="#DejaVuSans-59"/>
       <use x="167.578125" xlink:href="#DejaVuSans-42"/>
       <use x="236.181641" xlink:href="#DejaVuSans-69"/>
       <use x="263.964844" xlink:href="#DejaVuSans-6f"/>
       <use x="325.146484" xlink:href="#DejaVuSans-20"/>
       <use x="356.933594" xlink:href="#DejaVuSans-4c"/>
       <use x="412.646484" xlink:href="#DejaVuSans-61"/>
       <use x="473.925781" xlink:href="#DejaVuSans-62"/>
      </g>
     </g>
    </g>
    <g id="ytick_10">
     <g id="line2d_18">
      <path clip-path="url(#pc500f96f8a)" d="M 379.940469 205.9875 
L 2089.430469 205.9875 
" style="fill:none;stroke:#cccccc;stroke-linecap:round;stroke-width:2;"/>
     </g>
     <g id="text_18">
      <!-- Foundation -->
      <g style="fill:#262626;" transform="translate(180.254062 218.524922)scale(0.33 -0.33)">
       <use xlink:href="#DejaVuSans-46"/>
       <use x="53.894531" xlink:href="#DejaVuSans-6f"/>
       <use x="115.076172" xlink:href="#DejaVuSans-75"/>
       <use x="178.455078" xlink:href="#DejaVuSans-6e"/>
       <use x="241.833984" xlink:href="#DejaVuSans-64"/>
       <use x="305.310547" xlink:href="#DejaVuSans-61"/>
       <use x="366.589844" xlink:href="#DejaVuSans-74"/>
       <use x="405.798828" xlink:href="#DejaVuSans-69"/>
       <use x="433.582031" xlink:href="#DejaVuSans-6f"/>
       <use x="494.763672" xlink:href="#DejaVuSans-6e"/>
      </g>
     </g>
    </g>
    <g id="ytick_11">
     <g id="line2d_19">
      <path clip-path="url(#pc500f96f8a)" d="M 379.940469 126.4725 
L 2089.430469 126.4725 
" style="fill:none;stroke:#cccccc;stroke-linecap:round;stroke-width:2;"/>
     </g>
     <g id="text_19">
      <!-- Library -->
      <g style="fill:#262626;" transform="translate(249.04875 139.009922)scale(0.33 -0.33)">
       <use xlink:href="#DejaVuSans-4c"/>
       <use x="55.712891" xlink:href="#DejaVuSans-69"/>
       <use x="83.496094" xlink:href="#DejaVuSans-62"/>
       <use x="146.972656" xlink:href="#DejaVuSans-72"/>
       <use x="188.085938" xlink:href="#DejaVuSans-61"/>
       <use x="249.365234" xlink:href="#DejaVuSans-72"/>
       <use x="290.478516" xlink:href="#DejaVuSans-79"/>
      </g>
     </g>
    </g>
    <g id="ytick_12">
     <g id="line2d_20">
      <path clip-path="url(#pc500f96f8a)" d="M 379.940469 46.9575 
L 2089.430469 46.9575 
" style="fill:none;stroke:#cccccc;stroke-linecap:round;stroke-width:2;"/>
     </g>
     <g id="text_20">
      <!-- FabCafé -->
      <g style="fill:#262626;" transform="translate(232.110469 59.494922)scale(0.33 -0.33)">
       <defs>
        <path d="M 2375 4863 
L 2375 4384 
L 1825 4384 
Q 1516 4384 1395 4259 
Q 1275 4134 1275 3809 
L 1275 3500 
L 2222 3500 
L 2222 3053 
L 1275 3053 
L 1275 0 
L 697 0 
L 697 3053 
L 147 3053 
L 147 3500 
L 697 3500 
L 697 3744 
Q 697 4328 969 4595 
Q 1241 4863 1831 4863 
L 2375 4863 
z
" id="DejaVuSans-66" transform="scale(0.015625)"/>
        <path d="M 3597 1894 
L 3597 1613 
L 953 1613 
Q 991 1019 1311 708 
Q 1631 397 2203 397 
Q 2534 397 2845 478 
Q 3156 559 3463 722 
L 3463 178 
Q 3153 47 2828 -22 
Q 2503 -91 2169 -91 
Q 1331 -91 842 396 
Q 353 884 353 1716 
Q 353 2575 817 3079 
Q 1281 3584 2069 3584 
Q 2775 3584 3186 3129 
Q 3597 2675 3597 1894 
z
M 3022 2063 
Q 3016 2534 2758 2815 
Q 2500 3097 2075 3097 
Q 1594 3097 1305 2825 
Q 1016 2553 972 2059 
L 3022 2063 
z
M 2466 5119 
L 3088 5119 
L 2070 3944 
L 1591 3944 
L 2466 5119 
z
" id="DejaVuSans-e9" transform="scale(0.015625)"/>
       </defs>
       <use xlink:href="#DejaVuSans-46"/>
       <use x="48.394531" xlink:href="#DejaVuSans-61"/>
       <use x="109.673828" xlink:href="#DejaVuSans-62"/>
       <use x="173.150391" xlink:href="#DejaVuSans-43"/>
       <use x="242.974609" xlink:href="#DejaVuSans-61"/>
       <use x="304.253906" xlink:href="#DejaVuSans-66"/>
       <use x="339.458984" xlink:href="#DejaVuSans-e9"/>
      </g>
     </g>
    </g>
   </g>
   <g id="patch_3">
    <path clip-path="url(#pc500f96f8a)" d="M 379.940469 941.50125 
L 2008.026183 941.50125 
L 2008.026183 901.74375 
L 379.940469 901.74375 
z
" style="fill:#1f77b4;stroke:#ffffff;stroke-linejoin:miter;stroke-width:2;"/>
   </g>
   <g id="patch_4">
    <path clip-path="url(#pc500f96f8a)" d="M 379.940469 861.98625 
L 1322.516409 861.98625 
L 1322.516409 822.22875 
L 379.940469 822.22875 
z
" style="fill:#1f77b4;stroke:#ffffff;stroke-linejoin:miter;stroke-width:2;"/>
   </g>
   <g id="patch_5">
    <path clip-path="url(#pc500f96f8a)" d="M 379.940469 782.47125 
L 979.761521 782.47125 
L 979.761521 742.71375 
L 379.940469 742.71375 
z
" style="fill:#1f77b4;stroke:#ffffff;stroke-linejoin:miter;stroke-width:2;"/>
   </g>
   <g id="patch_6">
    <path clip-path="url(#pc500f96f8a)" d="M 379.940469 702.95625 
L 894.0728 702.95625 
L 894.0728 663.19875 
L 379.940469 663.19875 
z
" style="fill:#1f77b4;stroke:#ffffff;stroke-linejoin:miter;stroke-width:2;"/>
   </g>
   <g id="patch_7">
    <path clip-path="url(#pc500f96f8a)" d="M 379.940469 623.44125 
L 894.0728 623.44125 
L 894.0728 583.68375 
L 379.940469 583.68375 
z
" style="fill:#1f77b4;stroke:#ffffff;stroke-linejoin:miter;stroke-width:2;"/>
   </g>
   <g id="patch_8">
    <path clip-path="url(#pc500f96f8a)" d="M 379.940469 543.92625 
L 722.695356 543.92625 
L 722.695356 504.16875 
L 379.940469 504.16875 
z
" style="fill:#1f77b4;stroke:#ffffff;stroke-linejoin:miter;stroke-width:2;"/>
   </g>
   <g id="patch_9">
    <path clip-path="url(#pc500f96f8a)" d="M 379.940469 464.41125 
L 722.695356 464.41125 
L 722.695356 424.65375 
L 379.940469 424.65375 
z
" style="fill:#1f77b4;stroke:#ffffff;stroke-linejoin:miter;stroke-width:2;"/>
   </g>
   <g id="patch_10">
    <path clip-path="url(#pc500f96f8a)" d="M 379.940469 384.89625 
L 722.695356 384.89625 
L 722.695356 345.13875 
L 379.940469 345.13875 
z
" style="fill:#1f77b4;stroke:#ffffff;stroke-linejoin:miter;stroke-width:2;"/>
   </g>
   <g id="patch_11">
    <path clip-path="url(#pc500f96f8a)" d="M 379.940469 305.38125 
L 637.006634 305.38125 
L 637.006634 265.62375 
L 379.940469 265.62375 
z
" style="fill:#1f77b4;stroke:#ffffff;stroke-linejoin:miter;stroke-width:2;"/>
   </g>
   <g id="patch_12">
    <path clip-path="url(#pc500f96f8a)" d="M 379.940469 225.86625 
L 551.317912 225.86625 
L 551.317912 186.10875 
L 379.940469 186.10875 
z
" style="fill:#1f77b4;stroke:#ffffff;stroke-linejoin:miter;stroke-width:2;"/>
   </g>
   <g id="patch_13">
    <path clip-path="url(#pc500f96f8a)" d="M 379.940469 146.35125 
L 465.629191 146.35125 
L 465.629191 106.59375 
L 379.940469 106.59375 
z
" style="fill:#1f77b4;stroke:#ffffff;stroke-linejoin:miter;stroke-width:2;"/>
   </g>
   <g id="patch_14">
    <path clip-path="url(#pc500f96f8a)" d="M 379.940469 66.83625 
L 465.629191 66.83625 
L 465.629191 27.07875 
L 379.940469 27.07875 
z
" style="fill:#1f77b4;stroke:#ffffff;stroke-linejoin:miter;stroke-width:2;"/>
   </g>
   <g id="patch_15">
    <path d="M 379.940469 961.38 
L 379.940469 7.2 
" style="fill:none;stroke:#cccccc;stroke-linecap:square;stroke-linejoin:miter;stroke-width:2.5;"/>
   </g>
   <g id="patch_16">
    <path d="M 2089.430469 961.38 
L 2089.430469 7.2 
" style="fill:none;stroke:#cccccc;stroke-linecap:square;stroke-linejoin:miter;stroke-width:2.5;"/>
   </g>
   <g id="patch_17">
    <path d="M 379.940469 961.38 
L 2089.430469 961.38 
" style="fill:none;stroke:#cccccc;stroke-linecap:square;stroke-linejoin:miter;stroke-width:2.5;"/>
   </g>
   <g id="patch_18">
    <path d="M 379.940469 7.2 
L 2089.430469 7.2 
" style="fill:none;stroke:#cccccc;stroke-linecap:square;stroke-linejoin:miter;stroke-width:2.5;"/>
   </g>
   <g id="text_21">
    <!-- 19 -->
    <g style="fill:#262626;" transform="translate(2011.026183 929.34875)scale(0.28 -0.28)">
     <defs>
      <path d="M 703 97 
L 703 672 
Q 941 559 1184 500 
Q 1428 441 1663 441 
Q 2288 441 2617 861 
Q 2947 1281 2994 2138 
Q 2813 1869 2534 1725 
Q 2256 1581 1919 1581 
Q 1219 1581 811 2004 
Q 403 2428 403 3163 
Q 403 3881 828 4315 
Q 1253 4750 1959 4750 
Q 2769 4750 3195 4129 
Q 3622 3509 3622 2328 
Q 3622 1225 3098 567 
Q 2575 -91 1691 -91 
Q 1453 -91 1209 -44 
Q 966 3 703 97 
z
M 1959 2075 
Q 2384 2075 2632 2365 
Q 2881 2656 2881 3163 
Q 2881 3666 2632 3958 
Q 2384 4250 1959 4250 
Q 1534 4250 1286 3958 
Q 1038 3666 1038 3163 
Q 1038 2656 1286 2365 
Q 1534 2075 1959 2075 
z
" id="DejaVuSans-39" transform="scale(0.015625)"/>
     </defs>
     <use xlink:href="#DejaVuSans-31"/>
     <use x="63.623047" xlink:href="#DejaVuSans-39"/>
    </g>
   </g>
   <g id="text_22">
    <!-- 11 -->
    <g style="fill:#262626;" transform="translate(1325.516409 849.83375)scale(0.28 -0.28)">
     <use xlink:href="#DejaVuSans-31"/>
     <use x="63.623047" xlink:href="#DejaVuSans-31"/>
    </g>
   </g>
   <g id="text_23">
    <!-- 7 -->
    <g style="fill:#262626;" transform="translate(982.761521 770.31875)scale(0.28 -0.28)">
     <use xlink:href="#DejaVuSans-37"/>
    </g>
   </g>
   <g id="text_24">
    <!-- 6 -->
    <g style="fill:#262626;" transform="translate(897.0728 690.80375)scale(0.28 -0.28)">
     <defs>
      <path d="M 2113 2584 
Q 1688 2584 1439 2293 
Q 1191 2003 1191 1497 
Q 1191 994 1439 701 
Q 1688 409 2113 409 
Q 2538 409 2786 701 
Q 3034 994 3034 1497 
Q 3034 2003 2786 2293 
Q 2538 2584 2113 2584 
z
M 3366 4563 
L 3366 3988 
Q 3128 4100 2886 4159 
Q 2644 4219 2406 4219 
Q 1781 4219 1451 3797 
Q 1122 3375 1075 2522 
Q 1259 2794 1537 2939 
Q 1816 3084 2150 3084 
Q 2853 3084 3261 2657 
Q 3669 2231 3669 1497 
Q 3669 778 3244 343 
Q 2819 -91 2113 -91 
Q 1303 -91 875 529 
Q 447 1150 447 2328 
Q 447 3434 972 4092 
Q 1497 4750 2381 4750 
Q 2619 4750 2861 4703 
Q 3103 4656 3366 4563 
z
" id="DejaVuSans-36" transform="scale(0.015625)"/>
     </defs>
     <use xlink:href="#DejaVuSans-36"/>
    </g>
   </g>
   <g id="text_25">
    <!-- 6 -->
    <g style="fill:#262626;" transform="translate(897.0728 611.28875)scale(0.28 -0.28)">
     <use xlink:href="#DejaVuSans-36"/>
    </g>
   </g>
   <g id="text_26">
    <!-- 4 -->
    <g style="fill:#262626;" transform="translate(725.695356 531.77375)scale(0.28 -0.28)">
     <defs>
      <path d="M 2419 4116 
L 825 1625 
L 2419 1625 
L 2419 4116 
z
M 2253 4666 
L 3047 4666 
L 3047 1625 
L 3713 1625 
L 3713 1100 
L 3047 1100 
L 3047 0 
L 2419 0 
L 2419 1100 
L 313 1100 
L 313 1709 
L 2253 4666 
z
" id="DejaVuSans-34" transform="scale(0.015625)"/>
     </defs>
     <use xlink:href="#DejaVuSans-34"/>
    </g>
   </g>
   <g id="text_27">
    <!-- 4 -->
    <g style="fill:#262626;" transform="translate(725.695356 452.25875)scale(0.28 -0.28)">
     <use xlink:href="#DejaVuSans-34"/>
    </g>
   </g>
   <g id="text_28">
    <!-- 4 -->
    <g style="fill:#262626;" transform="translate(725.695356 372.74375)scale(0.28 -0.28)">
     <use xlink:href="#DejaVuSans-34"/>
    </g>
   </g>
   <g id="text_29">
    <!-- 3 -->
    <g style="fill:#262626;" transform="translate(640.006634 293.22875)scale(0.28 -0.28)">
     <defs>
      <path d="M 2597 2516 
Q 3050 2419 3304 2112 
Q 3559 1806 3559 1356 
Q 3559 666 3084 287 
Q 2609 -91 1734 -91 
Q 1441 -91 1130 -33 
Q 819 25 488 141 
L 488 750 
Q 750 597 1062 519 
Q 1375 441 1716 441 
Q 2309 441 2620 675 
Q 2931 909 2931 1356 
Q 2931 1769 2642 2001 
Q 2353 2234 1838 2234 
L 1294 2234 
L 1294 2753 
L 1863 2753 
Q 2328 2753 2575 2939 
Q 2822 3125 2822 3475 
Q 2822 3834 2567 4026 
Q 2313 4219 1838 4219 
Q 1578 4219 1281 4162 
Q 984 4106 628 3988 
L 628 4550 
Q 988 4650 1302 4700 
Q 1616 4750 1894 4750 
Q 2613 4750 3031 4423 
Q 3450 4097 3450 3541 
Q 3450 3153 3228 2886 
Q 3006 2619 2597 2516 
z
" id="DejaVuSans-33" transform="scale(0.015625)"/>
     </defs>
     <use xlink:href="#DejaVuSans-33"/>
    </g>
   </g>
   <g id="text_30">
    <!-- 2 -->
    <g style="fill:#262626;" transform="translate(554.317912 213.71375)scale(0.28 -0.28)">
     <use xlink:href="#DejaVuSans-32"/>
    </g>
   </g>
   <g id="text_31">
    <!-- 1 -->
    <g style="fill:#262626;" transform="translate(468.629191 134.19875)scale(0.28 -0.28)">
     <use xlink:href="#DejaVuSans-31"/>
    </g>
   </g>
   <g id="text_32">
    <!-- 1 -->
    <g style="fill:#262626;" transform="translate(468.629191 54.68375)scale(0.28 -0.28)">
     <use xlink:href="#DejaVuSans-31"/>
    </g>
   </g>
  </g>
  <g id="axes_2">
   <g id="patch_19">
    <path d="M 379.940469 2002.94 
L 2089.430469 2002.94 
L 2089.430469 1048.76 
L 379.940469 1048.76 
z
" style="fill:#ffffff;"/>
   </g>
   <g id="matplotlib.axis_3">
    <g id="xtick_9">
     <g id="line2d_21">
      <path clip-path="url(#p3566d58de0)" d="M 379.940469 2002.94 
L 379.940469 1048.76 
" style="fill:none;stroke:#cccccc;stroke-linecap:round;stroke-width:2;"/>
     </g>
     <g id="text_33">
      <!-- 0 -->
      <g style="fill:#262626;" transform="translate(369.442344 2043.514844)scale(0.33 -0.33)">
       <use xlink:href="#DejaVuSans-30"/>
      </g>
     </g>
    </g>
    <g id="xtick_10">
     <g id="line2d_22">
      <path clip-path="url(#p3566d58de0)" d="M 675.956053 2002.94 
L 675.956053 1048.76 
" style="fill:none;stroke:#cccccc;stroke-linecap:round;stroke-width:2;"/>
     </g>
     <g id="text_34">
      <!-- 2 -->
      <g style="fill:#262626;" transform="translate(665.457928 2043.514844)scale(0.33 -0.33)">
       <use xlink:href="#DejaVuSans-32"/>
      </g>
     </g>
    </g>
    <g id="xtick_11">
     <g id="line2d_23">
      <path clip-path="url(#p3566d58de0)" d="M 971.971638 2002.94 
L 971.971638 1048.76 
" style="fill:none;stroke:#cccccc;stroke-linecap:round;stroke-width:2;"/>
     </g>
     <g id="text_35">
      <!-- 4 -->
      <g style="fill:#262626;" transform="translate(961.473513 2043.514844)scale(0.33 -0.33)">
       <use xlink:href="#DejaVuSans-34"/>
      </g>
     </g>
    </g>
    <g id="xtick_12">
     <g id="line2d_24">
      <path clip-path="url(#p3566d58de0)" d="M 1267.987222 2002.94 
L 1267.987222 1048.76 
" style="fill:none;stroke:#cccccc;stroke-linecap:round;stroke-width:2;"/>
     </g>
     <g id="text_36">
      <!-- 6 -->
      <g style="fill:#262626;" transform="translate(1257.489097 2043.514844)scale(0.33 -0.33)">
       <use xlink:href="#DejaVuSans-36"/>
      </g>
     </g>
    </g>
    <g id="xtick_13">
     <g id="line2d_25">
      <path clip-path="url(#p3566d58de0)" d="M 1564.002806 2002.94 
L 1564.002806 1048.76 
" style="fill:none;stroke:#cccccc;stroke-linecap:round;stroke-width:2;"/>
     </g>
     <g id="text_37">
      <!-- 8 -->
      <g style="fill:#262626;" transform="translate(1553.504681 2043.514844)scale(0.33 -0.33)">
       <defs>
        <path d="M 2034 2216 
Q 1584 2216 1326 1975 
Q 1069 1734 1069 1313 
Q 1069 891 1326 650 
Q 1584 409 2034 409 
Q 2484 409 2743 651 
Q 3003 894 3003 1313 
Q 3003 1734 2745 1975 
Q 2488 2216 2034 2216 
z
M 1403 2484 
Q 997 2584 770 2862 
Q 544 3141 544 3541 
Q 544 4100 942 4425 
Q 1341 4750 2034 4750 
Q 2731 4750 3128 4425 
Q 3525 4100 3525 3541 
Q 3525 3141 3298 2862 
Q 3072 2584 2669 2484 
Q 3125 2378 3379 2068 
Q 3634 1759 3634 1313 
Q 3634 634 3220 271 
Q 2806 -91 2034 -91 
Q 1263 -91 848 271 
Q 434 634 434 1313 
Q 434 1759 690 2068 
Q 947 2378 1403 2484 
z
M 1172 3481 
Q 1172 3119 1398 2916 
Q 1625 2713 2034 2713 
Q 2441 2713 2670 2916 
Q 2900 3119 2900 3481 
Q 2900 3844 2670 4047 
Q 2441 4250 2034 4250 
Q 1625 4250 1398 4047 
Q 1172 3844 1172 3481 
z
" id="DejaVuSans-38" transform="scale(0.015625)"/>
       </defs>
       <use xlink:href="#DejaVuSans-38"/>
      </g>
     </g>
    </g>
    <g id="xtick_14">
     <g id="line2d_26">
      <path clip-path="url(#p3566d58de0)" d="M 1860.018391 2002.94 
L 1860.018391 1048.76 
" style="fill:none;stroke:#cccccc;stroke-linecap:round;stroke-width:2;"/>
     </g>
     <g id="text_38">
      <!-- 10 -->
      <g style="fill:#262626;" transform="translate(1839.022141 2043.514844)scale(0.33 -0.33)">
       <use xlink:href="#DejaVuSans-31"/>
       <use x="63.623047" xlink:href="#DejaVuSans-30"/>
      </g>
     </g>
    </g>
    <g id="text_39">
     <!-- Population reached -->
     <g style="fill:#262626;" transform="translate(1061.497344 2081.732187)scale(0.36 -0.36)">
      <defs>
       <path d="M 1259 4147 
L 1259 2394 
L 2053 2394 
Q 2494 2394 2734 2622 
Q 2975 2850 2975 3272 
Q 2975 3691 2734 3919 
Q 2494 4147 2053 4147 
L 1259 4147 
z
M 628 4666 
L 2053 4666 
Q 2838 4666 3239 4311 
Q 3641 3956 3641 3272 
Q 3641 2581 3239 2228 
Q 2838 1875 2053 1875 
L 1259 1875 
L 1259 0 
L 628 0 
L 628 4666 
z
" id="DejaVuSans-50" transform="scale(0.015625)"/>
       <path d="M 3513 2113 
L 3513 0 
L 2938 0 
L 2938 2094 
Q 2938 2591 2744 2837 
Q 2550 3084 2163 3084 
Q 1697 3084 1428 2787 
Q 1159 2491 1159 1978 
L 1159 0 
L 581 0 
L 581 4863 
L 1159 4863 
L 1159 2956 
Q 1366 3272 1645 3428 
Q 1925 3584 2291 3584 
Q 2894 3584 3203 3211 
Q 3513 2838 3513 2113 
z
" id="DejaVuSans-68" transform="scale(0.015625)"/>
      </defs>
      <use xlink:href="#DejaVuSans-50"/>
      <use x="56.677734" xlink:href="#DejaVuSans-6f"/>
      <use x="117.859375" xlink:href="#DejaVuSans-70"/>
      <use x="181.335938" xlink:href="#DejaVuSans-75"/>
      <use x="244.714844" xlink:href="#DejaVuSans-6c"/>
      <use x="272.498047" xlink:href="#DejaVuSans-61"/>
      <use x="333.777344" xlink:href="#DejaVuSans-74"/>
      <use x="372.986328" xlink:href="#DejaVuSans-69"/>
      <use x="400.769531" xlink:href="#DejaVuSans-6f"/>
      <use x="461.951172" xlink:href="#DejaVuSans-6e"/>
      <use x="525.330078" xlink:href="#DejaVuSans-20"/>
      <use x="557.117188" xlink:href="#DejaVuSans-72"/>
      <use x="595.980469" xlink:href="#DejaVuSans-65"/>
      <use x="657.503906" xlink:href="#DejaVuSans-61"/>
      <use x="718.783203" xlink:href="#DejaVuSans-63"/>
      <use x="773.763672" xlink:href="#DejaVuSans-68"/>
      <use x="837.142578" xlink:href="#DejaVuSans-65"/>
      <use x="898.666016" xlink:href="#DejaVuSans-64"/>
     </g>
    </g>
   </g>
   <g id="matplotlib.axis_4">
    <g id="ytick_13">
     <g id="line2d_27">
      <path clip-path="url(#p3566d58de0)" d="M 379.940469 1764.395 
L 2089.430469 1764.395 
" style="fill:none;stroke:#cccccc;stroke-linecap:round;stroke-width:2;"/>
     </g>
     <g id="text_40">
      <!-- BCN -->
      <g style="fill:#262626;" transform="translate(294.645469 1776.932422)scale(0.33 -0.33)">
       <defs>
        <path d="M 628 4666 
L 1478 4666 
L 3547 763 
L 3547 4666 
L 4159 4666 
L 4159 0 
L 3309 0 
L 1241 3903 
L 1241 0 
L 628 0 
L 628 4666 
z
" id="DejaVuSans-4e" transform="scale(0.015625)"/>
       </defs>
       <use xlink:href="#DejaVuSans-42"/>
       <use x="66.853516" xlink:href="#DejaVuSans-43"/>
       <use x="136.677734" xlink:href="#DejaVuSans-4e"/>
      </g>
     </g>
    </g>
    <g id="ytick_14">
     <g id="line2d_28">
      <path clip-path="url(#p3566d58de0)" d="M 379.940469 1287.305 
L 2089.430469 1287.305 
" style="fill:none;stroke:#cccccc;stroke-linecap:round;stroke-width:2;"/>
     </g>
     <g id="text_41">
      <!-- MI -->
      <g style="fill:#262626;" transform="translate(326.232656 1299.842422)scale(0.33 -0.33)">
       <use xlink:href="#DejaVuSans-4d"/>
       <use x="86.279297" xlink:href="#DejaVuSans-49"/>
      </g>
     </g>
    </g>
    <g id="text_42">
     <!-- Cities -->
     <g style="fill:#262626;" transform="translate(283.158594 1575.929375)rotate(-90)scale(0.36 -0.36)">
      <use xlink:href="#DejaVuSans-43"/>
      <use x="69.824219" xlink:href="#DejaVuSans-69"/>
      <use x="97.607422" xlink:href="#DejaVuSans-74"/>
      <use x="136.816406" xlink:href="#DejaVuSans-69"/>
      <use x="164.599609" xlink:href="#DejaVuSans-65"/>
      <use x="226.123047" xlink:href="#DejaVuSans-73"/>
     </g>
    </g>
   </g>
   <g id="patch_20">
    <path clip-path="url(#p3566d58de0)" d="M 379.940469 1883.6675 
L 1267.987222 1883.6675 
L 1267.987222 1863.78875 
L 379.940469 1863.78875 
z
" style="fill:#a6cee3;stroke:#ffffff;stroke-linejoin:miter;stroke-width:2;"/>
   </g>
   <g id="patch_21">
    <path clip-path="url(#p3566d58de0)" d="M 379.940469 1406.5775 
L 379.940469 1406.5775 
L 379.940469 1386.69875 
L 379.940469 1386.69875 
z
" style="fill:#a6cee3;stroke:#ffffff;stroke-linejoin:miter;stroke-width:2;"/>
   </g>
   <g id="patch_22">
    <path clip-path="url(#p3566d58de0)" d="M 379.940469 1863.78875 
L 1415.995014 1863.78875 
L 1415.995014 1843.91 
L 379.940469 1843.91 
z
" style="fill:#1f78b4;stroke:#ffffff;stroke-linejoin:miter;stroke-width:2;"/>
   </g>
   <g id="patch_23">
    <path clip-path="url(#p3566d58de0)" d="M 379.940469 1386.69875 
L 379.940469 1386.69875 
L 379.940469 1366.82 
L 379.940469 1366.82 
z
" style="fill:#1f78b4;stroke:#ffffff;stroke-linejoin:miter;stroke-width:2;"/>
   </g>
   <g id="patch_24">
    <path clip-path="url(#p3566d58de0)" d="M 379.940469 1843.91 
L 675.956053 1843.91 
L 675.956053 1824.03125 
L 379.940469 1824.03125 
z
" style="fill:#b2df8a;stroke:#ffffff;stroke-linejoin:miter;stroke-width:2;"/>
   </g>
   <g id="patch_25">
    <path clip-path="url(#p3566d58de0)" d="M 379.940469 1366.82 
L 527.948261 1366.82 
L 527.948261 1346.94125 
L 379.940469 1346.94125 
z
" style="fill:#b2df8a;stroke:#ffffff;stroke-linejoin:miter;stroke-width:2;"/>
   </g>
   <g id="patch_26">
    <path clip-path="url(#p3566d58de0)" d="M 379.940469 1824.03125 
L 2008.026183 1824.03125 
L 2008.026183 1804.1525 
L 379.940469 1804.1525 
z
" style="fill:#33a02c;stroke:#ffffff;stroke-linejoin:miter;stroke-width:2;"/>
   </g>
   <g id="patch_27">
    <path clip-path="url(#p3566d58de0)" d="M 379.940469 1346.94125 
L 1564.002806 1346.94125 
L 1564.002806 1327.0625 
L 379.940469 1327.0625 
z
" style="fill:#33a02c;stroke:#ffffff;stroke-linejoin:miter;stroke-width:2;"/>
   </g>
   <g id="patch_28">
    <path clip-path="url(#p3566d58de0)" d="M 379.940469 1804.1525 
L 527.948261 1804.1525 
L 527.948261 1784.27375 
L 379.940469 1784.27375 
z
" style="fill:#fb9a99;stroke:#ffffff;stroke-linejoin:miter;stroke-width:2;"/>
   </g>
   <g id="patch_29">
    <path clip-path="url(#p3566d58de0)" d="M 379.940469 1327.0625 
L 379.940469 1327.0625 
L 379.940469 1307.18375 
L 379.940469 1307.18375 
z
" style="fill:#fb9a99;stroke:#ffffff;stroke-linejoin:miter;stroke-width:2;"/>
   </g>
   <g id="patch_30">
    <path clip-path="url(#p3566d58de0)" d="M 379.940469 1784.27375 
L 675.956053 1784.27375 
L 675.956053 1764.395 
L 379.940469 1764.395 
z
" style="fill:#e31a1c;stroke:#ffffff;stroke-linejoin:miter;stroke-width:2;"/>
   </g>
   <g id="patch_31">
    <path clip-path="url(#p3566d58de0)" d="M 379.940469 1307.18375 
L 379.940469 1307.18375 
L 379.940469 1287.305 
L 379.940469 1287.305 
z
" style="fill:#e31a1c;stroke:#ffffff;stroke-linejoin:miter;stroke-width:2;"/>
   </g>
   <g id="patch_32">
    <path clip-path="url(#p3566d58de0)" d="M 379.940469 1764.395 
L 971.971638 1764.395 
L 971.971638 1744.51625 
L 379.940469 1744.51625 
z
" style="fill:#fdbf6f;stroke:#ffffff;stroke-linejoin:miter;stroke-width:2;"/>
   </g>
   <g id="patch_33">
    <path clip-path="url(#p3566d58de0)" d="M 379.940469 1287.305 
L 675.956053 1287.305 
L 675.956053 1267.42625 
L 379.940469 1267.42625 
z
" style="fill:#fdbf6f;stroke:#ffffff;stroke-linejoin:miter;stroke-width:2;"/>
   </g>
   <g id="patch_34">
    <path clip-path="url(#p3566d58de0)" d="M 379.940469 1744.51625 
L 823.963845 1744.51625 
L 823.963845 1724.6375 
L 379.940469 1724.6375 
z
" style="fill:#ff7f00;stroke:#ffffff;stroke-linejoin:miter;stroke-width:2;"/>
   </g>
   <g id="patch_35">
    <path clip-path="url(#p3566d58de0)" d="M 379.940469 1267.42625 
L 527.948261 1267.42625 
L 527.948261 1247.5475 
L 379.940469 1247.5475 
z
" style="fill:#ff7f00;stroke:#ffffff;stroke-linejoin:miter;stroke-width:2;"/>
   </g>
   <g id="patch_36">
    <path clip-path="url(#p3566d58de0)" d="M 379.940469 1724.6375 
L 527.948261 1724.6375 
L 527.948261 1704.75875 
L 379.940469 1704.75875 
z
" style="fill:#cab2d6;stroke:#ffffff;stroke-linejoin:miter;stroke-width:2;"/>
   </g>
   <g id="patch_37">
    <path clip-path="url(#p3566d58de0)" d="M 379.940469 1247.5475 
L 379.940469 1247.5475 
L 379.940469 1227.66875 
L 379.940469 1227.66875 
z
" style="fill:#cab2d6;stroke:#ffffff;stroke-linejoin:miter;stroke-width:2;"/>
   </g>
   <g id="patch_38">
    <path clip-path="url(#p3566d58de0)" d="M 379.940469 1704.75875 
L 1119.97943 1704.75875 
L 1119.97943 1684.88 
L 379.940469 1684.88 
z
" style="fill:#6a3d9a;stroke:#ffffff;stroke-linejoin:miter;stroke-width:2;"/>
   </g>
   <g id="patch_39">
    <path clip-path="url(#p3566d58de0)" d="M 379.940469 1227.66875 
L 1267.987222 1227.66875 
L 1267.987222 1207.79 
L 379.940469 1207.79 
z
" style="fill:#6a3d9a;stroke:#ffffff;stroke-linejoin:miter;stroke-width:2;"/>
   </g>
   <g id="patch_40">
    <path clip-path="url(#p3566d58de0)" d="M 379.940469 1684.88 
L 527.948261 1684.88 
L 527.948261 1665.00125 
L 379.940469 1665.00125 
z
" style="fill:#ffff99;stroke:#ffffff;stroke-linejoin:miter;stroke-width:2;"/>
   </g>
   <g id="patch_41">
    <path clip-path="url(#p3566d58de0)" d="M 379.940469 1207.79 
L 823.963845 1207.79 
L 823.963845 1187.91125 
L 379.940469 1187.91125 
z
" style="fill:#ffff99;stroke:#ffffff;stroke-linejoin:miter;stroke-width:2;"/>
   </g>
   <g id="patch_42">
    <path clip-path="url(#p3566d58de0)" d="M 379.940469 1665.00125 
L 823.963845 1665.00125 
L 823.963845 1645.1225 
L 379.940469 1645.1225 
z
" style="fill:#b15928;stroke:#ffffff;stroke-linejoin:miter;stroke-width:2;"/>
   </g>
   <g id="patch_43">
    <path clip-path="url(#p3566d58de0)" d="M 379.940469 1187.91125 
L 527.948261 1187.91125 
L 527.948261 1168.0325 
L 379.940469 1168.0325 
z
" style="fill:#b15928;stroke:#ffffff;stroke-linejoin:miter;stroke-width:2;"/>
   </g>
   <g id="patch_44">
    <path d="M 379.940469 2002.94 
L 379.940469 1048.76 
" style="fill:none;stroke:#cccccc;stroke-linecap:square;stroke-linejoin:miter;stroke-width:2.5;"/>
   </g>
   <g id="patch_45">
    <path d="M 2089.430469 2002.94 
L 2089.430469 1048.76 
" style="fill:none;stroke:#cccccc;stroke-linecap:square;stroke-linejoin:miter;stroke-width:2.5;"/>
   </g>
   <g id="patch_46">
    <path d="M 379.940469 2002.94 
L 2089.430469 2002.94 
" style="fill:none;stroke:#cccccc;stroke-linecap:square;stroke-linejoin:miter;stroke-width:2.5;"/>
   </g>
   <g id="patch_47">
    <path d="M 379.940469 1048.76 
L 2089.430469 1048.76 
" style="fill:none;stroke:#cccccc;stroke-linecap:square;stroke-linejoin:miter;stroke-width:2.5;"/>
   </g>
   <g id="text_43">
    <!-- 6 -->
    <g style="fill:#262626;" transform="translate(1270.987222 1881.454375)scale(0.28 -0.28)">
     <use xlink:href="#DejaVuSans-36"/>
    </g>
   </g>
   <g id="text_44">
    <!-- 0 -->
    <g style="fill:#262626;" transform="translate(382.940469 1404.364375)scale(0.28 -0.28)">
     <use xlink:href="#DejaVuSans-30"/>
    </g>
   </g>
   <g id="text_45">
    <!-- 7 -->
    <g style="fill:#262626;" transform="translate(1418.995014 1861.575625)scale(0.28 -0.28)">
     <use xlink:href="#DejaVuSans-37"/>
    </g>
   </g>
   <g id="text_46">
    <!-- 0 -->
    <g style="fill:#262626;" transform="translate(382.940469 1384.485625)scale(0.28 -0.28)">
     <use xlink:href="#DejaVuSans-30"/>
    </g>
   </g>
   <g id="text_47">
    <!-- 2 -->
    <g style="fill:#262626;" transform="translate(678.956053 1841.696875)scale(0.28 -0.28)">
     <use xlink:href="#DejaVuSans-32"/>
    </g>
   </g>
   <g id="text_48">
    <!-- 1 -->
    <g style="fill:#262626;" transform="translate(530.948261 1364.606875)scale(0.28 -0.28)">
     <use xlink:href="#DejaVuSans-31"/>
    </g>
   </g>
   <g id="text_49">
    <!-- 11 -->
    <g style="fill:#262626;" transform="translate(2011.026183 1821.818125)scale(0.28 -0.28)">
     <use xlink:href="#DejaVuSans-31"/>
     <use x="63.623047" xlink:href="#DejaVuSans-31"/>
    </g>
   </g>
   <g id="text_50">
    <!-- 8 -->
    <g style="fill:#262626;" transform="translate(1567.002806 1344.728125)scale(0.28 -0.28)">
     <use xlink:href="#DejaVuSans-38"/>
    </g>
   </g>
   <g id="text_51">
    <!-- 1 -->
    <g style="fill:#262626;" transform="translate(530.948261 1801.939375)scale(0.28 -0.28)">
     <use xlink:href="#DejaVuSans-31"/>
    </g>
   </g>
   <g id="text_52">
    <!-- 0 -->
    <g style="fill:#262626;" transform="translate(382.940469 1324.849375)scale(0.28 -0.28)">
     <use xlink:href="#DejaVuSans-30"/>
    </g>
   </g>
   <g id="text_53">
    <!-- 2 -->
    <g style="fill:#262626;" transform="translate(678.956053 1782.060625)scale(0.28 -0.28)">
     <use xlink:href="#DejaVuSans-32"/>
    </g>
   </g>
   <g id="text_54">
    <!-- 0 -->
    <g style="fill:#262626;" transform="translate(382.940469 1304.970625)scale(0.28 -0.28)">
     <use xlink:href="#DejaVuSans-30"/>
    </g>
   </g>
   <g id="text_55">
    <!-- 4 -->
    <g style="fill:#262626;" transform="translate(974.971638 1762.181875)scale(0.28 -0.28)">
     <use xlink:href="#DejaVuSans-34"/>
    </g>
   </g>
   <g id="text_56">
    <!-- 2 -->
    <g style="fill:#262626;" transform="translate(678.956053 1285.091875)scale(0.28 -0.28)">
     <use xlink:href="#DejaVuSans-32"/>
    </g>
   </g>
   <g id="text_57">
    <!-- 3 -->
    <g style="fill:#262626;" transform="translate(826.963845 1742.303125)scale(0.28 -0.28)">
     <use xlink:href="#DejaVuSans-33"/>
    </g>
   </g>
   <g id="text_58">
    <!-- 1 -->
    <g style="fill:#262626;" transform="translate(530.948261 1265.213125)scale(0.28 -0.28)">
     <use xlink:href="#DejaVuSans-31"/>
    </g>
   </g>
   <g id="text_59">
    <!-- 1 -->
    <g style="fill:#262626;" transform="translate(530.948261 1722.424375)scale(0.28 -0.28)">
     <use xlink:href="#DejaVuSans-31"/>
    </g>
   </g>
   <g id="text_60">
    <!-- 0 -->
    <g style="fill:#262626;" transform="translate(382.940469 1245.334375)scale(0.28 -0.28)">
     <use xlink:href="#DejaVuSans-30"/>
    </g>
   </g>
   <g id="text_61">
    <!-- 5 -->
    <g style="fill:#262626;" transform="translate(1122.97943 1702.545625)scale(0.28 -0.28)">
     <use xlink:href="#DejaVuSans-35"/>
    </g>
   </g>
   <g id="text_62">
    <!-- 6 -->
    <g style="fill:#262626;" transform="translate(1270.987222 1225.455625)scale(0.28 -0.28)">
     <use xlink:href="#DejaVuSans-36"/>
    </g>
   </g>
   <g id="text_63">
    <!-- 1 -->
    <g style="fill:#262626;" transform="translate(530.948261 1682.666875)scale(0.28 -0.28)">
     <use xlink:href="#DejaVuSans-31"/>
    </g>
   </g>
   <g id="text_64">
    <!-- 3 -->
    <g style="fill:#262626;" transform="translate(826.963845 1205.576875)scale(0.28 -0.28)">
     <use xlink:href="#DejaVuSans-33"/>
    </g>
   </g>
   <g id="text_65">
    <!-- 3 -->
    <g style="fill:#262626;" transform="translate(826.963845 1662.788125)scale(0.28 -0.28)">
     <use xlink:href="#DejaVuSans-33"/>
    </g>
   </g>
   <g id="text_66">
    <!-- 1 -->
    <g style="fill:#262626;" transform="translate(530.948261 1185.698125)scale(0.28 -0.28)">
     <use xlink:href="#DejaVuSans-31"/>
    </g>
   </g>
   <g id="legend_1">
    <g id="patch_48">
     <path d="M 1603.49 1707.755 
L 2066.330469 1707.755 
Q 2072.930469 1707.755 2072.930469 1701.155 
L 2072.930469 1071.86 
Q 2072.930469 1065.26 2066.330469 1065.26 
L 1603.49 1065.26 
Q 1596.89 1065.26 1596.89 1071.86 
L 1596.89 1701.155 
Q 1596.89 1707.755 1603.49 1707.755 
z
" style="fill:#ffffff;opacity:0.8;stroke:#cccccc;stroke-linejoin:miter;stroke-width:2;"/>
    </g>
    <g id="text_67">
     <!-- Type -->
     <g style="fill:#262626;" transform="translate(1793.572109 1105.814375)scale(0.36 -0.36)">
      <defs>
       <path d="M -19 4666 
L 3928 4666 
L 3928 4134 
L 2272 4134 
L 2272 0 
L 1638 0 
L 1638 4134 
L -19 4134 
L -19 4666 
z
" id="DejaVuSans-54" transform="scale(0.015625)"/>
      </defs>
      <use xlink:href="#DejaVuSans-54"/>
      <use x="45.458984" xlink:href="#DejaVuSans-79"/>
      <use x="104.638672" xlink:href="#DejaVuSans-70"/>
      <use x="168.115234" xlink:href="#DejaVuSans-65"/>
     </g>
    </g>
    <g id="patch_49">
     <path d="M 1610.09 1154.876094 
L 1676.09 1154.876094 
L 1676.09 1131.776094 
L 1610.09 1131.776094 
z
" style="fill:#a6cee3;stroke:#ffffff;stroke-linejoin:miter;stroke-width:2;"/>
    </g>
    <g id="text_68">
     <!-- Ateneu de Fabricació -->
     <g style="fill:#262626;" transform="translate(1702.49 1154.876094)scale(0.33 -0.33)">
      <use xlink:href="#DejaVuSans-41"/>
      <use x="66.658203" xlink:href="#DejaVuSans-74"/>
      <use x="105.867188" xlink:href="#DejaVuSans-65"/>
      <use x="167.390625" xlink:href="#DejaVuSans-6e"/>
      <use x="230.769531" xlink:href="#DejaVuSans-65"/>
      <use x="292.292969" xlink:href="#DejaVuSans-75"/>
      <use x="355.671875" xlink:href="#DejaVuSans-20"/>
      <use x="387.458984" xlink:href="#DejaVuSans-64"/>
      <use x="450.935547" xlink:href="#DejaVuSans-65"/>
      <use x="512.458984" xlink:href="#DejaVuSans-20"/>
      <use x="544.246094" xlink:href="#DejaVuSans-46"/>
      <use x="592.640625" xlink:href="#DejaVuSans-61"/>
      <use x="653.919922" xlink:href="#DejaVuSans-62"/>
      <use x="717.396484" xlink:href="#DejaVuSans-72"/>
      <use x="758.509766" xlink:href="#DejaVuSans-69"/>
      <use x="786.292969" xlink:href="#DejaVuSans-63"/>
      <use x="841.273438" xlink:href="#DejaVuSans-61"/>
      <use x="902.552734" xlink:href="#DejaVuSans-63"/>
      <use x="957.533203" xlink:href="#DejaVuSans-69"/>
      <use x="985.316406" xlink:href="#DejaVuSans-f3"/>
     </g>
    </g>
    <g id="patch_50">
     <path d="M 1610.09 1203.313906 
L 1676.09 1203.313906 
L 1676.09 1180.213906 
L 1610.09 1180.213906 
z
" style="fill:#1f78b4;stroke:#ffffff;stroke-linejoin:miter;stroke-width:2;"/>
    </g>
    <g id="text_69">
     <!-- City Space -->
     <g style="fill:#262626;" transform="translate(1702.49 1203.313906)scale(0.33 -0.33)">
      <use xlink:href="#DejaVuSans-43"/>
      <use x="69.824219" xlink:href="#DejaVuSans-69"/>
      <use x="97.607422" xlink:href="#DejaVuSans-74"/>
      <use x="136.816406" xlink:href="#DejaVuSans-79"/>
      <use x="195.996094" xlink:href="#DejaVuSans-20"/>
      <use x="227.783203" xlink:href="#DejaVuSans-53"/>
      <use x="291.259766" xlink:href="#DejaVuSans-70"/>
      <use x="354.736328" xlink:href="#DejaVuSans-61"/>
      <use x="416.015625" xlink:href="#DejaVuSans-63"/>
      <use x="470.996094" xlink:href="#DejaVuSans-65"/>
     </g>
    </g>
    <g id="patch_51">
     <path d="M 1610.09 1251.751719 
L 1676.09 1251.751719 
L 1676.09 1228.651719 
L 1610.09 1228.651719 
z
" style="fill:#b2df8a;stroke:#ffffff;stroke-linejoin:miter;stroke-width:2;"/>
    </g>
    <g id="text_70">
     <!-- DIYBio Lab -->
     <g style="fill:#262626;" transform="translate(1702.49 1251.751719)scale(0.33 -0.33)">
      <use xlink:href="#DejaVuSans-44"/>
      <use x="77.001953" xlink:href="#DejaVuSans-49"/>
      <use x="106.494141" xlink:href="#DejaVuSans-59"/>
      <use x="167.578125" xlink:href="#DejaVuSans-42"/>
      <use x="236.181641" xlink:href="#DejaVuSans-69"/>
      <use x="263.964844" xlink:href="#DejaVuSans-6f"/>
      <use x="325.146484" xlink:href="#DejaVuSans-20"/>
      <use x="356.933594" xlink:href="#DejaVuSans-4c"/>
      <use x="412.646484" xlink:href="#DejaVuSans-61"/>
      <use x="473.925781" xlink:href="#DejaVuSans-62"/>
     </g>
    </g>
    <g id="patch_52">
     <path d="M 1610.09 1300.189531 
L 1676.09 1300.189531 
L 1676.09 1277.089531 
L 1610.09 1277.089531 
z
" style="fill:#33a02c;stroke:#ffffff;stroke-linejoin:miter;stroke-width:2;"/>
    </g>
    <g id="text_71">
     <!-- Fab Lab -->
     <g style="fill:#262626;" transform="translate(1702.49 1300.189531)scale(0.33 -0.33)">
      <use xlink:href="#DejaVuSans-46"/>
      <use x="48.394531" xlink:href="#DejaVuSans-61"/>
      <use x="109.673828" xlink:href="#DejaVuSans-62"/>
      <use x="173.150391" xlink:href="#DejaVuSans-20"/>
      <use x="204.9375" xlink:href="#DejaVuSans-4c"/>
      <use x="260.650391" xlink:href="#DejaVuSans-61"/>
      <use x="321.929688" xlink:href="#DejaVuSans-62"/>
     </g>
    </g>
    <g id="patch_53">
     <path d="M 1610.09 1348.627344 
L 1676.09 1348.627344 
L 1676.09 1325.527344 
L 1610.09 1325.527344 
z
" style="fill:#fb9a99;stroke:#ffffff;stroke-linejoin:miter;stroke-width:2;"/>
    </g>
    <g id="text_72">
     <!-- FabCafé -->
     <g style="fill:#262626;" transform="translate(1702.49 1348.627344)scale(0.33 -0.33)">
      <use xlink:href="#DejaVuSans-46"/>
      <use x="48.394531" xlink:href="#DejaVuSans-61"/>
      <use x="109.673828" xlink:href="#DejaVuSans-62"/>
      <use x="173.150391" xlink:href="#DejaVuSans-43"/>
      <use x="242.974609" xlink:href="#DejaVuSans-61"/>
      <use x="304.253906" xlink:href="#DejaVuSans-66"/>
      <use x="339.458984" xlink:href="#DejaVuSans-e9"/>
     </g>
    </g>
    <g id="patch_54">
     <path d="M 1610.09 1397.065156 
L 1676.09 1397.065156 
L 1676.09 1373.965156 
L 1610.09 1373.965156 
z
" style="fill:#e31a1c;stroke:#ffffff;stroke-linejoin:miter;stroke-width:2;"/>
    </g>
    <g id="text_73">
     <!-- Foundation -->
     <g style="fill:#262626;" transform="translate(1702.49 1397.065156)scale(0.33 -0.33)">
      <use xlink:href="#DejaVuSans-46"/>
      <use x="53.894531" xlink:href="#DejaVuSans-6f"/>
      <use x="115.076172" xlink:href="#DejaVuSans-75"/>
      <use x="178.455078" xlink:href="#DejaVuSans-6e"/>
      <use x="241.833984" xlink:href="#DejaVuSans-64"/>
      <use x="305.310547" xlink:href="#DejaVuSans-61"/>
      <use x="366.589844" xlink:href="#DejaVuSans-74"/>
      <use x="405.798828" xlink:href="#DejaVuSans-69"/>
      <use x="433.582031" xlink:href="#DejaVuSans-6f"/>
      <use x="494.763672" xlink:href="#DejaVuSans-6e"/>
     </g>
    </g>
    <g id="patch_55">
     <path d="M 1610.09 1445.502969 
L 1676.09 1445.502969 
L 1676.09 1422.402969 
L 1610.09 1422.402969 
z
" style="fill:#fdbf6f;stroke:#ffffff;stroke-linejoin:miter;stroke-width:2;"/>
    </g>
    <g id="text_74">
     <!-- Hackerspace -->
     <g style="fill:#262626;" transform="translate(1702.49 1445.502969)scale(0.33 -0.33)">
      <use xlink:href="#DejaVuSans-48"/>
      <use x="75.195312" xlink:href="#DejaVuSans-61"/>
      <use x="136.474609" xlink:href="#DejaVuSans-63"/>
      <use x="191.455078" xlink:href="#DejaVuSans-6b"/>
      <use x="245.740234" xlink:href="#DejaVuSans-65"/>
      <use x="307.263672" xlink:href="#DejaVuSans-72"/>
      <use x="348.376953" xlink:href="#DejaVuSans-73"/>
      <use x="400.476562" xlink:href="#DejaVuSans-70"/>
      <use x="463.953125" xlink:href="#DejaVuSans-61"/>
      <use x="525.232422" xlink:href="#DejaVuSans-63"/>
      <use x="580.212891" xlink:href="#DejaVuSans-65"/>
     </g>
    </g>
    <g id="patch_56">
     <path d="M 1610.09 1493.940781 
L 1676.09 1493.940781 
L 1676.09 1470.840781 
L 1610.09 1470.840781 
z
" style="fill:#ff7f00;stroke:#ffffff;stroke-linejoin:miter;stroke-width:2;"/>
    </g>
    <g id="text_75">
     <!-- Incubator/Accelerator -->
     <g style="fill:#262626;" transform="translate(1702.49 1493.940781)scale(0.33 -0.33)">
      <use xlink:href="#DejaVuSans-49"/>
      <use x="29.492188" xlink:href="#DejaVuSans-6e"/>
      <use x="92.871094" xlink:href="#DejaVuSans-63"/>
      <use x="147.851562" xlink:href="#DejaVuSans-75"/>
      <use x="211.230469" xlink:href="#DejaVuSans-62"/>
      <use x="274.707031" xlink:href="#DejaVuSans-61"/>
      <use x="335.986328" xlink:href="#DejaVuSans-74"/>
      <use x="375.195312" xlink:href="#DejaVuSans-6f"/>
      <use x="436.376953" xlink:href="#DejaVuSans-72"/>
      <use x="477.490234" xlink:href="#DejaVuSans-2f"/>
      <use x="511.181641" xlink:href="#DejaVuSans-41"/>
      <use x="577.839844" xlink:href="#DejaVuSans-63"/>
      <use x="632.820312" xlink:href="#DejaVuSans-63"/>
      <use x="687.800781" xlink:href="#DejaVuSans-65"/>
      <use x="749.324219" xlink:href="#DejaVuSans-6c"/>
      <use x="777.107422" xlink:href="#DejaVuSans-65"/>
      <use x="838.630859" xlink:href="#DejaVuSans-72"/>
      <use x="879.744141" xlink:href="#DejaVuSans-61"/>
      <use x="941.023438" xlink:href="#DejaVuSans-74"/>
      <use x="980.232422" xlink:href="#DejaVuSans-6f"/>
      <use x="1041.414062" xlink:href="#DejaVuSans-72"/>
     </g>
    </g>
    <g id="patch_57">
     <path d="M 1610.09 1542.378594 
L 1676.09 1542.378594 
L 1676.09 1519.278594 
L 1610.09 1519.278594 
z
" style="fill:#cab2d6;stroke:#ffffff;stroke-linejoin:miter;stroke-width:2;"/>
    </g>
    <g id="text_76">
     <!-- Library -->
     <g style="fill:#262626;" transform="translate(1702.49 1542.378594)scale(0.33 -0.33)">
      <use xlink:href="#DejaVuSans-4c"/>
      <use x="55.712891" xlink:href="#DejaVuSans-69"/>
      <use x="83.496094" xlink:href="#DejaVuSans-62"/>
      <use x="146.972656" xlink:href="#DejaVuSans-72"/>
      <use x="188.085938" xlink:href="#DejaVuSans-61"/>
      <use x="249.365234" xlink:href="#DejaVuSans-72"/>
      <use x="290.478516" xlink:href="#DejaVuSans-79"/>
     </g>
    </g>
    <g id="patch_58">
     <path d="M 1610.09 1590.816406 
L 1676.09 1590.816406 
L 1676.09 1567.716406 
L 1610.09 1567.716406 
z
" style="fill:#6a3d9a;stroke:#ffffff;stroke-linejoin:miter;stroke-width:2;"/>
    </g>
    <g id="text_77">
     <!-- Makerspace -->
     <g style="fill:#262626;" transform="translate(1702.49 1590.816406)scale(0.33 -0.33)">
      <use xlink:href="#DejaVuSans-4d"/>
      <use x="86.279297" xlink:href="#DejaVuSans-61"/>
      <use x="147.558594" xlink:href="#DejaVuSans-6b"/>
      <use x="201.84375" xlink:href="#DejaVuSans-65"/>
      <use x="263.367188" xlink:href="#DejaVuSans-72"/>
      <use x="304.480469" xlink:href="#DejaVuSans-73"/>
      <use x="356.580078" xlink:href="#DejaVuSans-70"/>
      <use x="420.056641" xlink:href="#DejaVuSans-61"/>
      <use x="481.335938" xlink:href="#DejaVuSans-63"/>
      <use x="536.316406" xlink:href="#DejaVuSans-65"/>
     </g>
    </g>
    <g id="patch_59">
     <path d="M 1610.09 1639.254219 
L 1676.09 1639.254219 
L 1676.09 1616.154219 
L 1610.09 1616.154219 
z
" style="fill:#ffff99;stroke:#ffffff;stroke-linejoin:miter;stroke-width:2;"/>
    </g>
    <g id="text_78">
     <!-- Service -->
     <g style="fill:#262626;" transform="translate(1702.49 1639.254219)scale(0.33 -0.33)">
      <use xlink:href="#DejaVuSans-53"/>
      <use x="63.476562" xlink:href="#DejaVuSans-65"/>
      <use x="125" xlink:href="#DejaVuSans-72"/>
      <use x="166.113281" xlink:href="#DejaVuSans-76"/>
      <use x="225.292969" xlink:href="#DejaVuSans-69"/>
      <use x="253.076172" xlink:href="#DejaVuSans-63"/>
      <use x="308.056641" xlink:href="#DejaVuSans-65"/>
     </g>
    </g>
    <g id="patch_60">
     <path d="M 1610.09 1687.692031 
L 1676.09 1687.692031 
L 1676.09 1664.592031 
L 1610.09 1664.592031 
z
" style="fill:#b15928;stroke:#ffffff;stroke-linejoin:miter;stroke-width:2;"/>
    </g>
    <g id="text_79">
     <!-- University Lab -->
     <g style="fill:#262626;" transform="translate(1702.49 1687.692031)scale(0.33 -0.33)">
      <use xlink:href="#DejaVuSans-55"/>
      <use x="73.193359" xlink:href="#DejaVuSans-6e"/>
      <use x="136.572266" xlink:href="#DejaVuSans-69"/>
      <use x="164.355469" xlink:href="#DejaVuSans-76"/>
      <use x="223.535156" xlink:href="#DejaVuSans-65"/>
      <use x="285.058594" xlink:href="#DejaVuSans-72"/>
      <use x="326.171875" xlink:href="#DejaVuSans-73"/>
      <use x="378.271484" xlink:href="#DejaVuSans-69"/>
      <use x="406.054688" xlink:href="#DejaVuSans-74"/>
      <use x="445.263672" xlink:href="#DejaVuSans-79"/>
      <use x="504.443359" xlink:href="#DejaVuSans-20"/>
      <use x="536.230469" xlink:href="#DejaVuSans-4c"/>
      <use x="591.943359" xlink:href="#DejaVuSans-61"/>
      <use x="653.222656" xlink:href="#DejaVuSans-62"/>
     </g>
    </g>
   </g>
  </g>
 </g>
 <defs>
  <clipPath id="pc500f96f8a">
   <rect height="954.18" width="1709.49" x="379.940469" y="7.2"/>
  </clipPath>
  <clipPath id="p3566d58de0">
   <rect height="954.18" width="1709.49" x="379.940469" y="1048.76"/>
  </clipPath>
 </defs>
</svg>
