<?xml version="1.0" encoding="utf-8" standalone="no"?>
<!DOCTYPE svg PUBLIC "-//W3C//DTD SVG 1.1//EN"
  "http://www.w3.org/Graphics/SVG/1.1/DTD/svg11.dtd">
<svg xmlns:xlink="http://www.w3.org/1999/xlink" width="1427.775625pt" height="1073.082187pt" viewBox="0 0 1427.775625 1073.082187" xmlns="http://www.w3.org/2000/svg" version="1.1">
 <metadata>
  <rdf:RDF xmlns:dc="http://purl.org/dc/elements/1.1/" xmlns:cc="http://creativecommons.org/ns#" xmlns:rdf="http://www.w3.org/1999/02/22-rdf-syntax-ns#">
   <cc:Work>
    <dc:type rdf:resource="http://purl.org/dc/dcmitype/StillImage"/>
    <dc:date>2022-12-11T11:39:35.670457</dc:date>
    <dc:format>image/svg+xml</dc:format>
    <dc:creator>
     <cc:Agent>
      <dc:title>Matplotlib v3.6.1, https://matplotlib.org/</dc:title>
     </cc:Agent>
    </dc:creator>
   </cc:Work>
  </rdf:RDF>
 </metadata>
 <defs>
  <style type="text/css">*{stroke-linejoin: round; stroke-linecap: butt}</style>
 </defs>
 <g id="figure_1">
  <g id="patch_1">
   <path d="M 0 1073.082187 
L 1427.775625 1073.082187 
L 1427.775625 0 
L 0 0 
L 0 1073.082187 
z
" style="fill: none"/>
  </g>
  <g id="axes_1">
   <g id="patch_2">
    <path d="M 63.420625 465.828125 
L 1091.320625 465.828125 
L 1091.320625 7.2 
L 63.420625 7.2 
z
" style="fill: #ffffff"/>
   </g>
   <g id="matplotlib.axis_1">
    <g id="xtick_1">
     <g id="line2d_1">
      <path d="M 63.420625 465.828125 
L 63.420625 7.2 
" clip-path="url(#p1e1bd741bc)" style="fill: none; stroke: #cccccc; stroke-width: 2; stroke-linecap: round"/>
     </g>
     <g id="line2d_2">
      <defs>
       <path id="m90a79500d4" d="M 0 0 
L 0 12 
" style="stroke: #262626; stroke-width: 2.5"/>
      </defs>
      <g>
       <use xlink:href="#m90a79500d4" x="63.420625" y="465.828125" style="fill: #262626; stroke: #262626; stroke-width: 2.5"/>
      </g>
     </g>
     <g id="text_1">
      <!-- 0 -->
      <g style="fill: #262626" transform="translate(57.282969 497.828125) scale(0.22 -0.22)">
       <defs>
        <path id="FiraSans-Regular-30" d="M 1786 4346 
Q 2496 4346 2857 3779 
Q 3219 3213 3219 2138 
Q 3219 1062 2857 492 
Q 2496 -77 1786 -77 
Q 1075 -77 713 492 
Q 352 1062 352 2138 
Q 352 3213 713 3779 
Q 1075 4346 1786 4346 
z
M 1786 3878 
Q 1370 3878 1168 3468 
Q 966 3059 966 2138 
Q 966 1216 1168 803 
Q 1370 390 1786 390 
Q 2195 390 2400 803 
Q 2605 1216 2605 2138 
Q 2605 3053 2400 3465 
Q 2195 3878 1786 3878 
z
" transform="scale(0.015625)"/>
       </defs>
       <use xlink:href="#FiraSans-Regular-30"/>
      </g>
     </g>
    </g>
    <g id="xtick_2">
     <g id="line2d_3">
      <path d="M 197.970413 465.828125 
L 197.970413 7.2 
" clip-path="url(#p1e1bd741bc)" style="fill: none; stroke: #cccccc; stroke-width: 2; stroke-linecap: round"/>
     </g>
     <g id="line2d_4">
      <g>
       <use xlink:href="#m90a79500d4" x="197.970413" y="465.828125" style="fill: #262626; stroke: #262626; stroke-width: 2.5"/>
      </g>
     </g>
     <g id="text_2">
      <!-- 20 -->
      <g style="fill: #262626" transform="translate(186.387757 497.828125) scale(0.22 -0.22)">
       <defs>
        <path id="FiraSans-Regular-32" d="M 1459 4346 
Q 1843 4346 2134 4192 
Q 2426 4038 2586 3772 
Q 2746 3507 2746 3174 
Q 2746 2784 2570 2425 
Q 2394 2067 2029 1651 
Q 1664 1235 922 493 
L 2848 493 
L 2778 0 
L 250 0 
L 250 467 
Q 1107 1357 1465 1769 
Q 1824 2182 1977 2489 
Q 2131 2797 2131 3149 
Q 2131 3482 1939 3670 
Q 1747 3859 1427 3859 
Q 1165 3859 966 3750 
Q 768 3642 544 3392 
L 160 3699 
Q 422 4026 742 4186 
Q 1062 4346 1459 4346 
z
" transform="scale(0.015625)"/>
       </defs>
       <use xlink:href="#FiraSans-Regular-32"/>
       <use xlink:href="#FiraSans-Regular-30" x="49.499985"/>
      </g>
     </g>
    </g>
    <g id="xtick_3">
     <g id="line2d_5">
      <path d="M 332.520201 465.828125 
L 332.520201 7.2 
" clip-path="url(#p1e1bd741bc)" style="fill: none; stroke: #cccccc; stroke-width: 2; stroke-linecap: round"/>
     </g>
     <g id="line2d_6">
      <g>
       <use xlink:href="#m90a79500d4" x="332.520201" y="465.828125" style="fill: #262626; stroke: #262626; stroke-width: 2.5"/>
      </g>
     </g>
     <g id="text_3">
      <!-- 40 -->
      <g style="fill: #262626" transform="translate(320.530201 497.828125) scale(0.22 -0.22)">
       <defs>
        <path id="FiraSans-Regular-34" d="M 3213 1523 
L 3213 1056 
L 2656 1056 
L 2656 0 
L 2086 0 
L 2086 1056 
L 256 1056 
L 256 1478 
L 1542 4346 
L 2035 4141 
L 877 1523 
L 2093 1523 
L 2144 2675 
L 2656 2675 
L 2656 1523 
L 3213 1523 
z
" transform="scale(0.015625)"/>
       </defs>
       <use xlink:href="#FiraSans-Regular-34"/>
       <use xlink:href="#FiraSans-Regular-30" x="53.199997"/>
      </g>
     </g>
    </g>
    <g id="xtick_4">
     <g id="line2d_7">
      <path d="M 467.069989 465.828125 
L 467.069989 7.2 
" clip-path="url(#p1e1bd741bc)" style="fill: none; stroke: #cccccc; stroke-width: 2; stroke-linecap: round"/>
     </g>
     <g id="line2d_8">
      <g>
       <use xlink:href="#m90a79500d4" x="467.069989" y="465.828125" style="fill: #262626; stroke: #262626; stroke-width: 2.5"/>
      </g>
     </g>
     <g id="text_4">
      <!-- 60 -->
      <g style="fill: #262626" transform="translate(455.069677 497.828125) scale(0.22 -0.22)">
       <defs>
        <path id="FiraSans-Regular-36" d="M 1971 2816 
Q 2298 2816 2566 2662 
Q 2835 2509 2995 2201 
Q 3155 1894 3155 1453 
Q 3155 998 2972 649 
Q 2790 301 2480 112 
Q 2170 -77 1792 -77 
Q 1043 -77 697 476 
Q 352 1030 352 2010 
Q 352 2707 547 3235 
Q 742 3763 1107 4054 
Q 1472 4346 1971 4346 
Q 2458 4346 2854 4083 
L 2624 3693 
Q 2323 3878 1965 3878 
Q 1504 3878 1235 3436 
Q 966 2995 941 2253 
Q 1338 2816 1971 2816 
z
M 1792 390 
Q 2163 390 2361 672 
Q 2560 954 2560 1434 
Q 2560 2349 1869 2349 
Q 1587 2349 1350 2192 
Q 1114 2035 947 1760 
Q 966 1056 1168 723 
Q 1370 390 1792 390 
z
" transform="scale(0.015625)"/>
       </defs>
       <use xlink:href="#FiraSans-Regular-36"/>
       <use xlink:href="#FiraSans-Regular-30" x="53.299988"/>
      </g>
     </g>
    </g>
    <g id="xtick_5">
     <g id="line2d_9">
      <path d="M 601.619777 465.828125 
L 601.619777 7.2 
" clip-path="url(#p1e1bd741bc)" style="fill: none; stroke: #cccccc; stroke-width: 2; stroke-linecap: round"/>
     </g>
     <g id="line2d_10">
      <g>
       <use xlink:href="#m90a79500d4" x="601.619777" y="465.828125" style="fill: #262626; stroke: #262626; stroke-width: 2.5"/>
      </g>
     </g>
     <g id="text_5">
      <!-- 80 -->
      <g style="fill: #262626" transform="translate(589.421809 497.828125) scale(0.22 -0.22)">
       <defs>
        <path id="FiraSans-Regular-38" d="M 2336 2298 
Q 3238 1933 3238 1146 
Q 3238 794 3049 515 
Q 2861 237 2521 80 
Q 2182 -77 1754 -77 
Q 1318 -77 985 76 
Q 653 230 470 505 
Q 288 781 288 1133 
Q 288 1530 502 1798 
Q 717 2067 1133 2246 
Q 794 2419 630 2665 
Q 467 2912 467 3245 
Q 467 3590 649 3840 
Q 832 4090 1129 4218 
Q 1427 4346 1766 4346 
Q 2099 4346 2396 4224 
Q 2694 4102 2880 3856 
Q 3066 3610 3066 3264 
Q 3066 2944 2886 2713 
Q 2707 2483 2336 2298 
z
M 1766 3904 
Q 1434 3904 1238 3731 
Q 1043 3558 1043 3238 
Q 1043 2931 1232 2771 
Q 1421 2611 1837 2477 
L 1946 2438 
Q 2234 2605 2362 2790 
Q 2490 2976 2490 3245 
Q 2490 3546 2301 3725 
Q 2112 3904 1766 3904 
z
M 1760 390 
Q 2157 390 2390 595 
Q 2624 800 2624 1139 
Q 2624 1370 2534 1526 
Q 2445 1683 2246 1801 
Q 2048 1920 1690 2042 
L 1530 2099 
Q 1210 1946 1056 1712 
Q 902 1478 902 1133 
Q 902 781 1132 585 
Q 1363 390 1760 390 
z
" transform="scale(0.015625)"/>
       </defs>
       <use xlink:href="#FiraSans-Regular-38"/>
       <use xlink:href="#FiraSans-Regular-30" x="55.099991"/>
      </g>
     </g>
    </g>
    <g id="xtick_6">
     <g id="line2d_11">
      <path d="M 736.169565 465.828125 
L 736.169565 7.2 
" clip-path="url(#p1e1bd741bc)" style="fill: none; stroke: #cccccc; stroke-width: 2; stroke-linecap: round"/>
     </g>
     <g id="line2d_12">
      <g>
       <use xlink:href="#m90a79500d4" x="736.169565" y="465.828125" style="fill: #262626; stroke: #262626; stroke-width: 2.5"/>
      </g>
     </g>
     <g id="text_6">
      <!-- 100 -->
      <g style="fill: #262626" transform="translate(719.131597 497.828125) scale(0.22 -0.22)">
       <defs>
        <path id="FiraSans-Regular-31" d="M 2067 4282 
L 2067 0 
L 1478 0 
L 1478 3654 
L 480 3046 
L 224 3462 
L 1549 4282 
L 2067 4282 
z
" transform="scale(0.015625)"/>
       </defs>
       <use xlink:href="#FiraSans-Regular-31"/>
       <use xlink:href="#FiraSans-Regular-30" x="43.299988"/>
       <use xlink:href="#FiraSans-Regular-30" x="99.099976"/>
      </g>
     </g>
    </g>
    <g id="xtick_7">
     <g id="line2d_13">
      <path d="M 870.719353 465.828125 
L 870.719353 7.2 
" clip-path="url(#p1e1bd741bc)" style="fill: none; stroke: #cccccc; stroke-width: 2; stroke-linecap: round"/>
     </g>
     <g id="line2d_14">
      <g>
       <use xlink:href="#m90a79500d4" x="870.719353" y="465.828125" style="fill: #262626; stroke: #262626; stroke-width: 2.5"/>
      </g>
     </g>
     <g id="text_7">
      <!-- 120 -->
      <g style="fill: #262626" transform="translate(854.374041 497.828125) scale(0.22 -0.22)">
       <use xlink:href="#FiraSans-Regular-31"/>
       <use xlink:href="#FiraSans-Regular-32" x="43.299988"/>
       <use xlink:href="#FiraSans-Regular-30" x="92.799973"/>
      </g>
     </g>
    </g>
    <g id="xtick_8">
     <g id="line2d_15">
      <path d="M 1005.269142 465.828125 
L 1005.269142 7.2 
" clip-path="url(#p1e1bd741bc)" style="fill: none; stroke: #cccccc; stroke-width: 2; stroke-linecap: round"/>
     </g>
     <g id="line2d_16">
      <g>
       <use xlink:href="#m90a79500d4" x="1005.269142" y="465.828125" style="fill: #262626; stroke: #262626; stroke-width: 2.5"/>
      </g>
     </g>
     <g id="text_8">
      <!-- 140 -->
      <g style="fill: #262626" transform="translate(988.516485 497.828125) scale(0.22 -0.22)">
       <use xlink:href="#FiraSans-Regular-31"/>
       <use xlink:href="#FiraSans-Regular-34" x="43.299988"/>
       <use xlink:href="#FiraSans-Regular-30" x="96.499985"/>
      </g>
     </g>
    </g>
    <g id="text_9">
     <!-- Areas (square kilometers) -->
     <g style="fill: #262626" transform="translate(437.604375 526.793437) scale(0.24 -0.24)">
      <defs>
       <path id="FiraSans-Regular-41" d="M 2989 0 
L 2656 1107 
L 986 1107 
L 653 0 
L 38 0 
L 1453 4410 
L 2221 4410 
L 3629 0 
L 2989 0 
z
M 1133 1600 
L 2509 1600 
L 1824 3904 
L 1133 1600 
z
" transform="scale(0.015625)"/>
       <path id="FiraSans-Regular-72" d="M 2074 3450 
Q 2253 3450 2406 3411 
L 2298 2835 
Q 2144 2874 2003 2874 
Q 1690 2874 1498 2643 
Q 1306 2413 1197 1926 
L 1197 0 
L 608 0 
L 608 3373 
L 1114 3373 
L 1171 2688 
Q 1306 3066 1536 3258 
Q 1766 3450 2074 3450 
z
" transform="scale(0.015625)"/>
       <path id="FiraSans-Regular-65" d="M 3155 1786 
Q 3155 1638 3142 1485 
L 992 1485 
Q 1030 928 1273 665 
Q 1517 403 1901 403 
Q 2144 403 2349 473 
Q 2554 544 2778 698 
L 3034 346 
Q 2496 -77 1856 -77 
Q 1152 -77 758 384 
Q 365 845 365 1651 
Q 365 2176 534 2582 
Q 704 2989 1021 3219 
Q 1338 3450 1766 3450 
Q 2438 3450 2796 3008 
Q 3155 2566 3155 1786 
z
M 2573 1958 
Q 2573 2458 2374 2720 
Q 2176 2982 1779 2982 
Q 1056 2982 992 1920 
L 2573 1920 
L 2573 1958 
z
" transform="scale(0.015625)"/>
       <path id="FiraSans-Regular-61" d="M 2880 787 
Q 2880 582 2950 483 
Q 3021 384 3162 333 
L 3027 -77 
Q 2765 -45 2605 70 
Q 2445 186 2368 429 
Q 2029 -77 1363 -77 
Q 864 -77 576 204 
Q 288 486 288 941 
Q 288 1478 675 1766 
Q 1062 2054 1773 2054 
L 2291 2054 
L 2291 2304 
Q 2291 2662 2118 2816 
Q 1946 2970 1587 2970 
Q 1216 2970 678 2790 
L 531 3219 
Q 1158 3450 1696 3450 
Q 2291 3450 2585 3158 
Q 2880 2867 2880 2330 
L 2880 787 
z
M 1498 365 
Q 2003 365 2291 890 
L 2291 1664 
L 1850 1664 
Q 915 1664 915 973 
Q 915 672 1062 518 
Q 1210 365 1498 365 
z
" transform="scale(0.015625)"/>
       <path id="FiraSans-Regular-73" d="M 1523 3450 
Q 1869 3450 2144 3354 
Q 2419 3258 2669 3066 
L 2419 2694 
Q 2189 2842 1981 2912 
Q 1773 2982 1542 2982 
Q 1254 2982 1088 2864 
Q 922 2746 922 2541 
Q 922 2336 1078 2221 
Q 1235 2106 1645 1997 
Q 2208 1856 2486 1613 
Q 2765 1370 2765 947 
Q 2765 448 2377 185 
Q 1990 -77 1434 -77 
Q 666 -77 160 365 
L 474 723 
Q 902 397 1421 397 
Q 1754 397 1949 534 
Q 2144 672 2144 909 
Q 2144 1082 2073 1187 
Q 2003 1293 1830 1373 
Q 1658 1453 1325 1542 
Q 787 1683 547 1920 
Q 307 2157 307 2522 
Q 307 2784 464 2998 
Q 621 3213 899 3331 
Q 1178 3450 1523 3450 
z
" transform="scale(0.015625)"/>
       <path id="FiraSans-Regular-20" transform="scale(0.015625)"/>
       <path id="FiraSans-Regular-28" d="M 1818 5152 
Q 1485 4659 1289 4272 
Q 1094 3885 982 3392 
Q 870 2899 870 2240 
Q 870 1587 982 1094 
Q 1094 602 1289 208 
Q 1485 -186 1818 -672 
L 1446 -928 
Q 1024 -326 797 61 
Q 570 448 413 989 
Q 256 1530 256 2240 
Q 256 2950 413 3491 
Q 570 4032 797 4419 
Q 1024 4806 1446 5408 
L 1818 5152 
z
" transform="scale(0.015625)"/>
       <path id="FiraSans-Regular-71" d="M 3219 3373 
L 3219 -1363 
L 2630 -1293 
L 2630 448 
Q 2464 198 2217 60 
Q 1971 -77 1670 -77 
Q 1069 -77 733 396 
Q 397 870 397 1670 
Q 397 2189 557 2592 
Q 717 2995 1017 3222 
Q 1318 3450 1722 3450 
Q 2259 3450 2669 2995 
L 2714 3373 
L 3219 3373 
z
M 1798 390 
Q 2067 390 2259 515 
Q 2451 640 2630 890 
L 2630 2541 
Q 2464 2758 2275 2870 
Q 2086 2982 1850 2982 
Q 1459 2982 1244 2656 
Q 1030 2330 1030 1683 
Q 1030 1030 1228 710 
Q 1427 390 1798 390 
z
" transform="scale(0.015625)"/>
       <path id="FiraSans-Regular-75" d="M 3117 0 
L 2611 0 
L 2566 525 
Q 2374 211 2124 67 
Q 1875 -77 1517 -77 
Q 1075 -77 825 192 
Q 576 461 576 954 
L 576 3373 
L 1165 3373 
L 1165 1018 
Q 1165 672 1286 528 
Q 1408 384 1683 384 
Q 2176 384 2528 966 
L 2528 3373 
L 3117 3373 
L 3117 0 
z
" transform="scale(0.015625)"/>
       <path id="FiraSans-Regular-6b" d="M 1197 4800 
L 1197 0 
L 608 0 
L 608 4730 
L 1197 4800 
z
M 3136 3373 
L 1894 1882 
L 3277 0 
L 2573 0 
L 1235 1843 
L 2477 3373 
L 3136 3373 
z
" transform="scale(0.015625)"/>
       <path id="FiraSans-Regular-69" d="M 1197 3373 
L 1197 0 
L 608 0 
L 608 3373 
L 1197 3373 
z
M 896 4992 
Q 1082 4992 1197 4877 
Q 1312 4762 1312 4589 
Q 1312 4416 1197 4304 
Q 1082 4192 896 4192 
Q 717 4192 601 4304 
Q 486 4416 486 4589 
Q 486 4762 601 4877 
Q 717 4992 896 4992 
z
" transform="scale(0.015625)"/>
       <path id="FiraSans-Regular-6c" d="M 1280 -77 
Q 954 -77 765 118 
Q 576 314 576 666 
L 576 4730 
L 1165 4800 
L 1165 678 
Q 1165 538 1213 474 
Q 1261 410 1376 410 
Q 1498 410 1594 448 
L 1747 38 
Q 1536 -77 1280 -77 
z
" transform="scale(0.015625)"/>
       <path id="FiraSans-Regular-6f" d="M 1875 3450 
Q 2586 3450 2979 2976 
Q 3373 2502 3373 1690 
Q 3373 1165 3193 765 
Q 3014 365 2675 144 
Q 2336 -77 1869 -77 
Q 1158 -77 761 396 
Q 365 870 365 1683 
Q 365 2208 544 2608 
Q 723 3008 1062 3229 
Q 1402 3450 1875 3450 
z
M 1875 2976 
Q 998 2976 998 1683 
Q 998 397 1869 397 
Q 2739 397 2739 1690 
Q 2739 2976 1875 2976 
z
" transform="scale(0.015625)"/>
       <path id="FiraSans-Regular-6d" d="M 3994 3450 
Q 4410 3450 4659 3171 
Q 4909 2893 4909 2419 
L 4909 0 
L 4320 0 
L 4320 2336 
Q 4320 2989 3846 2989 
Q 3597 2989 3424 2845 
Q 3251 2701 3053 2394 
L 3053 0 
L 2464 0 
L 2464 2336 
Q 2464 2989 1990 2989 
Q 1734 2989 1561 2841 
Q 1389 2694 1197 2394 
L 1197 0 
L 608 0 
L 608 3373 
L 1114 3373 
L 1165 2880 
Q 1542 3450 2138 3450 
Q 2451 3450 2672 3290 
Q 2893 3130 2989 2842 
Q 3187 3136 3427 3293 
Q 3667 3450 3994 3450 
z
" transform="scale(0.015625)"/>
       <path id="FiraSans-Regular-74" d="M 2310 154 
Q 1978 -77 1555 -77 
Q 1126 -77 886 169 
Q 646 416 646 883 
L 646 2918 
L 58 2918 
L 58 3373 
L 646 3373 
L 646 4134 
L 1235 4205 
L 1235 3373 
L 2035 3373 
L 1971 2918 
L 1235 2918 
L 1235 909 
Q 1235 646 1328 528 
Q 1421 410 1638 410 
Q 1837 410 2086 544 
L 2310 154 
z
" transform="scale(0.015625)"/>
       <path id="FiraSans-Regular-29" d="M 627 5408 
Q 1050 4806 1277 4419 
Q 1504 4032 1661 3491 
Q 1818 2950 1818 2240 
Q 1818 1530 1661 989 
Q 1504 448 1277 61 
Q 1050 -326 627 -928 
L 256 -672 
Q 589 -186 784 208 
Q 979 602 1091 1094 
Q 1203 1587 1203 2240 
Q 1203 2899 1091 3392 
Q 979 3885 784 4272 
Q 589 4659 256 5152 
L 627 5408 
z
" transform="scale(0.015625)"/>
      </defs>
      <use xlink:href="#FiraSans-Regular-41"/>
      <use xlink:href="#FiraSans-Regular-72" x="57.299988"/>
      <use xlink:href="#FiraSans-Regular-65" x="95.899979"/>
      <use xlink:href="#FiraSans-Regular-61" x="150.399963"/>
      <use xlink:href="#FiraSans-Regular-73" x="204.799957"/>
      <use xlink:href="#FiraSans-Regular-20" x="251.499954"/>
      <use xlink:href="#FiraSans-Regular-28" x="277.999939"/>
      <use xlink:href="#FiraSans-Regular-73" x="310.399933"/>
      <use xlink:href="#FiraSans-Regular-71" x="357.09993"/>
      <use xlink:href="#FiraSans-Regular-75" x="416.899918"/>
      <use xlink:href="#FiraSans-Regular-61" x="475.099915"/>
      <use xlink:href="#FiraSans-Regular-72" x="529.499908"/>
      <use xlink:href="#FiraSans-Regular-65" x="568.099899"/>
      <use xlink:href="#FiraSans-Regular-20" x="622.599884"/>
      <use xlink:href="#FiraSans-Regular-6b" x="649.099869"/>
      <use xlink:href="#FiraSans-Regular-69" x="700.299866"/>
      <use xlink:href="#FiraSans-Regular-6c" x="728.499863"/>
      <use xlink:href="#FiraSans-Regular-6f" x="757.79985"/>
      <use xlink:href="#FiraSans-Regular-6d" x="816.199844"/>
      <use xlink:href="#FiraSans-Regular-65" x="901.899826"/>
      <use xlink:href="#FiraSans-Regular-74" x="956.399811"/>
      <use xlink:href="#FiraSans-Regular-65" x="992.499802"/>
      <use xlink:href="#FiraSans-Regular-72" x="1046.999786"/>
      <use xlink:href="#FiraSans-Regular-73" x="1085.599777"/>
      <use xlink:href="#FiraSans-Regular-29" x="1132.299774"/>
     </g>
    </g>
   </g>
   <g id="matplotlib.axis_2">
    <g id="ytick_1">
     <g id="line2d_17">
      <path d="M 63.420625 351.171094 
L 1091.320625 351.171094 
" clip-path="url(#p1e1bd741bc)" style="fill: none; stroke: #cccccc; stroke-width: 2; stroke-linecap: round"/>
     </g>
     <g id="line2d_18">
      <defs>
       <path id="m13e7636b86" d="M 0 0 
L -12 0 
" style="stroke: #262626; stroke-width: 2.5"/>
      </defs>
      <g>
       <use xlink:href="#m13e7636b86" x="63.420625" y="351.171094" style="fill: #262626; stroke: #262626; stroke-width: 2.5"/>
      </g>
     </g>
     <g id="text_10">
      <!-- BCN -->
      <g style="fill: #262626" transform="translate(7.2 359.421094) scale(0.22 -0.22)">
       <defs>
        <path id="FiraSans-Regular-42" d="M 2586 2330 
Q 3040 2253 3321 2009 
Q 3603 1766 3603 1254 
Q 3603 0 1856 0 
L 640 0 
L 640 4410 
L 1683 4410 
Q 2522 4410 2966 4134 
Q 3411 3859 3411 3296 
Q 3411 2912 3171 2656 
Q 2931 2400 2586 2330 
z
M 1248 3930 
L 1248 2541 
L 1914 2541 
Q 2298 2541 2544 2726 
Q 2790 2912 2790 3251 
Q 2790 3635 2531 3782 
Q 2272 3930 1747 3930 
L 1248 3930 
z
M 1856 486 
Q 2394 486 2678 646 
Q 2963 806 2963 1254 
Q 2963 1690 2688 1882 
Q 2413 2074 1971 2074 
L 1248 2074 
L 1248 486 
L 1856 486 
z
" transform="scale(0.015625)"/>
        <path id="FiraSans-Regular-43" d="M 2182 4486 
Q 2579 4486 2851 4384 
Q 3123 4282 3405 4051 
L 3072 3661 
Q 2669 3987 2221 3987 
Q 1670 3987 1334 3564 
Q 998 3142 998 2208 
Q 998 1299 1331 867 
Q 1664 435 2214 435 
Q 2496 435 2707 531 
Q 2918 627 3155 800 
L 3456 416 
Q 3251 205 2931 64 
Q 2611 -77 2195 -77 
Q 1658 -77 1238 188 
Q 819 454 585 969 
Q 352 1485 352 2208 
Q 352 2931 595 3446 
Q 838 3962 1254 4224 
Q 1670 4486 2182 4486 
z
" transform="scale(0.015625)"/>
        <path id="FiraSans-Regular-4e" d="M 3731 0 
L 2918 0 
L 1126 3744 
Q 1165 3302 1187 2928 
Q 1210 2554 1210 2022 
L 1210 0 
L 640 0 
L 640 4410 
L 1434 4410 
L 3245 659 
Q 3226 826 3194 1242 
Q 3162 1658 3162 2003 
L 3162 4410 
L 3731 4410 
L 3731 0 
z
" transform="scale(0.015625)"/>
       </defs>
       <use xlink:href="#FiraSans-Regular-42"/>
       <use xlink:href="#FiraSans-Regular-43" x="60.799988"/>
       <use xlink:href="#FiraSans-Regular-4e" x="116.799973"/>
      </g>
     </g>
    </g>
    <g id="ytick_2">
     <g id="line2d_19">
      <path d="M 63.420625 121.857031 
L 1091.320625 121.857031 
" clip-path="url(#p1e1bd741bc)" style="fill: none; stroke: #cccccc; stroke-width: 2; stroke-linecap: round"/>
     </g>
     <g id="line2d_20">
      <g>
       <use xlink:href="#m13e7636b86" x="63.420625" y="121.857031" style="fill: #262626; stroke: #262626; stroke-width: 2.5"/>
      </g>
     </g>
     <g id="text_11">
      <!-- MI -->
      <g style="fill: #262626" transform="translate(24.315313 130.107031) scale(0.22 -0.22)">
       <defs>
        <path id="FiraSans-Regular-4d" d="M 4582 0 
L 3994 0 
L 3840 1990 
Q 3744 3162 3731 3789 
L 2778 499 
L 2208 499 
L 1203 3795 
Q 1203 2995 1120 1946 
L 973 0 
L 397 0 
L 762 4410 
L 1581 4410 
L 2509 1203 
L 3392 4410 
L 4218 4410 
L 4582 0 
z
" transform="scale(0.015625)"/>
        <path id="FiraSans-Regular-49" d="M 1248 4410 
L 1248 0 
L 640 0 
L 640 4410 
L 1248 4410 
z
" transform="scale(0.015625)"/>
       </defs>
       <use xlink:href="#FiraSans-Regular-4d"/>
       <use xlink:href="#FiraSans-Regular-49" x="77.799988"/>
      </g>
     </g>
    </g>
   </g>
   <g id="patch_3">
    <path d="M 63.420625 408.499609 
L 1042.373006 408.499609 
L 1042.373006 351.171094 
L 63.420625 351.171094 
z
" clip-path="url(#p1e1bd741bc)" style="fill: #1f77b4; stroke: #ffffff; stroke-width: 2; stroke-linejoin: miter"/>
   </g>
   <g id="patch_4">
    <path d="M 63.420625 179.185547 
L 766.830231 179.185547 
L 766.830231 121.857031 
L 63.420625 121.857031 
z
" clip-path="url(#p1e1bd741bc)" style="fill: #1f77b4; stroke: #ffffff; stroke-width: 2; stroke-linejoin: miter"/>
   </g>
   <g id="patch_5">
    <path d="M 63.420625 351.171094 
L 614.684415 351.171094 
L 614.684415 293.842578 
L 63.420625 293.842578 
z
" clip-path="url(#p1e1bd741bc)" style="fill: #ff7f0e; stroke: #ffffff; stroke-width: 2; stroke-linejoin: miter"/>
   </g>
   <g id="patch_6">
    <path d="M 63.420625 121.857031 
L 344.304789 121.857031 
L 344.304789 64.528516 
L 63.420625 64.528516 
z
" clip-path="url(#p1e1bd741bc)" style="fill: #ff7f0e; stroke: #ffffff; stroke-width: 2; stroke-linejoin: miter"/>
   </g>
   <g id="patch_7">
    <path d="M 63.420625 465.828125 
L 63.420625 7.2 
" style="fill: none; stroke: #262626; stroke-width: 2.5; stroke-linejoin: miter; stroke-linecap: square"/>
   </g>
   <g id="patch_8">
    <path d="M 1091.320625 465.828125 
L 1091.320625 7.2 
" style="fill: none; stroke: #262626; stroke-width: 2.5; stroke-linejoin: miter; stroke-linecap: square"/>
   </g>
   <g id="patch_9">
    <path d="M 63.420625 465.828125 
L 1091.320625 465.828125 
" style="fill: none; stroke: #262626; stroke-width: 2.5; stroke-linejoin: miter; stroke-linecap: square"/>
   </g>
   <g id="patch_10">
    <path d="M 63.420625 7.2 
L 1091.320625 7.2 
" style="fill: none; stroke: #262626; stroke-width: 2.5; stroke-linejoin: miter; stroke-linecap: square"/>
   </g>
   <g id="text_12">
    <!-- 145.52 -->
    <g style="fill: #262626" transform="translate(1045.373006 385.742695) scale(0.22 -0.22)">
     <defs>
      <path id="FiraSans-Regular-35" d="M 2688 3821 
L 1018 3821 
L 1018 2560 
Q 1344 2726 1702 2726 
Q 2253 2726 2585 2364 
Q 2918 2003 2918 1370 
Q 2918 947 2732 617 
Q 2547 288 2211 105 
Q 1875 -77 1434 -77 
Q 1043 -77 736 60 
Q 429 198 166 467 
L 512 806 
Q 717 602 934 502 
Q 1152 403 1427 403 
Q 1837 403 2070 659 
Q 2304 915 2304 1382 
Q 2304 1850 2093 2061 
Q 1882 2272 1523 2272 
Q 1357 2272 1216 2237 
Q 1075 2202 915 2125 
L 454 2125 
L 454 4282 
L 2771 4282 
L 2688 3821 
z
" transform="scale(0.015625)"/>
      <path id="FiraSans-Regular-2e" d="M 762 813 
Q 954 813 1082 685 
Q 1210 557 1210 371 
Q 1210 186 1082 54 
Q 954 -77 762 -77 
Q 576 -77 448 54 
Q 320 186 320 371 
Q 320 557 448 685 
Q 576 813 762 813 
z
" transform="scale(0.015625)"/>
     </defs>
     <use xlink:href="#FiraSans-Regular-31"/>
     <use xlink:href="#FiraSans-Regular-34" x="43.299988"/>
     <use xlink:href="#FiraSans-Regular-35" x="96.499985"/>
     <use xlink:href="#FiraSans-Regular-2e" x="146.599976"/>
     <use xlink:href="#FiraSans-Regular-35" x="170.59996"/>
     <use xlink:href="#FiraSans-Regular-32" x="220.699951"/>
    </g>
   </g>
   <g id="text_13">
    <!-- 104.56 -->
    <g style="fill: #262626" transform="translate(769.830231 156.428633) scale(0.22 -0.22)">
     <use xlink:href="#FiraSans-Regular-31"/>
     <use xlink:href="#FiraSans-Regular-30" x="43.299988"/>
     <use xlink:href="#FiraSans-Regular-34" x="99.099976"/>
     <use xlink:href="#FiraSans-Regular-2e" x="152.299973"/>
     <use xlink:href="#FiraSans-Regular-35" x="176.299957"/>
     <use xlink:href="#FiraSans-Regular-36" x="226.399948"/>
    </g>
   </g>
   <g id="text_14">
    <!-- 81.94 -->
    <g style="fill: #262626" transform="translate(617.684415 328.41418) scale(0.22 -0.22)">
     <defs>
      <path id="FiraSans-Regular-39" d="M 1658 4346 
Q 2336 4346 2688 3901 
Q 3040 3456 3040 2682 
Q 3040 1805 2803 1270 
Q 2566 736 2080 419 
Q 1594 102 762 -141 
L 627 301 
Q 1485 544 1942 960 
Q 2400 1376 2432 2067 
Q 2285 1837 2035 1696 
Q 1786 1555 1472 1555 
Q 1139 1555 870 1724 
Q 602 1894 445 2204 
Q 288 2515 288 2931 
Q 288 3366 473 3686 
Q 659 4006 969 4176 
Q 1280 4346 1658 4346 
z
M 1594 2016 
Q 2099 2016 2445 2547 
Q 2458 3258 2269 3568 
Q 2080 3878 1670 3878 
Q 1293 3878 1088 3628 
Q 883 3379 883 2918 
Q 883 2470 1075 2243 
Q 1267 2016 1594 2016 
z
" transform="scale(0.015625)"/>
     </defs>
     <use xlink:href="#FiraSans-Regular-38"/>
     <use xlink:href="#FiraSans-Regular-31" x="55.099991"/>
     <use xlink:href="#FiraSans-Regular-2e" x="98.399979"/>
     <use xlink:href="#FiraSans-Regular-39" x="122.399963"/>
     <use xlink:href="#FiraSans-Regular-34" x="174.899948"/>
    </g>
   </g>
   <g id="text_15">
    <!-- 41.75 -->
    <g style="fill: #262626" transform="translate(347.304789 99.100117) scale(0.22 -0.22)">
     <defs>
      <path id="FiraSans-Regular-37" d="M 2650 4282 
L 2650 3840 
L 1050 -64 
L 512 115 
L 2054 3802 
L 160 3802 
L 160 4282 
L 2650 4282 
z
" transform="scale(0.015625)"/>
     </defs>
     <use xlink:href="#FiraSans-Regular-34"/>
     <use xlink:href="#FiraSans-Regular-31" x="53.199997"/>
     <use xlink:href="#FiraSans-Regular-2e" x="96.499985"/>
     <use xlink:href="#FiraSans-Regular-37" x="120.499969"/>
     <use xlink:href="#FiraSans-Regular-35" x="164.899963"/>
    </g>
   </g>
   <g id="legend_1">
    <g id="patch_11">
     <path d="M 1158.115625 272.329375 
L 1416.175625 272.329375 
Q 1420.575625 272.329375 1420.575625 267.929375 
L 1420.575625 205.09875 
Q 1420.575625 200.69875 1416.175625 200.69875 
L 1158.115625 200.69875 
Q 1153.715625 200.69875 1153.715625 205.09875 
L 1153.715625 267.929375 
Q 1153.715625 272.329375 1158.115625 272.329375 
z
" style="fill: #ffffff; opacity: 0.8; stroke: #cccccc; stroke-width: 2; stroke-linejoin: miter"/>
    </g>
    <g id="patch_12">
     <path d="M 1162.515625 225.99875 
L 1206.515625 225.99875 
L 1206.515625 210.59875 
L 1162.515625 210.59875 
z
" style="fill: #1f77b4; stroke: #ffffff; stroke-width: 2; stroke-linejoin: miter"/>
    </g>
    <g id="text_16">
     <!-- Total area reached -->
     <g style="fill: #262626" transform="translate(1224.115625 225.99875) scale(0.22 -0.22)">
      <defs>
       <path id="FiraSans-Regular-54" d="M 3245 4410 
L 3181 3891 
L 1958 3891 
L 1958 0 
L 1350 0 
L 1350 3891 
L 96 3891 
L 96 4410 
L 3245 4410 
z
" transform="scale(0.015625)"/>
       <path id="FiraSans-Regular-63" d="M 1837 3450 
Q 2138 3450 2387 3363 
Q 2637 3277 2867 3085 
L 2586 2714 
Q 2406 2842 2236 2902 
Q 2067 2963 1862 2963 
Q 1453 2963 1225 2636 
Q 998 2310 998 1670 
Q 998 1030 1222 726 
Q 1446 422 1862 422 
Q 2061 422 2227 483 
Q 2394 544 2598 678 
L 2867 294 
Q 2406 -77 1837 -77 
Q 1152 -77 758 384 
Q 365 845 365 1658 
Q 365 2195 544 2598 
Q 723 3002 1052 3226 
Q 1382 3450 1837 3450 
z
" transform="scale(0.015625)"/>
       <path id="FiraSans-Regular-68" d="M 2195 3450 
Q 2656 3450 2915 3174 
Q 3174 2899 3174 2419 
L 3174 0 
L 2586 0 
L 2586 2336 
Q 2586 2694 2448 2841 
Q 2310 2989 2048 2989 
Q 1786 2989 1581 2835 
Q 1376 2682 1197 2400 
L 1197 0 
L 608 0 
L 608 4723 
L 1197 4787 
L 1197 2906 
Q 1594 3450 2195 3450 
z
" transform="scale(0.015625)"/>
       <path id="FiraSans-Regular-64" d="M 3219 4730 
L 3219 0 
L 2701 0 
L 2643 467 
Q 2477 211 2227 67 
Q 1978 -77 1670 -77 
Q 1069 -77 733 396 
Q 397 870 397 1670 
Q 397 2189 557 2592 
Q 717 2995 1017 3222 
Q 1318 3450 1722 3450 
Q 2240 3450 2630 3034 
L 2630 4800 
L 3219 4730 
z
M 1798 390 
Q 2067 390 2259 515 
Q 2451 640 2630 890 
L 2630 2541 
Q 2464 2758 2275 2870 
Q 2086 2982 1850 2982 
Q 1459 2982 1244 2656 
Q 1030 2330 1030 1683 
Q 1030 1030 1228 710 
Q 1427 390 1798 390 
z
" transform="scale(0.015625)"/>
      </defs>
      <use xlink:href="#FiraSans-Regular-54"/>
      <use xlink:href="#FiraSans-Regular-6f" x="51.699997"/>
      <use xlink:href="#FiraSans-Regular-74" x="110.099991"/>
      <use xlink:href="#FiraSans-Regular-61" x="146.199982"/>
      <use xlink:href="#FiraSans-Regular-6c" x="200.599976"/>
      <use xlink:href="#FiraSans-Regular-20" x="229.899963"/>
      <use xlink:href="#FiraSans-Regular-61" x="256.399948"/>
      <use xlink:href="#FiraSans-Regular-72" x="310.799942"/>
      <use xlink:href="#FiraSans-Regular-65" x="349.399933"/>
      <use xlink:href="#FiraSans-Regular-61" x="403.899918"/>
      <use xlink:href="#FiraSans-Regular-20" x="458.299911"/>
      <use xlink:href="#FiraSans-Regular-72" x="484.799896"/>
      <use xlink:href="#FiraSans-Regular-65" x="523.399887"/>
      <use xlink:href="#FiraSans-Regular-61" x="577.899872"/>
      <use xlink:href="#FiraSans-Regular-63" x="632.299866"/>
      <use xlink:href="#FiraSans-Regular-68" x="680.099854"/>
      <use xlink:href="#FiraSans-Regular-65" x="738.699844"/>
      <use xlink:href="#FiraSans-Regular-64" x="793.199829"/>
     </g>
    </g>
    <g id="patch_13">
     <path d="M 1162.515625 258.844062 
L 1206.515625 258.844062 
L 1206.515625 243.444062 
L 1162.515625 243.444062 
z
" style="fill: #ff7f0e; stroke: #ffffff; stroke-width: 2; stroke-linejoin: miter"/>
    </g>
    <g id="text_17">
     <!-- Overlapping area -->
     <g style="fill: #262626" transform="translate(1224.115625 258.844062) scale(0.22 -0.22)">
      <defs>
       <path id="FiraSans-Regular-4f" d="M 2214 4486 
Q 2771 4486 3190 4220 
Q 3610 3955 3843 3443 
Q 4077 2931 4077 2202 
Q 4077 1485 3843 973 
Q 3610 461 3190 192 
Q 2771 -77 2214 -77 
Q 1658 -77 1238 185 
Q 819 448 585 960 
Q 352 1472 352 2195 
Q 352 2906 585 3424 
Q 819 3942 1241 4214 
Q 1664 4486 2214 4486 
z
M 2214 3987 
Q 1638 3987 1318 3552 
Q 998 3117 998 2195 
Q 998 1280 1321 851 
Q 1645 422 2214 422 
Q 3430 422 3430 2202 
Q 3430 3987 2214 3987 
z
" transform="scale(0.015625)"/>
       <path id="FiraSans-Regular-76" d="M 3085 3373 
L 1939 0 
L 1229 0 
L 64 3373 
L 704 3373 
L 1587 525 
L 2464 3373 
L 3085 3373 
z
" transform="scale(0.015625)"/>
       <path id="FiraSans-Regular-70" d="M 2157 3450 
Q 2803 3450 3104 2989 
Q 3405 2528 3405 1690 
Q 3405 896 3059 409 
Q 2714 -77 2080 -77 
Q 1517 -77 1197 307 
L 1197 -1293 
L 608 -1363 
L 608 3373 
L 1114 3373 
L 1158 2918 
Q 1344 3174 1606 3312 
Q 1869 3450 2157 3450 
z
M 1939 403 
Q 2771 403 2771 1690 
Q 2771 2982 2010 2982 
Q 1760 2982 1555 2835 
Q 1350 2688 1197 2458 
L 1197 813 
Q 1325 614 1517 508 
Q 1709 403 1939 403 
z
" transform="scale(0.015625)"/>
       <path id="FiraSans-Regular-6e" d="M 2195 3450 
Q 2656 3450 2915 3174 
Q 3174 2899 3174 2419 
L 3174 0 
L 2586 0 
L 2586 2336 
Q 2586 2694 2451 2841 
Q 2317 2989 2054 2989 
Q 1786 2989 1581 2835 
Q 1376 2682 1197 2394 
L 1197 0 
L 608 0 
L 608 3373 
L 1114 3373 
L 1165 2874 
Q 1344 3142 1609 3296 
Q 1875 3450 2195 3450 
z
" transform="scale(0.015625)"/>
       <path id="FiraSans-Regular-67" d="M 3328 3219 
Q 3136 3155 2905 3136 
Q 2675 3117 2342 3117 
Q 2938 2848 2938 2266 
Q 2938 1760 2592 1440 
Q 2246 1120 1651 1120 
Q 1421 1120 1222 1184 
Q 1146 1133 1101 1046 
Q 1056 960 1056 870 
Q 1056 595 1498 595 
L 2035 595 
Q 2374 595 2636 473 
Q 2899 352 3043 141 
Q 3187 -70 3187 -339 
Q 3187 -832 2784 -1097 
Q 2381 -1363 1606 -1363 
Q 1062 -1363 745 -1251 
Q 429 -1139 294 -915 
Q 160 -691 160 -339 
L 691 -339 
Q 691 -544 768 -662 
Q 845 -781 1043 -841 
Q 1242 -902 1606 -902 
Q 2138 -902 2365 -771 
Q 2592 -640 2592 -378 
Q 2592 -141 2413 -19 
Q 2234 102 1914 102 
L 1382 102 
Q 954 102 733 284 
Q 512 467 512 742 
Q 512 909 608 1062 
Q 704 1216 883 1338 
Q 589 1491 451 1718 
Q 314 1946 314 2272 
Q 314 2611 483 2880 
Q 653 3149 950 3299 
Q 1248 3450 1613 3450 
Q 2010 3443 2278 3478 
Q 2547 3514 2723 3574 
Q 2899 3635 3155 3750 
L 3328 3219 
z
M 1613 3027 
Q 1280 3027 1097 2819 
Q 915 2611 915 2272 
Q 915 1926 1100 1718 
Q 1286 1510 1626 1510 
Q 1971 1510 2153 1712 
Q 2336 1914 2336 2278 
Q 2336 3027 1613 3027 
z
" transform="scale(0.015625)"/>
      </defs>
      <use xlink:href="#FiraSans-Regular-4f"/>
      <use xlink:href="#FiraSans-Regular-76" x="69.199982"/>
      <use xlink:href="#FiraSans-Regular-65" x="118.399979"/>
      <use xlink:href="#FiraSans-Regular-72" x="172.899963"/>
      <use xlink:href="#FiraSans-Regular-6c" x="211.499954"/>
      <use xlink:href="#FiraSans-Regular-61" x="240.799942"/>
      <use xlink:href="#FiraSans-Regular-70" x="295.199936"/>
      <use xlink:href="#FiraSans-Regular-70" x="354.59993"/>
      <use xlink:href="#FiraSans-Regular-69" x="413.999924"/>
      <use xlink:href="#FiraSans-Regular-6e" x="442.199921"/>
      <use xlink:href="#FiraSans-Regular-67" x="500.799911"/>
      <use xlink:href="#FiraSans-Regular-20" x="552.799896"/>
      <use xlink:href="#FiraSans-Regular-61" x="579.299881"/>
      <use xlink:href="#FiraSans-Regular-72" x="633.699875"/>
      <use xlink:href="#FiraSans-Regular-65" x="672.299866"/>
      <use xlink:href="#FiraSans-Regular-61" x="726.79985"/>
     </g>
    </g>
   </g>
  </g>
  <g id="axes_2">
   <g id="patch_14">
    <path d="M 63.420625 1001.365625 
L 1091.320625 1001.365625 
L 1091.320625 542.7375 
L 63.420625 542.7375 
z
" style="fill: #ffffff"/>
   </g>
   <g id="matplotlib.axis_3">
    <g id="xtick_9">
     <g id="line2d_21">
      <path d="M 63.420625 1001.365625 
L 63.420625 542.7375 
" clip-path="url(#p9cffccf514)" style="fill: none; stroke: #cccccc; stroke-width: 2; stroke-linecap: round"/>
     </g>
     <g id="line2d_22">
      <g>
       <use xlink:href="#m90a79500d4" x="63.420625" y="1001.365625" style="fill: #262626; stroke: #262626; stroke-width: 2.5"/>
      </g>
     </g>
     <g id="text_18">
      <!-- 0.0 -->
      <g style="fill: #262626" transform="translate(48.505313 1033.365625) scale(0.22 -0.22)">
       <use xlink:href="#FiraSans-Regular-30"/>
       <use xlink:href="#FiraSans-Regular-2e" x="55.799988"/>
       <use xlink:href="#FiraSans-Regular-30" x="79.799973"/>
      </g>
     </g>
    </g>
    <g id="xtick_10">
     <g id="line2d_23">
      <path d="M 204.385798 1001.365625 
L 204.385798 542.7375 
" clip-path="url(#p9cffccf514)" style="fill: none; stroke: #cccccc; stroke-width: 2; stroke-linecap: round"/>
     </g>
     <g id="line2d_24">
      <g>
       <use xlink:href="#m90a79500d4" x="204.385798" y="1001.365625" style="fill: #262626; stroke: #262626; stroke-width: 2.5"/>
      </g>
     </g>
     <g id="text_19">
      <!-- 0.2 -->
      <g style="fill: #262626" transform="translate(190.163142 1033.365625) scale(0.22 -0.22)">
       <use xlink:href="#FiraSans-Regular-30"/>
       <use xlink:href="#FiraSans-Regular-2e" x="55.799988"/>
       <use xlink:href="#FiraSans-Regular-32" x="79.799973"/>
      </g>
     </g>
    </g>
    <g id="xtick_11">
     <g id="line2d_25">
      <path d="M 345.350972 1001.365625 
L 345.350972 542.7375 
" clip-path="url(#p9cffccf514)" style="fill: none; stroke: #cccccc; stroke-width: 2; stroke-linecap: round"/>
     </g>
     <g id="line2d_26">
      <g>
       <use xlink:href="#m90a79500d4" x="345.350972" y="1001.365625" style="fill: #262626; stroke: #262626; stroke-width: 2.5"/>
      </g>
     </g>
     <g id="text_20">
      <!-- 0.4 -->
      <g style="fill: #262626" transform="translate(330.720972 1033.365625) scale(0.22 -0.22)">
       <use xlink:href="#FiraSans-Regular-30"/>
       <use xlink:href="#FiraSans-Regular-2e" x="55.799988"/>
       <use xlink:href="#FiraSans-Regular-34" x="79.799973"/>
      </g>
     </g>
    </g>
    <g id="xtick_12">
     <g id="line2d_27">
      <path d="M 486.316145 1001.365625 
L 486.316145 542.7375 
" clip-path="url(#p9cffccf514)" style="fill: none; stroke: #cccccc; stroke-width: 2; stroke-linecap: round"/>
     </g>
     <g id="line2d_28">
      <g>
       <use xlink:href="#m90a79500d4" x="486.316145" y="1001.365625" style="fill: #262626; stroke: #262626; stroke-width: 2.5"/>
      </g>
     </g>
     <g id="text_21">
      <!-- 0.6 -->
      <g style="fill: #262626" transform="translate(471.675832 1033.365625) scale(0.22 -0.22)">
       <use xlink:href="#FiraSans-Regular-30"/>
       <use xlink:href="#FiraSans-Regular-2e" x="55.799988"/>
       <use xlink:href="#FiraSans-Regular-36" x="79.799973"/>
      </g>
     </g>
    </g>
    <g id="xtick_13">
     <g id="line2d_29">
      <path d="M 627.281318 1001.365625 
L 627.281318 542.7375 
" clip-path="url(#p9cffccf514)" style="fill: none; stroke: #cccccc; stroke-width: 2; stroke-linecap: round"/>
     </g>
     <g id="line2d_30">
      <g>
       <use xlink:href="#m90a79500d4" x="627.281318" y="1001.365625" style="fill: #262626; stroke: #262626; stroke-width: 2.5"/>
      </g>
     </g>
     <g id="text_22">
      <!-- 0.8 -->
      <g style="fill: #262626" transform="translate(612.443349 1033.365625) scale(0.22 -0.22)">
       <use xlink:href="#FiraSans-Regular-30"/>
       <use xlink:href="#FiraSans-Regular-2e" x="55.799988"/>
       <use xlink:href="#FiraSans-Regular-38" x="79.799973"/>
      </g>
     </g>
    </g>
    <g id="xtick_14">
     <g id="line2d_31">
      <path d="M 768.246491 1001.365625 
L 768.246491 542.7375 
" clip-path="url(#p9cffccf514)" style="fill: none; stroke: #cccccc; stroke-width: 2; stroke-linecap: round"/>
     </g>
     <g id="line2d_32">
      <g>
       <use xlink:href="#m90a79500d4" x="768.246491" y="1001.365625" style="fill: #262626; stroke: #262626; stroke-width: 2.5"/>
      </g>
     </g>
     <g id="text_23">
      <!-- 1.0 -->
      <g style="fill: #262626" transform="translate(754.706179 1033.365625) scale(0.22 -0.22)">
       <use xlink:href="#FiraSans-Regular-31"/>
       <use xlink:href="#FiraSans-Regular-2e" x="43.299988"/>
       <use xlink:href="#FiraSans-Regular-30" x="67.299973"/>
      </g>
     </g>
    </g>
    <g id="xtick_15">
     <g id="line2d_33">
      <path d="M 909.211665 1001.365625 
L 909.211665 542.7375 
" clip-path="url(#p9cffccf514)" style="fill: none; stroke: #cccccc; stroke-width: 2; stroke-linecap: round"/>
     </g>
     <g id="line2d_34">
      <g>
       <use xlink:href="#m90a79500d4" x="909.211665" y="1001.365625" style="fill: #262626; stroke: #262626; stroke-width: 2.5"/>
      </g>
     </g>
     <g id="text_24">
      <!-- 1.2 -->
      <g style="fill: #262626" transform="translate(896.364008 1033.365625) scale(0.22 -0.22)">
       <use xlink:href="#FiraSans-Regular-31"/>
       <use xlink:href="#FiraSans-Regular-2e" x="43.299988"/>
       <use xlink:href="#FiraSans-Regular-32" x="67.299973"/>
      </g>
     </g>
    </g>
    <g id="xtick_16">
     <g id="line2d_35">
      <path d="M 1050.176838 1001.365625 
L 1050.176838 542.7375 
" clip-path="url(#p9cffccf514)" style="fill: none; stroke: #cccccc; stroke-width: 2; stroke-linecap: round"/>
     </g>
     <g id="line2d_36">
      <g>
       <use xlink:href="#m90a79500d4" x="1050.176838" y="1001.365625" style="fill: #262626; stroke: #262626; stroke-width: 2.5"/>
      </g>
     </g>
     <g id="text_25">
      <!-- 1.4 -->
      <g style="fill: #262626" transform="translate(1036.921838 1033.365625) scale(0.22 -0.22)">
       <use xlink:href="#FiraSans-Regular-31"/>
       <use xlink:href="#FiraSans-Regular-2e" x="43.299988"/>
       <use xlink:href="#FiraSans-Regular-34" x="67.299973"/>
      </g>
     </g>
    </g>
    <g id="text_26">
     <!-- Population reached -->
     <g style="fill: #262626" transform="translate(470.115 1060.770937) scale(0.24 -0.24)">
      <defs>
       <path id="FiraSans-Regular-50" d="M 1798 4410 
Q 2618 4410 3066 4067 
Q 3514 3725 3514 3046 
Q 3514 2323 3046 1971 
Q 2579 1619 1805 1619 
L 1248 1619 
L 1248 0 
L 640 0 
L 640 4410 
L 1798 4410 
z
M 1779 2099 
Q 2310 2099 2588 2304 
Q 2867 2509 2867 3040 
Q 2867 3514 2588 3725 
Q 2310 3936 1792 3936 
L 1248 3936 
L 1248 2099 
L 1779 2099 
z
" transform="scale(0.015625)"/>
      </defs>
      <use xlink:href="#FiraSans-Regular-50"/>
      <use xlink:href="#FiraSans-Regular-6f" x="58.099991"/>
      <use xlink:href="#FiraSans-Regular-70" x="116.499985"/>
      <use xlink:href="#FiraSans-Regular-75" x="175.899979"/>
      <use xlink:href="#FiraSans-Regular-6c" x="234.099976"/>
      <use xlink:href="#FiraSans-Regular-61" x="263.399963"/>
      <use xlink:href="#FiraSans-Regular-74" x="317.799957"/>
      <use xlink:href="#FiraSans-Regular-69" x="353.899948"/>
      <use xlink:href="#FiraSans-Regular-6f" x="382.099945"/>
      <use xlink:href="#FiraSans-Regular-6e" x="440.499939"/>
      <use xlink:href="#FiraSans-Regular-20" x="499.09993"/>
      <use xlink:href="#FiraSans-Regular-72" x="525.599915"/>
      <use xlink:href="#FiraSans-Regular-65" x="564.199905"/>
      <use xlink:href="#FiraSans-Regular-61" x="618.69989"/>
      <use xlink:href="#FiraSans-Regular-63" x="673.099884"/>
      <use xlink:href="#FiraSans-Regular-68" x="720.899872"/>
      <use xlink:href="#FiraSans-Regular-65" x="779.499863"/>
      <use xlink:href="#FiraSans-Regular-64" x="833.999847"/>
     </g>
    </g>
    <g id="text_27">
     <!-- 1e6 -->
     <g style="fill: #262626" transform="translate(1058.08 1057.550937) scale(0.22 -0.22)">
      <use xlink:href="#FiraSans-Regular-31"/>
      <use xlink:href="#FiraSans-Regular-65" x="43.299988"/>
      <use xlink:href="#FiraSans-Regular-36" x="97.799973"/>
     </g>
    </g>
   </g>
   <g id="matplotlib.axis_4">
    <g id="ytick_3">
     <g id="line2d_37">
      <path d="M 63.420625 886.708594 
L 1091.320625 886.708594 
" clip-path="url(#p9cffccf514)" style="fill: none; stroke: #cccccc; stroke-width: 2; stroke-linecap: round"/>
     </g>
     <g id="line2d_38">
      <g>
       <use xlink:href="#m13e7636b86" x="63.420625" y="886.708594" style="fill: #262626; stroke: #262626; stroke-width: 2.5"/>
      </g>
     </g>
     <g id="text_28">
      <!-- MI -->
      <g style="fill: #262626" transform="translate(24.315313 894.958594) scale(0.22 -0.22)">
       <use xlink:href="#FiraSans-Regular-4d"/>
       <use xlink:href="#FiraSans-Regular-49" x="77.799988"/>
      </g>
     </g>
    </g>
    <g id="ytick_4">
     <g id="line2d_39">
      <path d="M 63.420625 657.394531 
L 1091.320625 657.394531 
" clip-path="url(#p9cffccf514)" style="fill: none; stroke: #cccccc; stroke-width: 2; stroke-linecap: round"/>
     </g>
     <g id="line2d_40">
      <g>
       <use xlink:href="#m13e7636b86" x="63.420625" y="657.394531" style="fill: #262626; stroke: #262626; stroke-width: 2.5"/>
      </g>
     </g>
     <g id="text_29">
      <!-- BCN -->
      <g style="fill: #262626" transform="translate(7.2 665.644531) scale(0.22 -0.22)">
       <use xlink:href="#FiraSans-Regular-42"/>
       <use xlink:href="#FiraSans-Regular-43" x="60.799988"/>
       <use xlink:href="#FiraSans-Regular-4e" x="116.799973"/>
      </g>
     </g>
    </g>
   </g>
   <g id="patch_15">
    <path d="M 63.420625 944.037109 
L 457.447182 944.037109 
L 457.447182 905.818099 
L 63.420625 905.818099 
z
" clip-path="url(#p9cffccf514)" style="fill: #b2df8a; stroke: #ffffff; stroke-width: 2; stroke-linejoin: miter"/>
   </g>
   <g id="patch_16">
    <path d="M 63.420625 714.723047 
L 1042.373006 714.723047 
L 1042.373006 676.504036 
L 63.420625 676.504036 
z
" clip-path="url(#p9cffccf514)" style="fill: #b2df8a; stroke: #ffffff; stroke-width: 2; stroke-linejoin: miter"/>
   </g>
   <g id="patch_17">
    <path d="M 63.420625 905.818099 
L 233.887695 905.818099 
L 233.887695 867.599089 
L 63.420625 867.599089 
z
" clip-path="url(#p9cffccf514)" style="fill: #a6cee3; stroke: #ffffff; stroke-width: 2; stroke-linejoin: miter"/>
   </g>
   <g id="patch_18">
    <path d="M 63.420625 676.504036 
L 530.248646 676.504036 
L 530.248646 638.285026 
L 63.420625 638.285026 
z
" clip-path="url(#p9cffccf514)" style="fill: #a6cee3; stroke: #ffffff; stroke-width: 2; stroke-linejoin: miter"/>
   </g>
   <g id="patch_19">
    <path d="M 63.420625 867.599089 
L 248.187907 867.599089 
L 248.187907 829.380078 
L 63.420625 829.380078 
z
" clip-path="url(#p9cffccf514)" style="fill: #fb9a99; stroke: #ffffff; stroke-width: 2; stroke-linejoin: miter"/>
   </g>
   <g id="patch_20">
    <path d="M 63.420625 638.285026 
L 575.544985 638.285026 
L 575.544985 600.066016 
L 63.420625 600.066016 
z
" clip-path="url(#p9cffccf514)" style="fill: #fb9a99; stroke: #ffffff; stroke-width: 2; stroke-linejoin: miter"/>
   </g>
   <g id="patch_21">
    <path d="M 63.420625 1001.365625 
L 63.420625 542.7375 
" style="fill: none; stroke: #262626; stroke-width: 2.5; stroke-linejoin: miter; stroke-linecap: square"/>
   </g>
   <g id="patch_22">
    <path d="M 1091.320625 1001.365625 
L 1091.320625 542.7375 
" style="fill: none; stroke: #262626; stroke-width: 2.5; stroke-linejoin: miter; stroke-linecap: square"/>
   </g>
   <g id="patch_23">
    <path d="M 63.420625 1001.365625 
L 1091.320625 1001.365625 
" style="fill: none; stroke: #262626; stroke-width: 2.5; stroke-linejoin: miter; stroke-linecap: square"/>
   </g>
   <g id="patch_24">
    <path d="M 63.420625 542.7375 
L 1091.320625 542.7375 
" style="fill: none; stroke: #262626; stroke-width: 2.5; stroke-linejoin: miter; stroke-linecap: square"/>
   </g>
   <g id="text_30">
    <!-- 559041 -->
    <g style="fill: #262626" transform="translate(460.447182 930.834948) scale(0.22 -0.22)">
     <use xlink:href="#FiraSans-Regular-35"/>
     <use xlink:href="#FiraSans-Regular-35" x="50.099991"/>
     <use xlink:href="#FiraSans-Regular-39" x="100.199982"/>
     <use xlink:href="#FiraSans-Regular-30" x="152.699966"/>
     <use xlink:href="#FiraSans-Regular-34" x="208.499954"/>
     <use xlink:href="#FiraSans-Regular-31" x="261.699951"/>
    </g>
   </g>
   <g id="text_31">
    <!-- 1388928 -->
    <g style="fill: #262626" transform="translate(1045.373006 701.520885) scale(0.22 -0.22)">
     <defs>
      <path id="FiraSans-Regular-33" d="M 1440 4346 
Q 1837 4346 2121 4198 
Q 2406 4051 2556 3801 
Q 2707 3552 2707 3258 
Q 2707 2867 2480 2614 
Q 2253 2362 1875 2272 
Q 2304 2234 2573 1965 
Q 2842 1696 2842 1235 
Q 2842 864 2662 563 
Q 2483 262 2150 92 
Q 1818 -77 1382 -77 
Q 992 -77 665 67 
Q 339 211 96 499 
L 448 826 
Q 659 608 880 505 
Q 1101 403 1363 403 
Q 1766 403 1996 630 
Q 2227 858 2227 1242 
Q 2227 1664 2009 1837 
Q 1792 2010 1376 2010 
L 1056 2010 
L 1126 2464 
L 1344 2464 
Q 1677 2464 1897 2662 
Q 2118 2861 2118 3219 
Q 2118 3520 1926 3696 
Q 1734 3872 1408 3872 
Q 1158 3872 950 3782 
Q 742 3693 525 3488 
L 218 3840 
Q 762 4346 1440 4346 
z
" transform="scale(0.015625)"/>
     </defs>
     <use xlink:href="#FiraSans-Regular-31"/>
     <use xlink:href="#FiraSans-Regular-33" x="43.299988"/>
     <use xlink:href="#FiraSans-Regular-38" x="93.199982"/>
     <use xlink:href="#FiraSans-Regular-38" x="148.299973"/>
     <use xlink:href="#FiraSans-Regular-39" x="203.399963"/>
     <use xlink:href="#FiraSans-Regular-32" x="255.899948"/>
     <use xlink:href="#FiraSans-Regular-38" x="305.399933"/>
    </g>
   </g>
   <g id="text_32">
    <!-- 241857 -->
    <g style="fill: #262626" transform="translate(236.887695 892.615937) scale(0.22 -0.22)">
     <use xlink:href="#FiraSans-Regular-32"/>
     <use xlink:href="#FiraSans-Regular-34" x="49.499985"/>
     <use xlink:href="#FiraSans-Regular-31" x="102.699982"/>
     <use xlink:href="#FiraSans-Regular-38" x="145.999969"/>
     <use xlink:href="#FiraSans-Regular-35" x="201.09996"/>
     <use xlink:href="#FiraSans-Regular-37" x="251.199951"/>
    </g>
   </g>
   <g id="text_33">
    <!-- 662331 -->
    <g style="fill: #262626" transform="translate(533.248646 663.301875) scale(0.22 -0.22)">
     <use xlink:href="#FiraSans-Regular-36"/>
     <use xlink:href="#FiraSans-Regular-36" x="53.299988"/>
     <use xlink:href="#FiraSans-Regular-32" x="106.599976"/>
     <use xlink:href="#FiraSans-Regular-33" x="156.09996"/>
     <use xlink:href="#FiraSans-Regular-33" x="205.999954"/>
     <use xlink:href="#FiraSans-Regular-31" x="255.899948"/>
    </g>
   </g>
   <g id="text_34">
    <!-- 262146 -->
    <g style="fill: #262626" transform="translate(251.187907 854.396927) scale(0.22 -0.22)">
     <use xlink:href="#FiraSans-Regular-32"/>
     <use xlink:href="#FiraSans-Regular-36" x="49.499985"/>
     <use xlink:href="#FiraSans-Regular-32" x="102.799973"/>
     <use xlink:href="#FiraSans-Regular-31" x="152.299957"/>
     <use xlink:href="#FiraSans-Regular-34" x="195.599945"/>
     <use xlink:href="#FiraSans-Regular-36" x="248.799942"/>
    </g>
   </g>
   <g id="text_35">
    <!-- 726597 -->
    <g style="fill: #262626" transform="translate(578.544985 625.082865) scale(0.22 -0.22)">
     <use xlink:href="#FiraSans-Regular-37"/>
     <use xlink:href="#FiraSans-Regular-32" x="44.399994"/>
     <use xlink:href="#FiraSans-Regular-36" x="93.899979"/>
     <use xlink:href="#FiraSans-Regular-35" x="147.199966"/>
     <use xlink:href="#FiraSans-Regular-39" x="197.299957"/>
     <use xlink:href="#FiraSans-Regular-37" x="249.799942"/>
    </g>
   </g>
   <g id="legend_2">
    <g id="patch_25">
     <path d="M 1158.115625 823.629531 
L 1300.875 823.629531 
Q 1305.275 823.629531 1305.275 819.229531 
L 1305.275 724.873594 
Q 1305.275 720.473594 1300.875 720.473594 
L 1158.115625 720.473594 
Q 1153.715625 720.473594 1153.715625 724.873594 
L 1153.715625 819.229531 
Q 1153.715625 823.629531 1158.115625 823.629531 
z
" style="fill: #ffffff; opacity: 0.8; stroke: #cccccc; stroke-width: 2; stroke-linejoin: miter"/>
    </g>
    <g id="patch_26">
     <path d="M 1162.515625 745.773594 
L 1206.515625 745.773594 
L 1206.515625 730.373594 
L 1162.515625 730.373594 
z
" style="fill: #b2df8a; stroke: #ffffff; stroke-width: 2; stroke-linejoin: miter"/>
    </g>
    <g id="text_36">
     <!-- total -->
     <g style="fill: #262626" transform="translate(1224.115625 745.773594) scale(0.22 -0.22)">
      <use xlink:href="#FiraSans-Regular-74"/>
      <use xlink:href="#FiraSans-Regular-6f" x="36.099991"/>
      <use xlink:href="#FiraSans-Regular-74" x="94.499985"/>
      <use xlink:href="#FiraSans-Regular-61" x="130.599976"/>
      <use xlink:href="#FiraSans-Regular-6c" x="184.999969"/>
     </g>
    </g>
    <g id="patch_27">
     <path d="M 1162.515625 777.958906 
L 1206.515625 777.958906 
L 1206.515625 762.558906 
L 1162.515625 762.558906 
z
" style="fill: #a6cee3; stroke: #ffffff; stroke-width: 2; stroke-linejoin: miter"/>
    </g>
    <g id="text_37">
     <!-- men -->
     <g style="fill: #262626" transform="translate(1224.115625 777.958906) scale(0.22 -0.22)">
      <use xlink:href="#FiraSans-Regular-6d"/>
      <use xlink:href="#FiraSans-Regular-65" x="85.699982"/>
      <use xlink:href="#FiraSans-Regular-6e" x="140.199966"/>
     </g>
    </g>
    <g id="patch_28">
     <path d="M 1162.515625 810.144219 
L 1206.515625 810.144219 
L 1206.515625 794.744219 
L 1162.515625 794.744219 
z
" style="fill: #fb9a99; stroke: #ffffff; stroke-width: 2; stroke-linejoin: miter"/>
    </g>
    <g id="text_38">
     <!-- women -->
     <g style="fill: #262626" transform="translate(1224.115625 810.144219) scale(0.22 -0.22)">
      <defs>
       <path id="FiraSans-Regular-77" d="M 4461 3373 
L 3693 0 
L 2893 0 
L 2304 2842 
L 1696 0 
L 915 0 
L 128 3373 
L 717 3373 
L 1325 410 
L 1990 3373 
L 2650 3373 
L 3283 410 
L 3898 3373 
L 4461 3373 
z
" transform="scale(0.015625)"/>
      </defs>
      <use xlink:href="#FiraSans-Regular-77"/>
      <use xlink:href="#FiraSans-Regular-6f" x="71.699982"/>
      <use xlink:href="#FiraSans-Regular-6d" x="130.099976"/>
      <use xlink:href="#FiraSans-Regular-65" x="215.799957"/>
      <use xlink:href="#FiraSans-Regular-6e" x="270.299942"/>
     </g>
    </g>
   </g>
  </g>
 </g>
 <defs>
  <clipPath id="p1e1bd741bc">
   <rect x="63.420625" y="7.2" width="1027.9" height="458.628125"/>
  </clipPath>
  <clipPath id="p9cffccf514">
   <rect x="63.420625" y="542.7375" width="1027.9" height="458.628125"/>
  </clipPath>
 </defs>
</svg>
