<?xml version="1.0" encoding="utf-8" standalone="no"?>
<!DOCTYPE svg PUBLIC "-//W3C//DTD SVG 1.1//EN"
  "http://www.w3.org/Graphics/SVG/1.1/DTD/svg11.dtd">
<svg height="643.944844pt" version="1.1" viewBox="0 0 1202.979844 643.944844" width="1202.979844pt" xmlns="http://www.w3.org/2000/svg" xmlns:xlink="http://www.w3.org/1999/xlink">
 <metadata>
  <rdf:RDF xmlns:cc="http://creativecommons.org/ns#" xmlns:dc="http://purl.org/dc/elements/1.1/" xmlns:rdf="http://www.w3.org/1999/02/22-rdf-syntax-ns#">
   <cc:Work>
    <dc:type rdf:resource="http://purl.org/dc/dcmitype/StillImage"/>
    <dc:date>2021-12-13T23:20:26.961241</dc:date>
    <dc:format>image/svg+xml</dc:format>
    <dc:creator>
     <cc:Agent>
      <dc:title>Matplotlib v3.4.3, https://matplotlib.org/</dc:title>
     </cc:Agent>
    </dc:creator>
   </cc:Work>
  </rdf:RDF>
 </metadata>
 <defs>
  <style type="text/css">*{stroke-linecap:butt;stroke-linejoin:round;}</style>
 </defs>
 <g id="figure_1">
  <g id="patch_1">
   <path d="M -0 643.944844 
L 1202.979844 643.944844 
L 1202.979844 0 
L -0 0 
z
" style="fill:#ffffff;"/>
  </g>
  <g id="axes_1">
   <g id="patch_2">
    <path d="M 79.779844 550.8 
L 1195.779844 550.8 
L 1195.779844 7.2 
L 79.779844 7.2 
z
" style="fill:#ffffff;"/>
   </g>
   <g id="matplotlib.axis_1">
    <g id="xtick_1">
     <g id="line2d_1">
      <path clip-path="url(#p8c8646b88c)" d="M 214.973148 550.8 
L 214.973148 7.2 
" style="fill:none;stroke:#cccccc;stroke-linecap:round;stroke-width:2;"/>
     </g>
     <g id="text_1">
      <!-- 0.2 -->
      <g style="fill:#262626;" transform="translate(193.639164 591.05)scale(0.33 -0.33)">
       <defs>
        <path d="M 1786 4346 
Q 2496 4346 2857 3779 
Q 3219 3213 3219 2138 
Q 3219 1062 2857 492 
Q 2496 -77 1786 -77 
Q 1075 -77 713 492 
Q 352 1062 352 2138 
Q 352 3213 713 3779 
Q 1075 4346 1786 4346 
z
M 1786 3878 
Q 1370 3878 1168 3468 
Q 966 3059 966 2138 
Q 966 1216 1168 803 
Q 1370 390 1786 390 
Q 2195 390 2400 803 
Q 2605 1216 2605 2138 
Q 2605 3053 2400 3465 
Q 2195 3878 1786 3878 
z
" id="FiraSans-Regular-30" transform="scale(0.015625)"/>
        <path d="M 762 813 
Q 954 813 1082 685 
Q 1210 557 1210 371 
Q 1210 186 1082 54 
Q 954 -77 762 -77 
Q 576 -77 448 54 
Q 320 186 320 371 
Q 320 557 448 685 
Q 576 813 762 813 
z
" id="FiraSans-Regular-2e" transform="scale(0.015625)"/>
        <path d="M 1459 4346 
Q 1843 4346 2134 4192 
Q 2426 4038 2586 3772 
Q 2746 3507 2746 3174 
Q 2746 2784 2570 2425 
Q 2394 2067 2029 1651 
Q 1664 1235 922 493 
L 2848 493 
L 2778 0 
L 250 0 
L 250 467 
Q 1107 1357 1465 1769 
Q 1824 2182 1977 2489 
Q 2131 2797 2131 3149 
Q 2131 3482 1939 3670 
Q 1747 3859 1427 3859 
Q 1165 3859 966 3750 
Q 768 3642 544 3392 
L 160 3699 
Q 422 4026 742 4186 
Q 1062 4346 1459 4346 
z
" id="FiraSans-Regular-32" transform="scale(0.015625)"/>
       </defs>
       <use xlink:href="#FiraSans-Regular-30"/>
       <use x="55.799988" xlink:href="#FiraSans-Regular-2e"/>
       <use x="79.799973" xlink:href="#FiraSans-Regular-32"/>
      </g>
     </g>
    </g>
    <g id="xtick_2">
     <g id="line2d_2">
      <path clip-path="url(#p8c8646b88c)" d="M 453.241221 550.8 
L 453.241221 7.2 
" style="fill:none;stroke:#cccccc;stroke-linecap:round;stroke-width:2;"/>
     </g>
     <g id="text_2">
      <!-- 0.4 -->
      <g style="fill:#262626;" transform="translate(431.296221 591.05)scale(0.33 -0.33)">
       <defs>
        <path d="M 3213 1523 
L 3213 1056 
L 2656 1056 
L 2656 0 
L 2086 0 
L 2086 1056 
L 256 1056 
L 256 1478 
L 1542 4346 
L 2035 4141 
L 877 1523 
L 2093 1523 
L 2144 2675 
L 2656 2675 
L 2656 1523 
L 3213 1523 
z
" id="FiraSans-Regular-34" transform="scale(0.015625)"/>
       </defs>
       <use xlink:href="#FiraSans-Regular-30"/>
       <use x="55.799988" xlink:href="#FiraSans-Regular-2e"/>
       <use x="79.799973" xlink:href="#FiraSans-Regular-34"/>
      </g>
     </g>
    </g>
    <g id="xtick_3">
     <g id="line2d_3">
      <path clip-path="url(#p8c8646b88c)" d="M 691.509294 550.8 
L 691.509294 7.2 
" style="fill:none;stroke:#cccccc;stroke-linecap:round;stroke-width:2;"/>
     </g>
     <g id="text_3">
      <!-- 0.6 -->
      <g style="fill:#262626;" transform="translate(669.548825 591.05)scale(0.33 -0.33)">
       <defs>
        <path d="M 1971 2816 
Q 2298 2816 2566 2662 
Q 2835 2509 2995 2201 
Q 3155 1894 3155 1453 
Q 3155 998 2972 649 
Q 2790 301 2480 112 
Q 2170 -77 1792 -77 
Q 1043 -77 697 476 
Q 352 1030 352 2010 
Q 352 2707 547 3235 
Q 742 3763 1107 4054 
Q 1472 4346 1971 4346 
Q 2458 4346 2854 4083 
L 2624 3693 
Q 2323 3878 1965 3878 
Q 1504 3878 1235 3436 
Q 966 2995 941 2253 
Q 1338 2816 1971 2816 
z
M 1792 390 
Q 2163 390 2361 672 
Q 2560 954 2560 1434 
Q 2560 2349 1869 2349 
Q 1587 2349 1350 2192 
Q 1114 2035 947 1760 
Q 966 1056 1168 723 
Q 1370 390 1792 390 
z
" id="FiraSans-Regular-36" transform="scale(0.015625)"/>
       </defs>
       <use xlink:href="#FiraSans-Regular-30"/>
       <use x="55.799988" xlink:href="#FiraSans-Regular-2e"/>
       <use x="79.799973" xlink:href="#FiraSans-Regular-36"/>
      </g>
     </g>
    </g>
    <g id="xtick_4">
     <g id="line2d_4">
      <path clip-path="url(#p8c8646b88c)" d="M 929.777367 550.8 
L 929.777367 7.2 
" style="fill:none;stroke:#cccccc;stroke-linecap:round;stroke-width:2;"/>
     </g>
     <g id="text_4">
      <!-- 0.8 -->
      <g style="fill:#262626;" transform="translate(907.520414 591.05)scale(0.33 -0.33)">
       <defs>
        <path d="M 2336 2298 
Q 3238 1933 3238 1146 
Q 3238 794 3049 515 
Q 2861 237 2521 80 
Q 2182 -77 1754 -77 
Q 1318 -77 985 76 
Q 653 230 470 505 
Q 288 781 288 1133 
Q 288 1530 502 1798 
Q 717 2067 1133 2246 
Q 794 2419 630 2665 
Q 467 2912 467 3245 
Q 467 3590 649 3840 
Q 832 4090 1129 4218 
Q 1427 4346 1766 4346 
Q 2099 4346 2396 4224 
Q 2694 4102 2880 3856 
Q 3066 3610 3066 3264 
Q 3066 2944 2886 2713 
Q 2707 2483 2336 2298 
z
M 1766 3904 
Q 1434 3904 1238 3731 
Q 1043 3558 1043 3238 
Q 1043 2931 1232 2771 
Q 1421 2611 1837 2477 
L 1946 2438 
Q 2234 2605 2362 2790 
Q 2490 2976 2490 3245 
Q 2490 3546 2301 3725 
Q 2112 3904 1766 3904 
z
M 1760 390 
Q 2157 390 2390 595 
Q 2624 800 2624 1139 
Q 2624 1370 2534 1526 
Q 2445 1683 2246 1801 
Q 2048 1920 1690 2042 
L 1530 2099 
Q 1210 1946 1056 1712 
Q 902 1478 902 1133 
Q 902 781 1132 585 
Q 1363 390 1760 390 
z
" id="FiraSans-Regular-38" transform="scale(0.015625)"/>
       </defs>
       <use xlink:href="#FiraSans-Regular-30"/>
       <use x="55.799988" xlink:href="#FiraSans-Regular-2e"/>
       <use x="79.799973" xlink:href="#FiraSans-Regular-38"/>
      </g>
     </g>
    </g>
    <g id="xtick_5">
     <g id="line2d_5">
      <path clip-path="url(#p8c8646b88c)" d="M 1168.04544 550.8 
L 1168.04544 7.2 
" style="fill:none;stroke:#cccccc;stroke-linecap:round;stroke-width:2;"/>
     </g>
     <g id="text_5">
      <!-- 1.0 -->
      <g style="fill:#262626;" transform="translate(1147.734971 591.05)scale(0.33 -0.33)">
       <defs>
        <path d="M 2067 4282 
L 2067 0 
L 1478 0 
L 1478 3654 
L 480 3046 
L 224 3462 
L 1549 4282 
L 2067 4282 
z
" id="FiraSans-Regular-31" transform="scale(0.015625)"/>
       </defs>
       <use xlink:href="#FiraSans-Regular-31"/>
       <use x="43.299988" xlink:href="#FiraSans-Regular-2e"/>
       <use x="67.299973" xlink:href="#FiraSans-Regular-30"/>
      </g>
     </g>
    </g>
    <g id="text_6">
     <!-- Reach Factor -->
     <g style="fill:#262626;" transform="translate(532.176094 629.077969)scale(0.36 -0.36)">
      <defs>
       <path d="M 1933 1869 
L 1248 1869 
L 1248 0 
L 640 0 
L 640 4410 
L 1798 4410 
Q 2624 4410 3049 4096 
Q 3475 3782 3475 3162 
Q 3475 2701 3238 2413 
Q 3002 2125 2522 1978 
L 3712 0 
L 2989 0 
L 1933 1869 
z
M 1862 2336 
Q 2342 2336 2585 2531 
Q 2829 2726 2829 3162 
Q 2829 3571 2582 3753 
Q 2336 3936 1792 3936 
L 1248 3936 
L 1248 2336 
L 1862 2336 
z
" id="FiraSans-Regular-52" transform="scale(0.015625)"/>
       <path d="M 3155 1786 
Q 3155 1638 3142 1485 
L 992 1485 
Q 1030 928 1273 665 
Q 1517 403 1901 403 
Q 2144 403 2349 473 
Q 2554 544 2778 698 
L 3034 346 
Q 2496 -77 1856 -77 
Q 1152 -77 758 384 
Q 365 845 365 1651 
Q 365 2176 534 2582 
Q 704 2989 1021 3219 
Q 1338 3450 1766 3450 
Q 2438 3450 2796 3008 
Q 3155 2566 3155 1786 
z
M 2573 1958 
Q 2573 2458 2374 2720 
Q 2176 2982 1779 2982 
Q 1056 2982 992 1920 
L 2573 1920 
L 2573 1958 
z
" id="FiraSans-Regular-65" transform="scale(0.015625)"/>
       <path d="M 2880 787 
Q 2880 582 2950 483 
Q 3021 384 3162 333 
L 3027 -77 
Q 2765 -45 2605 70 
Q 2445 186 2368 429 
Q 2029 -77 1363 -77 
Q 864 -77 576 204 
Q 288 486 288 941 
Q 288 1478 675 1766 
Q 1062 2054 1773 2054 
L 2291 2054 
L 2291 2304 
Q 2291 2662 2118 2816 
Q 1946 2970 1587 2970 
Q 1216 2970 678 2790 
L 531 3219 
Q 1158 3450 1696 3450 
Q 2291 3450 2585 3158 
Q 2880 2867 2880 2330 
L 2880 787 
z
M 1498 365 
Q 2003 365 2291 890 
L 2291 1664 
L 1850 1664 
Q 915 1664 915 973 
Q 915 672 1062 518 
Q 1210 365 1498 365 
z
" id="FiraSans-Regular-61" transform="scale(0.015625)"/>
       <path d="M 1837 3450 
Q 2138 3450 2387 3363 
Q 2637 3277 2867 3085 
L 2586 2714 
Q 2406 2842 2236 2902 
Q 2067 2963 1862 2963 
Q 1453 2963 1225 2636 
Q 998 2310 998 1670 
Q 998 1030 1222 726 
Q 1446 422 1862 422 
Q 2061 422 2227 483 
Q 2394 544 2598 678 
L 2867 294 
Q 2406 -77 1837 -77 
Q 1152 -77 758 384 
Q 365 845 365 1658 
Q 365 2195 544 2598 
Q 723 3002 1052 3226 
Q 1382 3450 1837 3450 
z
" id="FiraSans-Regular-63" transform="scale(0.015625)"/>
       <path d="M 2195 3450 
Q 2656 3450 2915 3174 
Q 3174 2899 3174 2419 
L 3174 0 
L 2586 0 
L 2586 2336 
Q 2586 2694 2448 2841 
Q 2310 2989 2048 2989 
Q 1786 2989 1581 2835 
Q 1376 2682 1197 2400 
L 1197 0 
L 608 0 
L 608 4723 
L 1197 4787 
L 1197 2906 
Q 1594 3450 2195 3450 
z
" id="FiraSans-Regular-68" transform="scale(0.015625)"/>
       <path id="FiraSans-Regular-20" transform="scale(0.015625)"/>
       <path d="M 640 0 
L 640 4410 
L 2982 4410 
L 2912 3923 
L 1248 3923 
L 1248 2419 
L 2688 2419 
L 2688 1939 
L 1248 1939 
L 1248 0 
L 640 0 
z
" id="FiraSans-Regular-46" transform="scale(0.015625)"/>
       <path d="M 2310 154 
Q 1978 -77 1555 -77 
Q 1126 -77 886 169 
Q 646 416 646 883 
L 646 2918 
L 58 2918 
L 58 3373 
L 646 3373 
L 646 4134 
L 1235 4205 
L 1235 3373 
L 2035 3373 
L 1971 2918 
L 1235 2918 
L 1235 909 
Q 1235 646 1328 528 
Q 1421 410 1638 410 
Q 1837 410 2086 544 
L 2310 154 
z
" id="FiraSans-Regular-74" transform="scale(0.015625)"/>
       <path d="M 1875 3450 
Q 2586 3450 2979 2976 
Q 3373 2502 3373 1690 
Q 3373 1165 3193 765 
Q 3014 365 2675 144 
Q 2336 -77 1869 -77 
Q 1158 -77 761 396 
Q 365 870 365 1683 
Q 365 2208 544 2608 
Q 723 3008 1062 3229 
Q 1402 3450 1875 3450 
z
M 1875 2976 
Q 998 2976 998 1683 
Q 998 397 1869 397 
Q 2739 397 2739 1690 
Q 2739 2976 1875 2976 
z
" id="FiraSans-Regular-6f" transform="scale(0.015625)"/>
       <path d="M 2074 3450 
Q 2253 3450 2406 3411 
L 2298 2835 
Q 2144 2874 2003 2874 
Q 1690 2874 1498 2643 
Q 1306 2413 1197 1926 
L 1197 0 
L 608 0 
L 608 3373 
L 1114 3373 
L 1171 2688 
Q 1306 3066 1536 3258 
Q 1766 3450 2074 3450 
z
" id="FiraSans-Regular-72" transform="scale(0.015625)"/>
      </defs>
      <use xlink:href="#FiraSans-Regular-52"/>
      <use x="60.499985" xlink:href="#FiraSans-Regular-65"/>
      <use x="114.999969" xlink:href="#FiraSans-Regular-61"/>
      <use x="169.399963" xlink:href="#FiraSans-Regular-63"/>
      <use x="217.199951" xlink:href="#FiraSans-Regular-68"/>
      <use x="275.799942" xlink:href="#FiraSans-Regular-20"/>
      <use x="302.299927" xlink:href="#FiraSans-Regular-46"/>
      <use x="351.399918" xlink:href="#FiraSans-Regular-61"/>
      <use x="405.799911" xlink:href="#FiraSans-Regular-63"/>
      <use x="453.599899" xlink:href="#FiraSans-Regular-74"/>
      <use x="489.69989" xlink:href="#FiraSans-Regular-6f"/>
      <use x="548.099884" xlink:href="#FiraSans-Regular-72"/>
     </g>
    </g>
   </g>
   <g id="matplotlib.axis_2">
    <g id="ytick_1">
     <g id="line2d_6">
      <path clip-path="url(#p8c8646b88c)" d="M 79.779844 550.8 
L 1195.779844 550.8 
" style="fill:none;stroke:#cccccc;stroke-linecap:round;stroke-width:2;"/>
     </g>
     <g id="text_7">
      <!-- 0 -->
      <g style="fill:#262626;" transform="translate(45.866875 563.175)scale(0.33 -0.33)">
       <use xlink:href="#FiraSans-Regular-30"/>
      </g>
     </g>
    </g>
    <g id="ytick_2">
     <g id="line2d_7">
      <path clip-path="url(#p8c8646b88c)" d="M 79.779844 476.840816 
L 1195.779844 476.840816 
" style="fill:none;stroke:#cccccc;stroke-linecap:round;stroke-width:2;"/>
     </g>
     <g id="text_8">
      <!-- 1 -->
      <g style="fill:#262626;" transform="translate(49.991875 489.215816)scale(0.33 -0.33)">
       <use xlink:href="#FiraSans-Regular-31"/>
      </g>
     </g>
    </g>
    <g id="ytick_3">
     <g id="line2d_8">
      <path clip-path="url(#p8c8646b88c)" d="M 79.779844 402.881633 
L 1195.779844 402.881633 
" style="fill:none;stroke:#cccccc;stroke-linecap:round;stroke-width:2;"/>
     </g>
     <g id="text_9">
      <!-- 2 -->
      <g style="fill:#262626;" transform="translate(47.944844 415.256633)scale(0.33 -0.33)">
       <use xlink:href="#FiraSans-Regular-32"/>
      </g>
     </g>
    </g>
    <g id="ytick_4">
     <g id="line2d_9">
      <path clip-path="url(#p8c8646b88c)" d="M 79.779844 328.922449 
L 1195.779844 328.922449 
" style="fill:none;stroke:#cccccc;stroke-linecap:round;stroke-width:2;"/>
     </g>
     <g id="text_10">
      <!-- 3 -->
      <g style="fill:#262626;" transform="translate(47.810781 341.297449)scale(0.33 -0.33)">
       <defs>
        <path d="M 1440 4346 
Q 1837 4346 2121 4198 
Q 2406 4051 2556 3801 
Q 2707 3552 2707 3258 
Q 2707 2867 2480 2614 
Q 2253 2362 1875 2272 
Q 2304 2234 2573 1965 
Q 2842 1696 2842 1235 
Q 2842 864 2662 563 
Q 2483 262 2150 92 
Q 1818 -77 1382 -77 
Q 992 -77 665 67 
Q 339 211 96 499 
L 448 826 
Q 659 608 880 505 
Q 1101 403 1363 403 
Q 1766 403 1996 630 
Q 2227 858 2227 1242 
Q 2227 1664 2009 1837 
Q 1792 2010 1376 2010 
L 1056 2010 
L 1126 2464 
L 1344 2464 
Q 1677 2464 1897 2662 
Q 2118 2861 2118 3219 
Q 2118 3520 1926 3696 
Q 1734 3872 1408 3872 
Q 1158 3872 950 3782 
Q 742 3693 525 3488 
L 218 3840 
Q 762 4346 1440 4346 
z
" id="FiraSans-Regular-33" transform="scale(0.015625)"/>
       </defs>
       <use xlink:href="#FiraSans-Regular-33"/>
      </g>
     </g>
    </g>
    <g id="ytick_5">
     <g id="line2d_10">
      <path clip-path="url(#p8c8646b88c)" d="M 79.779844 254.963265 
L 1195.779844 254.963265 
" style="fill:none;stroke:#cccccc;stroke-linecap:round;stroke-width:2;"/>
     </g>
     <g id="text_11">
      <!-- 4 -->
      <g style="fill:#262626;" transform="translate(46.722813 267.338265)scale(0.33 -0.33)">
       <use xlink:href="#FiraSans-Regular-34"/>
      </g>
     </g>
    </g>
    <g id="ytick_6">
     <g id="line2d_11">
      <path clip-path="url(#p8c8646b88c)" d="M 79.779844 181.004082 
L 1195.779844 181.004082 
" style="fill:none;stroke:#cccccc;stroke-linecap:round;stroke-width:2;"/>
     </g>
     <g id="text_12">
      <!-- 5 -->
      <g style="fill:#262626;" transform="translate(47.748906 193.379082)scale(0.33 -0.33)">
       <defs>
        <path d="M 2688 3821 
L 1018 3821 
L 1018 2560 
Q 1344 2726 1702 2726 
Q 2253 2726 2585 2364 
Q 2918 2003 2918 1370 
Q 2918 947 2732 617 
Q 2547 288 2211 105 
Q 1875 -77 1434 -77 
Q 1043 -77 736 60 
Q 429 198 166 467 
L 512 806 
Q 717 602 934 502 
Q 1152 403 1427 403 
Q 1837 403 2070 659 
Q 2304 915 2304 1382 
Q 2304 1850 2093 2061 
Q 1882 2272 1523 2272 
Q 1357 2272 1216 2237 
Q 1075 2202 915 2125 
L 454 2125 
L 454 4282 
L 2771 4282 
L 2688 3821 
z
" id="FiraSans-Regular-35" transform="scale(0.015625)"/>
       </defs>
       <use xlink:href="#FiraSans-Regular-35"/>
      </g>
     </g>
    </g>
    <g id="ytick_7">
     <g id="line2d_12">
      <path clip-path="url(#p8c8646b88c)" d="M 79.779844 107.044898 
L 1195.779844 107.044898 
" style="fill:none;stroke:#cccccc;stroke-linecap:round;stroke-width:2;"/>
     </g>
     <g id="text_13">
      <!-- 6 -->
      <g style="fill:#262626;" transform="translate(46.691875 119.419898)scale(0.33 -0.33)">
       <use xlink:href="#FiraSans-Regular-36"/>
      </g>
     </g>
    </g>
    <g id="ytick_8">
     <g id="line2d_13">
      <path clip-path="url(#p8c8646b88c)" d="M 79.779844 33.085714 
L 1195.779844 33.085714 
" style="fill:none;stroke:#cccccc;stroke-linecap:round;stroke-width:2;"/>
     </g>
     <g id="text_14">
      <!-- 7 -->
      <g style="fill:#262626;" transform="translate(49.625781 45.460714)scale(0.33 -0.33)">
       <defs>
        <path d="M 2650 4282 
L 2650 3840 
L 1050 -64 
L 512 115 
L 2054 3802 
L 160 3802 
L 160 4282 
L 2650 4282 
z
" id="FiraSans-Regular-37" transform="scale(0.015625)"/>
       </defs>
       <use xlink:href="#FiraSans-Regular-37"/>
      </g>
     </g>
    </g>
    <g id="text_15">
     <!-- Labs -->
     <g style="fill:#262626;" transform="translate(34.2 316.85625)rotate(-90)scale(0.36 -0.36)">
      <defs>
       <path d="M 1248 4410 
L 1248 531 
L 3059 531 
L 2989 0 
L 640 0 
L 640 4410 
L 1248 4410 
z
" id="FiraSans-Regular-4c" transform="scale(0.015625)"/>
       <path d="M 2150 3450 
Q 2726 3450 3065 2986 
Q 3405 2522 3405 1690 
Q 3405 1165 3245 765 
Q 3085 365 2784 144 
Q 2483 -77 2080 -77 
Q 1549 -77 1184 371 
L 1126 0 
L 608 0 
L 608 4730 
L 1197 4800 
L 1197 2950 
Q 1562 3450 2150 3450 
z
M 1939 390 
Q 2330 390 2550 707 
Q 2771 1024 2771 1690 
Q 2771 2374 2566 2678 
Q 2362 2982 1984 2982 
Q 1536 2982 1197 2458 
L 1197 845 
Q 1331 634 1526 512 
Q 1722 390 1939 390 
z
" id="FiraSans-Regular-62" transform="scale(0.015625)"/>
       <path d="M 1523 3450 
Q 1869 3450 2144 3354 
Q 2419 3258 2669 3066 
L 2419 2694 
Q 2189 2842 1981 2912 
Q 1773 2982 1542 2982 
Q 1254 2982 1088 2864 
Q 922 2746 922 2541 
Q 922 2336 1078 2221 
Q 1235 2106 1645 1997 
Q 2208 1856 2486 1613 
Q 2765 1370 2765 947 
Q 2765 448 2377 185 
Q 1990 -77 1434 -77 
Q 666 -77 160 365 
L 474 723 
Q 902 397 1421 397 
Q 1754 397 1949 534 
Q 2144 672 2144 909 
Q 2144 1082 2073 1187 
Q 2003 1293 1830 1373 
Q 1658 1453 1325 1542 
Q 787 1683 547 1920 
Q 307 2157 307 2522 
Q 307 2784 464 2998 
Q 621 3213 899 3331 
Q 1178 3450 1523 3450 
z
" id="FiraSans-Regular-73" transform="scale(0.015625)"/>
      </defs>
      <use xlink:href="#FiraSans-Regular-4c"/>
      <use x="49.799988" xlink:href="#FiraSans-Regular-61"/>
      <use x="104.199982" xlink:href="#FiraSans-Regular-62"/>
      <use x="163.599976" xlink:href="#FiraSans-Regular-73"/>
     </g>
    </g>
   </g>
   <g id="patch_3">
    <path clip-path="url(#p8c8646b88c)" d="M 130.507116 550.8 
L 155.870753 550.8 
L 155.870753 476.840816 
L 130.507116 476.840816 
z
" style="fill:#1f77b4;stroke:#ffffff;stroke-linejoin:miter;stroke-width:2;"/>
   </g>
   <g id="patch_4">
    <path clip-path="url(#p8c8646b88c)" d="M 155.870753 550.8 
L 181.234389 550.8 
L 181.234389 476.840816 
L 155.870753 476.840816 
z
" style="fill:#1f77b4;stroke:#ffffff;stroke-linejoin:miter;stroke-width:2;"/>
   </g>
   <g id="patch_5">
    <path clip-path="url(#p8c8646b88c)" d="M 181.234389 550.8 
L 206.598026 550.8 
L 206.598026 550.8 
L 181.234389 550.8 
z
" style="fill:#1f77b4;stroke:#ffffff;stroke-linejoin:miter;stroke-width:2;"/>
   </g>
   <g id="patch_6">
    <path clip-path="url(#p8c8646b88c)" d="M 206.598026 550.8 
L 231.961662 550.8 
L 231.961662 476.840816 
L 206.598026 476.840816 
z
" style="fill:#1f77b4;stroke:#ffffff;stroke-linejoin:miter;stroke-width:2;"/>
   </g>
   <g id="patch_7">
    <path clip-path="url(#p8c8646b88c)" d="M 231.961662 550.8 
L 257.325298 550.8 
L 257.325298 550.8 
L 231.961662 550.8 
z
" style="fill:#1f77b4;stroke:#ffffff;stroke-linejoin:miter;stroke-width:2;"/>
   </g>
   <g id="patch_8">
    <path clip-path="url(#p8c8646b88c)" d="M 257.325298 550.8 
L 282.688935 550.8 
L 282.688935 550.8 
L 257.325298 550.8 
z
" style="fill:#1f77b4;stroke:#ffffff;stroke-linejoin:miter;stroke-width:2;"/>
   </g>
   <g id="patch_9">
    <path clip-path="url(#p8c8646b88c)" d="M 282.688935 550.8 
L 308.052571 550.8 
L 308.052571 476.840816 
L 282.688935 476.840816 
z
" style="fill:#1f77b4;stroke:#ffffff;stroke-linejoin:miter;stroke-width:2;"/>
   </g>
   <g id="patch_10">
    <path clip-path="url(#p8c8646b88c)" d="M 308.052571 550.8 
L 333.416207 550.8 
L 333.416207 550.8 
L 308.052571 550.8 
z
" style="fill:#1f77b4;stroke:#ffffff;stroke-linejoin:miter;stroke-width:2;"/>
   </g>
   <g id="patch_11">
    <path clip-path="url(#p8c8646b88c)" d="M 333.416207 550.8 
L 358.779844 550.8 
L 358.779844 476.840816 
L 333.416207 476.840816 
z
" style="fill:#1f77b4;stroke:#ffffff;stroke-linejoin:miter;stroke-width:2;"/>
   </g>
   <g id="patch_12">
    <path clip-path="url(#p8c8646b88c)" d="M 358.779844 550.8 
L 384.14348 550.8 
L 384.14348 550.8 
L 358.779844 550.8 
z
" style="fill:#1f77b4;stroke:#ffffff;stroke-linejoin:miter;stroke-width:2;"/>
   </g>
   <g id="patch_13">
    <path clip-path="url(#p8c8646b88c)" d="M 384.14348 550.8 
L 409.507116 550.8 
L 409.507116 550.8 
L 384.14348 550.8 
z
" style="fill:#1f77b4;stroke:#ffffff;stroke-linejoin:miter;stroke-width:2;"/>
   </g>
   <g id="patch_14">
    <path clip-path="url(#p8c8646b88c)" d="M 409.507116 550.8 
L 434.870753 550.8 
L 434.870753 550.8 
L 409.507116 550.8 
z
" style="fill:#1f77b4;stroke:#ffffff;stroke-linejoin:miter;stroke-width:2;"/>
   </g>
   <g id="patch_15">
    <path clip-path="url(#p8c8646b88c)" d="M 434.870753 550.8 
L 460.234389 550.8 
L 460.234389 550.8 
L 434.870753 550.8 
z
" style="fill:#1f77b4;stroke:#ffffff;stroke-linejoin:miter;stroke-width:2;"/>
   </g>
   <g id="patch_16">
    <path clip-path="url(#p8c8646b88c)" d="M 460.234389 550.8 
L 485.598026 550.8 
L 485.598026 476.840816 
L 460.234389 476.840816 
z
" style="fill:#1f77b4;stroke:#ffffff;stroke-linejoin:miter;stroke-width:2;"/>
   </g>
   <g id="patch_17">
    <path clip-path="url(#p8c8646b88c)" d="M 485.598026 550.8 
L 510.961662 550.8 
L 510.961662 476.840816 
L 485.598026 476.840816 
z
" style="fill:#1f77b4;stroke:#ffffff;stroke-linejoin:miter;stroke-width:2;"/>
   </g>
   <g id="patch_18">
    <path clip-path="url(#p8c8646b88c)" d="M 510.961662 550.8 
L 536.325298 550.8 
L 536.325298 550.8 
L 510.961662 550.8 
z
" style="fill:#1f77b4;stroke:#ffffff;stroke-linejoin:miter;stroke-width:2;"/>
   </g>
   <g id="patch_19">
    <path clip-path="url(#p8c8646b88c)" d="M 536.325298 550.8 
L 561.688935 550.8 
L 561.688935 550.8 
L 536.325298 550.8 
z
" style="fill:#1f77b4;stroke:#ffffff;stroke-linejoin:miter;stroke-width:2;"/>
   </g>
   <g id="patch_20">
    <path clip-path="url(#p8c8646b88c)" d="M 561.688935 550.8 
L 587.052571 550.8 
L 587.052571 550.8 
L 561.688935 550.8 
z
" style="fill:#1f77b4;stroke:#ffffff;stroke-linejoin:miter;stroke-width:2;"/>
   </g>
   <g id="patch_21">
    <path clip-path="url(#p8c8646b88c)" d="M 587.052571 550.8 
L 612.416207 550.8 
L 612.416207 550.8 
L 587.052571 550.8 
z
" style="fill:#1f77b4;stroke:#ffffff;stroke-linejoin:miter;stroke-width:2;"/>
   </g>
   <g id="patch_22">
    <path clip-path="url(#p8c8646b88c)" d="M 612.416207 550.8 
L 637.779844 550.8 
L 637.779844 476.840816 
L 612.416207 476.840816 
z
" style="fill:#1f77b4;stroke:#ffffff;stroke-linejoin:miter;stroke-width:2;"/>
   </g>
   <g id="patch_23">
    <path clip-path="url(#p8c8646b88c)" d="M 637.779844 550.8 
L 663.14348 550.8 
L 663.14348 550.8 
L 637.779844 550.8 
z
" style="fill:#1f77b4;stroke:#ffffff;stroke-linejoin:miter;stroke-width:2;"/>
   </g>
   <g id="patch_24">
    <path clip-path="url(#p8c8646b88c)" d="M 663.14348 550.8 
L 688.507116 550.8 
L 688.507116 550.8 
L 663.14348 550.8 
z
" style="fill:#1f77b4;stroke:#ffffff;stroke-linejoin:miter;stroke-width:2;"/>
   </g>
   <g id="patch_25">
    <path clip-path="url(#p8c8646b88c)" d="M 688.507116 550.8 
L 713.870753 550.8 
L 713.870753 476.840816 
L 688.507116 476.840816 
z
" style="fill:#1f77b4;stroke:#ffffff;stroke-linejoin:miter;stroke-width:2;"/>
   </g>
   <g id="patch_26">
    <path clip-path="url(#p8c8646b88c)" d="M 713.870753 550.8 
L 739.234389 550.8 
L 739.234389 476.840816 
L 713.870753 476.840816 
z
" style="fill:#1f77b4;stroke:#ffffff;stroke-linejoin:miter;stroke-width:2;"/>
   </g>
   <g id="patch_27">
    <path clip-path="url(#p8c8646b88c)" d="M 739.234389 550.8 
L 764.598026 550.8 
L 764.598026 476.840816 
L 739.234389 476.840816 
z
" style="fill:#1f77b4;stroke:#ffffff;stroke-linejoin:miter;stroke-width:2;"/>
   </g>
   <g id="patch_28">
    <path clip-path="url(#p8c8646b88c)" d="M 764.598026 550.8 
L 789.961662 550.8 
L 789.961662 550.8 
L 764.598026 550.8 
z
" style="fill:#1f77b4;stroke:#ffffff;stroke-linejoin:miter;stroke-width:2;"/>
   </g>
   <g id="patch_29">
    <path clip-path="url(#p8c8646b88c)" d="M 789.961662 550.8 
L 815.325298 550.8 
L 815.325298 550.8 
L 789.961662 550.8 
z
" style="fill:#1f77b4;stroke:#ffffff;stroke-linejoin:miter;stroke-width:2;"/>
   </g>
   <g id="patch_30">
    <path clip-path="url(#p8c8646b88c)" d="M 815.325298 550.8 
L 840.688935 550.8 
L 840.688935 476.840816 
L 815.325298 476.840816 
z
" style="fill:#1f77b4;stroke:#ffffff;stroke-linejoin:miter;stroke-width:2;"/>
   </g>
   <g id="patch_31">
    <path clip-path="url(#p8c8646b88c)" d="M 840.688935 550.8 
L 866.052571 550.8 
L 866.052571 328.922449 
L 840.688935 328.922449 
z
" style="fill:#1f77b4;stroke:#ffffff;stroke-linejoin:miter;stroke-width:2;"/>
   </g>
   <g id="patch_32">
    <path clip-path="url(#p8c8646b88c)" d="M 866.052571 550.8 
L 891.416207 550.8 
L 891.416207 476.840816 
L 866.052571 476.840816 
z
" style="fill:#1f77b4;stroke:#ffffff;stroke-linejoin:miter;stroke-width:2;"/>
   </g>
   <g id="patch_33">
    <path clip-path="url(#p8c8646b88c)" d="M 891.416207 550.8 
L 916.779844 550.8 
L 916.779844 550.8 
L 891.416207 550.8 
z
" style="fill:#1f77b4;stroke:#ffffff;stroke-linejoin:miter;stroke-width:2;"/>
   </g>
   <g id="patch_34">
    <path clip-path="url(#p8c8646b88c)" d="M 916.779844 550.8 
L 942.14348 550.8 
L 942.14348 550.8 
L 916.779844 550.8 
z
" style="fill:#1f77b4;stroke:#ffffff;stroke-linejoin:miter;stroke-width:2;"/>
   </g>
   <g id="patch_35">
    <path clip-path="url(#p8c8646b88c)" d="M 942.14348 550.8 
L 967.507116 550.8 
L 967.507116 550.8 
L 942.14348 550.8 
z
" style="fill:#1f77b4;stroke:#ffffff;stroke-linejoin:miter;stroke-width:2;"/>
   </g>
   <g id="patch_36">
    <path clip-path="url(#p8c8646b88c)" d="M 967.507116 550.8 
L 992.870753 550.8 
L 992.870753 476.840816 
L 967.507116 476.840816 
z
" style="fill:#1f77b4;stroke:#ffffff;stroke-linejoin:miter;stroke-width:2;"/>
   </g>
   <g id="patch_37">
    <path clip-path="url(#p8c8646b88c)" d="M 992.870753 550.8 
L 1018.234389 550.8 
L 1018.234389 328.922449 
L 992.870753 328.922449 
z
" style="fill:#1f77b4;stroke:#ffffff;stroke-linejoin:miter;stroke-width:2;"/>
   </g>
   <g id="patch_38">
    <path clip-path="url(#p8c8646b88c)" d="M 1018.234389 550.8 
L 1043.598026 550.8 
L 1043.598026 181.004082 
L 1018.234389 181.004082 
z
" style="fill:#1f77b4;stroke:#ffffff;stroke-linejoin:miter;stroke-width:2;"/>
   </g>
   <g id="patch_39">
    <path clip-path="url(#p8c8646b88c)" d="M 1043.598026 550.8 
L 1068.961662 550.8 
L 1068.961662 33.085714 
L 1043.598026 33.085714 
z
" style="fill:#1f77b4;stroke:#ffffff;stroke-linejoin:miter;stroke-width:2;"/>
   </g>
   <g id="patch_40">
    <path clip-path="url(#p8c8646b88c)" d="M 1068.961662 550.8 
L 1094.325298 550.8 
L 1094.325298 33.085714 
L 1068.961662 33.085714 
z
" style="fill:#1f77b4;stroke:#ffffff;stroke-linejoin:miter;stroke-width:2;"/>
   </g>
   <g id="patch_41">
    <path clip-path="url(#p8c8646b88c)" d="M 1094.325298 550.8 
L 1119.688935 550.8 
L 1119.688935 476.840816 
L 1094.325298 476.840816 
z
" style="fill:#1f77b4;stroke:#ffffff;stroke-linejoin:miter;stroke-width:2;"/>
   </g>
   <g id="patch_42">
    <path clip-path="url(#p8c8646b88c)" d="M 1119.688935 550.8 
L 1145.052571 550.8 
L 1145.052571 402.881633 
L 1119.688935 402.881633 
z
" style="fill:#1f77b4;stroke:#ffffff;stroke-linejoin:miter;stroke-width:2;"/>
   </g>
   <g id="patch_43">
    <path clip-path="url(#p8c8646b88c)" d="M 539.613398 550.8 
L 554.716615 550.8 
L 554.716615 476.840816 
L 539.613398 476.840816 
z
" style="fill:#ff7f0e;stroke:#ffffff;stroke-linejoin:miter;stroke-width:2;"/>
   </g>
   <g id="patch_44">
    <path clip-path="url(#p8c8646b88c)" d="M 554.716615 550.8 
L 569.819833 550.8 
L 569.819833 402.881633 
L 554.716615 402.881633 
z
" style="fill:#ff7f0e;stroke:#ffffff;stroke-linejoin:miter;stroke-width:2;"/>
   </g>
   <g id="patch_45">
    <path clip-path="url(#p8c8646b88c)" d="M 569.819833 550.8 
L 584.92305 550.8 
L 584.92305 550.8 
L 569.819833 550.8 
z
" style="fill:#ff7f0e;stroke:#ffffff;stroke-linejoin:miter;stroke-width:2;"/>
   </g>
   <g id="patch_46">
    <path clip-path="url(#p8c8646b88c)" d="M 584.92305 550.8 
L 600.026268 550.8 
L 600.026268 550.8 
L 584.92305 550.8 
z
" style="fill:#ff7f0e;stroke:#ffffff;stroke-linejoin:miter;stroke-width:2;"/>
   </g>
   <g id="patch_47">
    <path clip-path="url(#p8c8646b88c)" d="M 600.026268 550.8 
L 615.129485 550.8 
L 615.129485 550.8 
L 600.026268 550.8 
z
" style="fill:#ff7f0e;stroke:#ffffff;stroke-linejoin:miter;stroke-width:2;"/>
   </g>
   <g id="patch_48">
    <path clip-path="url(#p8c8646b88c)" d="M 615.129485 550.8 
L 630.232703 550.8 
L 630.232703 476.840816 
L 615.129485 476.840816 
z
" style="fill:#ff7f0e;stroke:#ffffff;stroke-linejoin:miter;stroke-width:2;"/>
   </g>
   <g id="patch_49">
    <path clip-path="url(#p8c8646b88c)" d="M 630.232703 550.8 
L 645.33592 550.8 
L 645.33592 550.8 
L 630.232703 550.8 
z
" style="fill:#ff7f0e;stroke:#ffffff;stroke-linejoin:miter;stroke-width:2;"/>
   </g>
   <g id="patch_50">
    <path clip-path="url(#p8c8646b88c)" d="M 645.33592 550.8 
L 660.439137 550.8 
L 660.439137 550.8 
L 645.33592 550.8 
z
" style="fill:#ff7f0e;stroke:#ffffff;stroke-linejoin:miter;stroke-width:2;"/>
   </g>
   <g id="patch_51">
    <path clip-path="url(#p8c8646b88c)" d="M 660.439137 550.8 
L 675.542355 550.8 
L 675.542355 476.840816 
L 660.439137 476.840816 
z
" style="fill:#ff7f0e;stroke:#ffffff;stroke-linejoin:miter;stroke-width:2;"/>
   </g>
   <g id="patch_52">
    <path clip-path="url(#p8c8646b88c)" d="M 675.542355 550.8 
L 690.645572 550.8 
L 690.645572 550.8 
L 675.542355 550.8 
z
" style="fill:#ff7f0e;stroke:#ffffff;stroke-linejoin:miter;stroke-width:2;"/>
   </g>
   <g id="patch_53">
    <path clip-path="url(#p8c8646b88c)" d="M 690.645572 550.8 
L 705.74879 550.8 
L 705.74879 550.8 
L 690.645572 550.8 
z
" style="fill:#ff7f0e;stroke:#ffffff;stroke-linejoin:miter;stroke-width:2;"/>
   </g>
   <g id="patch_54">
    <path clip-path="url(#p8c8646b88c)" d="M 705.74879 550.8 
L 720.852007 550.8 
L 720.852007 476.840816 
L 705.74879 476.840816 
z
" style="fill:#ff7f0e;stroke:#ffffff;stroke-linejoin:miter;stroke-width:2;"/>
   </g>
   <g id="patch_55">
    <path clip-path="url(#p8c8646b88c)" d="M 720.852007 550.8 
L 735.955225 550.8 
L 735.955225 476.840816 
L 720.852007 476.840816 
z
" style="fill:#ff7f0e;stroke:#ffffff;stroke-linejoin:miter;stroke-width:2;"/>
   </g>
   <g id="patch_56">
    <path clip-path="url(#p8c8646b88c)" d="M 735.955225 550.8 
L 751.058442 550.8 
L 751.058442 550.8 
L 735.955225 550.8 
z
" style="fill:#ff7f0e;stroke:#ffffff;stroke-linejoin:miter;stroke-width:2;"/>
   </g>
   <g id="patch_57">
    <path clip-path="url(#p8c8646b88c)" d="M 751.058442 550.8 
L 766.16166 550.8 
L 766.16166 550.8 
L 751.058442 550.8 
z
" style="fill:#ff7f0e;stroke:#ffffff;stroke-linejoin:miter;stroke-width:2;"/>
   </g>
   <g id="patch_58">
    <path clip-path="url(#p8c8646b88c)" d="M 766.16166 550.8 
L 781.264877 550.8 
L 781.264877 550.8 
L 766.16166 550.8 
z
" style="fill:#ff7f0e;stroke:#ffffff;stroke-linejoin:miter;stroke-width:2;"/>
   </g>
   <g id="patch_59">
    <path clip-path="url(#p8c8646b88c)" d="M 781.264877 550.8 
L 796.368095 550.8 
L 796.368095 476.840816 
L 781.264877 476.840816 
z
" style="fill:#ff7f0e;stroke:#ffffff;stroke-linejoin:miter;stroke-width:2;"/>
   </g>
   <g id="patch_60">
    <path clip-path="url(#p8c8646b88c)" d="M 796.368095 550.8 
L 811.471312 550.8 
L 811.471312 476.840816 
L 796.368095 476.840816 
z
" style="fill:#ff7f0e;stroke:#ffffff;stroke-linejoin:miter;stroke-width:2;"/>
   </g>
   <g id="patch_61">
    <path clip-path="url(#p8c8646b88c)" d="M 811.471312 550.8 
L 826.57453 550.8 
L 826.57453 550.8 
L 811.471312 550.8 
z
" style="fill:#ff7f0e;stroke:#ffffff;stroke-linejoin:miter;stroke-width:2;"/>
   </g>
   <g id="patch_62">
    <path clip-path="url(#p8c8646b88c)" d="M 826.57453 550.8 
L 841.677747 550.8 
L 841.677747 550.8 
L 826.57453 550.8 
z
" style="fill:#ff7f0e;stroke:#ffffff;stroke-linejoin:miter;stroke-width:2;"/>
   </g>
   <g id="patch_63">
    <path clip-path="url(#p8c8646b88c)" d="M 841.677747 550.8 
L 856.780965 550.8 
L 856.780965 550.8 
L 841.677747 550.8 
z
" style="fill:#ff7f0e;stroke:#ffffff;stroke-linejoin:miter;stroke-width:2;"/>
   </g>
   <g id="patch_64">
    <path clip-path="url(#p8c8646b88c)" d="M 856.780965 550.8 
L 871.884182 550.8 
L 871.884182 550.8 
L 856.780965 550.8 
z
" style="fill:#ff7f0e;stroke:#ffffff;stroke-linejoin:miter;stroke-width:2;"/>
   </g>
   <g id="patch_65">
    <path clip-path="url(#p8c8646b88c)" d="M 871.884182 550.8 
L 886.9874 550.8 
L 886.9874 476.840816 
L 871.884182 476.840816 
z
" style="fill:#ff7f0e;stroke:#ffffff;stroke-linejoin:miter;stroke-width:2;"/>
   </g>
   <g id="patch_66">
    <path clip-path="url(#p8c8646b88c)" d="M 886.9874 550.8 
L 902.090617 550.8 
L 902.090617 402.881633 
L 886.9874 402.881633 
z
" style="fill:#ff7f0e;stroke:#ffffff;stroke-linejoin:miter;stroke-width:2;"/>
   </g>
   <g id="patch_67">
    <path clip-path="url(#p8c8646b88c)" d="M 902.090617 550.8 
L 917.193835 550.8 
L 917.193835 550.8 
L 902.090617 550.8 
z
" style="fill:#ff7f0e;stroke:#ffffff;stroke-linejoin:miter;stroke-width:2;"/>
   </g>
   <g id="patch_68">
    <path clip-path="url(#p8c8646b88c)" d="M 917.193835 550.8 
L 932.297052 550.8 
L 932.297052 328.922449 
L 917.193835 328.922449 
z
" style="fill:#ff7f0e;stroke:#ffffff;stroke-linejoin:miter;stroke-width:2;"/>
   </g>
   <g id="patch_69">
    <path clip-path="url(#p8c8646b88c)" d="M 932.297052 550.8 
L 947.400269 550.8 
L 947.400269 550.8 
L 932.297052 550.8 
z
" style="fill:#ff7f0e;stroke:#ffffff;stroke-linejoin:miter;stroke-width:2;"/>
   </g>
   <g id="patch_70">
    <path clip-path="url(#p8c8646b88c)" d="M 947.400269 550.8 
L 962.503487 550.8 
L 962.503487 550.8 
L 947.400269 550.8 
z
" style="fill:#ff7f0e;stroke:#ffffff;stroke-linejoin:miter;stroke-width:2;"/>
   </g>
   <g id="patch_71">
    <path clip-path="url(#p8c8646b88c)" d="M 962.503487 550.8 
L 977.606704 550.8 
L 977.606704 550.8 
L 962.503487 550.8 
z
" style="fill:#ff7f0e;stroke:#ffffff;stroke-linejoin:miter;stroke-width:2;"/>
   </g>
   <g id="patch_72">
    <path clip-path="url(#p8c8646b88c)" d="M 977.606704 550.8 
L 992.709922 550.8 
L 992.709922 476.840816 
L 977.606704 476.840816 
z
" style="fill:#ff7f0e;stroke:#ffffff;stroke-linejoin:miter;stroke-width:2;"/>
   </g>
   <g id="patch_73">
    <path clip-path="url(#p8c8646b88c)" d="M 992.709922 550.8 
L 1007.813139 550.8 
L 1007.813139 550.8 
L 992.709922 550.8 
z
" style="fill:#ff7f0e;stroke:#ffffff;stroke-linejoin:miter;stroke-width:2;"/>
   </g>
   <g id="patch_74">
    <path clip-path="url(#p8c8646b88c)" d="M 1007.813139 550.8 
L 1022.916357 550.8 
L 1022.916357 550.8 
L 1007.813139 550.8 
z
" style="fill:#ff7f0e;stroke:#ffffff;stroke-linejoin:miter;stroke-width:2;"/>
   </g>
   <g id="patch_75">
    <path clip-path="url(#p8c8646b88c)" d="M 1022.916357 550.8 
L 1038.019574 550.8 
L 1038.019574 402.881633 
L 1022.916357 402.881633 
z
" style="fill:#ff7f0e;stroke:#ffffff;stroke-linejoin:miter;stroke-width:2;"/>
   </g>
   <g id="patch_76">
    <path clip-path="url(#p8c8646b88c)" d="M 1038.019574 550.8 
L 1053.122792 550.8 
L 1053.122792 550.8 
L 1038.019574 550.8 
z
" style="fill:#ff7f0e;stroke:#ffffff;stroke-linejoin:miter;stroke-width:2;"/>
   </g>
   <g id="patch_77">
    <path clip-path="url(#p8c8646b88c)" d="M 1053.122792 550.8 
L 1068.226009 550.8 
L 1068.226009 476.840816 
L 1053.122792 476.840816 
z
" style="fill:#ff7f0e;stroke:#ffffff;stroke-linejoin:miter;stroke-width:2;"/>
   </g>
   <g id="patch_78">
    <path clip-path="url(#p8c8646b88c)" d="M 1068.226009 550.8 
L 1083.329227 550.8 
L 1083.329227 550.8 
L 1068.226009 550.8 
z
" style="fill:#ff7f0e;stroke:#ffffff;stroke-linejoin:miter;stroke-width:2;"/>
   </g>
   <g id="patch_79">
    <path clip-path="url(#p8c8646b88c)" d="M 1083.329227 550.8 
L 1098.432444 550.8 
L 1098.432444 550.8 
L 1083.329227 550.8 
z
" style="fill:#ff7f0e;stroke:#ffffff;stroke-linejoin:miter;stroke-width:2;"/>
   </g>
   <g id="patch_80">
    <path clip-path="url(#p8c8646b88c)" d="M 1098.432444 550.8 
L 1113.535662 550.8 
L 1113.535662 550.8 
L 1098.432444 550.8 
z
" style="fill:#ff7f0e;stroke:#ffffff;stroke-linejoin:miter;stroke-width:2;"/>
   </g>
   <g id="patch_81">
    <path clip-path="url(#p8c8646b88c)" d="M 1113.535662 550.8 
L 1128.638879 550.8 
L 1128.638879 550.8 
L 1113.535662 550.8 
z
" style="fill:#ff7f0e;stroke:#ffffff;stroke-linejoin:miter;stroke-width:2;"/>
   </g>
   <g id="patch_82">
    <path clip-path="url(#p8c8646b88c)" d="M 1128.638879 550.8 
L 1143.742097 550.8 
L 1143.742097 476.840816 
L 1128.638879 476.840816 
z
" style="fill:#ff7f0e;stroke:#ffffff;stroke-linejoin:miter;stroke-width:2;"/>
   </g>
   <g id="patch_83">
    <path d="M 79.779844 550.8 
L 79.779844 7.2 
" style="fill:none;stroke:#cccccc;stroke-linecap:square;stroke-linejoin:miter;stroke-width:2.5;"/>
   </g>
   <g id="patch_84">
    <path d="M 1195.779844 550.8 
L 1195.779844 7.2 
" style="fill:none;stroke:#cccccc;stroke-linecap:square;stroke-linejoin:miter;stroke-width:2.5;"/>
   </g>
   <g id="patch_85">
    <path d="M 79.779844 550.8 
L 1195.779844 550.8 
" style="fill:none;stroke:#cccccc;stroke-linecap:square;stroke-linejoin:miter;stroke-width:2.5;"/>
   </g>
   <g id="patch_86">
    <path d="M 79.779844 7.2 
L 1195.779844 7.2 
" style="fill:none;stroke:#cccccc;stroke-linecap:square;stroke-linejoin:miter;stroke-width:2.5;"/>
   </g>
   <g id="legend_1">
    <g id="patch_87">
     <path d="M 102.879844 130.155938 
L 269.560781 130.155938 
Q 276.160781 130.155938 276.160781 123.555938 
L 276.160781 30.3 
Q 276.160781 23.7 269.560781 23.7 
L 102.879844 23.7 
Q 96.279844 23.7 96.279844 30.3 
L 96.279844 123.555938 
Q 96.279844 130.155938 102.879844 130.155938 
z
" style="fill:#ffffff;opacity:0.8;stroke:#cccccc;stroke-linejoin:miter;stroke-width:2;"/>
    </g>
    <g id="patch_88">
     <path d="M 109.479844 61.65 
L 175.479844 61.65 
L 175.479844 38.55 
L 109.479844 38.55 
z
" style="fill:#1f77b4;stroke:#ffffff;stroke-linejoin:miter;stroke-width:2;"/>
    </g>
    <g id="text_16">
     <!-- BCN -->
     <g style="fill:#262626;" transform="translate(201.879844 61.65)scale(0.33 -0.33)">
      <defs>
       <path d="M 2586 2330 
Q 3040 2253 3321 2009 
Q 3603 1766 3603 1254 
Q 3603 0 1856 0 
L 640 0 
L 640 4410 
L 1683 4410 
Q 2522 4410 2966 4134 
Q 3411 3859 3411 3296 
Q 3411 2912 3171 2656 
Q 2931 2400 2586 2330 
z
M 1248 3930 
L 1248 2541 
L 1914 2541 
Q 2298 2541 2544 2726 
Q 2790 2912 2790 3251 
Q 2790 3635 2531 3782 
Q 2272 3930 1747 3930 
L 1248 3930 
z
M 1856 486 
Q 2394 486 2678 646 
Q 2963 806 2963 1254 
Q 2963 1690 2688 1882 
Q 2413 2074 1971 2074 
L 1248 2074 
L 1248 486 
L 1856 486 
z
" id="FiraSans-Regular-42" transform="scale(0.015625)"/>
       <path d="M 2182 4486 
Q 2579 4486 2851 4384 
Q 3123 4282 3405 4051 
L 3072 3661 
Q 2669 3987 2221 3987 
Q 1670 3987 1334 3564 
Q 998 3142 998 2208 
Q 998 1299 1331 867 
Q 1664 435 2214 435 
Q 2496 435 2707 531 
Q 2918 627 3155 800 
L 3456 416 
Q 3251 205 2931 64 
Q 2611 -77 2195 -77 
Q 1658 -77 1238 188 
Q 819 454 585 969 
Q 352 1485 352 2208 
Q 352 2931 595 3446 
Q 838 3962 1254 4224 
Q 1670 4486 2182 4486 
z
" id="FiraSans-Regular-43" transform="scale(0.015625)"/>
       <path d="M 3731 0 
L 2918 0 
L 1126 3744 
Q 1165 3302 1187 2928 
Q 1210 2554 1210 2022 
L 1210 0 
L 640 0 
L 640 4410 
L 1434 4410 
L 3245 659 
Q 3226 826 3194 1242 
Q 3162 1658 3162 2003 
L 3162 4410 
L 3731 4410 
L 3731 0 
z
" id="FiraSans-Regular-4e" transform="scale(0.015625)"/>
      </defs>
      <use xlink:href="#FiraSans-Regular-42"/>
      <use x="60.799988" xlink:href="#FiraSans-Regular-43"/>
      <use x="116.799973" xlink:href="#FiraSans-Regular-4e"/>
     </g>
    </g>
    <g id="patch_89">
     <path d="M 109.479844 109.927969 
L 175.479844 109.927969 
L 175.479844 86.827969 
L 109.479844 86.827969 
z
" style="fill:#ff7f0e;stroke:#ffffff;stroke-linejoin:miter;stroke-width:2;"/>
    </g>
    <g id="text_17">
     <!-- MI -->
     <g style="fill:#262626;" transform="translate(201.879844 109.927969)scale(0.33 -0.33)">
      <defs>
       <path d="M 4582 0 
L 3994 0 
L 3840 1990 
Q 3744 3162 3731 3789 
L 2778 499 
L 2208 499 
L 1203 3795 
Q 1203 2995 1120 1946 
L 973 0 
L 397 0 
L 762 4410 
L 1581 4410 
L 2509 1203 
L 3392 4410 
L 4218 4410 
L 4582 0 
z
" id="FiraSans-Regular-4d" transform="scale(0.015625)"/>
       <path d="M 1248 4410 
L 1248 0 
L 640 0 
L 640 4410 
L 1248 4410 
z
" id="FiraSans-Regular-49" transform="scale(0.015625)"/>
      </defs>
      <use xlink:href="#FiraSans-Regular-4d"/>
      <use x="77.799988" xlink:href="#FiraSans-Regular-49"/>
     </g>
    </g>
   </g>
  </g>
 </g>
 <defs>
  <clipPath id="p8c8646b88c">
   <rect height="543.6" width="1116" x="79.779844" y="7.2"/>
  </clipPath>
 </defs>
</svg>
