<?xml version="1.0" encoding="utf-8" standalone="no"?>
<!DOCTYPE svg PUBLIC "-//W3C//DTD SVG 1.1//EN"
  "http://www.w3.org/Graphics/SVG/1.1/DTD/svg11.dtd">
<svg xmlns:xlink="http://www.w3.org/1999/xlink" width="1198.006562pt" height="614.185313pt" viewBox="0 0 1198.006562 614.185313" xmlns="http://www.w3.org/2000/svg" version="1.1">
 <metadata>
  <rdf:RDF xmlns:dc="http://purl.org/dc/elements/1.1/" xmlns:cc="http://creativecommons.org/ns#" xmlns:rdf="http://www.w3.org/1999/02/22-rdf-syntax-ns#">
   <cc:Work>
    <dc:type rdf:resource="http://purl.org/dc/dcmitype/StillImage"/>
    <dc:date>2022-12-11T14:19:42.359171</dc:date>
    <dc:format>image/svg+xml</dc:format>
    <dc:creator>
     <cc:Agent>
      <dc:title>Matplotlib v3.6.1, https://matplotlib.org/</dc:title>
     </cc:Agent>
    </dc:creator>
   </cc:Work>
  </rdf:RDF>
 </metadata>
 <defs>
  <style type="text/css">*{stroke-linejoin: round; stroke-linecap: butt}</style>
 </defs>
 <g id="figure_1">
  <g id="patch_1">
   <path d="M 0 614.185313 
L 1198.006562 614.185313 
L 1198.006562 0 
L 0 0 
L 0 614.185313 
z
" style="fill: none"/>
  </g>
  <g id="axes_1">
   <g id="patch_2">
    <path d="M 19.2 570.3 
L 1135.2 570.3 
L 1135.2 26.7 
L 19.2 26.7 
z
" style="fill: #ffffff"/>
   </g>
   <g id="matplotlib.axis_1">
    <g id="xtick_1">
     <g id="line2d_1">
      <defs>
       <path id="me73cd689a0" d="M 0 0 
L 0 12 
" style="stroke: #262626; stroke-width: 2.5"/>
      </defs>
      <g>
       <use xlink:href="#me73cd689a0" x="164.650663" y="570.3" style="fill: #262626; stroke: #262626; stroke-width: 2.5"/>
      </g>
     </g>
     <g id="text_1">
      <!-- −20000 -->
      <g style="fill: #262626" transform="translate(129.155038 602.3) scale(0.22 -0.22)">
       <defs>
        <path id="FiraSans-Regular-2212" d="M 397 1882 
L 397 2374 
L 2803 2374 
L 2803 1882 
L 397 1882 
z
" transform="scale(0.015625)"/>
        <path id="FiraSans-Regular-32" d="M 1459 4346 
Q 1843 4346 2134 4192 
Q 2426 4038 2586 3772 
Q 2746 3507 2746 3174 
Q 2746 2784 2570 2425 
Q 2394 2067 2029 1651 
Q 1664 1235 922 493 
L 2848 493 
L 2778 0 
L 250 0 
L 250 467 
Q 1107 1357 1465 1769 
Q 1824 2182 1977 2489 
Q 2131 2797 2131 3149 
Q 2131 3482 1939 3670 
Q 1747 3859 1427 3859 
Q 1165 3859 966 3750 
Q 768 3642 544 3392 
L 160 3699 
Q 422 4026 742 4186 
Q 1062 4346 1459 4346 
z
" transform="scale(0.015625)"/>
        <path id="FiraSans-Regular-30" d="M 1786 4346 
Q 2496 4346 2857 3779 
Q 3219 3213 3219 2138 
Q 3219 1062 2857 492 
Q 2496 -77 1786 -77 
Q 1075 -77 713 492 
Q 352 1062 352 2138 
Q 352 3213 713 3779 
Q 1075 4346 1786 4346 
z
M 1786 3878 
Q 1370 3878 1168 3468 
Q 966 3059 966 2138 
Q 966 1216 1168 803 
Q 1370 390 1786 390 
Q 2195 390 2400 803 
Q 2605 1216 2605 2138 
Q 2605 3053 2400 3465 
Q 2195 3878 1786 3878 
z
" transform="scale(0.015625)"/>
       </defs>
       <use xlink:href="#FiraSans-Regular-2212"/>
       <use xlink:href="#FiraSans-Regular-32" x="49.999985"/>
       <use xlink:href="#FiraSans-Regular-30" x="99.499969"/>
       <use xlink:href="#FiraSans-Regular-30" x="155.299957"/>
       <use xlink:href="#FiraSans-Regular-30" x="211.099945"/>
       <use xlink:href="#FiraSans-Regular-30" x="266.899933"/>
      </g>
     </g>
    </g>
    <g id="xtick_2">
     <g id="line2d_2">
      <g>
       <use xlink:href="#me73cd689a0" x="322.325886" y="570.3" style="fill: #262626; stroke: #262626; stroke-width: 2.5"/>
      </g>
     </g>
     <g id="text_2">
      <!-- 0 -->
      <g style="fill: #262626" transform="translate(316.18823 602.3) scale(0.22 -0.22)">
       <use xlink:href="#FiraSans-Regular-30"/>
      </g>
     </g>
    </g>
    <g id="xtick_3">
     <g id="line2d_3">
      <g>
       <use xlink:href="#me73cd689a0" x="480.001109" y="570.3" style="fill: #262626; stroke: #262626; stroke-width: 2.5"/>
      </g>
     </g>
     <g id="text_3">
      <!-- 20000 -->
      <g style="fill: #262626" transform="translate(450.005484 602.3) scale(0.22 -0.22)">
       <use xlink:href="#FiraSans-Regular-32"/>
       <use xlink:href="#FiraSans-Regular-30" x="49.499985"/>
       <use xlink:href="#FiraSans-Regular-30" x="105.299973"/>
       <use xlink:href="#FiraSans-Regular-30" x="161.09996"/>
       <use xlink:href="#FiraSans-Regular-30" x="216.899948"/>
      </g>
     </g>
    </g>
    <g id="xtick_4">
     <g id="line2d_4">
      <g>
       <use xlink:href="#me73cd689a0" x="637.676332" y="570.3" style="fill: #262626; stroke: #262626; stroke-width: 2.5"/>
      </g>
     </g>
     <g id="text_4">
      <!-- 40000 -->
      <g style="fill: #262626" transform="translate(607.273363 602.3) scale(0.22 -0.22)">
       <defs>
        <path id="FiraSans-Regular-34" d="M 3213 1523 
L 3213 1056 
L 2656 1056 
L 2656 0 
L 2086 0 
L 2086 1056 
L 256 1056 
L 256 1478 
L 1542 4346 
L 2035 4141 
L 877 1523 
L 2093 1523 
L 2144 2675 
L 2656 2675 
L 2656 1523 
L 3213 1523 
z
" transform="scale(0.015625)"/>
       </defs>
       <use xlink:href="#FiraSans-Regular-34"/>
       <use xlink:href="#FiraSans-Regular-30" x="53.199997"/>
       <use xlink:href="#FiraSans-Regular-30" x="108.999985"/>
       <use xlink:href="#FiraSans-Regular-30" x="164.799973"/>
       <use xlink:href="#FiraSans-Regular-30" x="220.59996"/>
      </g>
     </g>
    </g>
    <g id="xtick_5">
     <g id="line2d_5">
      <g>
       <use xlink:href="#me73cd689a0" x="795.351555" y="570.3" style="fill: #262626; stroke: #262626; stroke-width: 2.5"/>
      </g>
     </g>
     <g id="text_5">
      <!-- 60000 -->
      <g style="fill: #262626" transform="translate(764.938273 602.3) scale(0.22 -0.22)">
       <defs>
        <path id="FiraSans-Regular-36" d="M 1971 2816 
Q 2298 2816 2566 2662 
Q 2835 2509 2995 2201 
Q 3155 1894 3155 1453 
Q 3155 998 2972 649 
Q 2790 301 2480 112 
Q 2170 -77 1792 -77 
Q 1043 -77 697 476 
Q 352 1030 352 2010 
Q 352 2707 547 3235 
Q 742 3763 1107 4054 
Q 1472 4346 1971 4346 
Q 2458 4346 2854 4083 
L 2624 3693 
Q 2323 3878 1965 3878 
Q 1504 3878 1235 3436 
Q 966 2995 941 2253 
Q 1338 2816 1971 2816 
z
M 1792 390 
Q 2163 390 2361 672 
Q 2560 954 2560 1434 
Q 2560 2349 1869 2349 
Q 1587 2349 1350 2192 
Q 1114 2035 947 1760 
Q 966 1056 1168 723 
Q 1370 390 1792 390 
z
" transform="scale(0.015625)"/>
       </defs>
       <use xlink:href="#FiraSans-Regular-36"/>
       <use xlink:href="#FiraSans-Regular-30" x="53.299988"/>
       <use xlink:href="#FiraSans-Regular-30" x="109.099976"/>
       <use xlink:href="#FiraSans-Regular-30" x="164.899963"/>
       <use xlink:href="#FiraSans-Regular-30" x="220.699951"/>
      </g>
     </g>
    </g>
    <g id="xtick_6">
     <g id="line2d_6">
      <g>
       <use xlink:href="#me73cd689a0" x="953.026778" y="570.3" style="fill: #262626; stroke: #262626; stroke-width: 2.5"/>
      </g>
     </g>
     <g id="text_6">
      <!-- 80000 -->
      <g style="fill: #262626" transform="translate(922.41584 602.3) scale(0.22 -0.22)">
       <defs>
        <path id="FiraSans-Regular-38" d="M 2336 2298 
Q 3238 1933 3238 1146 
Q 3238 794 3049 515 
Q 2861 237 2521 80 
Q 2182 -77 1754 -77 
Q 1318 -77 985 76 
Q 653 230 470 505 
Q 288 781 288 1133 
Q 288 1530 502 1798 
Q 717 2067 1133 2246 
Q 794 2419 630 2665 
Q 467 2912 467 3245 
Q 467 3590 649 3840 
Q 832 4090 1129 4218 
Q 1427 4346 1766 4346 
Q 2099 4346 2396 4224 
Q 2694 4102 2880 3856 
Q 3066 3610 3066 3264 
Q 3066 2944 2886 2713 
Q 2707 2483 2336 2298 
z
M 1766 3904 
Q 1434 3904 1238 3731 
Q 1043 3558 1043 3238 
Q 1043 2931 1232 2771 
Q 1421 2611 1837 2477 
L 1946 2438 
Q 2234 2605 2362 2790 
Q 2490 2976 2490 3245 
Q 2490 3546 2301 3725 
Q 2112 3904 1766 3904 
z
M 1760 390 
Q 2157 390 2390 595 
Q 2624 800 2624 1139 
Q 2624 1370 2534 1526 
Q 2445 1683 2246 1801 
Q 2048 1920 1690 2042 
L 1530 2099 
Q 1210 1946 1056 1712 
Q 902 1478 902 1133 
Q 902 781 1132 585 
Q 1363 390 1760 390 
z
" transform="scale(0.015625)"/>
       </defs>
       <use xlink:href="#FiraSans-Regular-38"/>
       <use xlink:href="#FiraSans-Regular-30" x="55.099991"/>
       <use xlink:href="#FiraSans-Regular-30" x="110.899979"/>
       <use xlink:href="#FiraSans-Regular-30" x="166.699966"/>
       <use xlink:href="#FiraSans-Regular-30" x="222.499954"/>
      </g>
     </g>
    </g>
    <g id="xtick_7">
     <g id="line2d_7">
      <g>
       <use xlink:href="#me73cd689a0" x="1110.702001" y="570.3" style="fill: #262626; stroke: #262626; stroke-width: 2.5"/>
      </g>
     </g>
     <g id="text_7">
      <!-- 100000 -->
      <g style="fill: #262626" transform="translate(1075.251063 602.3) scale(0.22 -0.22)">
       <defs>
        <path id="FiraSans-Regular-31" d="M 2067 4282 
L 2067 0 
L 1478 0 
L 1478 3654 
L 480 3046 
L 224 3462 
L 1549 4282 
L 2067 4282 
z
" transform="scale(0.015625)"/>
       </defs>
       <use xlink:href="#FiraSans-Regular-31"/>
       <use xlink:href="#FiraSans-Regular-30" x="43.299988"/>
       <use xlink:href="#FiraSans-Regular-30" x="99.099976"/>
       <use xlink:href="#FiraSans-Regular-30" x="154.899963"/>
       <use xlink:href="#FiraSans-Regular-30" x="210.699951"/>
       <use xlink:href="#FiraSans-Regular-30" x="266.499939"/>
      </g>
     </g>
    </g>
   </g>
   <g id="patch_3">
    <path d="M 19.2 570.3 
L 19.2 26.7 
" style="fill: none; stroke: #262626; stroke-width: 2.5; stroke-linejoin: miter; stroke-linecap: square"/>
   </g>
   <g id="patch_4">
    <path d="M 1135.2 570.3 
L 1135.2 26.7 
" style="fill: none; stroke: #262626; stroke-width: 2.5; stroke-linejoin: miter; stroke-linecap: square"/>
   </g>
   <g id="patch_5">
    <path d="M 19.2 570.3 
L 1135.2 570.3 
" style="fill: none; stroke: #262626; stroke-width: 2.5; stroke-linejoin: miter; stroke-linecap: square"/>
   </g>
   <g id="patch_6">
    <path d="M 19.2 26.7 
L 1135.2 26.7 
" style="fill: none; stroke: #262626; stroke-width: 2.5; stroke-linejoin: miter; stroke-linecap: square"/>
   </g>
  </g>
  <g id="axes_2">
   <g id="matplotlib.axis_2">
    <g id="ytick_1">
     <g id="line2d_8">
      <path d="M 19.2 545.592382 
L 1135.2 545.592382 
" clip-path="url(#p665604ca5e)" style="fill: none; stroke: #cccccc; stroke-width: 2; stroke-linecap: round"/>
     </g>
     <g id="line2d_9">
      <defs>
       <path id="m65fc63674b" d="M 0 0 
L 12 0 
" style="stroke: #262626; stroke-width: 2.5"/>
      </defs>
      <g>
       <use xlink:href="#m65fc63674b" x="1135.2" y="545.592382" style="fill: #262626; stroke: #262626; stroke-width: 2.5"/>
      </g>
     </g>
     <g id="text_8">
      <!-- 0 -->
      <g style="fill: #262626" transform="translate(1150.7 553.842382) scale(0.22 -0.22)">
       <use xlink:href="#FiraSans-Regular-30"/>
      </g>
     </g>
    </g>
    <g id="ytick_2">
     <g id="line2d_10">
      <path d="M 19.2 453.629515 
L 1135.2 453.629515 
" clip-path="url(#p665604ca5e)" style="fill: none; stroke: #cccccc; stroke-width: 2; stroke-linecap: round"/>
     </g>
     <g id="line2d_11">
      <g>
       <use xlink:href="#m65fc63674b" x="1135.2" y="453.629515" style="fill: #262626; stroke: #262626; stroke-width: 2.5"/>
      </g>
     </g>
     <g id="text_9">
      <!-- 1 -->
      <g style="fill: #262626" transform="translate(1150.7 461.879515) scale(0.22 -0.22)">
       <use xlink:href="#FiraSans-Regular-31"/>
      </g>
     </g>
    </g>
    <g id="ytick_3">
     <g id="line2d_12">
      <path d="M 19.2 361.666648 
L 1135.2 361.666648 
" clip-path="url(#p665604ca5e)" style="fill: none; stroke: #cccccc; stroke-width: 2; stroke-linecap: round"/>
     </g>
     <g id="line2d_13">
      <g>
       <use xlink:href="#m65fc63674b" x="1135.2" y="361.666648" style="fill: #262626; stroke: #262626; stroke-width: 2.5"/>
      </g>
     </g>
     <g id="text_10">
      <!-- 2 -->
      <g style="fill: #262626" transform="translate(1150.7 369.916648) scale(0.22 -0.22)">
       <use xlink:href="#FiraSans-Regular-32"/>
      </g>
     </g>
    </g>
    <g id="ytick_4">
     <g id="line2d_14">
      <path d="M 19.2 269.703781 
L 1135.2 269.703781 
" clip-path="url(#p665604ca5e)" style="fill: none; stroke: #cccccc; stroke-width: 2; stroke-linecap: round"/>
     </g>
     <g id="line2d_15">
      <g>
       <use xlink:href="#m65fc63674b" x="1135.2" y="269.703781" style="fill: #262626; stroke: #262626; stroke-width: 2.5"/>
      </g>
     </g>
     <g id="text_11">
      <!-- 3 -->
      <g style="fill: #262626" transform="translate(1150.7 277.953781) scale(0.22 -0.22)">
       <defs>
        <path id="FiraSans-Regular-33" d="M 1440 4346 
Q 1837 4346 2121 4198 
Q 2406 4051 2556 3801 
Q 2707 3552 2707 3258 
Q 2707 2867 2480 2614 
Q 2253 2362 1875 2272 
Q 2304 2234 2573 1965 
Q 2842 1696 2842 1235 
Q 2842 864 2662 563 
Q 2483 262 2150 92 
Q 1818 -77 1382 -77 
Q 992 -77 665 67 
Q 339 211 96 499 
L 448 826 
Q 659 608 880 505 
Q 1101 403 1363 403 
Q 1766 403 1996 630 
Q 2227 858 2227 1242 
Q 2227 1664 2009 1837 
Q 1792 2010 1376 2010 
L 1056 2010 
L 1126 2464 
L 1344 2464 
Q 1677 2464 1897 2662 
Q 2118 2861 2118 3219 
Q 2118 3520 1926 3696 
Q 1734 3872 1408 3872 
Q 1158 3872 950 3782 
Q 742 3693 525 3488 
L 218 3840 
Q 762 4346 1440 4346 
z
" transform="scale(0.015625)"/>
       </defs>
       <use xlink:href="#FiraSans-Regular-33"/>
      </g>
     </g>
    </g>
    <g id="ytick_5">
     <g id="line2d_16">
      <path d="M 19.2 177.740915 
L 1135.2 177.740915 
" clip-path="url(#p665604ca5e)" style="fill: none; stroke: #cccccc; stroke-width: 2; stroke-linecap: round"/>
     </g>
     <g id="line2d_17">
      <g>
       <use xlink:href="#m65fc63674b" x="1135.2" y="177.740915" style="fill: #262626; stroke: #262626; stroke-width: 2.5"/>
      </g>
     </g>
     <g id="text_12">
      <!-- 4 -->
      <g style="fill: #262626" transform="translate(1150.7 185.990915) scale(0.22 -0.22)">
       <use xlink:href="#FiraSans-Regular-34"/>
      </g>
     </g>
    </g>
    <g id="ytick_6">
     <g id="line2d_18">
      <path d="M 19.2 85.778048 
L 1135.2 85.778048 
" clip-path="url(#p665604ca5e)" style="fill: none; stroke: #cccccc; stroke-width: 2; stroke-linecap: round"/>
     </g>
     <g id="line2d_19">
      <g>
       <use xlink:href="#m65fc63674b" x="1135.2" y="85.778048" style="fill: #262626; stroke: #262626; stroke-width: 2.5"/>
      </g>
     </g>
     <g id="text_13">
      <!-- 5 -->
      <g style="fill: #262626" transform="translate(1150.7 94.028048) scale(0.22 -0.22)">
       <defs>
        <path id="FiraSans-Regular-35" d="M 2688 3821 
L 1018 3821 
L 1018 2560 
Q 1344 2726 1702 2726 
Q 2253 2726 2585 2364 
Q 2918 2003 2918 1370 
Q 2918 947 2732 617 
Q 2547 288 2211 105 
Q 1875 -77 1434 -77 
Q 1043 -77 736 60 
Q 429 198 166 467 
L 512 806 
Q 717 602 934 502 
Q 1152 403 1427 403 
Q 1837 403 2070 659 
Q 2304 915 2304 1382 
Q 2304 1850 2093 2061 
Q 1882 2272 1523 2272 
Q 1357 2272 1216 2237 
Q 1075 2202 915 2125 
L 454 2125 
L 454 4282 
L 2771 4282 
L 2688 3821 
z
" transform="scale(0.015625)"/>
       </defs>
       <use xlink:href="#FiraSans-Regular-35"/>
      </g>
     </g>
    </g>
    <g id="text_14">
     <!-- Density -->
     <g style="fill: #262626" transform="translate(1185.695312 339.024375) rotate(-90) scale(0.24 -0.24)">
      <defs>
       <path id="FiraSans-Regular-44" d="M 1562 4410 
Q 2560 4410 3165 3946 
Q 3770 3482 3770 2227 
Q 3770 1005 3165 502 
Q 2560 0 1696 0 
L 640 0 
L 640 4410 
L 1562 4410 
z
M 1248 3923 
L 1248 480 
L 1741 480 
Q 2355 480 2739 857 
Q 3123 1235 3123 2227 
Q 3123 2925 2924 3299 
Q 2726 3674 2419 3798 
Q 2112 3923 1696 3923 
L 1248 3923 
z
" transform="scale(0.015625)"/>
       <path id="FiraSans-Regular-65" d="M 3155 1786 
Q 3155 1638 3142 1485 
L 992 1485 
Q 1030 928 1273 665 
Q 1517 403 1901 403 
Q 2144 403 2349 473 
Q 2554 544 2778 698 
L 3034 346 
Q 2496 -77 1856 -77 
Q 1152 -77 758 384 
Q 365 845 365 1651 
Q 365 2176 534 2582 
Q 704 2989 1021 3219 
Q 1338 3450 1766 3450 
Q 2438 3450 2796 3008 
Q 3155 2566 3155 1786 
z
M 2573 1958 
Q 2573 2458 2374 2720 
Q 2176 2982 1779 2982 
Q 1056 2982 992 1920 
L 2573 1920 
L 2573 1958 
z
" transform="scale(0.015625)"/>
       <path id="FiraSans-Regular-6e" d="M 2195 3450 
Q 2656 3450 2915 3174 
Q 3174 2899 3174 2419 
L 3174 0 
L 2586 0 
L 2586 2336 
Q 2586 2694 2451 2841 
Q 2317 2989 2054 2989 
Q 1786 2989 1581 2835 
Q 1376 2682 1197 2394 
L 1197 0 
L 608 0 
L 608 3373 
L 1114 3373 
L 1165 2874 
Q 1344 3142 1609 3296 
Q 1875 3450 2195 3450 
z
" transform="scale(0.015625)"/>
       <path id="FiraSans-Regular-73" d="M 1523 3450 
Q 1869 3450 2144 3354 
Q 2419 3258 2669 3066 
L 2419 2694 
Q 2189 2842 1981 2912 
Q 1773 2982 1542 2982 
Q 1254 2982 1088 2864 
Q 922 2746 922 2541 
Q 922 2336 1078 2221 
Q 1235 2106 1645 1997 
Q 2208 1856 2486 1613 
Q 2765 1370 2765 947 
Q 2765 448 2377 185 
Q 1990 -77 1434 -77 
Q 666 -77 160 365 
L 474 723 
Q 902 397 1421 397 
Q 1754 397 1949 534 
Q 2144 672 2144 909 
Q 2144 1082 2073 1187 
Q 2003 1293 1830 1373 
Q 1658 1453 1325 1542 
Q 787 1683 547 1920 
Q 307 2157 307 2522 
Q 307 2784 464 2998 
Q 621 3213 899 3331 
Q 1178 3450 1523 3450 
z
" transform="scale(0.015625)"/>
       <path id="FiraSans-Regular-69" d="M 1197 3373 
L 1197 0 
L 608 0 
L 608 3373 
L 1197 3373 
z
M 896 4992 
Q 1082 4992 1197 4877 
Q 1312 4762 1312 4589 
Q 1312 4416 1197 4304 
Q 1082 4192 896 4192 
Q 717 4192 601 4304 
Q 486 4416 486 4589 
Q 486 4762 601 4877 
Q 717 4992 896 4992 
z
" transform="scale(0.015625)"/>
       <path id="FiraSans-Regular-74" d="M 2310 154 
Q 1978 -77 1555 -77 
Q 1126 -77 886 169 
Q 646 416 646 883 
L 646 2918 
L 58 2918 
L 58 3373 
L 646 3373 
L 646 4134 
L 1235 4205 
L 1235 3373 
L 2035 3373 
L 1971 2918 
L 1235 2918 
L 1235 909 
Q 1235 646 1328 528 
Q 1421 410 1638 410 
Q 1837 410 2086 544 
L 2310 154 
z
" transform="scale(0.015625)"/>
       <path id="FiraSans-Regular-79" d="M 1958 -19 
Q 1760 -608 1405 -950 
Q 1050 -1293 390 -1363 
L 326 -902 
Q 659 -845 857 -736 
Q 1056 -627 1174 -457 
Q 1293 -288 1395 0 
L 1197 0 
L 64 3373 
L 691 3373 
L 1594 429 
L 2477 3373 
L 3085 3373 
L 1958 -19 
z
" transform="scale(0.015625)"/>
      </defs>
      <use xlink:href="#FiraSans-Regular-44"/>
      <use xlink:href="#FiraSans-Regular-65" x="64.399994"/>
      <use xlink:href="#FiraSans-Regular-6e" x="118.899979"/>
      <use xlink:href="#FiraSans-Regular-73" x="177.499969"/>
      <use xlink:href="#FiraSans-Regular-69" x="224.199966"/>
      <use xlink:href="#FiraSans-Regular-74" x="252.399963"/>
      <use xlink:href="#FiraSans-Regular-79" x="288.499954"/>
     </g>
    </g>
    <g id="text_15">
     <!-- 1e−5 -->
     <g style="fill: #262626" transform="translate(1091.664062 23.7) scale(0.22 -0.22)">
      <use xlink:href="#FiraSans-Regular-31"/>
      <use xlink:href="#FiraSans-Regular-65" x="43.299988"/>
      <use xlink:href="#FiraSans-Regular-2212" x="97.799973"/>
      <use xlink:href="#FiraSans-Regular-35" x="147.799957"/>
     </g>
    </g>
   </g>
   <g id="line2d_20">
    <path d="M 95.127715 545.589376 
L 147.23985 545.468477 
L 165.524809 545.222502 
L 178.324281 544.846985 
L 188.381009 544.346966 
L 197.523489 543.661893 
L 204.837472 542.903665 
L 212.151456 541.911234 
L 218.551192 540.813913 
L 224.950928 539.469635 
L 230.436416 538.097783 
L 235.921904 536.505021 
L 241.407392 534.677128 
L 246.892879 532.603918 
L 252.378367 530.280351 
L 257.863855 527.707574 
L 263.349343 524.893821 
L 269.749079 521.328331 
L 276.148815 517.496364 
L 283.462798 512.861148 
L 295.348022 505.013451 
L 306.318998 497.836043 
L 313.632982 493.324343 
L 319.11847 490.179778 
L 324.603957 487.296796 
L 329.175197 485.125425 
L 333.746437 483.18574 
L 338.317677 481.492602 
L 342.888917 480.055274 
L 347.460157 478.877136 
L 352.031397 477.9556 
L 356.602637 477.28222 
L 361.173877 476.842993 
L 365.745116 476.618833 
L 371.230604 476.60032 
L 376.716092 476.809863 
L 383.115828 477.271506 
L 393.172556 478.261231 
L 405.972027 479.500918 
L 413.286011 479.968714 
L 419.685747 480.132566 
L 425.171235 480.046332 
L 430.656723 479.720485 
L 435.227963 479.248772 
L 439.799203 478.582801 
L 444.370442 477.712739 
L 448.941682 476.6299 
L 453.512922 475.326338 
L 458.084162 473.794462 
L 462.655402 472.026729 
L 467.226642 470.015421 
L 471.797882 467.752529 
L 476.369122 465.229753 
L 480.940361 462.438614 
L 485.511601 459.370692 
L 490.082841 456.017961 
L 494.654081 452.373218 
L 499.225321 448.430583 
L 503.796561 444.186049 
L 508.367801 439.638044 
L 512.939041 434.787992 
L 517.510281 429.640838 
L 522.995768 423.084939 
L 528.481256 416.138005 
L 533.966744 408.833341 
L 540.36648 399.917108 
L 547.680464 389.312567 
L 557.737192 374.28256 
L 573.279407 351.032068 
L 580.593391 340.525733 
L 586.078879 332.984655 
L 591.564367 325.81184 
L 596.135607 320.160958 
L 600.706846 314.84072 
L 605.278086 309.878335 
L 609.849326 305.296696 
L 613.506318 301.918289 
L 617.16331 298.803589 
L 620.820302 295.95922 
L 624.477294 293.390745 
L 628.134286 291.102935 
L 631.791278 289.100059 
L 635.44827 287.386173 
L 639.105261 285.965409 
L 642.762253 284.842229 
L 646.419245 284.021655 
L 649.161989 283.608239 
L 651.904733 283.370994 
L 654.647477 283.312935 
L 657.390221 283.43736 
L 660.132965 283.74783 
L 662.875709 284.24814 
L 665.618453 284.942279 
L 668.361197 285.834368 
L 671.103941 286.92859 
L 673.846685 288.229108 
L 676.589429 289.739972 
L 679.332172 291.465015 
L 682.074916 293.407747 
L 684.81766 295.571237 
L 687.560404 297.958004 
L 691.217396 301.490766 
L 694.874388 305.425837 
L 698.53138 309.762489 
L 702.188372 314.496699 
L 705.845364 319.62082 
L 709.502356 325.123346 
L 713.159348 330.988757 
L 717.730588 338.800621 
L 722.301827 347.101634 
L 726.873067 355.835633 
L 732.358555 366.796789 
L 738.758291 380.08885 
L 748.815019 401.573358 
L 760.700242 426.858566 
L 767.099978 439.98052 
L 772.585466 450.770772 
L 778.070954 461.0379 
L 782.642194 469.13824 
L 787.213434 476.787363 
L 791.784674 483.96035 
L 796.355914 490.641356 
L 800.012905 495.626773 
L 803.669897 500.292446 
L 807.326889 504.64125 
L 810.983881 508.678698 
L 814.640873 512.412606 
L 818.297865 515.852763 
L 821.954857 519.01059 
L 825.611849 521.898816 
L 829.268841 524.531157 
L 832.925833 526.922032 
L 836.582825 529.086285 
L 840.239816 531.03895 
L 844.811056 533.205081 
L 849.382296 535.09285 
L 853.953536 536.730105 
L 858.524776 538.143381 
L 864.010264 539.578691 
L 869.495752 540.767149 
L 874.98124 541.744757 
L 881.380975 542.661483 
L 888.694959 543.46803 
L 896.923191 544.134227 
L 906.065671 544.649926 
L 917.036646 545.048823 
L 931.664614 545.343569 
L 952.692318 545.519292 
L 993.833477 545.587815 
L 1008.461444 545.590881 
L 1008.461444 545.590881 
" clip-path="url(#p665604ca5e)" style="fill: none; stroke: #a6cee3; stroke-opacity: 0.5; stroke-width: 3; stroke-linecap: round"/>
   </g>
   <g id="line2d_21">
    <path d="M 69.927273 545.589301 
L 127.814251 545.470599 
L 149.141032 545.214661 
L 163.358886 544.840475 
L 174.530057 544.347745 
L 184.685667 543.678891 
L 193.825717 542.837871 
L 201.950205 541.85252 
L 209.059132 540.77235 
L 216.168059 539.459613 
L 222.261425 538.129725 
L 228.354791 536.596051 
L 234.448157 534.847691 
L 240.541523 532.877786 
L 246.634889 530.684452 
L 252.728256 528.271621 
L 259.837183 525.193516 
L 266.94611 521.859631 
L 275.070598 517.790221 
L 285.226208 512.43729 
L 306.552989 501.113762 
L 314.677477 497.116575 
L 320.770844 494.341857 
L 326.86421 491.803553 
L 332.957576 489.534612 
L 338.035381 487.867447 
L 343.113186 486.413458 
L 348.190991 485.176808 
L 353.268796 484.15672 
L 358.346601 483.347574 
L 363.424406 482.739171 
L 369.517772 482.253566 
L 375.611138 482.004495 
L 382.720066 481.962469 
L 390.844554 482.160156 
L 403.031286 482.72631 
L 418.264701 483.422751 
L 427.40475 483.611546 
L 434.513677 483.559053 
L 441.622604 483.290681 
L 448.731532 482.774792 
L 454.824898 482.114495 
L 460.918264 481.235604 
L 467.01163 480.121874 
L 473.104996 478.756368 
L 478.182801 477.413042 
L 483.260606 475.870948 
L 488.338411 474.11804 
L 493.416216 472.141681 
L 498.494021 469.928883 
L 503.571826 467.46666 
L 508.649631 464.742476 
L 513.727437 461.74476 
L 518.805242 458.463493 
L 523.883047 454.89081 
L 528.960852 451.021612 
L 534.038657 446.854158 
L 539.116462 442.390593 
L 544.194267 437.63741 
L 549.272072 432.605799 
L 555.365438 426.223386 
L 561.458804 419.500878 
L 568.567731 411.292064 
L 576.692219 401.541714 
L 589.894513 385.266378 
L 602.081245 370.358197 
L 609.190172 361.972806 
L 615.283538 355.081297 
L 621.376904 348.53515 
L 626.454709 343.387706 
L 631.532514 338.552579 
L 636.610319 334.055665 
L 640.672563 330.716188 
L 644.734808 327.615951 
L 648.797052 324.762323 
L 652.859296 322.161236 
L 656.92154 319.817401 
L 660.983784 317.73457 
L 665.046028 315.915806 
L 669.108272 314.363772 
L 673.170516 313.081019 
L 677.23276 312.070249 
L 681.295004 311.334553 
L 685.357248 310.87761 
L 689.419492 310.703826 
L 693.481736 310.818416 
L 696.528419 311.097204 
L 699.575102 311.54441 
L 702.621785 312.163072 
L 705.668468 312.956395 
L 708.715152 313.927696 
L 711.761835 315.080331 
L 714.808518 316.417621 
L 717.855201 317.942764 
L 720.901884 319.65874 
L 724.964128 322.248103 
L 729.026372 325.186509 
L 733.088616 328.477296 
L 737.15086 332.121619 
L 741.213104 336.118056 
L 745.275348 340.462266 
L 749.337592 345.146707 
L 753.399836 350.160426 
L 757.46208 355.488941 
L 762.539885 362.564447 
L 767.61769 370.060499 
L 772.695495 377.926243 
L 778.788862 387.771089 
L 785.897789 399.674901 
L 799.100082 422.343443 
L 809.255692 439.619009 
L 816.364619 451.306736 
L 822.457985 460.918208 
L 827.53579 468.575649 
L 832.613595 475.869582 
L 837.6914 482.767911 
L 842.769206 489.246817 
L 846.83145 494.117137 
L 850.893694 498.704354 
L 854.955938 503.006974 
L 859.018182 507.026242 
L 863.080426 510.765885 
L 867.14267 514.231826 
L 871.204914 517.431895 
L 875.267158 520.375523 
L 879.329402 523.073449 
L 883.391646 525.537434 
L 887.45389 527.77999 
L 891.516134 529.814133 
L 896.593939 532.08398 
L 901.671744 534.075007 
L 906.74955 535.812926 
L 911.827355 537.322674 
L 916.90516 538.62808 
L 922.998526 539.956376 
L 929.091892 541.058643 
L 936.200819 542.102212 
L 943.309746 542.928168 
L 951.434234 543.656257 
L 960.574283 544.259129 
L 971.745455 544.764767 
L 984.947748 545.135703 
L 1002.212285 545.393504 
L 1028.616871 545.543234 
L 1084.472727 545.590909 
L 1084.472727 545.590909 
" clip-path="url(#p665604ca5e)" style="fill: none; stroke: #fb9a99; stroke-opacity: 0.5; stroke-width: 3; stroke-linecap: round"/>
   </g>
   <g id="line2d_22">
    <path d="M 274.676433 545.404374 
L 282.085748 545.114381 
L 287.642735 544.676333 
L 292.088324 544.097086 
L 295.792981 543.388679 
L 299.127173 542.517434 
L 302.090899 541.509323 
L 304.684159 540.409819 
L 307.277419 539.072969 
L 309.87068 537.464081 
L 312.093474 535.8415 
L 314.316269 533.970397 
L 316.539063 531.828858 
L 318.761858 529.39611 
L 320.984652 526.653142 
L 323.207447 523.583345 
L 325.430241 520.17312 
L 328.023501 515.751118 
L 330.616762 510.843411 
L 333.210022 505.449386 
L 335.803282 499.577057 
L 338.767008 492.301758 
L 341.730734 484.460946 
L 345.064926 475.024979 
L 348.769583 463.872567 
L 353.215172 449.723581 
L 358.401693 432.401162 
L 364.329145 411.802079 
L 370.627062 389.126897 
L 376.554514 366.98195 
L 382.111501 345.370543 
L 387.668487 322.854582 
L 393.966405 296.361698 
L 411.378295 222.415577 
L 416.19435 203.292549 
L 420.639939 186.505816 
L 425.085528 170.535426 
L 430.272048 152.778806 
L 436.1995 133.321987 
L 442.867884 112.186072 
L 448.054404 96.405947 
L 451.759062 85.747634 
L 454.722788 77.793439 
L 457.316048 71.398634 
L 459.538842 66.43961 
L 461.761637 62.05163 
L 463.613966 58.891702 
L 465.095829 56.722587 
L 466.577691 54.896841 
L 468.059554 53.43523 
L 469.170952 52.589326 
L 470.282349 51.965841 
L 471.393746 51.570964 
L 472.505143 51.409991 
L 473.616541 51.487266 
L 474.727938 51.806143 
L 475.839335 52.368947 
L 476.950732 53.176953 
L 478.06213 54.230372 
L 479.543993 56.015061 
L 481.025856 58.22948 
L 482.507719 60.865472 
L 483.989582 63.9118 
L 485.84191 68.275003 
L 487.694239 73.223907 
L 489.917034 79.880964 
L 492.139828 87.250616 
L 494.733088 96.64078 
L 497.696814 108.253057 
L 501.401472 123.800488 
L 505.847061 143.507177 
L 512.515444 174.229181 
L 523.629417 226.617658 
L 531.779663 266.001438 
L 538.818513 301.165385 
L 546.968759 343.127413 
L 556.971334 394.529556 
L 561.787389 418.091232 
L 565.862512 436.887232 
L 569.196704 451.273869 
L 572.16043 463.199372 
L 575.124156 474.240733 
L 577.717416 483.139169 
L 580.310676 491.306966 
L 582.903937 498.739571 
L 585.497197 505.444542 
L 587.719991 510.6263 
L 589.942786 515.304238 
L 592.16558 519.500065 
L 594.388375 523.239087 
L 596.611169 526.549392 
L 598.833964 529.461051 
L 601.056758 532.005353 
L 603.279553 534.214102 
L 605.502347 536.118978 
L 607.725142 537.750992 
L 609.947936 539.140022 
L 612.541197 540.491211 
L 615.134457 541.592181 
L 618.098183 542.592931 
L 621.061909 543.367506 
L 624.396101 544.023122 
L 628.471224 544.587331 
L 633.287279 545.014611 
L 639.585196 545.324497 
L 644.771717 545.455491 
L 644.771717 545.455491 
" clip-path="url(#p665604ca5e)" style="fill: none; stroke: #1f78b4; stroke-width: 3; stroke-linecap: round"/>
   </g>
   <g id="line2d_23">
    <path d="M 263.150375 545.359947 
L 271.543305 545.03555 
L 277.838003 544.567015 
L 282.873762 543.966389 
L 287.070227 543.248282 
L 290.847046 542.380422 
L 294.204218 541.39006 
L 297.56139 540.151658 
L 300.498916 538.829987 
L 303.436442 537.253278 
L 306.373967 535.388962 
L 308.891846 533.537001 
L 311.409726 531.428762 
L 313.927605 529.044129 
L 316.445484 526.363986 
L 318.963363 523.370666 
L 321.481242 520.048396 
L 323.999121 516.383729 
L 326.517001 512.365941 
L 329.454526 507.222176 
L 332.392052 501.581096 
L 335.329578 495.442902 
L 338.267103 488.814569 
L 341.624276 480.657009 
L 344.981448 471.907966 
L 348.758267 461.409043 
L 352.954732 449.011824 
L 357.570844 434.614551 
L 363.026249 416.789474 
L 370.16024 392.601733 
L 388.624687 329.539641 
L 394.080092 311.863551 
L 399.11585 296.302488 
L 403.731962 282.805124 
L 407.928427 271.244809 
L 411.705246 261.450302 
L 415.482065 252.239347 
L 419.258884 243.59586 
L 423.035702 235.48299 
L 427.232168 227.023355 
L 431.428633 219.054883 
L 436.464391 209.992134 
L 442.339443 199.889141 
L 449.89308 187.350891 
L 456.607425 176.584325 
L 461.643183 168.901949 
L 465.420002 163.510381 
L 468.777174 159.098136 
L 471.7147 155.614131 
L 474.232579 152.964675 
L 476.330812 151.02901 
L 478.429044 149.368195 
L 480.527277 148.006688 
L 482.205863 147.148342 
L 483.884449 146.506811 
L 485.563035 146.091701 
L 487.241621 145.911435 
L 488.920207 145.97314 
L 490.598794 146.28255 
L 492.27738 146.843933 
L 493.955966 147.660037 
L 495.634552 148.732067 
L 497.313138 150.059673 
L 498.991724 151.640978 
L 501.089957 153.969112 
L 503.188189 156.678631 
L 505.286422 159.7567 
L 507.384655 163.187672 
L 509.902534 167.74514 
L 512.420413 172.75004 
L 515.357939 179.104738 
L 518.715111 186.972207 
L 522.072283 195.398755 
L 525.849102 205.44325 
L 530.465214 218.390753 
L 535.500972 233.209054 
L 540.956377 249.971401 
L 546.411782 267.44762 
L 551.867187 285.679875 
L 557.322592 304.725408 
L 562.777997 324.598509 
L 568.653048 346.834153 
L 577.045979 379.566375 
L 586.697849 417.025077 
L 591.733607 435.679186 
L 595.930072 450.404274 
L 599.706891 462.852777 
L 603.064063 473.18355 
L 606.421236 482.759729 
L 609.358761 490.486961 
L 612.296287 497.589029 
L 615.233813 504.061427 
L 617.751692 509.112208 
L 620.269571 513.713742 
L 622.78745 517.879747 
L 625.305329 521.627809 
L 627.823209 524.978711 
L 630.341088 527.955738 
L 632.858967 530.584006 
L 635.376846 532.889806 
L 637.894725 534.900005 
L 640.412605 536.641496 
L 642.930484 538.140729 
L 645.868009 539.617735 
L 648.805535 540.838386 
L 652.162707 541.96541 
L 655.51988 542.853025 
L 659.296698 543.618839 
L 663.493164 544.242062 
L 668.528922 544.753981 
L 674.82362 545.145204 
L 682.377257 545.392002 
L 682.377257 545.392002 
" clip-path="url(#p665604ca5e)" style="fill: none; stroke: #e31a1c; stroke-width: 3; stroke-linecap: round"/>
   </g>
   <g id="patch_7">
    <path d="M 19.2 570.3 
L 19.2 26.7 
" style="fill: none; stroke: #262626; stroke-width: 2.5; stroke-linejoin: miter; stroke-linecap: square"/>
   </g>
   <g id="patch_8">
    <path d="M 1135.2 570.3 
L 1135.2 26.7 
" style="fill: none; stroke: #262626; stroke-width: 2.5; stroke-linejoin: miter; stroke-linecap: square"/>
   </g>
   <g id="patch_9">
    <path d="M 19.2 570.3 
L 1135.2 570.3 
" style="fill: none; stroke: #262626; stroke-width: 2.5; stroke-linejoin: miter; stroke-linecap: square"/>
   </g>
   <g id="patch_10">
    <path d="M 19.2 26.7 
L 1135.2 26.7 
" style="fill: none; stroke: #262626; stroke-width: 2.5; stroke-linejoin: miter; stroke-linecap: square"/>
   </g>
   <g id="legend_1">
    <g id="patch_11">
     <path d="M 916.23125 175.42 
L 1119.8 175.42 
Q 1124.2 175.42 1124.2 171.02 
L 1124.2 42.1 
Q 1124.2 37.7 1119.8 37.7 
L 916.23125 37.7 
Q 911.83125 37.7 911.83125 42.1 
L 911.83125 171.02 
Q 911.83125 175.42 916.23125 175.42 
z
" style="fill: #ffffff; opacity: 0.8; stroke: #cccccc; stroke-width: 2; stroke-linejoin: miter"/>
    </g>
    <g id="line2d_24">
     <path d="M 920.63125 55.894687 
L 942.63125 55.894687 
L 964.63125 55.894687 
" style="fill: none; stroke: #a6cee3; stroke-opacity: 0.5; stroke-width: 3; stroke-linecap: round"/>
    </g>
    <g id="text_16">
     <!-- men (BCN) -->
     <g style="fill: #262626" transform="translate(982.23125 63.594687) scale(0.22 -0.22)">
      <defs>
       <path id="FiraSans-Regular-6d" d="M 3994 3450 
Q 4410 3450 4659 3171 
Q 4909 2893 4909 2419 
L 4909 0 
L 4320 0 
L 4320 2336 
Q 4320 2989 3846 2989 
Q 3597 2989 3424 2845 
Q 3251 2701 3053 2394 
L 3053 0 
L 2464 0 
L 2464 2336 
Q 2464 2989 1990 2989 
Q 1734 2989 1561 2841 
Q 1389 2694 1197 2394 
L 1197 0 
L 608 0 
L 608 3373 
L 1114 3373 
L 1165 2880 
Q 1542 3450 2138 3450 
Q 2451 3450 2672 3290 
Q 2893 3130 2989 2842 
Q 3187 3136 3427 3293 
Q 3667 3450 3994 3450 
z
" transform="scale(0.015625)"/>
       <path id="FiraSans-Regular-20" transform="scale(0.015625)"/>
       <path id="FiraSans-Regular-28" d="M 1818 5152 
Q 1485 4659 1289 4272 
Q 1094 3885 982 3392 
Q 870 2899 870 2240 
Q 870 1587 982 1094 
Q 1094 602 1289 208 
Q 1485 -186 1818 -672 
L 1446 -928 
Q 1024 -326 797 61 
Q 570 448 413 989 
Q 256 1530 256 2240 
Q 256 2950 413 3491 
Q 570 4032 797 4419 
Q 1024 4806 1446 5408 
L 1818 5152 
z
" transform="scale(0.015625)"/>
       <path id="FiraSans-Regular-42" d="M 2586 2330 
Q 3040 2253 3321 2009 
Q 3603 1766 3603 1254 
Q 3603 0 1856 0 
L 640 0 
L 640 4410 
L 1683 4410 
Q 2522 4410 2966 4134 
Q 3411 3859 3411 3296 
Q 3411 2912 3171 2656 
Q 2931 2400 2586 2330 
z
M 1248 3930 
L 1248 2541 
L 1914 2541 
Q 2298 2541 2544 2726 
Q 2790 2912 2790 3251 
Q 2790 3635 2531 3782 
Q 2272 3930 1747 3930 
L 1248 3930 
z
M 1856 486 
Q 2394 486 2678 646 
Q 2963 806 2963 1254 
Q 2963 1690 2688 1882 
Q 2413 2074 1971 2074 
L 1248 2074 
L 1248 486 
L 1856 486 
z
" transform="scale(0.015625)"/>
       <path id="FiraSans-Regular-43" d="M 2182 4486 
Q 2579 4486 2851 4384 
Q 3123 4282 3405 4051 
L 3072 3661 
Q 2669 3987 2221 3987 
Q 1670 3987 1334 3564 
Q 998 3142 998 2208 
Q 998 1299 1331 867 
Q 1664 435 2214 435 
Q 2496 435 2707 531 
Q 2918 627 3155 800 
L 3456 416 
Q 3251 205 2931 64 
Q 2611 -77 2195 -77 
Q 1658 -77 1238 188 
Q 819 454 585 969 
Q 352 1485 352 2208 
Q 352 2931 595 3446 
Q 838 3962 1254 4224 
Q 1670 4486 2182 4486 
z
" transform="scale(0.015625)"/>
       <path id="FiraSans-Regular-4e" d="M 3731 0 
L 2918 0 
L 1126 3744 
Q 1165 3302 1187 2928 
Q 1210 2554 1210 2022 
L 1210 0 
L 640 0 
L 640 4410 
L 1434 4410 
L 3245 659 
Q 3226 826 3194 1242 
Q 3162 1658 3162 2003 
L 3162 4410 
L 3731 4410 
L 3731 0 
z
" transform="scale(0.015625)"/>
       <path id="FiraSans-Regular-29" d="M 627 5408 
Q 1050 4806 1277 4419 
Q 1504 4032 1661 3491 
Q 1818 2950 1818 2240 
Q 1818 1530 1661 989 
Q 1504 448 1277 61 
Q 1050 -326 627 -928 
L 256 -672 
Q 589 -186 784 208 
Q 979 602 1091 1094 
Q 1203 1587 1203 2240 
Q 1203 2899 1091 3392 
Q 979 3885 784 4272 
Q 589 4659 256 5152 
L 627 5408 
z
" transform="scale(0.015625)"/>
      </defs>
      <use xlink:href="#FiraSans-Regular-6d"/>
      <use xlink:href="#FiraSans-Regular-65" x="85.699982"/>
      <use xlink:href="#FiraSans-Regular-6e" x="140.199966"/>
      <use xlink:href="#FiraSans-Regular-20" x="198.799957"/>
      <use xlink:href="#FiraSans-Regular-28" x="225.299942"/>
      <use xlink:href="#FiraSans-Regular-42" x="257.699936"/>
      <use xlink:href="#FiraSans-Regular-43" x="318.499924"/>
      <use xlink:href="#FiraSans-Regular-4e" x="374.499908"/>
      <use xlink:href="#FiraSans-Regular-29" x="442.799896"/>
     </g>
    </g>
    <g id="line2d_25">
     <path d="M 920.63125 88.674687 
L 942.63125 88.674687 
L 964.63125 88.674687 
" style="fill: none; stroke: #fb9a99; stroke-opacity: 0.5; stroke-width: 3; stroke-linecap: round"/>
    </g>
    <g id="text_17">
     <!-- women (BCN) -->
     <g style="fill: #262626" transform="translate(982.23125 96.374687) scale(0.22 -0.22)">
      <defs>
       <path id="FiraSans-Regular-77" d="M 4461 3373 
L 3693 0 
L 2893 0 
L 2304 2842 
L 1696 0 
L 915 0 
L 128 3373 
L 717 3373 
L 1325 410 
L 1990 3373 
L 2650 3373 
L 3283 410 
L 3898 3373 
L 4461 3373 
z
" transform="scale(0.015625)"/>
       <path id="FiraSans-Regular-6f" d="M 1875 3450 
Q 2586 3450 2979 2976 
Q 3373 2502 3373 1690 
Q 3373 1165 3193 765 
Q 3014 365 2675 144 
Q 2336 -77 1869 -77 
Q 1158 -77 761 396 
Q 365 870 365 1683 
Q 365 2208 544 2608 
Q 723 3008 1062 3229 
Q 1402 3450 1875 3450 
z
M 1875 2976 
Q 998 2976 998 1683 
Q 998 397 1869 397 
Q 2739 397 2739 1690 
Q 2739 2976 1875 2976 
z
" transform="scale(0.015625)"/>
      </defs>
      <use xlink:href="#FiraSans-Regular-77"/>
      <use xlink:href="#FiraSans-Regular-6f" x="71.699982"/>
      <use xlink:href="#FiraSans-Regular-6d" x="130.099976"/>
      <use xlink:href="#FiraSans-Regular-65" x="215.799957"/>
      <use xlink:href="#FiraSans-Regular-6e" x="270.299942"/>
      <use xlink:href="#FiraSans-Regular-20" x="328.899933"/>
      <use xlink:href="#FiraSans-Regular-28" x="355.399918"/>
      <use xlink:href="#FiraSans-Regular-42" x="387.799911"/>
      <use xlink:href="#FiraSans-Regular-43" x="448.599899"/>
      <use xlink:href="#FiraSans-Regular-4e" x="504.599884"/>
      <use xlink:href="#FiraSans-Regular-29" x="572.899872"/>
     </g>
    </g>
    <g id="line2d_26">
     <path d="M 920.63125 121.454687 
L 942.63125 121.454687 
L 964.63125 121.454687 
" style="fill: none; stroke: #1f78b4; stroke-width: 3; stroke-linecap: round"/>
    </g>
    <g id="text_18">
     <!-- men (MI) -->
     <g style="fill: #262626" transform="translate(982.23125 129.154687) scale(0.22 -0.22)">
      <defs>
       <path id="FiraSans-Regular-4d" d="M 4582 0 
L 3994 0 
L 3840 1990 
Q 3744 3162 3731 3789 
L 2778 499 
L 2208 499 
L 1203 3795 
Q 1203 2995 1120 1946 
L 973 0 
L 397 0 
L 762 4410 
L 1581 4410 
L 2509 1203 
L 3392 4410 
L 4218 4410 
L 4582 0 
z
" transform="scale(0.015625)"/>
       <path id="FiraSans-Regular-49" d="M 1248 4410 
L 1248 0 
L 640 0 
L 640 4410 
L 1248 4410 
z
" transform="scale(0.015625)"/>
      </defs>
      <use xlink:href="#FiraSans-Regular-6d"/>
      <use xlink:href="#FiraSans-Regular-65" x="85.699982"/>
      <use xlink:href="#FiraSans-Regular-6e" x="140.199966"/>
      <use xlink:href="#FiraSans-Regular-20" x="198.799957"/>
      <use xlink:href="#FiraSans-Regular-28" x="225.299942"/>
      <use xlink:href="#FiraSans-Regular-4d" x="257.699936"/>
      <use xlink:href="#FiraSans-Regular-49" x="335.499924"/>
      <use xlink:href="#FiraSans-Regular-29" x="364.999908"/>
     </g>
    </g>
    <g id="line2d_27">
     <path d="M 920.63125 154.234688 
L 942.63125 154.234688 
L 964.63125 154.234688 
" style="fill: none; stroke: #e31a1c; stroke-width: 3; stroke-linecap: round"/>
    </g>
    <g id="text_19">
     <!-- women (MI) -->
     <g style="fill: #262626" transform="translate(982.23125 161.934687) scale(0.22 -0.22)">
      <use xlink:href="#FiraSans-Regular-77"/>
      <use xlink:href="#FiraSans-Regular-6f" x="71.699982"/>
      <use xlink:href="#FiraSans-Regular-6d" x="130.099976"/>
      <use xlink:href="#FiraSans-Regular-65" x="215.799957"/>
      <use xlink:href="#FiraSans-Regular-6e" x="270.299942"/>
      <use xlink:href="#FiraSans-Regular-20" x="328.899933"/>
      <use xlink:href="#FiraSans-Regular-28" x="355.399918"/>
      <use xlink:href="#FiraSans-Regular-4d" x="387.799911"/>
      <use xlink:href="#FiraSans-Regular-49" x="465.599899"/>
      <use xlink:href="#FiraSans-Regular-29" x="495.099884"/>
     </g>
    </g>
   </g>
  </g>
 </g>
 <defs>
  <clipPath id="p665604ca5e">
   <rect x="19.2" y="26.7" width="1116" height="543.6"/>
  </clipPath>
 </defs>
</svg>
