<?xml version="1.0" encoding="utf-8" standalone="no"?>
<!DOCTYPE svg PUBLIC "-//W3C//DTD SVG 1.1//EN"
  "http://www.w3.org/Graphics/SVG/1.1/DTD/svg11.dtd">
<svg xmlns:xlink="http://www.w3.org/1999/xlink" width="1432.530938pt" height="1072.112187pt" viewBox="0 0 1432.530938 1072.112187" xmlns="http://www.w3.org/2000/svg" version="1.1">
 <metadata>
  <rdf:RDF xmlns:dc="http://purl.org/dc/elements/1.1/" xmlns:cc="http://creativecommons.org/ns#" xmlns:rdf="http://www.w3.org/1999/02/22-rdf-syntax-ns#">
   <cc:Work>
    <dc:type rdf:resource="http://purl.org/dc/dcmitype/StillImage"/>
    <dc:date>2022-12-11T16:16:21.477824</dc:date>
    <dc:format>image/svg+xml</dc:format>
    <dc:creator>
     <cc:Agent>
      <dc:title>Matplotlib v3.6.1, https://matplotlib.org/</dc:title>
     </cc:Agent>
    </dc:creator>
   </cc:Work>
  </rdf:RDF>
 </metadata>
 <defs>
  <style type="text/css">*{stroke-linejoin: round; stroke-linecap: butt}</style>
 </defs>
 <g id="figure_1">
  <g id="patch_1">
   <path d="M 0 1072.112187 
L 1432.530938 1072.112187 
L 1432.530938 0 
L 0 0 
L 0 1072.112187 
z
" style="fill: none"/>
  </g>
  <g id="axes_1">
   <g id="patch_2">
    <path d="M 34.975313 466.515625 
L 1380.000313 466.515625 
L 1380.000313 26.7 
L 34.975313 26.7 
z
" style="fill: #ffffff"/>
   </g>
   <g id="matplotlib.axis_1">
    <g id="xtick_1">
     <g id="line2d_1">
      <path d="M 210.275293 466.515625 
L 210.275293 26.7 
" clip-path="url(#p3333fbb597)" style="fill: none; stroke: #cccccc; stroke-width: 2; stroke-linecap: round"/>
     </g>
     <g id="line2d_2">
      <defs>
       <path id="mae5477fe70" d="M 0 0 
L 0 12 
" style="stroke: #262626; stroke-width: 2.5"/>
      </defs>
      <g>
       <use xlink:href="#mae5477fe70" x="210.275293" y="466.515625" style="fill: #262626; stroke: #262626; stroke-width: 2.5"/>
      </g>
     </g>
     <g id="text_1">
      <!-- −20000 -->
      <g style="fill: #262626" transform="translate(174.779668 498.515625) scale(0.22 -0.22)">
       <defs>
        <path id="FiraSans-Regular-2212" d="M 397 1882 
L 397 2374 
L 2803 2374 
L 2803 1882 
L 397 1882 
z
" transform="scale(0.015625)"/>
        <path id="FiraSans-Regular-32" d="M 1459 4346 
Q 1843 4346 2134 4192 
Q 2426 4038 2586 3772 
Q 2746 3507 2746 3174 
Q 2746 2784 2570 2425 
Q 2394 2067 2029 1651 
Q 1664 1235 922 493 
L 2848 493 
L 2778 0 
L 250 0 
L 250 467 
Q 1107 1357 1465 1769 
Q 1824 2182 1977 2489 
Q 2131 2797 2131 3149 
Q 2131 3482 1939 3670 
Q 1747 3859 1427 3859 
Q 1165 3859 966 3750 
Q 768 3642 544 3392 
L 160 3699 
Q 422 4026 742 4186 
Q 1062 4346 1459 4346 
z
" transform="scale(0.015625)"/>
        <path id="FiraSans-Regular-30" d="M 1786 4346 
Q 2496 4346 2857 3779 
Q 3219 3213 3219 2138 
Q 3219 1062 2857 492 
Q 2496 -77 1786 -77 
Q 1075 -77 713 492 
Q 352 1062 352 2138 
Q 352 3213 713 3779 
Q 1075 4346 1786 4346 
z
M 1786 3878 
Q 1370 3878 1168 3468 
Q 966 3059 966 2138 
Q 966 1216 1168 803 
Q 1370 390 1786 390 
Q 2195 390 2400 803 
Q 2605 1216 2605 2138 
Q 2605 3053 2400 3465 
Q 2195 3878 1786 3878 
z
" transform="scale(0.015625)"/>
       </defs>
       <use xlink:href="#FiraSans-Regular-2212"/>
       <use xlink:href="#FiraSans-Regular-32" x="49.999985"/>
       <use xlink:href="#FiraSans-Regular-30" x="99.499969"/>
       <use xlink:href="#FiraSans-Regular-30" x="155.299957"/>
       <use xlink:href="#FiraSans-Regular-30" x="211.099945"/>
       <use xlink:href="#FiraSans-Regular-30" x="266.899933"/>
      </g>
     </g>
    </g>
    <g id="xtick_2">
     <g id="line2d_3">
      <path d="M 400.308551 466.515625 
L 400.308551 26.7 
" clip-path="url(#p3333fbb597)" style="fill: none; stroke: #cccccc; stroke-width: 2; stroke-linecap: round"/>
     </g>
     <g id="line2d_4">
      <g>
       <use xlink:href="#mae5477fe70" x="400.308551" y="466.515625" style="fill: #262626; stroke: #262626; stroke-width: 2.5"/>
      </g>
     </g>
     <g id="text_2">
      <!-- 0 -->
      <g style="fill: #262626" transform="translate(394.170895 498.515625) scale(0.22 -0.22)">
       <use xlink:href="#FiraSans-Regular-30"/>
      </g>
     </g>
    </g>
    <g id="xtick_3">
     <g id="line2d_5">
      <path d="M 590.34181 466.515625 
L 590.34181 26.7 
" clip-path="url(#p3333fbb597)" style="fill: none; stroke: #cccccc; stroke-width: 2; stroke-linecap: round"/>
     </g>
     <g id="line2d_6">
      <g>
       <use xlink:href="#mae5477fe70" x="590.34181" y="466.515625" style="fill: #262626; stroke: #262626; stroke-width: 2.5"/>
      </g>
     </g>
     <g id="text_3">
      <!-- 20000 -->
      <g style="fill: #262626" transform="translate(560.346185 498.515625) scale(0.22 -0.22)">
       <use xlink:href="#FiraSans-Regular-32"/>
       <use xlink:href="#FiraSans-Regular-30" x="49.499985"/>
       <use xlink:href="#FiraSans-Regular-30" x="105.299973"/>
       <use xlink:href="#FiraSans-Regular-30" x="161.09996"/>
       <use xlink:href="#FiraSans-Regular-30" x="216.899948"/>
      </g>
     </g>
    </g>
    <g id="xtick_4">
     <g id="line2d_7">
      <path d="M 780.375069 466.515625 
L 780.375069 26.7 
" clip-path="url(#p3333fbb597)" style="fill: none; stroke: #cccccc; stroke-width: 2; stroke-linecap: round"/>
     </g>
     <g id="line2d_8">
      <g>
       <use xlink:href="#mae5477fe70" x="780.375069" y="466.515625" style="fill: #262626; stroke: #262626; stroke-width: 2.5"/>
      </g>
     </g>
     <g id="text_4">
      <!-- 40000 -->
      <g style="fill: #262626" transform="translate(749.9721 498.515625) scale(0.22 -0.22)">
       <defs>
        <path id="FiraSans-Regular-34" d="M 3213 1523 
L 3213 1056 
L 2656 1056 
L 2656 0 
L 2086 0 
L 2086 1056 
L 256 1056 
L 256 1478 
L 1542 4346 
L 2035 4141 
L 877 1523 
L 2093 1523 
L 2144 2675 
L 2656 2675 
L 2656 1523 
L 3213 1523 
z
" transform="scale(0.015625)"/>
       </defs>
       <use xlink:href="#FiraSans-Regular-34"/>
       <use xlink:href="#FiraSans-Regular-30" x="53.199997"/>
       <use xlink:href="#FiraSans-Regular-30" x="108.999985"/>
       <use xlink:href="#FiraSans-Regular-30" x="164.799973"/>
       <use xlink:href="#FiraSans-Regular-30" x="220.59996"/>
      </g>
     </g>
    </g>
    <g id="xtick_5">
     <g id="line2d_9">
      <path d="M 970.408328 466.515625 
L 970.408328 26.7 
" clip-path="url(#p3333fbb597)" style="fill: none; stroke: #cccccc; stroke-width: 2; stroke-linecap: round"/>
     </g>
     <g id="line2d_10">
      <g>
       <use xlink:href="#mae5477fe70" x="970.408328" y="466.515625" style="fill: #262626; stroke: #262626; stroke-width: 2.5"/>
      </g>
     </g>
     <g id="text_5">
      <!-- 60000 -->
      <g style="fill: #262626" transform="translate(939.995046 498.515625) scale(0.22 -0.22)">
       <defs>
        <path id="FiraSans-Regular-36" d="M 1971 2816 
Q 2298 2816 2566 2662 
Q 2835 2509 2995 2201 
Q 3155 1894 3155 1453 
Q 3155 998 2972 649 
Q 2790 301 2480 112 
Q 2170 -77 1792 -77 
Q 1043 -77 697 476 
Q 352 1030 352 2010 
Q 352 2707 547 3235 
Q 742 3763 1107 4054 
Q 1472 4346 1971 4346 
Q 2458 4346 2854 4083 
L 2624 3693 
Q 2323 3878 1965 3878 
Q 1504 3878 1235 3436 
Q 966 2995 941 2253 
Q 1338 2816 1971 2816 
z
M 1792 390 
Q 2163 390 2361 672 
Q 2560 954 2560 1434 
Q 2560 2349 1869 2349 
Q 1587 2349 1350 2192 
Q 1114 2035 947 1760 
Q 966 1056 1168 723 
Q 1370 390 1792 390 
z
" transform="scale(0.015625)"/>
       </defs>
       <use xlink:href="#FiraSans-Regular-36"/>
       <use xlink:href="#FiraSans-Regular-30" x="53.299988"/>
       <use xlink:href="#FiraSans-Regular-30" x="109.099976"/>
       <use xlink:href="#FiraSans-Regular-30" x="164.899963"/>
       <use xlink:href="#FiraSans-Regular-30" x="220.699951"/>
      </g>
     </g>
    </g>
    <g id="xtick_6">
     <g id="line2d_11">
      <path d="M 1160.441586 466.515625 
L 1160.441586 26.7 
" clip-path="url(#p3333fbb597)" style="fill: none; stroke: #cccccc; stroke-width: 2; stroke-linecap: round"/>
     </g>
     <g id="line2d_12">
      <g>
       <use xlink:href="#mae5477fe70" x="1160.441586" y="466.515625" style="fill: #262626; stroke: #262626; stroke-width: 2.5"/>
      </g>
     </g>
     <g id="text_6">
      <!-- 80000 -->
      <g style="fill: #262626" transform="translate(1129.830649 498.515625) scale(0.22 -0.22)">
       <defs>
        <path id="FiraSans-Regular-38" d="M 2336 2298 
Q 3238 1933 3238 1146 
Q 3238 794 3049 515 
Q 2861 237 2521 80 
Q 2182 -77 1754 -77 
Q 1318 -77 985 76 
Q 653 230 470 505 
Q 288 781 288 1133 
Q 288 1530 502 1798 
Q 717 2067 1133 2246 
Q 794 2419 630 2665 
Q 467 2912 467 3245 
Q 467 3590 649 3840 
Q 832 4090 1129 4218 
Q 1427 4346 1766 4346 
Q 2099 4346 2396 4224 
Q 2694 4102 2880 3856 
Q 3066 3610 3066 3264 
Q 3066 2944 2886 2713 
Q 2707 2483 2336 2298 
z
M 1766 3904 
Q 1434 3904 1238 3731 
Q 1043 3558 1043 3238 
Q 1043 2931 1232 2771 
Q 1421 2611 1837 2477 
L 1946 2438 
Q 2234 2605 2362 2790 
Q 2490 2976 2490 3245 
Q 2490 3546 2301 3725 
Q 2112 3904 1766 3904 
z
M 1760 390 
Q 2157 390 2390 595 
Q 2624 800 2624 1139 
Q 2624 1370 2534 1526 
Q 2445 1683 2246 1801 
Q 2048 1920 1690 2042 
L 1530 2099 
Q 1210 1946 1056 1712 
Q 902 1478 902 1133 
Q 902 781 1132 585 
Q 1363 390 1760 390 
z
" transform="scale(0.015625)"/>
       </defs>
       <use xlink:href="#FiraSans-Regular-38"/>
       <use xlink:href="#FiraSans-Regular-30" x="55.099991"/>
       <use xlink:href="#FiraSans-Regular-30" x="110.899979"/>
       <use xlink:href="#FiraSans-Regular-30" x="166.699966"/>
       <use xlink:href="#FiraSans-Regular-30" x="222.499954"/>
      </g>
     </g>
    </g>
    <g id="xtick_7">
     <g id="line2d_13">
      <path d="M 1350.474845 466.515625 
L 1350.474845 26.7 
" clip-path="url(#p3333fbb597)" style="fill: none; stroke: #cccccc; stroke-width: 2; stroke-linecap: round"/>
     </g>
     <g id="line2d_14">
      <g>
       <use xlink:href="#mae5477fe70" x="1350.474845" y="466.515625" style="fill: #262626; stroke: #262626; stroke-width: 2.5"/>
      </g>
     </g>
     <g id="text_7">
      <!-- 100000 -->
      <g style="fill: #262626" transform="translate(1315.023908 498.515625) scale(0.22 -0.22)">
       <defs>
        <path id="FiraSans-Regular-31" d="M 2067 4282 
L 2067 0 
L 1478 0 
L 1478 3654 
L 480 3046 
L 224 3462 
L 1549 4282 
L 2067 4282 
z
" transform="scale(0.015625)"/>
       </defs>
       <use xlink:href="#FiraSans-Regular-31"/>
       <use xlink:href="#FiraSans-Regular-30" x="43.299988"/>
       <use xlink:href="#FiraSans-Regular-30" x="99.099976"/>
       <use xlink:href="#FiraSans-Regular-30" x="154.899963"/>
       <use xlink:href="#FiraSans-Regular-30" x="210.699951"/>
       <use xlink:href="#FiraSans-Regular-30" x="266.499939"/>
      </g>
     </g>
    </g>
    <g id="text_8">
     <!-- BCN -->
     <g style="fill: #262626" transform="translate(685.276563 525.200937) scale(0.24 -0.24)">
      <defs>
       <path id="FiraSans-Regular-42" d="M 2586 2330 
Q 3040 2253 3321 2009 
Q 3603 1766 3603 1254 
Q 3603 0 1856 0 
L 640 0 
L 640 4410 
L 1683 4410 
Q 2522 4410 2966 4134 
Q 3411 3859 3411 3296 
Q 3411 2912 3171 2656 
Q 2931 2400 2586 2330 
z
M 1248 3930 
L 1248 2541 
L 1914 2541 
Q 2298 2541 2544 2726 
Q 2790 2912 2790 3251 
Q 2790 3635 2531 3782 
Q 2272 3930 1747 3930 
L 1248 3930 
z
M 1856 486 
Q 2394 486 2678 646 
Q 2963 806 2963 1254 
Q 2963 1690 2688 1882 
Q 2413 2074 1971 2074 
L 1248 2074 
L 1248 486 
L 1856 486 
z
" transform="scale(0.015625)"/>
       <path id="FiraSans-Regular-43" d="M 2182 4486 
Q 2579 4486 2851 4384 
Q 3123 4282 3405 4051 
L 3072 3661 
Q 2669 3987 2221 3987 
Q 1670 3987 1334 3564 
Q 998 3142 998 2208 
Q 998 1299 1331 867 
Q 1664 435 2214 435 
Q 2496 435 2707 531 
Q 2918 627 3155 800 
L 3456 416 
Q 3251 205 2931 64 
Q 2611 -77 2195 -77 
Q 1658 -77 1238 188 
Q 819 454 585 969 
Q 352 1485 352 2208 
Q 352 2931 595 3446 
Q 838 3962 1254 4224 
Q 1670 4486 2182 4486 
z
" transform="scale(0.015625)"/>
       <path id="FiraSans-Regular-4e" d="M 3731 0 
L 2918 0 
L 1126 3744 
Q 1165 3302 1187 2928 
Q 1210 2554 1210 2022 
L 1210 0 
L 640 0 
L 640 4410 
L 1434 4410 
L 3245 659 
Q 3226 826 3194 1242 
Q 3162 1658 3162 2003 
L 3162 4410 
L 3731 4410 
L 3731 0 
z
" transform="scale(0.015625)"/>
      </defs>
      <use xlink:href="#FiraSans-Regular-42"/>
      <use xlink:href="#FiraSans-Regular-43" x="60.799988"/>
      <use xlink:href="#FiraSans-Regular-4e" x="116.799973"/>
     </g>
    </g>
   </g>
   <g id="matplotlib.axis_2">
    <g id="ytick_1">
     <g id="line2d_15">
      <path d="M 34.975313 466.515625 
L 1380.000313 466.515625 
" clip-path="url(#p3333fbb597)" style="fill: none; stroke: #cccccc; stroke-width: 2; stroke-linecap: round"/>
     </g>
     <g id="line2d_16">
      <defs>
       <path id="m236aa7bdad" d="M 0 0 
L -12 0 
" style="stroke: #262626; stroke-width: 2.5"/>
      </defs>
      <g>
       <use xlink:href="#m236aa7bdad" x="34.975313" y="466.515625" style="fill: #262626; stroke: #262626; stroke-width: 2.5"/>
      </g>
     </g>
     <g id="text_9">
      <!-- 0 -->
      <g style="fill: #262626" transform="translate(7.2 474.765625) scale(0.22 -0.22)">
       <use xlink:href="#FiraSans-Regular-30"/>
      </g>
     </g>
    </g>
    <g id="ytick_2">
     <g id="line2d_17">
      <path d="M 34.975313 414.156622 
L 1380.000313 414.156622 
" clip-path="url(#p3333fbb597)" style="fill: none; stroke: #cccccc; stroke-width: 2; stroke-linecap: round"/>
     </g>
     <g id="line2d_18">
      <g>
       <use xlink:href="#m236aa7bdad" x="34.975313" y="414.156622" style="fill: #262626; stroke: #262626; stroke-width: 2.5"/>
      </g>
     </g>
     <g id="text_10">
      <!-- 1 -->
      <g style="fill: #262626" transform="translate(9.95 422.406622) scale(0.22 -0.22)">
       <use xlink:href="#FiraSans-Regular-31"/>
      </g>
     </g>
    </g>
    <g id="ytick_3">
     <g id="line2d_19">
      <path d="M 34.975313 361.797619 
L 1380.000313 361.797619 
" clip-path="url(#p3333fbb597)" style="fill: none; stroke: #cccccc; stroke-width: 2; stroke-linecap: round"/>
     </g>
     <g id="line2d_20">
      <g>
       <use xlink:href="#m236aa7bdad" x="34.975313" y="361.797619" style="fill: #262626; stroke: #262626; stroke-width: 2.5"/>
      </g>
     </g>
     <g id="text_11">
      <!-- 2 -->
      <g style="fill: #262626" transform="translate(8.585313 370.047619) scale(0.22 -0.22)">
       <use xlink:href="#FiraSans-Regular-32"/>
      </g>
     </g>
    </g>
    <g id="ytick_4">
     <g id="line2d_21">
      <path d="M 34.975313 309.438616 
L 1380.000313 309.438616 
" clip-path="url(#p3333fbb597)" style="fill: none; stroke: #cccccc; stroke-width: 2; stroke-linecap: round"/>
     </g>
     <g id="line2d_22">
      <g>
       <use xlink:href="#m236aa7bdad" x="34.975313" y="309.438616" style="fill: #262626; stroke: #262626; stroke-width: 2.5"/>
      </g>
     </g>
     <g id="text_12">
      <!-- 3 -->
      <g style="fill: #262626" transform="translate(8.495938 317.688616) scale(0.22 -0.22)">
       <defs>
        <path id="FiraSans-Regular-33" d="M 1440 4346 
Q 1837 4346 2121 4198 
Q 2406 4051 2556 3801 
Q 2707 3552 2707 3258 
Q 2707 2867 2480 2614 
Q 2253 2362 1875 2272 
Q 2304 2234 2573 1965 
Q 2842 1696 2842 1235 
Q 2842 864 2662 563 
Q 2483 262 2150 92 
Q 1818 -77 1382 -77 
Q 992 -77 665 67 
Q 339 211 96 499 
L 448 826 
Q 659 608 880 505 
Q 1101 403 1363 403 
Q 1766 403 1996 630 
Q 2227 858 2227 1242 
Q 2227 1664 2009 1837 
Q 1792 2010 1376 2010 
L 1056 2010 
L 1126 2464 
L 1344 2464 
Q 1677 2464 1897 2662 
Q 2118 2861 2118 3219 
Q 2118 3520 1926 3696 
Q 1734 3872 1408 3872 
Q 1158 3872 950 3782 
Q 742 3693 525 3488 
L 218 3840 
Q 762 4346 1440 4346 
z
" transform="scale(0.015625)"/>
       </defs>
       <use xlink:href="#FiraSans-Regular-33"/>
      </g>
     </g>
    </g>
    <g id="ytick_5">
     <g id="line2d_23">
      <path d="M 34.975313 257.079613 
L 1380.000313 257.079613 
" clip-path="url(#p3333fbb597)" style="fill: none; stroke: #cccccc; stroke-width: 2; stroke-linecap: round"/>
     </g>
     <g id="line2d_24">
      <g>
       <use xlink:href="#m236aa7bdad" x="34.975313" y="257.079613" style="fill: #262626; stroke: #262626; stroke-width: 2.5"/>
      </g>
     </g>
     <g id="text_13">
      <!-- 4 -->
      <g style="fill: #262626" transform="translate(7.770625 265.329613) scale(0.22 -0.22)">
       <use xlink:href="#FiraSans-Regular-34"/>
      </g>
     </g>
    </g>
    <g id="ytick_6">
     <g id="line2d_25">
      <path d="M 34.975313 204.72061 
L 1380.000313 204.72061 
" clip-path="url(#p3333fbb597)" style="fill: none; stroke: #cccccc; stroke-width: 2; stroke-linecap: round"/>
     </g>
     <g id="line2d_26">
      <g>
       <use xlink:href="#m236aa7bdad" x="34.975313" y="204.72061" style="fill: #262626; stroke: #262626; stroke-width: 2.5"/>
      </g>
     </g>
     <g id="text_14">
      <!-- 5 -->
      <g style="fill: #262626" transform="translate(8.454688 212.97061) scale(0.22 -0.22)">
       <defs>
        <path id="FiraSans-Regular-35" d="M 2688 3821 
L 1018 3821 
L 1018 2560 
Q 1344 2726 1702 2726 
Q 2253 2726 2585 2364 
Q 2918 2003 2918 1370 
Q 2918 947 2732 617 
Q 2547 288 2211 105 
Q 1875 -77 1434 -77 
Q 1043 -77 736 60 
Q 429 198 166 467 
L 512 806 
Q 717 602 934 502 
Q 1152 403 1427 403 
Q 1837 403 2070 659 
Q 2304 915 2304 1382 
Q 2304 1850 2093 2061 
Q 1882 2272 1523 2272 
Q 1357 2272 1216 2237 
Q 1075 2202 915 2125 
L 454 2125 
L 454 4282 
L 2771 4282 
L 2688 3821 
z
" transform="scale(0.015625)"/>
       </defs>
       <use xlink:href="#FiraSans-Regular-35"/>
      </g>
     </g>
    </g>
    <g id="ytick_7">
     <g id="line2d_27">
      <path d="M 34.975313 152.361607 
L 1380.000313 152.361607 
" clip-path="url(#p3333fbb597)" style="fill: none; stroke: #cccccc; stroke-width: 2; stroke-linecap: round"/>
     </g>
     <g id="line2d_28">
      <g>
       <use xlink:href="#m236aa7bdad" x="34.975313" y="152.361607" style="fill: #262626; stroke: #262626; stroke-width: 2.5"/>
      </g>
     </g>
     <g id="text_15">
      <!-- 6 -->
      <g style="fill: #262626" transform="translate(7.75 160.611607) scale(0.22 -0.22)">
       <use xlink:href="#FiraSans-Regular-36"/>
      </g>
     </g>
    </g>
    <g id="ytick_8">
     <g id="line2d_29">
      <path d="M 34.975313 100.002604 
L 1380.000313 100.002604 
" clip-path="url(#p3333fbb597)" style="fill: none; stroke: #cccccc; stroke-width: 2; stroke-linecap: round"/>
     </g>
     <g id="line2d_30">
      <g>
       <use xlink:href="#m236aa7bdad" x="34.975313" y="100.002604" style="fill: #262626; stroke: #262626; stroke-width: 2.5"/>
      </g>
     </g>
     <g id="text_16">
      <!-- 7 -->
      <g style="fill: #262626" transform="translate(9.705938 108.252604) scale(0.22 -0.22)">
       <defs>
        <path id="FiraSans-Regular-37" d="M 2650 4282 
L 2650 3840 
L 1050 -64 
L 512 115 
L 2054 3802 
L 160 3802 
L 160 4282 
L 2650 4282 
z
" transform="scale(0.015625)"/>
       </defs>
       <use xlink:href="#FiraSans-Regular-37"/>
      </g>
     </g>
    </g>
    <g id="ytick_9">
     <g id="line2d_31">
      <path d="M 34.975313 47.643601 
L 1380.000313 47.643601 
" clip-path="url(#p3333fbb597)" style="fill: none; stroke: #cccccc; stroke-width: 2; stroke-linecap: round"/>
     </g>
     <g id="line2d_32">
      <g>
       <use xlink:href="#m236aa7bdad" x="34.975313" y="47.643601" style="fill: #262626; stroke: #262626; stroke-width: 2.5"/>
      </g>
     </g>
     <g id="text_17">
      <!-- 8 -->
      <g style="fill: #262626" transform="translate(7.354688 55.893601) scale(0.22 -0.22)">
       <use xlink:href="#FiraSans-Regular-38"/>
      </g>
     </g>
    </g>
   </g>
   <g id="patch_3">
    <path d="M 401.676791 466.515625 
L 432.251717 466.515625 
L 432.251717 257.079613 
L 401.676791 257.079613 
z
" clip-path="url(#p3333fbb597)" style="fill: #a6cee3; opacity: 0.5; stroke: #ffffff; stroke-width: 2; stroke-linejoin: miter"/>
   </g>
   <g id="patch_4">
    <path d="M 432.251717 466.515625 
L 462.826643 466.515625 
L 462.826643 414.156622 
L 432.251717 414.156622 
z
" clip-path="url(#p3333fbb597)" style="fill: #a6cee3; opacity: 0.5; stroke: #ffffff; stroke-width: 2; stroke-linejoin: miter"/>
   </g>
   <g id="patch_5">
    <path d="M 462.826643 466.515625 
L 493.401569 466.515625 
L 493.401569 414.156622 
L 462.826643 414.156622 
z
" clip-path="url(#p3333fbb597)" style="fill: #a6cee3; opacity: 0.5; stroke: #ffffff; stroke-width: 2; stroke-linejoin: miter"/>
   </g>
   <g id="patch_6">
    <path d="M 493.401569 466.515625 
L 523.976495 466.515625 
L 523.976495 414.156622 
L 493.401569 414.156622 
z
" clip-path="url(#p3333fbb597)" style="fill: #a6cee3; opacity: 0.5; stroke: #ffffff; stroke-width: 2; stroke-linejoin: miter"/>
   </g>
   <g id="patch_7">
    <path d="M 523.976495 466.515625 
L 554.551421 466.515625 
L 554.551421 466.515625 
L 523.976495 466.515625 
z
" clip-path="url(#p3333fbb597)" style="fill: #a6cee3; opacity: 0.5; stroke: #ffffff; stroke-width: 2; stroke-linejoin: miter"/>
   </g>
   <g id="patch_8">
    <path d="M 554.551421 466.515625 
L 585.126347 466.515625 
L 585.126347 309.438616 
L 554.551421 309.438616 
z
" clip-path="url(#p3333fbb597)" style="fill: #a6cee3; opacity: 0.5; stroke: #ffffff; stroke-width: 2; stroke-linejoin: miter"/>
   </g>
   <g id="patch_9">
    <path d="M 585.126347 466.515625 
L 615.701273 466.515625 
L 615.701273 466.515625 
L 585.126347 466.515625 
z
" clip-path="url(#p3333fbb597)" style="fill: #a6cee3; opacity: 0.5; stroke: #ffffff; stroke-width: 2; stroke-linejoin: miter"/>
   </g>
   <g id="patch_10">
    <path d="M 615.701273 466.515625 
L 646.2762 466.515625 
L 646.2762 309.438616 
L 615.701273 309.438616 
z
" clip-path="url(#p3333fbb597)" style="fill: #a6cee3; opacity: 0.5; stroke: #ffffff; stroke-width: 2; stroke-linejoin: miter"/>
   </g>
   <g id="patch_11">
    <path d="M 646.2762 466.515625 
L 676.851126 466.515625 
L 676.851126 414.156622 
L 646.2762 414.156622 
z
" clip-path="url(#p3333fbb597)" style="fill: #a6cee3; opacity: 0.5; stroke: #ffffff; stroke-width: 2; stroke-linejoin: miter"/>
   </g>
   <g id="patch_12">
    <path d="M 676.851126 466.515625 
L 707.426052 466.515625 
L 707.426052 309.438616 
L 676.851126 309.438616 
z
" clip-path="url(#p3333fbb597)" style="fill: #a6cee3; opacity: 0.5; stroke: #ffffff; stroke-width: 2; stroke-linejoin: miter"/>
   </g>
   <g id="patch_13">
    <path d="M 707.426052 466.515625 
L 738.000978 466.515625 
L 738.000978 204.72061 
L 707.426052 204.72061 
z
" clip-path="url(#p3333fbb597)" style="fill: #a6cee3; opacity: 0.5; stroke: #ffffff; stroke-width: 2; stroke-linejoin: miter"/>
   </g>
   <g id="patch_14">
    <path d="M 738.000978 466.515625 
L 768.575904 466.515625 
L 768.575904 152.361607 
L 738.000978 152.361607 
z
" clip-path="url(#p3333fbb597)" style="fill: #a6cee3; opacity: 0.5; stroke: #ffffff; stroke-width: 2; stroke-linejoin: miter"/>
   </g>
   <g id="patch_15">
    <path d="M 768.575904 466.515625 
L 799.15083 466.515625 
L 799.15083 100.002604 
L 768.575904 100.002604 
z
" clip-path="url(#p3333fbb597)" style="fill: #a6cee3; opacity: 0.5; stroke: #ffffff; stroke-width: 2; stroke-linejoin: miter"/>
   </g>
   <g id="patch_16">
    <path d="M 799.15083 466.515625 
L 829.725756 466.515625 
L 829.725756 414.156622 
L 799.15083 414.156622 
z
" clip-path="url(#p3333fbb597)" style="fill: #a6cee3; opacity: 0.5; stroke: #ffffff; stroke-width: 2; stroke-linejoin: miter"/>
   </g>
   <g id="patch_17">
    <path d="M 829.725756 466.515625 
L 860.300682 466.515625 
L 860.300682 47.643601 
L 829.725756 47.643601 
z
" clip-path="url(#p3333fbb597)" style="fill: #a6cee3; opacity: 0.5; stroke: #ffffff; stroke-width: 2; stroke-linejoin: miter"/>
   </g>
   <g id="patch_18">
    <path d="M 860.300682 466.515625 
L 890.875608 466.515625 
L 890.875608 47.643601 
L 860.300682 47.643601 
z
" clip-path="url(#p3333fbb597)" style="fill: #a6cee3; opacity: 0.5; stroke: #ffffff; stroke-width: 2; stroke-linejoin: miter"/>
   </g>
   <g id="patch_19">
    <path d="M 890.875608 466.515625 
L 921.450534 466.515625 
L 921.450534 466.515625 
L 890.875608 466.515625 
z
" clip-path="url(#p3333fbb597)" style="fill: #a6cee3; opacity: 0.5; stroke: #ffffff; stroke-width: 2; stroke-linejoin: miter"/>
   </g>
   <g id="patch_20">
    <path d="M 921.450534 466.515625 
L 952.02546 466.515625 
L 952.02546 466.515625 
L 921.450534 466.515625 
z
" clip-path="url(#p3333fbb597)" style="fill: #a6cee3; opacity: 0.5; stroke: #ffffff; stroke-width: 2; stroke-linejoin: miter"/>
   </g>
   <g id="patch_21">
    <path d="M 952.02546 466.515625 
L 982.600386 466.515625 
L 982.600386 414.156622 
L 952.02546 414.156622 
z
" clip-path="url(#p3333fbb597)" style="fill: #a6cee3; opacity: 0.5; stroke: #ffffff; stroke-width: 2; stroke-linejoin: miter"/>
   </g>
   <g id="patch_22">
    <path d="M 982.600386 466.515625 
L 1013.175313 466.515625 
L 1013.175313 466.515625 
L 982.600386 466.515625 
z
" clip-path="url(#p3333fbb597)" style="fill: #a6cee3; opacity: 0.5; stroke: #ffffff; stroke-width: 2; stroke-linejoin: miter"/>
   </g>
   <g id="patch_23">
    <path d="M 401.676791 466.515625 
L 432.251717 466.515625 
L 432.251717 257.079613 
L 401.676791 257.079613 
z
" clip-path="url(#p3333fbb597)" style="fill: #fb9a99; opacity: 0.5; stroke: #ffffff; stroke-width: 2; stroke-linejoin: miter"/>
   </g>
   <g id="patch_24">
    <path d="M 432.251717 466.515625 
L 462.826643 466.515625 
L 462.826643 414.156622 
L 432.251717 414.156622 
z
" clip-path="url(#p3333fbb597)" style="fill: #fb9a99; opacity: 0.5; stroke: #ffffff; stroke-width: 2; stroke-linejoin: miter"/>
   </g>
   <g id="patch_25">
    <path d="M 462.826643 466.515625 
L 493.401569 466.515625 
L 493.401569 414.156622 
L 462.826643 414.156622 
z
" clip-path="url(#p3333fbb597)" style="fill: #fb9a99; opacity: 0.5; stroke: #ffffff; stroke-width: 2; stroke-linejoin: miter"/>
   </g>
   <g id="patch_26">
    <path d="M 493.401569 466.515625 
L 523.976495 466.515625 
L 523.976495 414.156622 
L 493.401569 414.156622 
z
" clip-path="url(#p3333fbb597)" style="fill: #fb9a99; opacity: 0.5; stroke: #ffffff; stroke-width: 2; stroke-linejoin: miter"/>
   </g>
   <g id="patch_27">
    <path d="M 523.976495 466.515625 
L 554.551421 466.515625 
L 554.551421 466.515625 
L 523.976495 466.515625 
z
" clip-path="url(#p3333fbb597)" style="fill: #fb9a99; opacity: 0.5; stroke: #ffffff; stroke-width: 2; stroke-linejoin: miter"/>
   </g>
   <g id="patch_28">
    <path d="M 554.551421 466.515625 
L 585.126347 466.515625 
L 585.126347 361.797619 
L 554.551421 361.797619 
z
" clip-path="url(#p3333fbb597)" style="fill: #fb9a99; opacity: 0.5; stroke: #ffffff; stroke-width: 2; stroke-linejoin: miter"/>
   </g>
   <g id="patch_29">
    <path d="M 585.126347 466.515625 
L 615.701273 466.515625 
L 615.701273 414.156622 
L 585.126347 414.156622 
z
" clip-path="url(#p3333fbb597)" style="fill: #fb9a99; opacity: 0.5; stroke: #ffffff; stroke-width: 2; stroke-linejoin: miter"/>
   </g>
   <g id="patch_30">
    <path d="M 615.701273 466.515625 
L 646.2762 466.515625 
L 646.2762 414.156622 
L 615.701273 414.156622 
z
" clip-path="url(#p3333fbb597)" style="fill: #fb9a99; opacity: 0.5; stroke: #ffffff; stroke-width: 2; stroke-linejoin: miter"/>
   </g>
   <g id="patch_31">
    <path d="M 646.2762 466.515625 
L 676.851126 466.515625 
L 676.851126 361.797619 
L 646.2762 361.797619 
z
" clip-path="url(#p3333fbb597)" style="fill: #fb9a99; opacity: 0.5; stroke: #ffffff; stroke-width: 2; stroke-linejoin: miter"/>
   </g>
   <g id="patch_32">
    <path d="M 676.851126 466.515625 
L 707.426052 466.515625 
L 707.426052 414.156622 
L 676.851126 414.156622 
z
" clip-path="url(#p3333fbb597)" style="fill: #fb9a99; opacity: 0.5; stroke: #ffffff; stroke-width: 2; stroke-linejoin: miter"/>
   </g>
   <g id="patch_33">
    <path d="M 707.426052 466.515625 
L 738.000978 466.515625 
L 738.000978 309.438616 
L 707.426052 309.438616 
z
" clip-path="url(#p3333fbb597)" style="fill: #fb9a99; opacity: 0.5; stroke: #ffffff; stroke-width: 2; stroke-linejoin: miter"/>
   </g>
   <g id="patch_34">
    <path d="M 738.000978 466.515625 
L 768.575904 466.515625 
L 768.575904 257.079613 
L 738.000978 257.079613 
z
" clip-path="url(#p3333fbb597)" style="fill: #fb9a99; opacity: 0.5; stroke: #ffffff; stroke-width: 2; stroke-linejoin: miter"/>
   </g>
   <g id="patch_35">
    <path d="M 768.575904 466.515625 
L 799.15083 466.515625 
L 799.15083 204.72061 
L 768.575904 204.72061 
z
" clip-path="url(#p3333fbb597)" style="fill: #fb9a99; opacity: 0.5; stroke: #ffffff; stroke-width: 2; stroke-linejoin: miter"/>
   </g>
   <g id="patch_36">
    <path d="M 799.15083 466.515625 
L 829.725756 466.515625 
L 829.725756 100.002604 
L 799.15083 100.002604 
z
" clip-path="url(#p3333fbb597)" style="fill: #fb9a99; opacity: 0.5; stroke: #ffffff; stroke-width: 2; stroke-linejoin: miter"/>
   </g>
   <g id="patch_37">
    <path d="M 829.725756 466.515625 
L 860.300682 466.515625 
L 860.300682 361.797619 
L 829.725756 361.797619 
z
" clip-path="url(#p3333fbb597)" style="fill: #fb9a99; opacity: 0.5; stroke: #ffffff; stroke-width: 2; stroke-linejoin: miter"/>
   </g>
   <g id="patch_38">
    <path d="M 860.300682 466.515625 
L 890.875608 466.515625 
L 890.875608 257.079613 
L 860.300682 257.079613 
z
" clip-path="url(#p3333fbb597)" style="fill: #fb9a99; opacity: 0.5; stroke: #ffffff; stroke-width: 2; stroke-linejoin: miter"/>
   </g>
   <g id="patch_39">
    <path d="M 890.875608 466.515625 
L 921.450534 466.515625 
L 921.450534 152.361607 
L 890.875608 152.361607 
z
" clip-path="url(#p3333fbb597)" style="fill: #fb9a99; opacity: 0.5; stroke: #ffffff; stroke-width: 2; stroke-linejoin: miter"/>
   </g>
   <g id="patch_40">
    <path d="M 921.450534 466.515625 
L 952.02546 466.515625 
L 952.02546 100.002604 
L 921.450534 100.002604 
z
" clip-path="url(#p3333fbb597)" style="fill: #fb9a99; opacity: 0.5; stroke: #ffffff; stroke-width: 2; stroke-linejoin: miter"/>
   </g>
   <g id="patch_41">
    <path d="M 952.02546 466.515625 
L 982.600386 466.515625 
L 982.600386 466.515625 
L 952.02546 466.515625 
z
" clip-path="url(#p3333fbb597)" style="fill: #fb9a99; opacity: 0.5; stroke: #ffffff; stroke-width: 2; stroke-linejoin: miter"/>
   </g>
   <g id="patch_42">
    <path d="M 982.600386 466.515625 
L 1013.175313 466.515625 
L 1013.175313 414.156622 
L 982.600386 414.156622 
z
" clip-path="url(#p3333fbb597)" style="fill: #fb9a99; opacity: 0.5; stroke: #ffffff; stroke-width: 2; stroke-linejoin: miter"/>
   </g>
   <g id="patch_43">
    <path d="M 34.975313 466.515625 
L 34.975313 26.7 
" style="fill: none; stroke: #262626; stroke-width: 2.5; stroke-linejoin: miter; stroke-linecap: square"/>
   </g>
   <g id="patch_44">
    <path d="M 1380.000313 466.515625 
L 1380.000313 26.7 
" style="fill: none; stroke: #262626; stroke-width: 2.5; stroke-linejoin: miter; stroke-linecap: square"/>
   </g>
   <g id="patch_45">
    <path d="M 34.975313 466.515625 
L 1380.000313 466.515625 
" style="fill: none; stroke: #262626; stroke-width: 2.5; stroke-linejoin: miter; stroke-linecap: square"/>
   </g>
   <g id="patch_46">
    <path d="M 34.975313 26.7 
L 1380.000313 26.7 
" style="fill: none; stroke: #262626; stroke-width: 2.5; stroke-linejoin: miter; stroke-linecap: square"/>
   </g>
   <g id="legend_1">
    <g id="patch_47">
     <path d="M 1154.785625 177.22125 
L 1364.600312 177.22125 
Q 1369.000313 177.22125 1369.000313 172.82125 
L 1369.000313 42.1 
Q 1369.000313 37.7 1364.600312 37.7 
L 1154.785625 37.7 
Q 1150.385625 37.7 1150.385625 42.1 
L 1150.385625 172.82125 
Q 1150.385625 177.22125 1154.785625 177.22125 
z
" style="fill: #ffffff; opacity: 0.8; stroke: #cccccc; stroke-width: 2; stroke-linejoin: miter"/>
    </g>
    <g id="patch_48">
     <path d="M 1159.185625 63 
L 1203.185625 63 
L 1203.185625 47.6 
L 1159.185625 47.6 
z
" style="fill: #a6cee3; opacity: 0.5; stroke: #ffffff; stroke-width: 2; stroke-linejoin: miter"/>
    </g>
    <g id="text_18">
     <!-- men -->
     <g style="fill: #262626" transform="translate(1220.785625 63) scale(0.22 -0.22)">
      <defs>
       <path id="FiraSans-Regular-6d" d="M 3994 3450 
Q 4410 3450 4659 3171 
Q 4909 2893 4909 2419 
L 4909 0 
L 4320 0 
L 4320 2336 
Q 4320 2989 3846 2989 
Q 3597 2989 3424 2845 
Q 3251 2701 3053 2394 
L 3053 0 
L 2464 0 
L 2464 2336 
Q 2464 2989 1990 2989 
Q 1734 2989 1561 2841 
Q 1389 2694 1197 2394 
L 1197 0 
L 608 0 
L 608 3373 
L 1114 3373 
L 1165 2880 
Q 1542 3450 2138 3450 
Q 2451 3450 2672 3290 
Q 2893 3130 2989 2842 
Q 3187 3136 3427 3293 
Q 3667 3450 3994 3450 
z
" transform="scale(0.015625)"/>
       <path id="FiraSans-Regular-65" d="M 3155 1786 
Q 3155 1638 3142 1485 
L 992 1485 
Q 1030 928 1273 665 
Q 1517 403 1901 403 
Q 2144 403 2349 473 
Q 2554 544 2778 698 
L 3034 346 
Q 2496 -77 1856 -77 
Q 1152 -77 758 384 
Q 365 845 365 1651 
Q 365 2176 534 2582 
Q 704 2989 1021 3219 
Q 1338 3450 1766 3450 
Q 2438 3450 2796 3008 
Q 3155 2566 3155 1786 
z
M 2573 1958 
Q 2573 2458 2374 2720 
Q 2176 2982 1779 2982 
Q 1056 2982 992 1920 
L 2573 1920 
L 2573 1958 
z
" transform="scale(0.015625)"/>
       <path id="FiraSans-Regular-6e" d="M 2195 3450 
Q 2656 3450 2915 3174 
Q 3174 2899 3174 2419 
L 3174 0 
L 2586 0 
L 2586 2336 
Q 2586 2694 2451 2841 
Q 2317 2989 2054 2989 
Q 1786 2989 1581 2835 
Q 1376 2682 1197 2394 
L 1197 0 
L 608 0 
L 608 3373 
L 1114 3373 
L 1165 2874 
Q 1344 3142 1609 3296 
Q 1875 3450 2195 3450 
z
" transform="scale(0.015625)"/>
      </defs>
      <use xlink:href="#FiraSans-Regular-6d"/>
      <use xlink:href="#FiraSans-Regular-65" x="85.699982"/>
      <use xlink:href="#FiraSans-Regular-6e" x="140.199966"/>
     </g>
    </g>
    <g id="patch_49">
     <path d="M 1159.185625 95.185312 
L 1203.185625 95.185312 
L 1203.185625 79.785312 
L 1159.185625 79.785312 
z
" style="fill: #fb9a99; opacity: 0.5; stroke: #ffffff; stroke-width: 2; stroke-linejoin: miter"/>
    </g>
    <g id="text_19">
     <!-- women -->
     <g style="fill: #262626" transform="translate(1220.785625 95.185312) scale(0.22 -0.22)">
      <defs>
       <path id="FiraSans-Regular-77" d="M 4461 3373 
L 3693 0 
L 2893 0 
L 2304 2842 
L 1696 0 
L 915 0 
L 128 3373 
L 717 3373 
L 1325 410 
L 1990 3373 
L 2650 3373 
L 3283 410 
L 3898 3373 
L 4461 3373 
z
" transform="scale(0.015625)"/>
       <path id="FiraSans-Regular-6f" d="M 1875 3450 
Q 2586 3450 2979 2976 
Q 3373 2502 3373 1690 
Q 3373 1165 3193 765 
Q 3014 365 2675 144 
Q 2336 -77 1869 -77 
Q 1158 -77 761 396 
Q 365 870 365 1683 
Q 365 2208 544 2608 
Q 723 3008 1062 3229 
Q 1402 3450 1875 3450 
z
M 1875 2976 
Q 998 2976 998 1683 
Q 998 397 1869 397 
Q 2739 397 2739 1690 
Q 2739 2976 1875 2976 
z
" transform="scale(0.015625)"/>
      </defs>
      <use xlink:href="#FiraSans-Regular-77"/>
      <use xlink:href="#FiraSans-Regular-6f" x="71.699982"/>
      <use xlink:href="#FiraSans-Regular-6d" x="130.099976"/>
      <use xlink:href="#FiraSans-Regular-65" x="215.799957"/>
      <use xlink:href="#FiraSans-Regular-6e" x="270.299942"/>
     </g>
    </g>
    <g id="line2d_33">
     <path d="M 1159.185625 121.760625 
L 1181.185625 121.760625 
L 1203.185625 121.760625 
" style="fill: none; stroke: #a6cee3; stroke-opacity: 0.5; stroke-width: 3; stroke-linecap: round"/>
    </g>
    <g id="text_20">
     <!-- men (right) -->
     <g style="fill: #262626" transform="translate(1220.785625 129.460625) scale(0.22 -0.22)">
      <defs>
       <path id="FiraSans-Regular-20" transform="scale(0.015625)"/>
       <path id="FiraSans-Regular-28" d="M 1818 5152 
Q 1485 4659 1289 4272 
Q 1094 3885 982 3392 
Q 870 2899 870 2240 
Q 870 1587 982 1094 
Q 1094 602 1289 208 
Q 1485 -186 1818 -672 
L 1446 -928 
Q 1024 -326 797 61 
Q 570 448 413 989 
Q 256 1530 256 2240 
Q 256 2950 413 3491 
Q 570 4032 797 4419 
Q 1024 4806 1446 5408 
L 1818 5152 
z
" transform="scale(0.015625)"/>
       <path id="FiraSans-Regular-72" d="M 2074 3450 
Q 2253 3450 2406 3411 
L 2298 2835 
Q 2144 2874 2003 2874 
Q 1690 2874 1498 2643 
Q 1306 2413 1197 1926 
L 1197 0 
L 608 0 
L 608 3373 
L 1114 3373 
L 1171 2688 
Q 1306 3066 1536 3258 
Q 1766 3450 2074 3450 
z
" transform="scale(0.015625)"/>
       <path id="FiraSans-Regular-69" d="M 1197 3373 
L 1197 0 
L 608 0 
L 608 3373 
L 1197 3373 
z
M 896 4992 
Q 1082 4992 1197 4877 
Q 1312 4762 1312 4589 
Q 1312 4416 1197 4304 
Q 1082 4192 896 4192 
Q 717 4192 601 4304 
Q 486 4416 486 4589 
Q 486 4762 601 4877 
Q 717 4992 896 4992 
z
" transform="scale(0.015625)"/>
       <path id="FiraSans-Regular-67" d="M 3328 3219 
Q 3136 3155 2905 3136 
Q 2675 3117 2342 3117 
Q 2938 2848 2938 2266 
Q 2938 1760 2592 1440 
Q 2246 1120 1651 1120 
Q 1421 1120 1222 1184 
Q 1146 1133 1101 1046 
Q 1056 960 1056 870 
Q 1056 595 1498 595 
L 2035 595 
Q 2374 595 2636 473 
Q 2899 352 3043 141 
Q 3187 -70 3187 -339 
Q 3187 -832 2784 -1097 
Q 2381 -1363 1606 -1363 
Q 1062 -1363 745 -1251 
Q 429 -1139 294 -915 
Q 160 -691 160 -339 
L 691 -339 
Q 691 -544 768 -662 
Q 845 -781 1043 -841 
Q 1242 -902 1606 -902 
Q 2138 -902 2365 -771 
Q 2592 -640 2592 -378 
Q 2592 -141 2413 -19 
Q 2234 102 1914 102 
L 1382 102 
Q 954 102 733 284 
Q 512 467 512 742 
Q 512 909 608 1062 
Q 704 1216 883 1338 
Q 589 1491 451 1718 
Q 314 1946 314 2272 
Q 314 2611 483 2880 
Q 653 3149 950 3299 
Q 1248 3450 1613 3450 
Q 2010 3443 2278 3478 
Q 2547 3514 2723 3574 
Q 2899 3635 3155 3750 
L 3328 3219 
z
M 1613 3027 
Q 1280 3027 1097 2819 
Q 915 2611 915 2272 
Q 915 1926 1100 1718 
Q 1286 1510 1626 1510 
Q 1971 1510 2153 1712 
Q 2336 1914 2336 2278 
Q 2336 3027 1613 3027 
z
" transform="scale(0.015625)"/>
       <path id="FiraSans-Regular-68" d="M 2195 3450 
Q 2656 3450 2915 3174 
Q 3174 2899 3174 2419 
L 3174 0 
L 2586 0 
L 2586 2336 
Q 2586 2694 2448 2841 
Q 2310 2989 2048 2989 
Q 1786 2989 1581 2835 
Q 1376 2682 1197 2400 
L 1197 0 
L 608 0 
L 608 4723 
L 1197 4787 
L 1197 2906 
Q 1594 3450 2195 3450 
z
" transform="scale(0.015625)"/>
       <path id="FiraSans-Regular-74" d="M 2310 154 
Q 1978 -77 1555 -77 
Q 1126 -77 886 169 
Q 646 416 646 883 
L 646 2918 
L 58 2918 
L 58 3373 
L 646 3373 
L 646 4134 
L 1235 4205 
L 1235 3373 
L 2035 3373 
L 1971 2918 
L 1235 2918 
L 1235 909 
Q 1235 646 1328 528 
Q 1421 410 1638 410 
Q 1837 410 2086 544 
L 2310 154 
z
" transform="scale(0.015625)"/>
       <path id="FiraSans-Regular-29" d="M 627 5408 
Q 1050 4806 1277 4419 
Q 1504 4032 1661 3491 
Q 1818 2950 1818 2240 
Q 1818 1530 1661 989 
Q 1504 448 1277 61 
Q 1050 -326 627 -928 
L 256 -672 
Q 589 -186 784 208 
Q 979 602 1091 1094 
Q 1203 1587 1203 2240 
Q 1203 2899 1091 3392 
Q 979 3885 784 4272 
Q 589 4659 256 5152 
L 627 5408 
z
" transform="scale(0.015625)"/>
      </defs>
      <use xlink:href="#FiraSans-Regular-6d"/>
      <use xlink:href="#FiraSans-Regular-65" x="85.699982"/>
      <use xlink:href="#FiraSans-Regular-6e" x="140.199966"/>
      <use xlink:href="#FiraSans-Regular-20" x="198.799957"/>
      <use xlink:href="#FiraSans-Regular-28" x="225.299942"/>
      <use xlink:href="#FiraSans-Regular-72" x="257.699936"/>
      <use xlink:href="#FiraSans-Regular-69" x="296.299927"/>
      <use xlink:href="#FiraSans-Regular-67" x="324.499924"/>
      <use xlink:href="#FiraSans-Regular-68" x="376.499908"/>
      <use xlink:href="#FiraSans-Regular-74" x="435.099899"/>
      <use xlink:href="#FiraSans-Regular-29" x="471.19989"/>
     </g>
    </g>
    <g id="line2d_34">
     <path d="M 1159.185625 156.035937 
L 1181.185625 156.035937 
L 1203.185625 156.035937 
" style="fill: none; stroke: #fb9a99; stroke-opacity: 0.5; stroke-width: 3; stroke-linecap: round"/>
    </g>
    <g id="text_21">
     <!-- women (right) -->
     <g style="fill: #262626" transform="translate(1220.785625 163.735937) scale(0.22 -0.22)">
      <use xlink:href="#FiraSans-Regular-77"/>
      <use xlink:href="#FiraSans-Regular-6f" x="71.699982"/>
      <use xlink:href="#FiraSans-Regular-6d" x="130.099976"/>
      <use xlink:href="#FiraSans-Regular-65" x="215.799957"/>
      <use xlink:href="#FiraSans-Regular-6e" x="270.299942"/>
      <use xlink:href="#FiraSans-Regular-20" x="328.899933"/>
      <use xlink:href="#FiraSans-Regular-28" x="355.399918"/>
      <use xlink:href="#FiraSans-Regular-72" x="387.799911"/>
      <use xlink:href="#FiraSans-Regular-69" x="426.399902"/>
      <use xlink:href="#FiraSans-Regular-67" x="454.599899"/>
      <use xlink:href="#FiraSans-Regular-68" x="506.599884"/>
      <use xlink:href="#FiraSans-Regular-74" x="565.199875"/>
      <use xlink:href="#FiraSans-Regular-29" x="601.299866"/>
     </g>
    </g>
   </g>
  </g>
  <g id="axes_2">
   <g id="patch_50">
    <path d="M 34.975313 1001.115625 
L 1380.000313 1001.115625 
L 1380.000313 561.3 
L 34.975313 561.3 
z
" style="fill: #ffffff"/>
   </g>
   <g id="matplotlib.axis_3">
    <g id="xtick_8">
     <g id="line2d_35">
      <path d="M 210.275293 1001.115625 
L 210.275293 561.3 
" clip-path="url(#p71340adb85)" style="fill: none; stroke: #cccccc; stroke-width: 2; stroke-linecap: round"/>
     </g>
     <g id="line2d_36">
      <g>
       <use xlink:href="#mae5477fe70" x="210.275293" y="1001.115625" style="fill: #262626; stroke: #262626; stroke-width: 2.5"/>
      </g>
     </g>
     <g id="text_22">
      <!-- −20000 -->
      <g style="fill: #262626" transform="translate(174.779668 1033.115625) scale(0.22 -0.22)">
       <use xlink:href="#FiraSans-Regular-2212"/>
       <use xlink:href="#FiraSans-Regular-32" x="49.999985"/>
       <use xlink:href="#FiraSans-Regular-30" x="99.499969"/>
       <use xlink:href="#FiraSans-Regular-30" x="155.299957"/>
       <use xlink:href="#FiraSans-Regular-30" x="211.099945"/>
       <use xlink:href="#FiraSans-Regular-30" x="266.899933"/>
      </g>
     </g>
    </g>
    <g id="xtick_9">
     <g id="line2d_37">
      <path d="M 400.308551 1001.115625 
L 400.308551 561.3 
" clip-path="url(#p71340adb85)" style="fill: none; stroke: #cccccc; stroke-width: 2; stroke-linecap: round"/>
     </g>
     <g id="line2d_38">
      <g>
       <use xlink:href="#mae5477fe70" x="400.308551" y="1001.115625" style="fill: #262626; stroke: #262626; stroke-width: 2.5"/>
      </g>
     </g>
     <g id="text_23">
      <!-- 0 -->
      <g style="fill: #262626" transform="translate(394.170895 1033.115625) scale(0.22 -0.22)">
       <use xlink:href="#FiraSans-Regular-30"/>
      </g>
     </g>
    </g>
    <g id="xtick_10">
     <g id="line2d_39">
      <path d="M 590.34181 1001.115625 
L 590.34181 561.3 
" clip-path="url(#p71340adb85)" style="fill: none; stroke: #cccccc; stroke-width: 2; stroke-linecap: round"/>
     </g>
     <g id="line2d_40">
      <g>
       <use xlink:href="#mae5477fe70" x="590.34181" y="1001.115625" style="fill: #262626; stroke: #262626; stroke-width: 2.5"/>
      </g>
     </g>
     <g id="text_24">
      <!-- 20000 -->
      <g style="fill: #262626" transform="translate(560.346185 1033.115625) scale(0.22 -0.22)">
       <use xlink:href="#FiraSans-Regular-32"/>
       <use xlink:href="#FiraSans-Regular-30" x="49.499985"/>
       <use xlink:href="#FiraSans-Regular-30" x="105.299973"/>
       <use xlink:href="#FiraSans-Regular-30" x="161.09996"/>
       <use xlink:href="#FiraSans-Regular-30" x="216.899948"/>
      </g>
     </g>
    </g>
    <g id="xtick_11">
     <g id="line2d_41">
      <path d="M 780.375069 1001.115625 
L 780.375069 561.3 
" clip-path="url(#p71340adb85)" style="fill: none; stroke: #cccccc; stroke-width: 2; stroke-linecap: round"/>
     </g>
     <g id="line2d_42">
      <g>
       <use xlink:href="#mae5477fe70" x="780.375069" y="1001.115625" style="fill: #262626; stroke: #262626; stroke-width: 2.5"/>
      </g>
     </g>
     <g id="text_25">
      <!-- 40000 -->
      <g style="fill: #262626" transform="translate(749.9721 1033.115625) scale(0.22 -0.22)">
       <use xlink:href="#FiraSans-Regular-34"/>
       <use xlink:href="#FiraSans-Regular-30" x="53.199997"/>
       <use xlink:href="#FiraSans-Regular-30" x="108.999985"/>
       <use xlink:href="#FiraSans-Regular-30" x="164.799973"/>
       <use xlink:href="#FiraSans-Regular-30" x="220.59996"/>
      </g>
     </g>
    </g>
    <g id="xtick_12">
     <g id="line2d_43">
      <path d="M 970.408328 1001.115625 
L 970.408328 561.3 
" clip-path="url(#p71340adb85)" style="fill: none; stroke: #cccccc; stroke-width: 2; stroke-linecap: round"/>
     </g>
     <g id="line2d_44">
      <g>
       <use xlink:href="#mae5477fe70" x="970.408328" y="1001.115625" style="fill: #262626; stroke: #262626; stroke-width: 2.5"/>
      </g>
     </g>
     <g id="text_26">
      <!-- 60000 -->
      <g style="fill: #262626" transform="translate(939.995046 1033.115625) scale(0.22 -0.22)">
       <use xlink:href="#FiraSans-Regular-36"/>
       <use xlink:href="#FiraSans-Regular-30" x="53.299988"/>
       <use xlink:href="#FiraSans-Regular-30" x="109.099976"/>
       <use xlink:href="#FiraSans-Regular-30" x="164.899963"/>
       <use xlink:href="#FiraSans-Regular-30" x="220.699951"/>
      </g>
     </g>
    </g>
    <g id="xtick_13">
     <g id="line2d_45">
      <path d="M 1160.441586 1001.115625 
L 1160.441586 561.3 
" clip-path="url(#p71340adb85)" style="fill: none; stroke: #cccccc; stroke-width: 2; stroke-linecap: round"/>
     </g>
     <g id="line2d_46">
      <g>
       <use xlink:href="#mae5477fe70" x="1160.441586" y="1001.115625" style="fill: #262626; stroke: #262626; stroke-width: 2.5"/>
      </g>
     </g>
     <g id="text_27">
      <!-- 80000 -->
      <g style="fill: #262626" transform="translate(1129.830649 1033.115625) scale(0.22 -0.22)">
       <use xlink:href="#FiraSans-Regular-38"/>
       <use xlink:href="#FiraSans-Regular-30" x="55.099991"/>
       <use xlink:href="#FiraSans-Regular-30" x="110.899979"/>
       <use xlink:href="#FiraSans-Regular-30" x="166.699966"/>
       <use xlink:href="#FiraSans-Regular-30" x="222.499954"/>
      </g>
     </g>
    </g>
    <g id="xtick_14">
     <g id="line2d_47">
      <path d="M 1350.474845 1001.115625 
L 1350.474845 561.3 
" clip-path="url(#p71340adb85)" style="fill: none; stroke: #cccccc; stroke-width: 2; stroke-linecap: round"/>
     </g>
     <g id="line2d_48">
      <g>
       <use xlink:href="#mae5477fe70" x="1350.474845" y="1001.115625" style="fill: #262626; stroke: #262626; stroke-width: 2.5"/>
      </g>
     </g>
     <g id="text_28">
      <!-- 100000 -->
      <g style="fill: #262626" transform="translate(1315.023908 1033.115625) scale(0.22 -0.22)">
       <use xlink:href="#FiraSans-Regular-31"/>
       <use xlink:href="#FiraSans-Regular-30" x="43.299988"/>
       <use xlink:href="#FiraSans-Regular-30" x="99.099976"/>
       <use xlink:href="#FiraSans-Regular-30" x="154.899963"/>
       <use xlink:href="#FiraSans-Regular-30" x="210.699951"/>
       <use xlink:href="#FiraSans-Regular-30" x="266.499939"/>
      </g>
     </g>
    </g>
    <g id="text_29">
     <!-- MI -->
     <g style="fill: #262626" transform="translate(694.612188 1059.800937) scale(0.24 -0.24)">
      <defs>
       <path id="FiraSans-Regular-4d" d="M 4582 0 
L 3994 0 
L 3840 1990 
Q 3744 3162 3731 3789 
L 2778 499 
L 2208 499 
L 1203 3795 
Q 1203 2995 1120 1946 
L 973 0 
L 397 0 
L 762 4410 
L 1581 4410 
L 2509 1203 
L 3392 4410 
L 4218 4410 
L 4582 0 
z
" transform="scale(0.015625)"/>
       <path id="FiraSans-Regular-49" d="M 1248 4410 
L 1248 0 
L 640 0 
L 640 4410 
L 1248 4410 
z
" transform="scale(0.015625)"/>
      </defs>
      <use xlink:href="#FiraSans-Regular-4d"/>
      <use xlink:href="#FiraSans-Regular-49" x="77.799988"/>
     </g>
    </g>
   </g>
   <g id="matplotlib.axis_4">
    <g id="ytick_10">
     <g id="line2d_49">
      <path d="M 34.975313 1001.115625 
L 1380.000313 1001.115625 
" clip-path="url(#p71340adb85)" style="fill: none; stroke: #cccccc; stroke-width: 2; stroke-linecap: round"/>
     </g>
     <g id="line2d_50">
      <g>
       <use xlink:href="#m236aa7bdad" x="34.975313" y="1001.115625" style="fill: #262626; stroke: #262626; stroke-width: 2.5"/>
      </g>
     </g>
     <g id="text_30">
      <!-- 0 -->
      <g style="fill: #262626" transform="translate(7.2 1009.365625) scale(0.22 -0.22)">
       <use xlink:href="#FiraSans-Regular-30"/>
      </g>
     </g>
    </g>
    <g id="ytick_11">
     <g id="line2d_51">
      <path d="M 34.975313 948.756622 
L 1380.000313 948.756622 
" clip-path="url(#p71340adb85)" style="fill: none; stroke: #cccccc; stroke-width: 2; stroke-linecap: round"/>
     </g>
     <g id="line2d_52">
      <g>
       <use xlink:href="#m236aa7bdad" x="34.975313" y="948.756622" style="fill: #262626; stroke: #262626; stroke-width: 2.5"/>
      </g>
     </g>
     <g id="text_31">
      <!-- 1 -->
      <g style="fill: #262626" transform="translate(9.95 957.006622) scale(0.22 -0.22)">
       <use xlink:href="#FiraSans-Regular-31"/>
      </g>
     </g>
    </g>
    <g id="ytick_12">
     <g id="line2d_53">
      <path d="M 34.975313 896.397619 
L 1380.000313 896.397619 
" clip-path="url(#p71340adb85)" style="fill: none; stroke: #cccccc; stroke-width: 2; stroke-linecap: round"/>
     </g>
     <g id="line2d_54">
      <g>
       <use xlink:href="#m236aa7bdad" x="34.975313" y="896.397619" style="fill: #262626; stroke: #262626; stroke-width: 2.5"/>
      </g>
     </g>
     <g id="text_32">
      <!-- 2 -->
      <g style="fill: #262626" transform="translate(8.585313 904.647619) scale(0.22 -0.22)">
       <use xlink:href="#FiraSans-Regular-32"/>
      </g>
     </g>
    </g>
    <g id="ytick_13">
     <g id="line2d_55">
      <path d="M 34.975313 844.038616 
L 1380.000313 844.038616 
" clip-path="url(#p71340adb85)" style="fill: none; stroke: #cccccc; stroke-width: 2; stroke-linecap: round"/>
     </g>
     <g id="line2d_56">
      <g>
       <use xlink:href="#m236aa7bdad" x="34.975313" y="844.038616" style="fill: #262626; stroke: #262626; stroke-width: 2.5"/>
      </g>
     </g>
     <g id="text_33">
      <!-- 3 -->
      <g style="fill: #262626" transform="translate(8.495938 852.288616) scale(0.22 -0.22)">
       <use xlink:href="#FiraSans-Regular-33"/>
      </g>
     </g>
    </g>
    <g id="ytick_14">
     <g id="line2d_57">
      <path d="M 34.975313 791.679613 
L 1380.000313 791.679613 
" clip-path="url(#p71340adb85)" style="fill: none; stroke: #cccccc; stroke-width: 2; stroke-linecap: round"/>
     </g>
     <g id="line2d_58">
      <g>
       <use xlink:href="#m236aa7bdad" x="34.975313" y="791.679613" style="fill: #262626; stroke: #262626; stroke-width: 2.5"/>
      </g>
     </g>
     <g id="text_34">
      <!-- 4 -->
      <g style="fill: #262626" transform="translate(7.770625 799.929613) scale(0.22 -0.22)">
       <use xlink:href="#FiraSans-Regular-34"/>
      </g>
     </g>
    </g>
    <g id="ytick_15">
     <g id="line2d_59">
      <path d="M 34.975313 739.32061 
L 1380.000313 739.32061 
" clip-path="url(#p71340adb85)" style="fill: none; stroke: #cccccc; stroke-width: 2; stroke-linecap: round"/>
     </g>
     <g id="line2d_60">
      <g>
       <use xlink:href="#m236aa7bdad" x="34.975313" y="739.32061" style="fill: #262626; stroke: #262626; stroke-width: 2.5"/>
      </g>
     </g>
     <g id="text_35">
      <!-- 5 -->
      <g style="fill: #262626" transform="translate(8.454688 747.57061) scale(0.22 -0.22)">
       <use xlink:href="#FiraSans-Regular-35"/>
      </g>
     </g>
    </g>
    <g id="ytick_16">
     <g id="line2d_61">
      <path d="M 34.975313 686.961607 
L 1380.000313 686.961607 
" clip-path="url(#p71340adb85)" style="fill: none; stroke: #cccccc; stroke-width: 2; stroke-linecap: round"/>
     </g>
     <g id="line2d_62">
      <g>
       <use xlink:href="#m236aa7bdad" x="34.975313" y="686.961607" style="fill: #262626; stroke: #262626; stroke-width: 2.5"/>
      </g>
     </g>
     <g id="text_36">
      <!-- 6 -->
      <g style="fill: #262626" transform="translate(7.75 695.211607) scale(0.22 -0.22)">
       <use xlink:href="#FiraSans-Regular-36"/>
      </g>
     </g>
    </g>
    <g id="ytick_17">
     <g id="line2d_63">
      <path d="M 34.975313 634.602604 
L 1380.000313 634.602604 
" clip-path="url(#p71340adb85)" style="fill: none; stroke: #cccccc; stroke-width: 2; stroke-linecap: round"/>
     </g>
     <g id="line2d_64">
      <g>
       <use xlink:href="#m236aa7bdad" x="34.975313" y="634.602604" style="fill: #262626; stroke: #262626; stroke-width: 2.5"/>
      </g>
     </g>
     <g id="text_37">
      <!-- 7 -->
      <g style="fill: #262626" transform="translate(9.705938 642.852604) scale(0.22 -0.22)">
       <use xlink:href="#FiraSans-Regular-37"/>
      </g>
     </g>
    </g>
    <g id="ytick_18">
     <g id="line2d_65">
      <path d="M 34.975313 582.243601 
L 1380.000313 582.243601 
" clip-path="url(#p71340adb85)" style="fill: none; stroke: #cccccc; stroke-width: 2; stroke-linecap: round"/>
     </g>
     <g id="line2d_66">
      <g>
       <use xlink:href="#m236aa7bdad" x="34.975313" y="582.243601" style="fill: #262626; stroke: #262626; stroke-width: 2.5"/>
      </g>
     </g>
     <g id="text_38">
      <!-- 8 -->
      <g style="fill: #262626" transform="translate(7.354688 590.493601) scale(0.22 -0.22)">
       <use xlink:href="#FiraSans-Regular-38"/>
      </g>
     </g>
    </g>
   </g>
   <g id="patch_51">
    <path d="M 454.392017 1001.115625 
L 467.069136 1001.115625 
L 467.069136 896.397619 
L 454.392017 896.397619 
z
" clip-path="url(#p71340adb85)" style="fill: #a6cee3; opacity: 0.5; stroke: #ffffff; stroke-width: 2; stroke-linejoin: miter"/>
   </g>
   <g id="patch_52">
    <path d="M 467.069136 1001.115625 
L 479.746254 1001.115625 
L 479.746254 1001.115625 
L 467.069136 1001.115625 
z
" clip-path="url(#p71340adb85)" style="fill: #a6cee3; opacity: 0.5; stroke: #ffffff; stroke-width: 2; stroke-linejoin: miter"/>
   </g>
   <g id="patch_53">
    <path d="M 479.746254 1001.115625 
L 492.423373 1001.115625 
L 492.423373 1001.115625 
L 479.746254 1001.115625 
z
" clip-path="url(#p71340adb85)" style="fill: #a6cee3; opacity: 0.5; stroke: #ffffff; stroke-width: 2; stroke-linejoin: miter"/>
   </g>
   <g id="patch_54">
    <path d="M 492.423373 1001.115625 
L 505.100492 1001.115625 
L 505.100492 896.397619 
L 492.423373 896.397619 
z
" clip-path="url(#p71340adb85)" style="fill: #a6cee3; opacity: 0.5; stroke: #ffffff; stroke-width: 2; stroke-linejoin: miter"/>
   </g>
   <g id="patch_55">
    <path d="M 505.100492 1001.115625 
L 517.77761 1001.115625 
L 517.77761 948.756622 
L 505.100492 948.756622 
z
" clip-path="url(#p71340adb85)" style="fill: #a6cee3; opacity: 0.5; stroke: #ffffff; stroke-width: 2; stroke-linejoin: miter"/>
   </g>
   <g id="patch_56">
    <path d="M 517.77761 1001.115625 
L 530.454729 1001.115625 
L 530.454729 896.397619 
L 517.77761 896.397619 
z
" clip-path="url(#p71340adb85)" style="fill: #a6cee3; opacity: 0.5; stroke: #ffffff; stroke-width: 2; stroke-linejoin: miter"/>
   </g>
   <g id="patch_57">
    <path d="M 530.454729 1001.115625 
L 543.131848 1001.115625 
L 543.131848 896.397619 
L 530.454729 896.397619 
z
" clip-path="url(#p71340adb85)" style="fill: #a6cee3; opacity: 0.5; stroke: #ffffff; stroke-width: 2; stroke-linejoin: miter"/>
   </g>
   <g id="patch_58">
    <path d="M 543.131848 1001.115625 
L 555.808966 1001.115625 
L 555.808966 1001.115625 
L 543.131848 1001.115625 
z
" clip-path="url(#p71340adb85)" style="fill: #a6cee3; opacity: 0.5; stroke: #ffffff; stroke-width: 2; stroke-linejoin: miter"/>
   </g>
   <g id="patch_59">
    <path d="M 555.808966 1001.115625 
L 568.486085 1001.115625 
L 568.486085 1001.115625 
L 555.808966 1001.115625 
z
" clip-path="url(#p71340adb85)" style="fill: #a6cee3; opacity: 0.5; stroke: #ffffff; stroke-width: 2; stroke-linejoin: miter"/>
   </g>
   <g id="patch_60">
    <path d="M 568.486085 1001.115625 
L 581.163204 1001.115625 
L 581.163204 739.32061 
L 568.486085 739.32061 
z
" clip-path="url(#p71340adb85)" style="fill: #a6cee3; opacity: 0.5; stroke: #ffffff; stroke-width: 2; stroke-linejoin: miter"/>
   </g>
   <g id="patch_61">
    <path d="M 581.163204 1001.115625 
L 593.840322 1001.115625 
L 593.840322 948.756622 
L 581.163204 948.756622 
z
" clip-path="url(#p71340adb85)" style="fill: #a6cee3; opacity: 0.5; stroke: #ffffff; stroke-width: 2; stroke-linejoin: miter"/>
   </g>
   <g id="patch_62">
    <path d="M 593.840322 1001.115625 
L 606.517441 1001.115625 
L 606.517441 896.397619 
L 593.840322 896.397619 
z
" clip-path="url(#p71340adb85)" style="fill: #a6cee3; opacity: 0.5; stroke: #ffffff; stroke-width: 2; stroke-linejoin: miter"/>
   </g>
   <g id="patch_63">
    <path d="M 606.517441 1001.115625 
L 619.19456 1001.115625 
L 619.19456 896.397619 
L 606.517441 896.397619 
z
" clip-path="url(#p71340adb85)" style="fill: #a6cee3; opacity: 0.5; stroke: #ffffff; stroke-width: 2; stroke-linejoin: miter"/>
   </g>
   <g id="patch_64">
    <path d="M 619.19456 1001.115625 
L 631.871679 1001.115625 
L 631.871679 1001.115625 
L 619.19456 1001.115625 
z
" clip-path="url(#p71340adb85)" style="fill: #a6cee3; opacity: 0.5; stroke: #ffffff; stroke-width: 2; stroke-linejoin: miter"/>
   </g>
   <g id="patch_65">
    <path d="M 631.871679 1001.115625 
L 644.548797 1001.115625 
L 644.548797 896.397619 
L 631.871679 896.397619 
z
" clip-path="url(#p71340adb85)" style="fill: #a6cee3; opacity: 0.5; stroke: #ffffff; stroke-width: 2; stroke-linejoin: miter"/>
   </g>
   <g id="patch_66">
    <path d="M 644.548797 1001.115625 
L 657.225916 1001.115625 
L 657.225916 948.756622 
L 644.548797 948.756622 
z
" clip-path="url(#p71340adb85)" style="fill: #a6cee3; opacity: 0.5; stroke: #ffffff; stroke-width: 2; stroke-linejoin: miter"/>
   </g>
   <g id="patch_67">
    <path d="M 657.225916 1001.115625 
L 669.903035 1001.115625 
L 669.903035 948.756622 
L 657.225916 948.756622 
z
" clip-path="url(#p71340adb85)" style="fill: #a6cee3; opacity: 0.5; stroke: #ffffff; stroke-width: 2; stroke-linejoin: miter"/>
   </g>
   <g id="patch_68">
    <path d="M 669.903035 1001.115625 
L 682.580153 1001.115625 
L 682.580153 948.756622 
L 669.903035 948.756622 
z
" clip-path="url(#p71340adb85)" style="fill: #a6cee3; opacity: 0.5; stroke: #ffffff; stroke-width: 2; stroke-linejoin: miter"/>
   </g>
   <g id="patch_69">
    <path d="M 682.580153 1001.115625 
L 695.257272 1001.115625 
L 695.257272 1001.115625 
L 682.580153 1001.115625 
z
" clip-path="url(#p71340adb85)" style="fill: #a6cee3; opacity: 0.5; stroke: #ffffff; stroke-width: 2; stroke-linejoin: miter"/>
   </g>
   <g id="patch_70">
    <path d="M 695.257272 1001.115625 
L 707.934391 1001.115625 
L 707.934391 1001.115625 
L 695.257272 1001.115625 
z
" clip-path="url(#p71340adb85)" style="fill: #a6cee3; opacity: 0.5; stroke: #ffffff; stroke-width: 2; stroke-linejoin: miter"/>
   </g>
   <g id="patch_71">
    <path d="M 454.392017 1001.115625 
L 467.069136 1001.115625 
L 467.069136 896.397619 
L 454.392017 896.397619 
z
" clip-path="url(#p71340adb85)" style="fill: #fb9a99; opacity: 0.5; stroke: #ffffff; stroke-width: 2; stroke-linejoin: miter"/>
   </g>
   <g id="patch_72">
    <path d="M 467.069136 1001.115625 
L 479.746254 1001.115625 
L 479.746254 1001.115625 
L 467.069136 1001.115625 
z
" clip-path="url(#p71340adb85)" style="fill: #fb9a99; opacity: 0.5; stroke: #ffffff; stroke-width: 2; stroke-linejoin: miter"/>
   </g>
   <g id="patch_73">
    <path d="M 479.746254 1001.115625 
L 492.423373 1001.115625 
L 492.423373 1001.115625 
L 479.746254 1001.115625 
z
" clip-path="url(#p71340adb85)" style="fill: #fb9a99; opacity: 0.5; stroke: #ffffff; stroke-width: 2; stroke-linejoin: miter"/>
   </g>
   <g id="patch_74">
    <path d="M 492.423373 1001.115625 
L 505.100492 1001.115625 
L 505.100492 896.397619 
L 492.423373 896.397619 
z
" clip-path="url(#p71340adb85)" style="fill: #fb9a99; opacity: 0.5; stroke: #ffffff; stroke-width: 2; stroke-linejoin: miter"/>
   </g>
   <g id="patch_75">
    <path d="M 505.100492 1001.115625 
L 517.77761 1001.115625 
L 517.77761 948.756622 
L 505.100492 948.756622 
z
" clip-path="url(#p71340adb85)" style="fill: #fb9a99; opacity: 0.5; stroke: #ffffff; stroke-width: 2; stroke-linejoin: miter"/>
   </g>
   <g id="patch_76">
    <path d="M 517.77761 1001.115625 
L 530.454729 1001.115625 
L 530.454729 896.397619 
L 517.77761 896.397619 
z
" clip-path="url(#p71340adb85)" style="fill: #fb9a99; opacity: 0.5; stroke: #ffffff; stroke-width: 2; stroke-linejoin: miter"/>
   </g>
   <g id="patch_77">
    <path d="M 530.454729 1001.115625 
L 543.131848 1001.115625 
L 543.131848 948.756622 
L 530.454729 948.756622 
z
" clip-path="url(#p71340adb85)" style="fill: #fb9a99; opacity: 0.5; stroke: #ffffff; stroke-width: 2; stroke-linejoin: miter"/>
   </g>
   <g id="patch_78">
    <path d="M 543.131848 1001.115625 
L 555.808966 1001.115625 
L 555.808966 1001.115625 
L 543.131848 1001.115625 
z
" clip-path="url(#p71340adb85)" style="fill: #fb9a99; opacity: 0.5; stroke: #ffffff; stroke-width: 2; stroke-linejoin: miter"/>
   </g>
   <g id="patch_79">
    <path d="M 555.808966 1001.115625 
L 568.486085 1001.115625 
L 568.486085 948.756622 
L 555.808966 948.756622 
z
" clip-path="url(#p71340adb85)" style="fill: #fb9a99; opacity: 0.5; stroke: #ffffff; stroke-width: 2; stroke-linejoin: miter"/>
   </g>
   <g id="patch_80">
    <path d="M 568.486085 1001.115625 
L 581.163204 1001.115625 
L 581.163204 896.397619 
L 568.486085 896.397619 
z
" clip-path="url(#p71340adb85)" style="fill: #fb9a99; opacity: 0.5; stroke: #ffffff; stroke-width: 2; stroke-linejoin: miter"/>
   </g>
   <g id="patch_81">
    <path d="M 581.163204 1001.115625 
L 593.840322 1001.115625 
L 593.840322 896.397619 
L 581.163204 896.397619 
z
" clip-path="url(#p71340adb85)" style="fill: #fb9a99; opacity: 0.5; stroke: #ffffff; stroke-width: 2; stroke-linejoin: miter"/>
   </g>
   <g id="patch_82">
    <path d="M 593.840322 1001.115625 
L 606.517441 1001.115625 
L 606.517441 948.756622 
L 593.840322 948.756622 
z
" clip-path="url(#p71340adb85)" style="fill: #fb9a99; opacity: 0.5; stroke: #ffffff; stroke-width: 2; stroke-linejoin: miter"/>
   </g>
   <g id="patch_83">
    <path d="M 606.517441 1001.115625 
L 619.19456 1001.115625 
L 619.19456 948.756622 
L 606.517441 948.756622 
z
" clip-path="url(#p71340adb85)" style="fill: #fb9a99; opacity: 0.5; stroke: #ffffff; stroke-width: 2; stroke-linejoin: miter"/>
   </g>
   <g id="patch_84">
    <path d="M 619.19456 1001.115625 
L 631.871679 1001.115625 
L 631.871679 791.679613 
L 619.19456 791.679613 
z
" clip-path="url(#p71340adb85)" style="fill: #fb9a99; opacity: 0.5; stroke: #ffffff; stroke-width: 2; stroke-linejoin: miter"/>
   </g>
   <g id="patch_85">
    <path d="M 631.871679 1001.115625 
L 644.548797 1001.115625 
L 644.548797 1001.115625 
L 631.871679 1001.115625 
z
" clip-path="url(#p71340adb85)" style="fill: #fb9a99; opacity: 0.5; stroke: #ffffff; stroke-width: 2; stroke-linejoin: miter"/>
   </g>
   <g id="patch_86">
    <path d="M 644.548797 1001.115625 
L 657.225916 1001.115625 
L 657.225916 1001.115625 
L 644.548797 1001.115625 
z
" clip-path="url(#p71340adb85)" style="fill: #fb9a99; opacity: 0.5; stroke: #ffffff; stroke-width: 2; stroke-linejoin: miter"/>
   </g>
   <g id="patch_87">
    <path d="M 657.225916 1001.115625 
L 669.903035 1001.115625 
L 669.903035 896.397619 
L 657.225916 896.397619 
z
" clip-path="url(#p71340adb85)" style="fill: #fb9a99; opacity: 0.5; stroke: #ffffff; stroke-width: 2; stroke-linejoin: miter"/>
   </g>
   <g id="patch_88">
    <path d="M 669.903035 1001.115625 
L 682.580153 1001.115625 
L 682.580153 1001.115625 
L 669.903035 1001.115625 
z
" clip-path="url(#p71340adb85)" style="fill: #fb9a99; opacity: 0.5; stroke: #ffffff; stroke-width: 2; stroke-linejoin: miter"/>
   </g>
   <g id="patch_89">
    <path d="M 682.580153 1001.115625 
L 695.257272 1001.115625 
L 695.257272 896.397619 
L 682.580153 896.397619 
z
" clip-path="url(#p71340adb85)" style="fill: #fb9a99; opacity: 0.5; stroke: #ffffff; stroke-width: 2; stroke-linejoin: miter"/>
   </g>
   <g id="patch_90">
    <path d="M 695.257272 1001.115625 
L 707.934391 1001.115625 
L 707.934391 948.756622 
L 695.257272 948.756622 
z
" clip-path="url(#p71340adb85)" style="fill: #fb9a99; opacity: 0.5; stroke: #ffffff; stroke-width: 2; stroke-linejoin: miter"/>
   </g>
   <g id="patch_91">
    <path d="M 34.975313 1001.115625 
L 34.975313 561.3 
" style="fill: none; stroke: #262626; stroke-width: 2.5; stroke-linejoin: miter; stroke-linecap: square"/>
   </g>
   <g id="patch_92">
    <path d="M 1380.000313 1001.115625 
L 1380.000313 561.3 
" style="fill: none; stroke: #262626; stroke-width: 2.5; stroke-linejoin: miter; stroke-linecap: square"/>
   </g>
   <g id="patch_93">
    <path d="M 34.975313 1001.115625 
L 1380.000313 1001.115625 
" style="fill: none; stroke: #262626; stroke-width: 2.5; stroke-linejoin: miter; stroke-linecap: square"/>
   </g>
   <g id="patch_94">
    <path d="M 34.975313 561.3 
L 1380.000313 561.3 
" style="fill: none; stroke: #262626; stroke-width: 2.5; stroke-linejoin: miter; stroke-linecap: square"/>
   </g>
   <g id="legend_2">
    <g id="patch_95">
     <path d="M 1154.785625 711.82125 
L 1364.600312 711.82125 
Q 1369.000313 711.82125 1369.000313 707.42125 
L 1369.000313 576.7 
Q 1369.000313 572.3 1364.600312 572.3 
L 1154.785625 572.3 
Q 1150.385625 572.3 1150.385625 576.7 
L 1150.385625 707.42125 
Q 1150.385625 711.82125 1154.785625 711.82125 
z
" style="fill: #ffffff; opacity: 0.8; stroke: #cccccc; stroke-width: 2; stroke-linejoin: miter"/>
    </g>
    <g id="patch_96">
     <path d="M 1159.185625 597.6 
L 1203.185625 597.6 
L 1203.185625 582.2 
L 1159.185625 582.2 
z
" style="fill: #a6cee3; opacity: 0.5; stroke: #ffffff; stroke-width: 2; stroke-linejoin: miter"/>
    </g>
    <g id="text_39">
     <!-- men -->
     <g style="fill: #262626" transform="translate(1220.785625 597.6) scale(0.22 -0.22)">
      <use xlink:href="#FiraSans-Regular-6d"/>
      <use xlink:href="#FiraSans-Regular-65" x="85.699982"/>
      <use xlink:href="#FiraSans-Regular-6e" x="140.199966"/>
     </g>
    </g>
    <g id="patch_97">
     <path d="M 1159.185625 629.785312 
L 1203.185625 629.785312 
L 1203.185625 614.385312 
L 1159.185625 614.385312 
z
" style="fill: #fb9a99; opacity: 0.5; stroke: #ffffff; stroke-width: 2; stroke-linejoin: miter"/>
    </g>
    <g id="text_40">
     <!-- women -->
     <g style="fill: #262626" transform="translate(1220.785625 629.785312) scale(0.22 -0.22)">
      <use xlink:href="#FiraSans-Regular-77"/>
      <use xlink:href="#FiraSans-Regular-6f" x="71.699982"/>
      <use xlink:href="#FiraSans-Regular-6d" x="130.099976"/>
      <use xlink:href="#FiraSans-Regular-65" x="215.799957"/>
      <use xlink:href="#FiraSans-Regular-6e" x="270.299942"/>
     </g>
    </g>
    <g id="line2d_67">
     <path d="M 1159.185625 656.360625 
L 1181.185625 656.360625 
L 1203.185625 656.360625 
" style="fill: none; stroke: #a6cee3; stroke-opacity: 0.5; stroke-width: 3; stroke-linecap: round"/>
    </g>
    <g id="text_41">
     <!-- men (right) -->
     <g style="fill: #262626" transform="translate(1220.785625 664.060625) scale(0.22 -0.22)">
      <use xlink:href="#FiraSans-Regular-6d"/>
      <use xlink:href="#FiraSans-Regular-65" x="85.699982"/>
      <use xlink:href="#FiraSans-Regular-6e" x="140.199966"/>
      <use xlink:href="#FiraSans-Regular-20" x="198.799957"/>
      <use xlink:href="#FiraSans-Regular-28" x="225.299942"/>
      <use xlink:href="#FiraSans-Regular-72" x="257.699936"/>
      <use xlink:href="#FiraSans-Regular-69" x="296.299927"/>
      <use xlink:href="#FiraSans-Regular-67" x="324.499924"/>
      <use xlink:href="#FiraSans-Regular-68" x="376.499908"/>
      <use xlink:href="#FiraSans-Regular-74" x="435.099899"/>
      <use xlink:href="#FiraSans-Regular-29" x="471.19989"/>
     </g>
    </g>
    <g id="line2d_68">
     <path d="M 1159.185625 690.635937 
L 1181.185625 690.635937 
L 1203.185625 690.635937 
" style="fill: none; stroke: #fb9a99; stroke-opacity: 0.5; stroke-width: 3; stroke-linecap: round"/>
    </g>
    <g id="text_42">
     <!-- women (right) -->
     <g style="fill: #262626" transform="translate(1220.785625 698.335937) scale(0.22 -0.22)">
      <use xlink:href="#FiraSans-Regular-77"/>
      <use xlink:href="#FiraSans-Regular-6f" x="71.699982"/>
      <use xlink:href="#FiraSans-Regular-6d" x="130.099976"/>
      <use xlink:href="#FiraSans-Regular-65" x="215.799957"/>
      <use xlink:href="#FiraSans-Regular-6e" x="270.299942"/>
      <use xlink:href="#FiraSans-Regular-20" x="328.899933"/>
      <use xlink:href="#FiraSans-Regular-28" x="355.399918"/>
      <use xlink:href="#FiraSans-Regular-72" x="387.799911"/>
      <use xlink:href="#FiraSans-Regular-69" x="426.399902"/>
      <use xlink:href="#FiraSans-Regular-67" x="454.599899"/>
      <use xlink:href="#FiraSans-Regular-68" x="506.599884"/>
      <use xlink:href="#FiraSans-Regular-74" x="565.199875"/>
      <use xlink:href="#FiraSans-Regular-29" x="601.299866"/>
     </g>
    </g>
   </g>
  </g>
  <g id="axes_3">
   <g id="matplotlib.axis_5">
    <g id="ytick_19">
     <g id="line2d_69">
      <defs>
       <path id="m78030274f8" d="M 0 0 
L 12 0 
" style="stroke: #262626; stroke-width: 2.5"/>
      </defs>
      <g>
       <use xlink:href="#m78030274f8" x="1380.000313" y="446.52625" style="fill: #262626; stroke: #262626; stroke-width: 2.5"/>
      </g>
     </g>
     <g id="text_43">
      <!-- 0.0 -->
      <g style="fill: #262626" transform="translate(1395.500313 454.77625) scale(0.22 -0.22)">
       <defs>
        <path id="FiraSans-Regular-2e" d="M 762 813 
Q 954 813 1082 685 
Q 1210 557 1210 371 
Q 1210 186 1082 54 
Q 954 -77 762 -77 
Q 576 -77 448 54 
Q 320 186 320 371 
Q 320 557 448 685 
Q 576 813 762 813 
z
" transform="scale(0.015625)"/>
       </defs>
       <use xlink:href="#FiraSans-Regular-30"/>
       <use xlink:href="#FiraSans-Regular-2e" x="55.799988"/>
       <use xlink:href="#FiraSans-Regular-30" x="79.799973"/>
      </g>
     </g>
    </g>
    <g id="ytick_20">
     <g id="line2d_70">
      <g>
       <use xlink:href="#m78030274f8" x="1380.000313" y="376.429578" style="fill: #262626; stroke: #262626; stroke-width: 2.5"/>
      </g>
     </g>
     <g id="text_44">
      <!-- 0.5 -->
      <g style="fill: #262626" transform="translate(1395.500313 384.679578) scale(0.22 -0.22)">
       <use xlink:href="#FiraSans-Regular-30"/>
       <use xlink:href="#FiraSans-Regular-2e" x="55.799988"/>
       <use xlink:href="#FiraSans-Regular-35" x="79.799973"/>
      </g>
     </g>
    </g>
    <g id="ytick_21">
     <g id="line2d_71">
      <g>
       <use xlink:href="#m78030274f8" x="1380.000313" y="306.332905" style="fill: #262626; stroke: #262626; stroke-width: 2.5"/>
      </g>
     </g>
     <g id="text_45">
      <!-- 1.0 -->
      <g style="fill: #262626" transform="translate(1395.500313 314.582905) scale(0.22 -0.22)">
       <use xlink:href="#FiraSans-Regular-31"/>
       <use xlink:href="#FiraSans-Regular-2e" x="43.299988"/>
       <use xlink:href="#FiraSans-Regular-30" x="67.299973"/>
      </g>
     </g>
    </g>
    <g id="ytick_22">
     <g id="line2d_72">
      <g>
       <use xlink:href="#m78030274f8" x="1380.000313" y="236.236232" style="fill: #262626; stroke: #262626; stroke-width: 2.5"/>
      </g>
     </g>
     <g id="text_46">
      <!-- 1.5 -->
      <g style="fill: #262626" transform="translate(1395.500313 244.486232) scale(0.22 -0.22)">
       <use xlink:href="#FiraSans-Regular-31"/>
       <use xlink:href="#FiraSans-Regular-2e" x="43.299988"/>
       <use xlink:href="#FiraSans-Regular-35" x="67.299973"/>
      </g>
     </g>
    </g>
    <g id="ytick_23">
     <g id="line2d_73">
      <g>
       <use xlink:href="#m78030274f8" x="1380.000313" y="166.139559" style="fill: #262626; stroke: #262626; stroke-width: 2.5"/>
      </g>
     </g>
     <g id="text_47">
      <!-- 2.0 -->
      <g style="fill: #262626" transform="translate(1395.500313 174.389559) scale(0.22 -0.22)">
       <use xlink:href="#FiraSans-Regular-32"/>
       <use xlink:href="#FiraSans-Regular-2e" x="49.499985"/>
       <use xlink:href="#FiraSans-Regular-30" x="73.499969"/>
      </g>
     </g>
    </g>
    <g id="ytick_24">
     <g id="line2d_74">
      <g>
       <use xlink:href="#m78030274f8" x="1380.000313" y="96.042886" style="fill: #262626; stroke: #262626; stroke-width: 2.5"/>
      </g>
     </g>
     <g id="text_48">
      <!-- 2.5 -->
      <g style="fill: #262626" transform="translate(1395.500313 104.292886) scale(0.22 -0.22)">
       <use xlink:href="#FiraSans-Regular-32"/>
       <use xlink:href="#FiraSans-Regular-2e" x="49.499985"/>
       <use xlink:href="#FiraSans-Regular-35" x="73.499969"/>
      </g>
     </g>
    </g>
    <g id="text_49">
     <!-- 1e−5 -->
     <g style="fill: #262626" transform="translate(1336.464375 23.7) scale(0.22 -0.22)">
      <use xlink:href="#FiraSans-Regular-31"/>
      <use xlink:href="#FiraSans-Regular-65" x="43.299988"/>
      <use xlink:href="#FiraSans-Regular-2212" x="97.799973"/>
      <use xlink:href="#FiraSans-Regular-35" x="147.799957"/>
     </g>
    </g>
   </g>
   <g id="line2d_75">
    <path d="M 126.484878 446.521669 
L 182.680224 446.393067 
L 203.615745 446.136911 
L 217.940048 445.759891 
L 230.060613 445.214925 
L 239.977439 444.540197 
L 248.792395 443.706096 
L 256.505482 442.747144 
L 263.116699 441.719992 
L 269.727916 440.47216 
L 276.339133 438.973093 
L 281.848481 437.509992 
L 287.357828 435.834378 
L 292.867176 433.930592 
L 298.376523 431.784859 
L 303.885871 429.385958 
L 309.395219 426.725909 
L 314.904566 423.800653 
L 320.413914 420.610682 
L 325.923261 417.161609 
L 331.432609 413.464615 
L 338.043826 408.725429 
L 344.655043 403.695108 
L 352.36813 397.530183 
L 362.284956 389.298738 
L 379.914868 374.613801 
L 387.627954 368.519434 
L 394.239172 363.609376 
L 399.748519 359.800438 
L 405.257867 356.292533 
L 409.665345 353.726543 
L 414.072823 351.390069 
L 418.480301 349.294305 
L 422.887779 347.446939 
L 427.295257 345.852007 
L 431.702735 344.509815 
L 436.110213 343.416951 
L 440.517691 342.566365 
L 444.92517 341.947528 
L 449.332648 341.546668 
L 453.740126 341.347058 
L 459.249473 341.350886 
L 464.758821 341.596297 
L 471.370038 342.143865 
L 479.083125 343.023237 
L 503.324254 345.98649 
L 509.935471 346.485855 
L 515.444819 346.70557 
L 520.954167 346.713042 
L 526.463514 346.481107 
L 531.972862 345.986515 
L 536.38034 345.388335 
L 540.787818 344.600581 
L 545.195296 343.615484 
L 549.602774 342.426046 
L 554.010252 341.02583 
L 558.41773 339.408758 
L 562.825208 337.56893 
L 567.232686 335.500471 
L 571.640164 333.197419 
L 576.047643 330.653643 
L 580.455121 327.862819 
L 584.862599 324.818443 
L 589.270077 321.513898 
L 593.677555 317.942563 
L 598.085033 314.097967 
L 602.492511 309.973986 
L 606.899989 305.565064 
L 611.307467 300.866471 
L 615.714945 295.874575 
L 620.122423 290.587122 
L 624.529901 285.003523 
L 628.93738 279.125128 
L 634.446727 271.368217 
L 639.956075 263.16875 
L 645.465422 254.545585 
L 650.97477 245.524524 
L 657.585987 234.220966 
L 664.197204 222.46289 
L 671.910291 208.284546 
L 681.827117 189.570831 
L 702.762637 149.927609 
L 710.475724 135.874439 
L 717.086941 124.294881 
L 722.596289 115.056872 
L 728.105636 106.253828 
L 733.614984 97.936389 
L 738.022462 91.661953 
L 742.42994 85.746213 
L 746.837418 80.206046 
L 751.244896 75.055813 
L 755.652374 70.30759 
L 760.059853 65.971475 
L 763.365461 62.994985 
L 766.67107 60.258212 
L 769.976678 57.763992 
L 773.282287 55.514985 
L 776.587895 53.513787 
L 779.893504 51.76303 
L 783.199112 50.265476 
L 786.504721 49.02411 
L 789.81033 48.042207 
L 793.115938 47.3234 
L 796.421547 46.871719 
L 799.727155 46.691619 
L 803.032764 46.787986 
L 806.338372 47.166117 
L 809.643981 47.831688 
L 812.949589 48.790688 
L 816.255198 50.049344 
L 819.560807 51.614013 
L 822.866415 53.491068 
L 826.172024 55.686758 
L 829.477632 58.207052 
L 832.783241 61.057485 
L 836.088849 64.242981 
L 839.394458 67.767677 
L 842.700067 71.634751 
L 846.005675 75.846249 
L 849.311284 80.402915 
L 852.616892 85.304044 
L 855.922501 90.547335 
L 859.228109 96.128777 
L 863.635587 104.086371 
L 868.043066 112.61549 
L 872.450544 121.690929 
L 876.858022 131.281307 
L 881.2655 141.349192 
L 886.774847 154.539253 
L 892.284195 168.311758 
L 898.895412 185.456525 
L 907.710368 209.032361 
L 929.747759 268.423883 
L 936.358976 285.525612 
L 942.970193 301.974876 
L 948.479541 315.07874 
L 953.988888 327.559115 
L 958.396366 337.057015 
L 962.803844 346.098745 
L 967.211322 354.668447 
L 971.6188 362.755829 
L 976.026279 370.355878 
L 980.433757 377.46849 
L 984.841235 384.098051 
L 989.248713 390.252963 
L 993.656191 395.945141 
L 998.063669 401.18951 
L 1002.471147 406.003479 
L 1006.878625 410.406451 
L 1011.286103 414.41934 
L 1015.693581 418.064123 
L 1020.101059 421.363432 
L 1024.508537 424.340185 
L 1028.916016 427.017258 
L 1033.323494 429.417214 
L 1037.730972 431.562058 
L 1042.13845 433.473056 
L 1046.545928 435.170577 
L 1052.055275 437.021668 
L 1057.564623 438.604782 
L 1063.073971 439.952535 
L 1068.583318 441.094698 
L 1075.194535 442.231672 
L 1081.805753 443.152664 
L 1089.518839 444.001995 
L 1098.333795 444.734755 
L 1108.250621 445.326381 
L 1120.371186 445.80752 
L 1134.69549 446.146947 
L 1154.529141 446.37928 
L 1186.483357 446.499174 
L 1227.252529 446.523963 
L 1227.252529 446.523963 
" clip-path="url(#p3333fbb597)" style="fill: none; stroke: #a6cee3; stroke-opacity: 0.5; stroke-width: 3; stroke-linecap: round"/>
   </g>
   <g id="line2d_76">
    <path d="M 96.112813 446.521554 
L 158.535485 446.394816 
L 183.014965 446.126139 
L 198.926626 445.747798 
L 212.39034 445.206869 
L 223.406106 444.543091 
L 233.197898 443.72866 
L 241.765715 442.798404 
L 250.333533 441.623006 
L 257.677377 440.38826 
L 265.021221 438.915104 
L 271.141091 437.486244 
L 277.260961 435.859092 
L 283.380831 434.020747 
L 289.5007 431.960328 
L 295.62057 429.669569 
L 301.74044 427.143409 
L 307.86031 424.380558 
L 313.98018 421.384009 
L 320.10005 418.161461 
L 327.443894 414.014361 
L 334.787737 409.592285 
L 343.355555 404.14308 
L 353.147347 397.638544 
L 381.298748 378.720551 
L 388.642592 374.106777 
L 395.986436 369.769832 
L 402.106306 366.413839 
L 408.226176 363.326834 
L 414.346046 360.534901 
L 419.241942 358.527126 
L 424.137838 356.727481 
L 429.033733 355.139602 
L 433.929629 353.764035 
L 438.825525 352.598259 
L 443.721421 351.636779 
L 448.617317 350.871277 
L 454.737187 350.173114 
L 460.857057 349.737489 
L 466.976927 349.533184 
L 474.32077 349.54395 
L 482.888588 349.826612 
L 493.904354 350.451553 
L 514.711912 351.6978 
L 523.279729 351.986491 
L 530.623573 352.04177 
L 537.967417 351.87811 
L 545.311261 351.461836 
L 551.431131 350.900699 
L 557.551001 350.128349 
L 563.670871 349.130279 
L 569.79074 347.892251 
L 575.91061 346.399775 
L 582.03048 344.637686 
L 586.926376 343.023086 
L 591.822272 341.216846 
L 596.718168 339.209726 
L 601.614064 336.992066 
L 606.50996 334.553887 
L 611.405856 331.885027 
L 616.301751 328.97532 
L 621.197647 325.814816 
L 626.093543 322.394035 
L 630.989439 318.704239 
L 635.885335 314.737733 
L 640.781231 310.488165 
L 645.677127 305.95084 
L 650.573023 301.123011 
L 655.468919 296.004171 
L 660.364815 290.596302 
L 665.26071 284.904106 
L 671.38058 277.400895 
L 677.50045 269.487059 
L 683.62032 261.191751 
L 689.74019 252.551734 
L 697.084034 241.791323 
L 705.651852 228.810602 
L 717.891591 209.783086 
L 735.027227 183.122469 
L 743.595045 170.207565 
L 750.938889 159.548823 
L 757.058758 151.038957 
L 763.178628 142.928024 
L 768.074524 136.760476 
L 772.97042 130.903177 
L 777.866316 125.375987 
L 782.762212 120.195965 
L 787.658108 115.377467 
L 792.554004 110.932322 
L 797.4499 106.870092 
L 801.121822 104.07935 
L 804.793743 101.510928 
L 808.465665 99.167038 
L 812.137587 97.0496 
L 815.809509 95.160339 
L 819.481431 93.500891 
L 823.153353 92.072904 
L 826.825275 90.878132 
L 830.497197 89.918517 
L 834.169119 89.196265 
L 837.841041 88.713903 
L 841.512963 88.474328 
L 845.184885 88.480824 
L 848.856806 88.737079 
L 852.528728 89.247164 
L 856.20065 90.015506 
L 859.872572 91.04683 
L 863.544494 92.34609 
L 867.216416 93.918371 
L 870.888338 95.76879 
L 874.56026 97.902359 
L 878.232182 100.323861 
L 881.904104 103.037694 
L 885.576026 106.04772 
L 889.247948 109.357108 
L 892.91987 112.968177 
L 896.591791 116.882241 
L 900.263713 121.099462 
L 903.935635 125.618714 
L 907.607557 130.437462 
L 911.279479 135.551654 
L 916.175375 142.820143 
L 921.071271 150.585592 
L 925.967167 158.824567 
L 930.863063 167.508214 
L 935.758959 176.602402 
L 941.878829 188.487412 
L 947.998698 200.866102 
L 955.342542 216.236835 
L 965.134334 237.311303 
L 987.165866 284.974505 
L 994.509709 300.289657 
L 1000.629579 312.633011 
L 1006.749449 324.51159 
L 1012.869319 335.85911 
L 1017.765215 344.518074 
L 1022.661111 352.780563 
L 1027.557007 360.629916 
L 1032.452903 368.054503 
L 1037.348798 375.047515 
L 1042.244694 381.60667 
L 1047.14059 387.733867 
L 1052.036486 393.434787 
L 1056.932382 398.718463 
L 1061.828278 403.596828 
L 1066.724174 408.084259 
L 1071.62007 412.197128 
L 1076.515966 415.953364 
L 1081.411862 419.372043 
L 1086.307757 422.473004 
L 1091.203653 425.276502 
L 1096.099549 427.802903 
L 1100.995445 430.072413 
L 1105.891341 432.104847 
L 1110.787237 433.919445 
L 1115.683133 435.534716 
L 1121.803003 437.30032 
L 1127.922873 438.814433 
L 1134.042742 440.107047 
L 1141.386586 441.404317 
L 1148.73043 442.464775 
L 1157.298248 443.452624 
L 1165.866066 444.220774 
L 1175.657858 444.885061 
L 1187.897597 445.471666 
L 1202.585285 445.922328 
L 1220.944895 446.23811 
L 1246.648348 446.432382 
L 1293.159359 446.516859 
L 1318.862813 446.524006 
L 1318.862813 446.524006 
" clip-path="url(#p3333fbb597)" style="fill: none; stroke: #fb9a99; stroke-opacity: 0.5; stroke-width: 3; stroke-linecap: round"/>
   </g>
   <g id="patch_98">
    <path d="M 34.975313 466.515625 
L 34.975313 26.7 
" style="fill: none; stroke: #262626; stroke-width: 2.5; stroke-linejoin: miter; stroke-linecap: square"/>
   </g>
   <g id="patch_99">
    <path d="M 1380.000313 466.515625 
L 1380.000313 26.7 
" style="fill: none; stroke: #262626; stroke-width: 2.5; stroke-linejoin: miter; stroke-linecap: square"/>
   </g>
   <g id="patch_100">
    <path d="M 34.975313 466.515625 
L 1380.000313 466.515625 
" style="fill: none; stroke: #262626; stroke-width: 2.5; stroke-linejoin: miter; stroke-linecap: square"/>
   </g>
   <g id="patch_101">
    <path d="M 34.975313 26.7 
L 1380.000313 26.7 
" style="fill: none; stroke: #262626; stroke-width: 2.5; stroke-linejoin: miter; stroke-linecap: square"/>
   </g>
  </g>
  <g id="axes_4">
   <g id="matplotlib.axis_6">
    <g id="ytick_25">
     <g id="line2d_77">
      <g>
       <use xlink:href="#m78030274f8" x="1380.000313" y="981.234791" style="fill: #262626; stroke: #262626; stroke-width: 2.5"/>
      </g>
     </g>
     <g id="text_50">
      <!-- 0 -->
      <g style="fill: #262626" transform="translate(1395.500313 989.484791) scale(0.22 -0.22)">
       <use xlink:href="#FiraSans-Regular-30"/>
      </g>
     </g>
    </g>
    <g id="ytick_26">
     <g id="line2d_78">
      <g>
       <use xlink:href="#m78030274f8" x="1380.000313" y="906.809125" style="fill: #262626; stroke: #262626; stroke-width: 2.5"/>
      </g>
     </g>
     <g id="text_51">
      <!-- 1 -->
      <g style="fill: #262626" transform="translate(1395.500313 915.059125) scale(0.22 -0.22)">
       <use xlink:href="#FiraSans-Regular-31"/>
      </g>
     </g>
    </g>
    <g id="ytick_27">
     <g id="line2d_79">
      <g>
       <use xlink:href="#m78030274f8" x="1380.000313" y="832.383459" style="fill: #262626; stroke: #262626; stroke-width: 2.5"/>
      </g>
     </g>
     <g id="text_52">
      <!-- 2 -->
      <g style="fill: #262626" transform="translate(1395.500313 840.633459) scale(0.22 -0.22)">
       <use xlink:href="#FiraSans-Regular-32"/>
      </g>
     </g>
    </g>
    <g id="ytick_28">
     <g id="line2d_80">
      <g>
       <use xlink:href="#m78030274f8" x="1380.000313" y="757.957793" style="fill: #262626; stroke: #262626; stroke-width: 2.5"/>
      </g>
     </g>
     <g id="text_53">
      <!-- 3 -->
      <g style="fill: #262626" transform="translate(1395.500313 766.207793) scale(0.22 -0.22)">
       <use xlink:href="#FiraSans-Regular-33"/>
      </g>
     </g>
    </g>
    <g id="ytick_29">
     <g id="line2d_81">
      <g>
       <use xlink:href="#m78030274f8" x="1380.000313" y="683.532127" style="fill: #262626; stroke: #262626; stroke-width: 2.5"/>
      </g>
     </g>
     <g id="text_54">
      <!-- 4 -->
      <g style="fill: #262626" transform="translate(1395.500313 691.782127) scale(0.22 -0.22)">
       <use xlink:href="#FiraSans-Regular-34"/>
      </g>
     </g>
    </g>
    <g id="ytick_30">
     <g id="line2d_82">
      <g>
       <use xlink:href="#m78030274f8" x="1380.000313" y="609.10646" style="fill: #262626; stroke: #262626; stroke-width: 2.5"/>
      </g>
     </g>
     <g id="text_55">
      <!-- 5 -->
      <g style="fill: #262626" transform="translate(1395.500313 617.35646) scale(0.22 -0.22)">
       <use xlink:href="#FiraSans-Regular-35"/>
      </g>
     </g>
    </g>
    <g id="text_56">
     <!-- 1e−5 -->
     <g style="fill: #262626" transform="translate(1336.464375 558.3) scale(0.22 -0.22)">
      <use xlink:href="#FiraSans-Regular-31"/>
      <use xlink:href="#FiraSans-Regular-65" x="43.299988"/>
      <use xlink:href="#FiraSans-Regular-2212" x="97.799973"/>
      <use xlink:href="#FiraSans-Regular-35" x="147.799957"/>
     </g>
    </g>
   </g>
   <g id="line2d_83">
    <path d="M 342.880501 981.082637 
L 352.703337 980.811865 
L 359.847218 980.394698 
L 365.205129 979.872675 
L 369.670054 979.238536 
L 373.688487 978.463199 
L 377.260428 977.570782 
L 380.832368 976.447596 
L 383.957816 975.243379 
L 387.083264 973.802564 
L 390.208712 972.096214 
L 392.887667 970.40074 
L 395.566622 968.472306 
L 398.245578 966.295255 
L 400.924533 963.855784 
L 403.603488 961.142449 
L 406.282444 958.146631 
L 409.407892 954.287478 
L 412.53334 950.034182 
L 415.658787 945.391227 
L 418.784235 940.370065 
L 422.356176 934.191942 
L 425.928116 927.579829 
L 429.946549 919.677215 
L 434.411475 910.401536 
L 439.769386 898.712616 
L 446.020281 884.485564 
L 453.164162 867.628311 
L 460.308043 850.190506 
L 467.005432 833.24391 
L 473.256327 816.807816 
L 479.507223 799.732693 
L 486.651104 779.532079 
L 507.189762 720.908302 
L 512.547672 706.541892 
L 517.459091 693.957932 
L 522.370509 681.94002 
L 527.728419 669.407613 
L 533.979315 655.383958 
L 541.123196 639.906196 
L 548.267077 624.930546 
L 553.624988 614.193854 
L 557.643421 606.61118 
L 560.768869 601.117354 
L 563.894317 596.084284 
L 566.573272 592.217373 
L 568.805735 589.362494 
L 571.038197 586.88336 
L 572.824168 585.195709 
L 574.610138 583.790289 
L 576.396108 582.683516 
L 578.182078 581.89007 
L 579.521556 581.508312 
L 580.861034 581.314507 
L 582.200511 581.312432 
L 583.539989 581.505073 
L 584.879467 581.894591 
L 586.218944 582.482302 
L 587.558422 583.268665 
L 589.344392 584.625344 
L 591.130363 586.331049 
L 592.916333 588.379823 
L 594.702303 590.763182 
L 596.488273 593.470272 
L 598.720736 597.289348 
L 600.953199 601.564138 
L 603.632154 607.248003 
L 606.31111 613.476228 
L 609.436557 621.340716 
L 613.008498 630.984493 
L 617.026931 642.482338 
L 622.384842 658.547334 
L 629.975215 682.08925 
L 642.477007 721.659886 
L 651.85335 752.020665 
L 659.443724 777.349746 
L 667.927082 806.496877 
L 684.000815 861.974577 
L 689.358725 879.470145 
L 693.823651 893.259574 
L 697.842084 904.902698 
L 701.414024 914.554023 
L 704.539472 922.413442 
L 707.66492 929.698527 
L 710.790368 936.393671 
L 713.469323 941.658651 
L 716.148279 946.488854 
L 718.827234 950.891829 
L 721.506189 954.879573 
L 724.185145 958.467954 
L 726.8641 961.67608 
L 729.543055 964.525638 
L 732.222011 967.040241 
L 734.900966 969.244796 
L 737.579921 971.164899 
L 740.258877 972.826299 
L 742.937832 974.254416 
L 746.06328 975.658578 
L 749.188728 976.816068 
L 752.760668 977.881327 
L 756.332609 978.716894 
L 760.351042 979.434197 
L 764.815967 980.014152 
L 770.173878 980.486382 
L 776.871266 980.842772 
L 785.801118 981.079137 
L 788.926566 981.124006 
L 788.926566 981.124006 
" clip-path="url(#p71340adb85)" style="fill: none; stroke: #a6cee3; stroke-opacity: 0.5; stroke-width: 3; stroke-linecap: round"/>
   </g>
   <g id="line2d_84">
    <path d="M 328.989069 981.046682 
L 340.115926 980.744848 
L 348.208185 980.301459 
L 354.277379 979.763672 
L 359.840807 979.049027 
L 364.392703 978.257569 
L 368.944599 977.233178 
L 372.990728 976.087513 
L 376.531092 974.873111 
L 380.071455 973.433544 
L 383.611818 971.742111 
L 387.152182 969.772156 
L 390.186779 967.84227 
L 393.221376 965.673227 
L 396.255973 963.250728 
L 399.29057 960.562011 
L 402.325168 957.596192 
L 405.359765 954.34459 
L 408.394362 950.801006 
L 411.934725 946.293286 
L 415.475089 941.382894 
L 419.015452 936.07469 
L 422.555815 930.378981 
L 426.601945 923.415264 
L 430.648075 915.996746 
L 435.19997 907.15486 
L 440.257632 896.788719 
L 445.82106 884.838243 
L 452.396021 870.155711 
L 462.005579 848.060136 
L 476.672798 814.310721 
L 483.753525 798.604427 
L 489.822719 785.699072 
L 494.880381 775.43889 
L 499.938043 765.69462 
L 504.489939 757.402593 
L 509.041835 749.581073 
L 513.59373 742.230424 
L 518.145626 735.333811 
L 522.697522 728.857879 
L 527.249418 722.755071 
L 532.30708 716.341268 
L 538.376274 709.037554 
L 545.457001 700.883832 
L 554.560792 690.755399 
L 562.653051 682.064922 
L 568.216479 676.378741 
L 572.768375 672.015338 
L 576.814505 668.444502 
L 580.354868 665.624892 
L 583.389465 663.480684 
L 586.424062 661.626883 
L 588.952893 660.329684 
L 591.481724 659.278522 
L 594.010555 658.491482 
L 596.03362 658.062997 
L 598.056685 657.821289 
L 600.07975 657.772661 
L 602.102814 657.922326 
L 604.125879 658.274337 
L 606.148944 658.831538 
L 608.172009 659.59553 
L 610.195074 660.566657 
L 612.218138 661.744016 
L 614.746969 663.502375 
L 617.2758 665.572839 
L 619.804631 667.946016 
L 622.333462 670.610115 
L 625.368059 674.171404 
L 628.402657 678.104446 
L 631.437254 682.379635 
L 634.977617 687.758409 
L 639.023747 694.36067 
L 643.069876 701.380675 
L 647.621772 709.698753 
L 653.1852 720.367428 
L 659.254394 732.535312 
L 665.323589 745.200336 
L 671.392783 758.360857 
L 677.461977 772.049082 
L 683.531172 786.30084 
L 689.600366 801.124075 
L 696.175327 817.772022 
L 704.773352 840.203539 
L 718.429039 875.896252 
L 723.992467 889.819513 
L 729.050129 901.872296 
L 733.096259 910.990282 
L 737.142388 919.568242 
L 740.682752 926.588028 
L 744.223115 933.125739 
L 747.763478 939.163574 
L 750.798076 943.934166 
L 753.832673 948.330617 
L 756.86727 952.357003 
L 759.901867 956.021422 
L 762.936464 959.335536 
L 765.971061 962.314048 
L 769.005659 964.974152 
L 772.040256 967.334978 
L 775.074853 969.417048 
L 778.10945 971.241747 
L 781.144047 972.830853 
L 784.684411 974.416016 
L 788.224774 975.743811 
L 791.765137 976.846534 
L 795.811267 977.870004 
L 800.363163 978.768839 
L 805.420825 979.514961 
L 810.984253 980.098889 
L 817.559213 980.556272 
L 825.651472 980.888193 
L 834.249498 981.072624 
L 834.249498 981.072624 
" clip-path="url(#p71340adb85)" style="fill: none; stroke: #fb9a99; stroke-opacity: 0.5; stroke-width: 3; stroke-linecap: round"/>
   </g>
   <g id="patch_102">
    <path d="M 34.975313 1001.115625 
L 34.975313 561.3 
" style="fill: none; stroke: #262626; stroke-width: 2.5; stroke-linejoin: miter; stroke-linecap: square"/>
   </g>
   <g id="patch_103">
    <path d="M 1380.000313 1001.115625 
L 1380.000313 561.3 
" style="fill: none; stroke: #262626; stroke-width: 2.5; stroke-linejoin: miter; stroke-linecap: square"/>
   </g>
   <g id="patch_104">
    <path d="M 34.975313 1001.115625 
L 1380.000313 1001.115625 
" style="fill: none; stroke: #262626; stroke-width: 2.5; stroke-linejoin: miter; stroke-linecap: square"/>
   </g>
   <g id="patch_105">
    <path d="M 34.975313 561.3 
L 1380.000313 561.3 
" style="fill: none; stroke: #262626; stroke-width: 2.5; stroke-linejoin: miter; stroke-linecap: square"/>
   </g>
  </g>
 </g>
 <defs>
  <clipPath id="p3333fbb597">
   <rect x="34.975313" y="26.7" width="1345.025" height="439.815625"/>
  </clipPath>
  <clipPath id="p71340adb85">
   <rect x="34.975313" y="561.3" width="1345.025" height="439.815625"/>
  </clipPath>
 </defs>
</svg>
