<?xml version="1.0" encoding="utf-8" standalone="no"?>
<!DOCTYPE svg PUBLIC "-//W3C//DTD SVG 1.1//EN"
  "http://www.w3.org/Graphics/SVG/1.1/DTD/svg11.dtd">
<svg xmlns:xlink="http://www.w3.org/1999/xlink" width="1127.56pt" height="431.605312pt" viewBox="0 0 1127.56 431.605312" xmlns="http://www.w3.org/2000/svg" version="1.1">
 <metadata>
  <rdf:RDF xmlns:dc="http://purl.org/dc/elements/1.1/" xmlns:cc="http://creativecommons.org/ns#" xmlns:rdf="http://www.w3.org/1999/02/22-rdf-syntax-ns#">
   <cc:Work>
    <dc:type rdf:resource="http://purl.org/dc/dcmitype/StillImage"/>
    <dc:date>2022-12-11T12:11:53.170093</dc:date>
    <dc:format>image/svg+xml</dc:format>
    <dc:creator>
     <cc:Agent>
      <dc:title>Matplotlib v3.6.1, https://matplotlib.org/</dc:title>
     </cc:Agent>
    </dc:creator>
   </cc:Work>
  </rdf:RDF>
 </metadata>
 <defs>
  <style type="text/css">*{stroke-linejoin: round; stroke-linecap: butt}</style>
 </defs>
 <g id="figure_1">
  <g id="patch_1">
   <path d="M 0 431.605312 
L 1127.56 431.605312 
L 1127.56 0 
L 0 0 
L 0 431.605312 
z
" style="fill: none"/>
  </g>
  <g id="axes_1">
   <g id="patch_2">
    <path d="M 283.36 387.72 
L 1120.36 387.72 
L 1120.36 7.2 
L 283.36 7.2 
z
" style="fill: #ffffff"/>
   </g>
   <g id="matplotlib.axis_1">
    <g id="xtick_1">
     <g id="line2d_1">
      <path d="M 283.36 387.72 
L 283.36 7.2 
" clip-path="url(#p35caa0f19a)" style="fill: none; stroke: #cccccc; stroke-width: 2; stroke-linecap: round"/>
     </g>
     <g id="line2d_2">
      <defs>
       <path id="mfc2acab902" d="M 0 0 
L 0 12 
" style="stroke: #262626; stroke-width: 2.5"/>
      </defs>
      <g>
       <use xlink:href="#mfc2acab902" x="283.36" y="387.72" style="fill: #262626; stroke: #262626; stroke-width: 2.5"/>
      </g>
     </g>
     <g id="text_1">
      <!-- 0 -->
      <g style="fill: #262626" transform="translate(277.222344 419.72) scale(0.22 -0.22)">
       <defs>
        <path id="FiraSans-Regular-30" d="M 1786 4346 
Q 2496 4346 2857 3779 
Q 3219 3213 3219 2138 
Q 3219 1062 2857 492 
Q 2496 -77 1786 -77 
Q 1075 -77 713 492 
Q 352 1062 352 2138 
Q 352 3213 713 3779 
Q 1075 4346 1786 4346 
z
M 1786 3878 
Q 1370 3878 1168 3468 
Q 966 3059 966 2138 
Q 966 1216 1168 803 
Q 1370 390 1786 390 
Q 2195 390 2400 803 
Q 2605 1216 2605 2138 
Q 2605 3053 2400 3465 
Q 2195 3878 1786 3878 
z
" transform="scale(0.015625)"/>
       </defs>
       <use xlink:href="#FiraSans-Regular-30"/>
      </g>
     </g>
    </g>
    <g id="xtick_2">
     <g id="line2d_3">
      <path d="M 456.651925 387.72 
L 456.651925 7.2 
" clip-path="url(#p35caa0f19a)" style="fill: none; stroke: #cccccc; stroke-width: 2; stroke-linecap: round"/>
     </g>
     <g id="line2d_4">
      <g>
       <use xlink:href="#mfc2acab902" x="456.651925" y="387.72" style="fill: #262626; stroke: #262626; stroke-width: 2.5"/>
      </g>
     </g>
     <g id="text_2">
      <!-- 10 -->
      <g style="fill: #262626" transform="translate(445.751613 419.72) scale(0.22 -0.22)">
       <defs>
        <path id="FiraSans-Regular-31" d="M 2067 4282 
L 2067 0 
L 1478 0 
L 1478 3654 
L 480 3046 
L 224 3462 
L 1549 4282 
L 2067 4282 
z
" transform="scale(0.015625)"/>
       </defs>
       <use xlink:href="#FiraSans-Regular-31"/>
       <use xlink:href="#FiraSans-Regular-30" x="43.299988"/>
      </g>
     </g>
    </g>
    <g id="xtick_3">
     <g id="line2d_5">
      <path d="M 629.943851 387.72 
L 629.943851 7.2 
" clip-path="url(#p35caa0f19a)" style="fill: none; stroke: #cccccc; stroke-width: 2; stroke-linecap: round"/>
     </g>
     <g id="line2d_6">
      <g>
       <use xlink:href="#mfc2acab902" x="629.943851" y="387.72" style="fill: #262626; stroke: #262626; stroke-width: 2.5"/>
      </g>
     </g>
     <g id="text_3">
      <!-- 20 -->
      <g style="fill: #262626" transform="translate(618.361195 419.72) scale(0.22 -0.22)">
       <defs>
        <path id="FiraSans-Regular-32" d="M 1459 4346 
Q 1843 4346 2134 4192 
Q 2426 4038 2586 3772 
Q 2746 3507 2746 3174 
Q 2746 2784 2570 2425 
Q 2394 2067 2029 1651 
Q 1664 1235 922 493 
L 2848 493 
L 2778 0 
L 250 0 
L 250 467 
Q 1107 1357 1465 1769 
Q 1824 2182 1977 2489 
Q 2131 2797 2131 3149 
Q 2131 3482 1939 3670 
Q 1747 3859 1427 3859 
Q 1165 3859 966 3750 
Q 768 3642 544 3392 
L 160 3699 
Q 422 4026 742 4186 
Q 1062 4346 1459 4346 
z
" transform="scale(0.015625)"/>
       </defs>
       <use xlink:href="#FiraSans-Regular-32"/>
       <use xlink:href="#FiraSans-Regular-30" x="49.499985"/>
      </g>
     </g>
    </g>
    <g id="xtick_4">
     <g id="line2d_7">
      <path d="M 803.235776 387.72 
L 803.235776 7.2 
" clip-path="url(#p35caa0f19a)" style="fill: none; stroke: #cccccc; stroke-width: 2; stroke-linecap: round"/>
     </g>
     <g id="line2d_8">
      <g>
       <use xlink:href="#mfc2acab902" x="803.235776" y="387.72" style="fill: #262626; stroke: #262626; stroke-width: 2.5"/>
      </g>
     </g>
     <g id="text_4">
      <!-- 30 -->
      <g style="fill: #262626" transform="translate(791.608433 419.72) scale(0.22 -0.22)">
       <defs>
        <path id="FiraSans-Regular-33" d="M 1440 4346 
Q 1837 4346 2121 4198 
Q 2406 4051 2556 3801 
Q 2707 3552 2707 3258 
Q 2707 2867 2480 2614 
Q 2253 2362 1875 2272 
Q 2304 2234 2573 1965 
Q 2842 1696 2842 1235 
Q 2842 864 2662 563 
Q 2483 262 2150 92 
Q 1818 -77 1382 -77 
Q 992 -77 665 67 
Q 339 211 96 499 
L 448 826 
Q 659 608 880 505 
Q 1101 403 1363 403 
Q 1766 403 1996 630 
Q 2227 858 2227 1242 
Q 2227 1664 2009 1837 
Q 1792 2010 1376 2010 
L 1056 2010 
L 1126 2464 
L 1344 2464 
Q 1677 2464 1897 2662 
Q 2118 2861 2118 3219 
Q 2118 3520 1926 3696 
Q 1734 3872 1408 3872 
Q 1158 3872 950 3782 
Q 742 3693 525 3488 
L 218 3840 
Q 762 4346 1440 4346 
z
" transform="scale(0.015625)"/>
       </defs>
       <use xlink:href="#FiraSans-Regular-33"/>
       <use xlink:href="#FiraSans-Regular-30" x="49.899994"/>
      </g>
     </g>
    </g>
    <g id="xtick_5">
     <g id="line2d_9">
      <path d="M 976.527702 387.72 
L 976.527702 7.2 
" clip-path="url(#p35caa0f19a)" style="fill: none; stroke: #cccccc; stroke-width: 2; stroke-linecap: round"/>
     </g>
     <g id="line2d_10">
      <g>
       <use xlink:href="#mfc2acab902" x="976.527702" y="387.72" style="fill: #262626; stroke: #262626; stroke-width: 2.5"/>
      </g>
     </g>
     <g id="text_5">
      <!-- 40 -->
      <g style="fill: #262626" transform="translate(964.537702 419.72) scale(0.22 -0.22)">
       <defs>
        <path id="FiraSans-Regular-34" d="M 3213 1523 
L 3213 1056 
L 2656 1056 
L 2656 0 
L 2086 0 
L 2086 1056 
L 256 1056 
L 256 1478 
L 1542 4346 
L 2035 4141 
L 877 1523 
L 2093 1523 
L 2144 2675 
L 2656 2675 
L 2656 1523 
L 3213 1523 
z
" transform="scale(0.015625)"/>
       </defs>
       <use xlink:href="#FiraSans-Regular-34"/>
       <use xlink:href="#FiraSans-Regular-30" x="53.199997"/>
      </g>
     </g>
    </g>
   </g>
   <g id="matplotlib.axis_2">
    <g id="ytick_1">
     <g id="line2d_11">
      <path d="M 283.36 368.694 
L 1120.36 368.694 
" clip-path="url(#p35caa0f19a)" style="fill: none; stroke: #cccccc; stroke-width: 2; stroke-linecap: round"/>
     </g>
     <g id="line2d_12">
      <defs>
       <path id="mc7a5fc98c6" d="M 0 0 
L -12 0 
" style="stroke: #262626; stroke-width: 2.5"/>
      </defs>
      <g>
       <use xlink:href="#mc7a5fc98c6" x="283.36" y="368.694" style="fill: #262626; stroke: #262626; stroke-width: 2.5"/>
      </g>
     </g>
     <g id="text_6">
      <!-- Badalona -->
      <g style="fill: #262626" transform="translate(173.235938 376.944) scale(0.22 -0.22)">
       <defs>
        <path id="FiraSans-Regular-42" d="M 2586 2330 
Q 3040 2253 3321 2009 
Q 3603 1766 3603 1254 
Q 3603 0 1856 0 
L 640 0 
L 640 4410 
L 1683 4410 
Q 2522 4410 2966 4134 
Q 3411 3859 3411 3296 
Q 3411 2912 3171 2656 
Q 2931 2400 2586 2330 
z
M 1248 3930 
L 1248 2541 
L 1914 2541 
Q 2298 2541 2544 2726 
Q 2790 2912 2790 3251 
Q 2790 3635 2531 3782 
Q 2272 3930 1747 3930 
L 1248 3930 
z
M 1856 486 
Q 2394 486 2678 646 
Q 2963 806 2963 1254 
Q 2963 1690 2688 1882 
Q 2413 2074 1971 2074 
L 1248 2074 
L 1248 486 
L 1856 486 
z
" transform="scale(0.015625)"/>
        <path id="FiraSans-Regular-61" d="M 2880 787 
Q 2880 582 2950 483 
Q 3021 384 3162 333 
L 3027 -77 
Q 2765 -45 2605 70 
Q 2445 186 2368 429 
Q 2029 -77 1363 -77 
Q 864 -77 576 204 
Q 288 486 288 941 
Q 288 1478 675 1766 
Q 1062 2054 1773 2054 
L 2291 2054 
L 2291 2304 
Q 2291 2662 2118 2816 
Q 1946 2970 1587 2970 
Q 1216 2970 678 2790 
L 531 3219 
Q 1158 3450 1696 3450 
Q 2291 3450 2585 3158 
Q 2880 2867 2880 2330 
L 2880 787 
z
M 1498 365 
Q 2003 365 2291 890 
L 2291 1664 
L 1850 1664 
Q 915 1664 915 973 
Q 915 672 1062 518 
Q 1210 365 1498 365 
z
" transform="scale(0.015625)"/>
        <path id="FiraSans-Regular-64" d="M 3219 4730 
L 3219 0 
L 2701 0 
L 2643 467 
Q 2477 211 2227 67 
Q 1978 -77 1670 -77 
Q 1069 -77 733 396 
Q 397 870 397 1670 
Q 397 2189 557 2592 
Q 717 2995 1017 3222 
Q 1318 3450 1722 3450 
Q 2240 3450 2630 3034 
L 2630 4800 
L 3219 4730 
z
M 1798 390 
Q 2067 390 2259 515 
Q 2451 640 2630 890 
L 2630 2541 
Q 2464 2758 2275 2870 
Q 2086 2982 1850 2982 
Q 1459 2982 1244 2656 
Q 1030 2330 1030 1683 
Q 1030 1030 1228 710 
Q 1427 390 1798 390 
z
" transform="scale(0.015625)"/>
        <path id="FiraSans-Regular-6c" d="M 1280 -77 
Q 954 -77 765 118 
Q 576 314 576 666 
L 576 4730 
L 1165 4800 
L 1165 678 
Q 1165 538 1213 474 
Q 1261 410 1376 410 
Q 1498 410 1594 448 
L 1747 38 
Q 1536 -77 1280 -77 
z
" transform="scale(0.015625)"/>
        <path id="FiraSans-Regular-6f" d="M 1875 3450 
Q 2586 3450 2979 2976 
Q 3373 2502 3373 1690 
Q 3373 1165 3193 765 
Q 3014 365 2675 144 
Q 2336 -77 1869 -77 
Q 1158 -77 761 396 
Q 365 870 365 1683 
Q 365 2208 544 2608 
Q 723 3008 1062 3229 
Q 1402 3450 1875 3450 
z
M 1875 2976 
Q 998 2976 998 1683 
Q 998 397 1869 397 
Q 2739 397 2739 1690 
Q 2739 2976 1875 2976 
z
" transform="scale(0.015625)"/>
        <path id="FiraSans-Regular-6e" d="M 2195 3450 
Q 2656 3450 2915 3174 
Q 3174 2899 3174 2419 
L 3174 0 
L 2586 0 
L 2586 2336 
Q 2586 2694 2451 2841 
Q 2317 2989 2054 2989 
Q 1786 2989 1581 2835 
Q 1376 2682 1197 2394 
L 1197 0 
L 608 0 
L 608 3373 
L 1114 3373 
L 1165 2874 
Q 1344 3142 1609 3296 
Q 1875 3450 2195 3450 
z
" transform="scale(0.015625)"/>
       </defs>
       <use xlink:href="#FiraSans-Regular-42"/>
       <use xlink:href="#FiraSans-Regular-61" x="60.799988"/>
       <use xlink:href="#FiraSans-Regular-64" x="115.199982"/>
       <use xlink:href="#FiraSans-Regular-61" x="174.999969"/>
       <use xlink:href="#FiraSans-Regular-6c" x="229.399963"/>
       <use xlink:href="#FiraSans-Regular-6f" x="258.699951"/>
       <use xlink:href="#FiraSans-Regular-6e" x="317.099945"/>
       <use xlink:href="#FiraSans-Regular-61" x="375.699936"/>
      </g>
     </g>
    </g>
    <g id="ytick_2">
     <g id="line2d_13">
      <path d="M 283.36 330.642 
L 1120.36 330.642 
" clip-path="url(#p35caa0f19a)" style="fill: none; stroke: #cccccc; stroke-width: 2; stroke-linecap: round"/>
     </g>
     <g id="line2d_14">
      <g>
       <use xlink:href="#mc7a5fc98c6" x="283.36" y="330.642" style="fill: #262626; stroke: #262626; stroke-width: 2.5"/>
      </g>
     </g>
     <g id="text_7">
      <!-- Barcelona -->
      <g style="fill: #262626" transform="translate(167.364688 338.892) scale(0.22 -0.22)">
       <defs>
        <path id="FiraSans-Regular-72" d="M 2074 3450 
Q 2253 3450 2406 3411 
L 2298 2835 
Q 2144 2874 2003 2874 
Q 1690 2874 1498 2643 
Q 1306 2413 1197 1926 
L 1197 0 
L 608 0 
L 608 3373 
L 1114 3373 
L 1171 2688 
Q 1306 3066 1536 3258 
Q 1766 3450 2074 3450 
z
" transform="scale(0.015625)"/>
        <path id="FiraSans-Regular-63" d="M 1837 3450 
Q 2138 3450 2387 3363 
Q 2637 3277 2867 3085 
L 2586 2714 
Q 2406 2842 2236 2902 
Q 2067 2963 1862 2963 
Q 1453 2963 1225 2636 
Q 998 2310 998 1670 
Q 998 1030 1222 726 
Q 1446 422 1862 422 
Q 2061 422 2227 483 
Q 2394 544 2598 678 
L 2867 294 
Q 2406 -77 1837 -77 
Q 1152 -77 758 384 
Q 365 845 365 1658 
Q 365 2195 544 2598 
Q 723 3002 1052 3226 
Q 1382 3450 1837 3450 
z
" transform="scale(0.015625)"/>
        <path id="FiraSans-Regular-65" d="M 3155 1786 
Q 3155 1638 3142 1485 
L 992 1485 
Q 1030 928 1273 665 
Q 1517 403 1901 403 
Q 2144 403 2349 473 
Q 2554 544 2778 698 
L 3034 346 
Q 2496 -77 1856 -77 
Q 1152 -77 758 384 
Q 365 845 365 1651 
Q 365 2176 534 2582 
Q 704 2989 1021 3219 
Q 1338 3450 1766 3450 
Q 2438 3450 2796 3008 
Q 3155 2566 3155 1786 
z
M 2573 1958 
Q 2573 2458 2374 2720 
Q 2176 2982 1779 2982 
Q 1056 2982 992 1920 
L 2573 1920 
L 2573 1958 
z
" transform="scale(0.015625)"/>
       </defs>
       <use xlink:href="#FiraSans-Regular-42"/>
       <use xlink:href="#FiraSans-Regular-61" x="60.799988"/>
       <use xlink:href="#FiraSans-Regular-72" x="115.199982"/>
       <use xlink:href="#FiraSans-Regular-63" x="153.799973"/>
       <use xlink:href="#FiraSans-Regular-65" x="201.59996"/>
       <use xlink:href="#FiraSans-Regular-6c" x="256.099945"/>
       <use xlink:href="#FiraSans-Regular-6f" x="285.399933"/>
       <use xlink:href="#FiraSans-Regular-6e" x="343.799927"/>
       <use xlink:href="#FiraSans-Regular-61" x="402.399918"/>
      </g>
     </g>
    </g>
    <g id="ytick_3">
     <g id="line2d_15">
      <path d="M 283.36 292.59 
L 1120.36 292.59 
" clip-path="url(#p35caa0f19a)" style="fill: none; stroke: #cccccc; stroke-width: 2; stroke-linecap: round"/>
     </g>
     <g id="line2d_16">
      <g>
       <use xlink:href="#mc7a5fc98c6" x="283.36" y="292.59" style="fill: #262626; stroke: #262626; stroke-width: 2.5"/>
      </g>
     </g>
     <g id="text_8">
      <!-- Cerdanyola del Vallès -->
      <g style="fill: #262626" transform="translate(52.349375 301.400312) scale(0.22 -0.22)">
       <defs>
        <path id="FiraSans-Regular-43" d="M 2182 4486 
Q 2579 4486 2851 4384 
Q 3123 4282 3405 4051 
L 3072 3661 
Q 2669 3987 2221 3987 
Q 1670 3987 1334 3564 
Q 998 3142 998 2208 
Q 998 1299 1331 867 
Q 1664 435 2214 435 
Q 2496 435 2707 531 
Q 2918 627 3155 800 
L 3456 416 
Q 3251 205 2931 64 
Q 2611 -77 2195 -77 
Q 1658 -77 1238 188 
Q 819 454 585 969 
Q 352 1485 352 2208 
Q 352 2931 595 3446 
Q 838 3962 1254 4224 
Q 1670 4486 2182 4486 
z
" transform="scale(0.015625)"/>
        <path id="FiraSans-Regular-79" d="M 1958 -19 
Q 1760 -608 1405 -950 
Q 1050 -1293 390 -1363 
L 326 -902 
Q 659 -845 857 -736 
Q 1056 -627 1174 -457 
Q 1293 -288 1395 0 
L 1197 0 
L 64 3373 
L 691 3373 
L 1594 429 
L 2477 3373 
L 3085 3373 
L 1958 -19 
z
" transform="scale(0.015625)"/>
        <path id="FiraSans-Regular-20" transform="scale(0.015625)"/>
        <path id="FiraSans-Regular-56" d="M 3520 4410 
L 2112 0 
L 1459 0 
L 38 4410 
L 691 4410 
L 1798 659 
L 2906 4410 
L 3520 4410 
z
" transform="scale(0.015625)"/>
        <path id="FiraSans-Regular-e8" d="M 3155 1786 
Q 3155 1638 3142 1485 
L 992 1485 
Q 1030 928 1273 665 
Q 1517 403 1901 403 
Q 2144 403 2349 473 
Q 2554 544 2778 698 
L 3034 346 
Q 2496 -77 1856 -77 
Q 1152 -77 758 384 
Q 365 845 365 1651 
Q 365 2176 534 2582 
Q 704 2989 1021 3219 
Q 1338 3450 1766 3450 
Q 2438 3450 2796 3008 
Q 3155 2566 3155 1786 
z
M 2573 1958 
Q 2573 2458 2374 2720 
Q 2176 2982 1779 2982 
Q 1056 2982 992 1920 
L 2573 1920 
L 2573 1958 
z
M 1344 5126 
L 2618 4397 
L 2438 4083 
L 1082 4634 
L 1344 5126 
z
" transform="scale(0.015625)"/>
        <path id="FiraSans-Regular-73" d="M 1523 3450 
Q 1869 3450 2144 3354 
Q 2419 3258 2669 3066 
L 2419 2694 
Q 2189 2842 1981 2912 
Q 1773 2982 1542 2982 
Q 1254 2982 1088 2864 
Q 922 2746 922 2541 
Q 922 2336 1078 2221 
Q 1235 2106 1645 1997 
Q 2208 1856 2486 1613 
Q 2765 1370 2765 947 
Q 2765 448 2377 185 
Q 1990 -77 1434 -77 
Q 666 -77 160 365 
L 474 723 
Q 902 397 1421 397 
Q 1754 397 1949 534 
Q 2144 672 2144 909 
Q 2144 1082 2073 1187 
Q 2003 1293 1830 1373 
Q 1658 1453 1325 1542 
Q 787 1683 547 1920 
Q 307 2157 307 2522 
Q 307 2784 464 2998 
Q 621 3213 899 3331 
Q 1178 3450 1523 3450 
z
" transform="scale(0.015625)"/>
       </defs>
       <use xlink:href="#FiraSans-Regular-43"/>
       <use xlink:href="#FiraSans-Regular-65" x="55.999985"/>
       <use xlink:href="#FiraSans-Regular-72" x="110.499969"/>
       <use xlink:href="#FiraSans-Regular-64" x="149.09996"/>
       <use xlink:href="#FiraSans-Regular-61" x="208.899948"/>
       <use xlink:href="#FiraSans-Regular-6e" x="263.299942"/>
       <use xlink:href="#FiraSans-Regular-79" x="321.899933"/>
       <use xlink:href="#FiraSans-Regular-6f" x="371.09993"/>
       <use xlink:href="#FiraSans-Regular-6c" x="429.499924"/>
       <use xlink:href="#FiraSans-Regular-61" x="458.799911"/>
       <use xlink:href="#FiraSans-Regular-20" x="513.199905"/>
       <use xlink:href="#FiraSans-Regular-64" x="539.69989"/>
       <use xlink:href="#FiraSans-Regular-65" x="599.499878"/>
       <use xlink:href="#FiraSans-Regular-6c" x="653.999863"/>
       <use xlink:href="#FiraSans-Regular-20" x="683.29985"/>
       <use xlink:href="#FiraSans-Regular-56" x="709.799835"/>
       <use xlink:href="#FiraSans-Regular-61" x="765.399826"/>
       <use xlink:href="#FiraSans-Regular-6c" x="819.79982"/>
       <use xlink:href="#FiraSans-Regular-6c" x="849.099808"/>
       <use xlink:href="#FiraSans-Regular-e8" x="878.399796"/>
       <use xlink:href="#FiraSans-Regular-73" x="932.89978"/>
      </g>
     </g>
    </g>
    <g id="ytick_4">
     <g id="line2d_17">
      <path d="M 283.36 254.538 
L 1120.36 254.538 
" clip-path="url(#p35caa0f19a)" style="fill: none; stroke: #cccccc; stroke-width: 2; stroke-linecap: round"/>
     </g>
     <g id="line2d_18">
      <g>
       <use xlink:href="#mc7a5fc98c6" x="283.36" y="254.538" style="fill: #262626; stroke: #262626; stroke-width: 2.5"/>
      </g>
     </g>
     <g id="text_9">
      <!-- Cusano Milanino -->
      <g style="fill: #262626" transform="translate(102.35125 262.788) scale(0.22 -0.22)">
       <defs>
        <path id="FiraSans-Regular-75" d="M 3117 0 
L 2611 0 
L 2566 525 
Q 2374 211 2124 67 
Q 1875 -77 1517 -77 
Q 1075 -77 825 192 
Q 576 461 576 954 
L 576 3373 
L 1165 3373 
L 1165 1018 
Q 1165 672 1286 528 
Q 1408 384 1683 384 
Q 2176 384 2528 966 
L 2528 3373 
L 3117 3373 
L 3117 0 
z
" transform="scale(0.015625)"/>
        <path id="FiraSans-Regular-4d" d="M 4582 0 
L 3994 0 
L 3840 1990 
Q 3744 3162 3731 3789 
L 2778 499 
L 2208 499 
L 1203 3795 
Q 1203 2995 1120 1946 
L 973 0 
L 397 0 
L 762 4410 
L 1581 4410 
L 2509 1203 
L 3392 4410 
L 4218 4410 
L 4582 0 
z
" transform="scale(0.015625)"/>
        <path id="FiraSans-Regular-69" d="M 1197 3373 
L 1197 0 
L 608 0 
L 608 3373 
L 1197 3373 
z
M 896 4992 
Q 1082 4992 1197 4877 
Q 1312 4762 1312 4589 
Q 1312 4416 1197 4304 
Q 1082 4192 896 4192 
Q 717 4192 601 4304 
Q 486 4416 486 4589 
Q 486 4762 601 4877 
Q 717 4992 896 4992 
z
" transform="scale(0.015625)"/>
       </defs>
       <use xlink:href="#FiraSans-Regular-43"/>
       <use xlink:href="#FiraSans-Regular-75" x="55.999985"/>
       <use xlink:href="#FiraSans-Regular-73" x="114.199982"/>
       <use xlink:href="#FiraSans-Regular-61" x="160.899979"/>
       <use xlink:href="#FiraSans-Regular-6e" x="215.299973"/>
       <use xlink:href="#FiraSans-Regular-6f" x="273.899963"/>
       <use xlink:href="#FiraSans-Regular-20" x="332.299957"/>
       <use xlink:href="#FiraSans-Regular-4d" x="358.799942"/>
       <use xlink:href="#FiraSans-Regular-69" x="436.59993"/>
       <use xlink:href="#FiraSans-Regular-6c" x="464.799927"/>
       <use xlink:href="#FiraSans-Regular-61" x="494.099915"/>
       <use xlink:href="#FiraSans-Regular-6e" x="548.499908"/>
       <use xlink:href="#FiraSans-Regular-69" x="607.099899"/>
       <use xlink:href="#FiraSans-Regular-6e" x="635.299896"/>
       <use xlink:href="#FiraSans-Regular-6f" x="693.899887"/>
      </g>
     </g>
    </g>
    <g id="ytick_5">
     <g id="line2d_19">
      <path d="M 283.36 216.486 
L 1120.36 216.486 
" clip-path="url(#p35caa0f19a)" style="fill: none; stroke: #cccccc; stroke-width: 2; stroke-linecap: round"/>
     </g>
     <g id="line2d_20">
      <g>
       <use xlink:href="#mc7a5fc98c6" x="283.36" y="216.486" style="fill: #262626; stroke: #262626; stroke-width: 2.5"/>
      </g>
     </g>
     <g id="text_10">
      <!-- Esplugues de Llobregat -->
      <g style="fill: #262626" transform="translate(35.03125 224.736) scale(0.22 -0.22)">
       <defs>
        <path id="FiraSans-Regular-45" d="M 3027 4410 
L 2957 3923 
L 1248 3923 
L 1248 2483 
L 2733 2483 
L 2733 1997 
L 1248 1997 
L 1248 486 
L 3078 486 
L 3078 0 
L 640 0 
L 640 4410 
L 3027 4410 
z
" transform="scale(0.015625)"/>
        <path id="FiraSans-Regular-70" d="M 2157 3450 
Q 2803 3450 3104 2989 
Q 3405 2528 3405 1690 
Q 3405 896 3059 409 
Q 2714 -77 2080 -77 
Q 1517 -77 1197 307 
L 1197 -1293 
L 608 -1363 
L 608 3373 
L 1114 3373 
L 1158 2918 
Q 1344 3174 1606 3312 
Q 1869 3450 2157 3450 
z
M 1939 403 
Q 2771 403 2771 1690 
Q 2771 2982 2010 2982 
Q 1760 2982 1555 2835 
Q 1350 2688 1197 2458 
L 1197 813 
Q 1325 614 1517 508 
Q 1709 403 1939 403 
z
" transform="scale(0.015625)"/>
        <path id="FiraSans-Regular-67" d="M 3328 3219 
Q 3136 3155 2905 3136 
Q 2675 3117 2342 3117 
Q 2938 2848 2938 2266 
Q 2938 1760 2592 1440 
Q 2246 1120 1651 1120 
Q 1421 1120 1222 1184 
Q 1146 1133 1101 1046 
Q 1056 960 1056 870 
Q 1056 595 1498 595 
L 2035 595 
Q 2374 595 2636 473 
Q 2899 352 3043 141 
Q 3187 -70 3187 -339 
Q 3187 -832 2784 -1097 
Q 2381 -1363 1606 -1363 
Q 1062 -1363 745 -1251 
Q 429 -1139 294 -915 
Q 160 -691 160 -339 
L 691 -339 
Q 691 -544 768 -662 
Q 845 -781 1043 -841 
Q 1242 -902 1606 -902 
Q 2138 -902 2365 -771 
Q 2592 -640 2592 -378 
Q 2592 -141 2413 -19 
Q 2234 102 1914 102 
L 1382 102 
Q 954 102 733 284 
Q 512 467 512 742 
Q 512 909 608 1062 
Q 704 1216 883 1338 
Q 589 1491 451 1718 
Q 314 1946 314 2272 
Q 314 2611 483 2880 
Q 653 3149 950 3299 
Q 1248 3450 1613 3450 
Q 2010 3443 2278 3478 
Q 2547 3514 2723 3574 
Q 2899 3635 3155 3750 
L 3328 3219 
z
M 1613 3027 
Q 1280 3027 1097 2819 
Q 915 2611 915 2272 
Q 915 1926 1100 1718 
Q 1286 1510 1626 1510 
Q 1971 1510 2153 1712 
Q 2336 1914 2336 2278 
Q 2336 3027 1613 3027 
z
" transform="scale(0.015625)"/>
        <path id="FiraSans-Regular-4c" d="M 1248 4410 
L 1248 531 
L 3059 531 
L 2989 0 
L 640 0 
L 640 4410 
L 1248 4410 
z
" transform="scale(0.015625)"/>
        <path id="FiraSans-Regular-62" d="M 2150 3450 
Q 2726 3450 3065 2986 
Q 3405 2522 3405 1690 
Q 3405 1165 3245 765 
Q 3085 365 2784 144 
Q 2483 -77 2080 -77 
Q 1549 -77 1184 371 
L 1126 0 
L 608 0 
L 608 4730 
L 1197 4800 
L 1197 2950 
Q 1562 3450 2150 3450 
z
M 1939 390 
Q 2330 390 2550 707 
Q 2771 1024 2771 1690 
Q 2771 2374 2566 2678 
Q 2362 2982 1984 2982 
Q 1536 2982 1197 2458 
L 1197 845 
Q 1331 634 1526 512 
Q 1722 390 1939 390 
z
" transform="scale(0.015625)"/>
        <path id="FiraSans-Regular-74" d="M 2310 154 
Q 1978 -77 1555 -77 
Q 1126 -77 886 169 
Q 646 416 646 883 
L 646 2918 
L 58 2918 
L 58 3373 
L 646 3373 
L 646 4134 
L 1235 4205 
L 1235 3373 
L 2035 3373 
L 1971 2918 
L 1235 2918 
L 1235 909 
Q 1235 646 1328 528 
Q 1421 410 1638 410 
Q 1837 410 2086 544 
L 2310 154 
z
" transform="scale(0.015625)"/>
       </defs>
       <use xlink:href="#FiraSans-Regular-45"/>
       <use xlink:href="#FiraSans-Regular-73" x="53.499985"/>
       <use xlink:href="#FiraSans-Regular-70" x="100.199982"/>
       <use xlink:href="#FiraSans-Regular-6c" x="159.599976"/>
       <use xlink:href="#FiraSans-Regular-75" x="188.899963"/>
       <use xlink:href="#FiraSans-Regular-67" x="247.09996"/>
       <use xlink:href="#FiraSans-Regular-75" x="299.099945"/>
       <use xlink:href="#FiraSans-Regular-65" x="357.299942"/>
       <use xlink:href="#FiraSans-Regular-73" x="411.799927"/>
       <use xlink:href="#FiraSans-Regular-20" x="458.499924"/>
       <use xlink:href="#FiraSans-Regular-64" x="484.999908"/>
       <use xlink:href="#FiraSans-Regular-65" x="544.799896"/>
       <use xlink:href="#FiraSans-Regular-20" x="599.299881"/>
       <use xlink:href="#FiraSans-Regular-4c" x="625.799866"/>
       <use xlink:href="#FiraSans-Regular-6c" x="675.599854"/>
       <use xlink:href="#FiraSans-Regular-6f" x="704.899841"/>
       <use xlink:href="#FiraSans-Regular-62" x="763.299835"/>
       <use xlink:href="#FiraSans-Regular-72" x="822.699829"/>
       <use xlink:href="#FiraSans-Regular-65" x="861.29982"/>
       <use xlink:href="#FiraSans-Regular-67" x="915.799805"/>
       <use xlink:href="#FiraSans-Regular-61" x="967.799789"/>
       <use xlink:href="#FiraSans-Regular-74" x="1022.199783"/>
      </g>
     </g>
    </g>
    <g id="ytick_6">
     <g id="line2d_21">
      <path d="M 283.36 178.434 
L 1120.36 178.434 
" clip-path="url(#p35caa0f19a)" style="fill: none; stroke: #cccccc; stroke-width: 2; stroke-linecap: round"/>
     </g>
     <g id="line2d_22">
      <g>
       <use xlink:href="#mc7a5fc98c6" x="283.36" y="178.434" style="fill: #262626; stroke: #262626; stroke-width: 2.5"/>
      </g>
     </g>
     <g id="text_11">
      <!-- Milan -->
      <g style="fill: #262626" transform="translate(213.234688 186.684) scale(0.22 -0.22)">
       <use xlink:href="#FiraSans-Regular-4d"/>
       <use xlink:href="#FiraSans-Regular-69" x="77.799988"/>
       <use xlink:href="#FiraSans-Regular-6c" x="105.999985"/>
       <use xlink:href="#FiraSans-Regular-61" x="135.299973"/>
       <use xlink:href="#FiraSans-Regular-6e" x="189.699966"/>
      </g>
     </g>
    </g>
    <g id="ytick_7">
     <g id="line2d_23">
      <path d="M 283.36 140.382 
L 1120.36 140.382 
" clip-path="url(#p35caa0f19a)" style="fill: none; stroke: #cccccc; stroke-width: 2; stroke-linecap: round"/>
     </g>
     <g id="line2d_24">
      <g>
       <use xlink:href="#mc7a5fc98c6" x="283.36" y="140.382" style="fill: #262626; stroke: #262626; stroke-width: 2.5"/>
      </g>
     </g>
     <g id="text_12">
      <!-- Rozzano -->
      <g style="fill: #262626" transform="translate(184.761875 148.632) scale(0.22 -0.22)">
       <defs>
        <path id="FiraSans-Regular-52" d="M 1933 1869 
L 1248 1869 
L 1248 0 
L 640 0 
L 640 4410 
L 1798 4410 
Q 2624 4410 3049 4096 
Q 3475 3782 3475 3162 
Q 3475 2701 3238 2413 
Q 3002 2125 2522 1978 
L 3712 0 
L 2989 0 
L 1933 1869 
z
M 1862 2336 
Q 2342 2336 2585 2531 
Q 2829 2726 2829 3162 
Q 2829 3571 2582 3753 
Q 2336 3936 1792 3936 
L 1248 3936 
L 1248 2336 
L 1862 2336 
z
" transform="scale(0.015625)"/>
        <path id="FiraSans-Regular-7a" d="M 2586 3373 
L 2586 2925 
L 826 493 
L 2605 493 
L 2534 0 
L 160 0 
L 160 442 
L 1914 2874 
L 307 2874 
L 307 3373 
L 2586 3373 
z
" transform="scale(0.015625)"/>
       </defs>
       <use xlink:href="#FiraSans-Regular-52"/>
       <use xlink:href="#FiraSans-Regular-6f" x="60.499985"/>
       <use xlink:href="#FiraSans-Regular-7a" x="118.899979"/>
       <use xlink:href="#FiraSans-Regular-7a" x="162.599976"/>
       <use xlink:href="#FiraSans-Regular-61" x="206.299973"/>
       <use xlink:href="#FiraSans-Regular-6e" x="260.699966"/>
       <use xlink:href="#FiraSans-Regular-6f" x="319.299957"/>
      </g>
     </g>
    </g>
    <g id="ytick_8">
     <g id="line2d_25">
      <path d="M 283.36 102.33 
L 1120.36 102.33 
" clip-path="url(#p35caa0f19a)" style="fill: none; stroke: #cccccc; stroke-width: 2; stroke-linecap: round"/>
     </g>
     <g id="line2d_26">
      <g>
       <use xlink:href="#mc7a5fc98c6" x="283.36" y="102.33" style="fill: #262626; stroke: #262626; stroke-width: 2.5"/>
      </g>
     </g>
     <g id="text_13">
      <!-- Sant Cugat del Valles -->
      <g style="fill: #262626" transform="translate(58.15875 110.58) scale(0.22 -0.22)">
       <defs>
        <path id="FiraSans-Regular-53" d="M 1728 4486 
Q 2170 4486 2483 4361 
Q 2797 4237 3091 3974 
L 2758 3603 
Q 2509 3802 2269 3894 
Q 2029 3987 1754 3987 
Q 1408 3987 1184 3827 
Q 960 3667 960 3360 
Q 960 3168 1037 3037 
Q 1114 2906 1322 2797 
Q 1530 2688 1926 2566 
Q 2342 2438 2617 2291 
Q 2893 2144 3062 1885 
Q 3232 1626 3232 1229 
Q 3232 845 3043 550 
Q 2854 256 2499 89 
Q 2144 -77 1658 -77 
Q 742 -77 160 493 
L 493 864 
Q 762 646 1037 534 
Q 1312 422 1651 422 
Q 2061 422 2329 624 
Q 2598 826 2598 1210 
Q 2598 1427 2515 1571 
Q 2432 1715 2230 1830 
Q 2029 1946 1645 2061 
Q 966 2266 652 2554 
Q 339 2842 339 3334 
Q 339 3667 515 3929 
Q 691 4192 1008 4339 
Q 1325 4486 1728 4486 
z
" transform="scale(0.015625)"/>
       </defs>
       <use xlink:href="#FiraSans-Regular-53"/>
       <use xlink:href="#FiraSans-Regular-61" x="54.499985"/>
       <use xlink:href="#FiraSans-Regular-6e" x="108.899979"/>
       <use xlink:href="#FiraSans-Regular-74" x="167.499969"/>
       <use xlink:href="#FiraSans-Regular-20" x="203.59996"/>
       <use xlink:href="#FiraSans-Regular-43" x="230.099945"/>
       <use xlink:href="#FiraSans-Regular-75" x="286.09993"/>
       <use xlink:href="#FiraSans-Regular-67" x="344.299927"/>
       <use xlink:href="#FiraSans-Regular-61" x="396.299911"/>
       <use xlink:href="#FiraSans-Regular-74" x="450.699905"/>
       <use xlink:href="#FiraSans-Regular-20" x="486.799896"/>
       <use xlink:href="#FiraSans-Regular-64" x="513.299881"/>
       <use xlink:href="#FiraSans-Regular-65" x="573.099869"/>
       <use xlink:href="#FiraSans-Regular-6c" x="627.599854"/>
       <use xlink:href="#FiraSans-Regular-20" x="656.899841"/>
       <use xlink:href="#FiraSans-Regular-56" x="683.399826"/>
       <use xlink:href="#FiraSans-Regular-61" x="738.999817"/>
       <use xlink:href="#FiraSans-Regular-6c" x="793.399811"/>
       <use xlink:href="#FiraSans-Regular-6c" x="822.699799"/>
       <use xlink:href="#FiraSans-Regular-65" x="851.999786"/>
       <use xlink:href="#FiraSans-Regular-73" x="906.499771"/>
      </g>
     </g>
    </g>
    <g id="ytick_9">
     <g id="line2d_27">
      <path d="M 283.36 64.278 
L 1120.36 64.278 
" clip-path="url(#p35caa0f19a)" style="fill: none; stroke: #cccccc; stroke-width: 2; stroke-linecap: round"/>
     </g>
     <g id="line2d_28">
      <g>
       <use xlink:href="#mc7a5fc98c6" x="283.36" y="64.278" style="fill: #262626; stroke: #262626; stroke-width: 2.5"/>
      </g>
     </g>
     <g id="text_14">
      <!-- Sant Cugat del Vallès -->
      <g style="fill: #262626" transform="translate(58.15875 73.088312) scale(0.22 -0.22)">
       <use xlink:href="#FiraSans-Regular-53"/>
       <use xlink:href="#FiraSans-Regular-61" x="54.499985"/>
       <use xlink:href="#FiraSans-Regular-6e" x="108.899979"/>
       <use xlink:href="#FiraSans-Regular-74" x="167.499969"/>
       <use xlink:href="#FiraSans-Regular-20" x="203.59996"/>
       <use xlink:href="#FiraSans-Regular-43" x="230.099945"/>
       <use xlink:href="#FiraSans-Regular-75" x="286.09993"/>
       <use xlink:href="#FiraSans-Regular-67" x="344.299927"/>
       <use xlink:href="#FiraSans-Regular-61" x="396.299911"/>
       <use xlink:href="#FiraSans-Regular-74" x="450.699905"/>
       <use xlink:href="#FiraSans-Regular-20" x="486.799896"/>
       <use xlink:href="#FiraSans-Regular-64" x="513.299881"/>
       <use xlink:href="#FiraSans-Regular-65" x="573.099869"/>
       <use xlink:href="#FiraSans-Regular-6c" x="627.599854"/>
       <use xlink:href="#FiraSans-Regular-20" x="656.899841"/>
       <use xlink:href="#FiraSans-Regular-56" x="683.399826"/>
       <use xlink:href="#FiraSans-Regular-61" x="738.999817"/>
       <use xlink:href="#FiraSans-Regular-6c" x="793.399811"/>
       <use xlink:href="#FiraSans-Regular-6c" x="822.699799"/>
       <use xlink:href="#FiraSans-Regular-e8" x="851.999786"/>
       <use xlink:href="#FiraSans-Regular-73" x="906.499771"/>
      </g>
     </g>
    </g>
    <g id="ytick_10">
     <g id="line2d_29">
      <path d="M 283.36 26.226 
L 1120.36 26.226 
" clip-path="url(#p35caa0f19a)" style="fill: none; stroke: #cccccc; stroke-width: 2; stroke-linecap: round"/>
     </g>
     <g id="line2d_30">
      <g>
       <use xlink:href="#mc7a5fc98c6" x="283.36" y="26.226" style="fill: #262626; stroke: #262626; stroke-width: 2.5"/>
      </g>
     </g>
     <g id="text_15">
      <!-- Viladecans -->
      <g style="fill: #262626" transform="translate(160.214688 34.476) scale(0.22 -0.22)">
       <use xlink:href="#FiraSans-Regular-56"/>
       <use xlink:href="#FiraSans-Regular-69" x="55.599991"/>
       <use xlink:href="#FiraSans-Regular-6c" x="83.799988"/>
       <use xlink:href="#FiraSans-Regular-61" x="113.099976"/>
       <use xlink:href="#FiraSans-Regular-64" x="167.499969"/>
       <use xlink:href="#FiraSans-Regular-65" x="227.299957"/>
       <use xlink:href="#FiraSans-Regular-63" x="281.799942"/>
       <use xlink:href="#FiraSans-Regular-61" x="329.59993"/>
       <use xlink:href="#FiraSans-Regular-6e" x="383.999924"/>
       <use xlink:href="#FiraSans-Regular-73" x="442.599915"/>
      </g>
     </g>
    </g>
    <g id="text_16">
     <!-- City -->
     <g style="fill: #262626" transform="translate(25.92 217.8) rotate(-90) scale(0.24 -0.24)">
      <use xlink:href="#FiraSans-Regular-43"/>
      <use xlink:href="#FiraSans-Regular-69" x="55.999985"/>
      <use xlink:href="#FiraSans-Regular-74" x="84.199982"/>
      <use xlink:href="#FiraSans-Regular-79" x="120.299973"/>
     </g>
    </g>
   </g>
   <g id="patch_3">
    <path d="M 283.36 378.207 
L 300.689193 378.207 
L 300.689193 368.694 
L 283.36 368.694 
z
" clip-path="url(#p35caa0f19a)" style="fill: #1f77b4; stroke: #ffffff; stroke-width: 2; stroke-linejoin: miter"/>
   </g>
   <g id="patch_4">
    <path d="M 283.36 340.155 
L 1080.502857 340.155 
L 1080.502857 330.642 
L 283.36 330.642 
z
" clip-path="url(#p35caa0f19a)" style="fill: #1f77b4; stroke: #ffffff; stroke-width: 2; stroke-linejoin: miter"/>
   </g>
   <g id="patch_5">
    <path d="M 283.36 302.103 
L 318.018385 302.103 
L 318.018385 292.59 
L 283.36 292.59 
z
" clip-path="url(#p35caa0f19a)" style="fill: #1f77b4; stroke: #ffffff; stroke-width: 2; stroke-linejoin: miter"/>
   </g>
   <g id="patch_6">
    <path d="M 283.36 264.051 
L 283.36 264.051 
L 283.36 254.538 
L 283.36 254.538 
z
" clip-path="url(#p35caa0f19a)" style="fill: #1f77b4; stroke: #ffffff; stroke-width: 2; stroke-linejoin: miter"/>
   </g>
   <g id="patch_7">
    <path d="M 283.36 225.999 
L 300.689193 225.999 
L 300.689193 216.486 
L 283.36 216.486 
z
" clip-path="url(#p35caa0f19a)" style="fill: #1f77b4; stroke: #ffffff; stroke-width: 2; stroke-linejoin: miter"/>
   </g>
   <g id="patch_8">
    <path d="M 283.36 187.947 
L 283.36 187.947 
L 283.36 178.434 
L 283.36 178.434 
z
" clip-path="url(#p35caa0f19a)" style="fill: #1f77b4; stroke: #ffffff; stroke-width: 2; stroke-linejoin: miter"/>
   </g>
   <g id="patch_9">
    <path d="M 283.36 149.895 
L 283.36 149.895 
L 283.36 140.382 
L 283.36 140.382 
z
" clip-path="url(#p35caa0f19a)" style="fill: #1f77b4; stroke: #ffffff; stroke-width: 2; stroke-linejoin: miter"/>
   </g>
   <g id="patch_10">
    <path d="M 283.36 111.843 
L 300.689193 111.843 
L 300.689193 102.33 
L 283.36 102.33 
z
" clip-path="url(#p35caa0f19a)" style="fill: #1f77b4; stroke: #ffffff; stroke-width: 2; stroke-linejoin: miter"/>
   </g>
   <g id="patch_11">
    <path d="M 283.36 73.791 
L 300.689193 73.791 
L 300.689193 64.278 
L 283.36 64.278 
z
" clip-path="url(#p35caa0f19a)" style="fill: #1f77b4; stroke: #ffffff; stroke-width: 2; stroke-linejoin: miter"/>
   </g>
   <g id="patch_12">
    <path d="M 283.36 35.739 
L 300.689193 35.739 
L 300.689193 26.226 
L 283.36 26.226 
z
" clip-path="url(#p35caa0f19a)" style="fill: #1f77b4; stroke: #ffffff; stroke-width: 2; stroke-linejoin: miter"/>
   </g>
   <g id="patch_13">
    <path d="M 283.36 368.694 
L 283.36 368.694 
L 283.36 359.181 
L 283.36 359.181 
z
" clip-path="url(#p35caa0f19a)" style="fill: #ff7f0e; stroke: #ffffff; stroke-width: 2; stroke-linejoin: miter"/>
   </g>
   <g id="patch_14">
    <path d="M 283.36 330.642 
L 283.36 330.642 
L 283.36 321.129 
L 283.36 321.129 
z
" clip-path="url(#p35caa0f19a)" style="fill: #ff7f0e; stroke: #ffffff; stroke-width: 2; stroke-linejoin: miter"/>
   </g>
   <g id="patch_15">
    <path d="M 283.36 292.59 
L 283.36 292.59 
L 283.36 283.077 
L 283.36 283.077 
z
" clip-path="url(#p35caa0f19a)" style="fill: #ff7f0e; stroke: #ffffff; stroke-width: 2; stroke-linejoin: miter"/>
   </g>
   <g id="patch_16">
    <path d="M 283.36 254.538 
L 300.689193 254.538 
L 300.689193 245.025 
L 283.36 245.025 
z
" clip-path="url(#p35caa0f19a)" style="fill: #ff7f0e; stroke: #ffffff; stroke-width: 2; stroke-linejoin: miter"/>
   </g>
   <g id="patch_17">
    <path d="M 283.36 216.486 
L 283.36 216.486 
L 283.36 206.973 
L 283.36 206.973 
z
" clip-path="url(#p35caa0f19a)" style="fill: #ff7f0e; stroke: #ffffff; stroke-width: 2; stroke-linejoin: miter"/>
   </g>
   <g id="patch_18">
    <path d="M 283.36 178.434 
L 664.602236 178.434 
L 664.602236 168.921 
L 283.36 168.921 
z
" clip-path="url(#p35caa0f19a)" style="fill: #ff7f0e; stroke: #ffffff; stroke-width: 2; stroke-linejoin: miter"/>
   </g>
   <g id="patch_19">
    <path d="M 283.36 140.382 
L 300.689193 140.382 
L 300.689193 130.869 
L 283.36 130.869 
z
" clip-path="url(#p35caa0f19a)" style="fill: #ff7f0e; stroke: #ffffff; stroke-width: 2; stroke-linejoin: miter"/>
   </g>
   <g id="patch_20">
    <path d="M 283.36 102.33 
L 283.36 102.33 
L 283.36 92.817 
L 283.36 92.817 
z
" clip-path="url(#p35caa0f19a)" style="fill: #ff7f0e; stroke: #ffffff; stroke-width: 2; stroke-linejoin: miter"/>
   </g>
   <g id="patch_21">
    <path d="M 283.36 64.278 
L 283.36 64.278 
L 283.36 54.765 
L 283.36 54.765 
z
" clip-path="url(#p35caa0f19a)" style="fill: #ff7f0e; stroke: #ffffff; stroke-width: 2; stroke-linejoin: miter"/>
   </g>
   <g id="patch_22">
    <path d="M 283.36 26.226 
L 283.36 26.226 
L 283.36 16.713 
L 283.36 16.713 
z
" clip-path="url(#p35caa0f19a)" style="fill: #ff7f0e; stroke: #ffffff; stroke-width: 2; stroke-linejoin: miter"/>
   </g>
   <g id="patch_23">
    <path d="M 283.36 387.72 
L 283.36 7.2 
" style="fill: none; stroke: #262626; stroke-width: 2.5; stroke-linejoin: miter; stroke-linecap: square"/>
   </g>
   <g id="patch_24">
    <path d="M 1120.36 387.72 
L 1120.36 7.2 
" style="fill: none; stroke: #262626; stroke-width: 2.5; stroke-linejoin: miter; stroke-linecap: square"/>
   </g>
   <g id="patch_25">
    <path d="M 283.36 387.72 
L 1120.36 387.72 
" style="fill: none; stroke: #262626; stroke-width: 2.5; stroke-linejoin: miter; stroke-linecap: square"/>
   </g>
   <g id="patch_26">
    <path d="M 283.36 7.2 
L 1120.36 7.2 
" style="fill: none; stroke: #262626; stroke-width: 2.5; stroke-linejoin: miter; stroke-linecap: square"/>
   </g>
   <g id="text_17">
    <!-- 1 -->
    <g style="fill: #262626" transform="translate(303.689193 377.74675) scale(0.16 -0.16)">
     <use xlink:href="#FiraSans-Regular-31"/>
    </g>
   </g>
   <g id="text_18">
    <!-- 46 -->
    <g style="fill: #262626" transform="translate(1083.502857 339.69475) scale(0.16 -0.16)">
     <defs>
      <path id="FiraSans-Regular-36" d="M 1971 2816 
Q 2298 2816 2566 2662 
Q 2835 2509 2995 2201 
Q 3155 1894 3155 1453 
Q 3155 998 2972 649 
Q 2790 301 2480 112 
Q 2170 -77 1792 -77 
Q 1043 -77 697 476 
Q 352 1030 352 2010 
Q 352 2707 547 3235 
Q 742 3763 1107 4054 
Q 1472 4346 1971 4346 
Q 2458 4346 2854 4083 
L 2624 3693 
Q 2323 3878 1965 3878 
Q 1504 3878 1235 3436 
Q 966 2995 941 2253 
Q 1338 2816 1971 2816 
z
M 1792 390 
Q 2163 390 2361 672 
Q 2560 954 2560 1434 
Q 2560 2349 1869 2349 
Q 1587 2349 1350 2192 
Q 1114 2035 947 1760 
Q 966 1056 1168 723 
Q 1370 390 1792 390 
z
" transform="scale(0.015625)"/>
     </defs>
     <use xlink:href="#FiraSans-Regular-34"/>
     <use xlink:href="#FiraSans-Regular-36" x="53.199997"/>
    </g>
   </g>
   <g id="text_19">
    <!-- 2 -->
    <g style="fill: #262626" transform="translate(321.018385 301.64275) scale(0.16 -0.16)">
     <use xlink:href="#FiraSans-Regular-32"/>
    </g>
   </g>
   <g id="text_20">
    <!-- 0 -->
    <g style="fill: #262626" transform="translate(286.36 263.59075) scale(0.16 -0.16)">
     <use xlink:href="#FiraSans-Regular-30"/>
    </g>
   </g>
   <g id="text_21">
    <!-- 1 -->
    <g style="fill: #262626" transform="translate(303.689193 225.53875) scale(0.16 -0.16)">
     <use xlink:href="#FiraSans-Regular-31"/>
    </g>
   </g>
   <g id="text_22">
    <!-- 0 -->
    <g style="fill: #262626" transform="translate(286.36 187.48675) scale(0.16 -0.16)">
     <use xlink:href="#FiraSans-Regular-30"/>
    </g>
   </g>
   <g id="text_23">
    <!-- 0 -->
    <g style="fill: #262626" transform="translate(286.36 149.43475) scale(0.16 -0.16)">
     <use xlink:href="#FiraSans-Regular-30"/>
    </g>
   </g>
   <g id="text_24">
    <!-- 1 -->
    <g style="fill: #262626" transform="translate(303.689193 111.38275) scale(0.16 -0.16)">
     <use xlink:href="#FiraSans-Regular-31"/>
    </g>
   </g>
   <g id="text_25">
    <!-- 1 -->
    <g style="fill: #262626" transform="translate(303.689193 73.33075) scale(0.16 -0.16)">
     <use xlink:href="#FiraSans-Regular-31"/>
    </g>
   </g>
   <g id="text_26">
    <!-- 1 -->
    <g style="fill: #262626" transform="translate(303.689193 35.27875) scale(0.16 -0.16)">
     <use xlink:href="#FiraSans-Regular-31"/>
    </g>
   </g>
   <g id="text_27">
    <!-- 0 -->
    <g style="fill: #262626" transform="translate(286.36 368.23375) scale(0.16 -0.16)">
     <use xlink:href="#FiraSans-Regular-30"/>
    </g>
   </g>
   <g id="text_28">
    <!-- 0 -->
    <g style="fill: #262626" transform="translate(286.36 330.18175) scale(0.16 -0.16)">
     <use xlink:href="#FiraSans-Regular-30"/>
    </g>
   </g>
   <g id="text_29">
    <!-- 0 -->
    <g style="fill: #262626" transform="translate(286.36 292.12975) scale(0.16 -0.16)">
     <use xlink:href="#FiraSans-Regular-30"/>
    </g>
   </g>
   <g id="text_30">
    <!-- 1 -->
    <g style="fill: #262626" transform="translate(303.689193 254.07775) scale(0.16 -0.16)">
     <use xlink:href="#FiraSans-Regular-31"/>
    </g>
   </g>
   <g id="text_31">
    <!-- 0 -->
    <g style="fill: #262626" transform="translate(286.36 216.02575) scale(0.16 -0.16)">
     <use xlink:href="#FiraSans-Regular-30"/>
    </g>
   </g>
   <g id="text_32">
    <!-- 22 -->
    <g style="fill: #262626" transform="translate(667.602236 177.97375) scale(0.16 -0.16)">
     <use xlink:href="#FiraSans-Regular-32"/>
     <use xlink:href="#FiraSans-Regular-32" x="49.499985"/>
    </g>
   </g>
   <g id="text_33">
    <!-- 1 -->
    <g style="fill: #262626" transform="translate(303.689193 139.92175) scale(0.16 -0.16)">
     <use xlink:href="#FiraSans-Regular-31"/>
    </g>
   </g>
   <g id="text_34">
    <!-- 0 -->
    <g style="fill: #262626" transform="translate(286.36 101.86975) scale(0.16 -0.16)">
     <use xlink:href="#FiraSans-Regular-30"/>
    </g>
   </g>
   <g id="text_35">
    <!-- 0 -->
    <g style="fill: #262626" transform="translate(286.36 63.81775) scale(0.16 -0.16)">
     <use xlink:href="#FiraSans-Regular-30"/>
    </g>
   </g>
   <g id="text_36">
    <!-- 0 -->
    <g style="fill: #262626" transform="translate(286.36 25.76575) scale(0.16 -0.16)">
     <use xlink:href="#FiraSans-Regular-30"/>
    </g>
   </g>
   <g id="legend_1">
    <g id="patch_27">
     <path d="M 993.839375 123.281875 
L 1104.96 123.281875 
Q 1109.36 123.281875 1109.36 118.881875 
L 1109.36 22.6 
Q 1109.36 18.2 1104.96 18.2 
L 993.839375 18.2 
Q 989.439375 18.2 989.439375 22.6 
L 989.439375 118.881875 
Q 989.439375 123.281875 993.839375 123.281875 
z
" style="fill: #ffffff; opacity: 0.8; stroke: #cccccc; stroke-width: 2; stroke-linejoin: miter"/>
    </g>
    <g id="text_37">
     <!-- Cluster -->
     <g style="fill: #262626" transform="translate(1011.072813 45) scale(0.24 -0.24)">
      <use xlink:href="#FiraSans-Regular-43"/>
      <use xlink:href="#FiraSans-Regular-6c" x="55.999985"/>
      <use xlink:href="#FiraSans-Regular-75" x="85.299973"/>
      <use xlink:href="#FiraSans-Regular-73" x="143.499969"/>
      <use xlink:href="#FiraSans-Regular-74" x="190.199966"/>
      <use xlink:href="#FiraSans-Regular-65" x="226.299957"/>
      <use xlink:href="#FiraSans-Regular-72" x="280.799942"/>
     </g>
    </g>
    <g id="patch_28">
     <path d="M 998.239375 77.61125 
L 1042.239375 77.61125 
L 1042.239375 62.21125 
L 998.239375 62.21125 
z
" style="fill: #1f77b4; stroke: #ffffff; stroke-width: 2; stroke-linejoin: miter"/>
    </g>
    <g id="text_38">
     <!-- BCN -->
     <g style="fill: #262626" transform="translate(1059.839375 77.61125) scale(0.22 -0.22)">
      <defs>
       <path id="FiraSans-Regular-4e" d="M 3731 0 
L 2918 0 
L 1126 3744 
Q 1165 3302 1187 2928 
Q 1210 2554 1210 2022 
L 1210 0 
L 640 0 
L 640 4410 
L 1434 4410 
L 3245 659 
Q 3226 826 3194 1242 
Q 3162 1658 3162 2003 
L 3162 4410 
L 3731 4410 
L 3731 0 
z
" transform="scale(0.015625)"/>
      </defs>
      <use xlink:href="#FiraSans-Regular-42"/>
      <use xlink:href="#FiraSans-Regular-43" x="60.799988"/>
      <use xlink:href="#FiraSans-Regular-4e" x="116.799973"/>
     </g>
    </g>
    <g id="patch_29">
     <path d="M 998.239375 109.796562 
L 1042.239375 109.796562 
L 1042.239375 94.396562 
L 998.239375 94.396562 
z
" style="fill: #ff7f0e; stroke: #ffffff; stroke-width: 2; stroke-linejoin: miter"/>
    </g>
    <g id="text_39">
     <!-- MI -->
     <g style="fill: #262626" transform="translate(1059.839375 109.796562) scale(0.22 -0.22)">
      <defs>
       <path id="FiraSans-Regular-49" d="M 1248 4410 
L 1248 0 
L 640 0 
L 640 4410 
L 1248 4410 
z
" transform="scale(0.015625)"/>
      </defs>
      <use xlink:href="#FiraSans-Regular-4d"/>
      <use xlink:href="#FiraSans-Regular-49" x="77.799988"/>
     </g>
    </g>
   </g>
  </g>
 </g>
 <defs>
  <clipPath id="p35caa0f19a">
   <rect x="283.36" y="7.2" width="837" height="380.52"/>
  </clipPath>
 </defs>
</svg>
