<?xml version="1.0" encoding="utf-8" standalone="no"?>
<!DOCTYPE svg PUBLIC "-//W3C//DTD SVG 1.1//EN"
  "http://www.w3.org/Graphics/SVG/1.1/DTD/svg11.dtd">
<svg height="682.354687pt" version="1.1" viewBox="0 0 1400.352187 682.354687" width="1400.352187pt" xmlns="http://www.w3.org/2000/svg" xmlns:xlink="http://www.w3.org/1999/xlink">
 <metadata>
  <rdf:RDF xmlns:cc="http://creativecommons.org/ns#" xmlns:dc="http://purl.org/dc/elements/1.1/" xmlns:rdf="http://www.w3.org/1999/02/22-rdf-syntax-ns#">
   <cc:Work>
    <dc:type rdf:resource="http://purl.org/dc/dcmitype/StillImage"/>
    <dc:date>2022-09-06T23:10:52.569809</dc:date>
    <dc:format>image/svg+xml</dc:format>
    <dc:creator>
     <cc:Agent>
      <dc:title>Matplotlib v3.4.3, https://matplotlib.org/</dc:title>
     </cc:Agent>
    </dc:creator>
   </cc:Work>
  </rdf:RDF>
 </metadata>
 <defs>
  <style type="text/css">*{stroke-linecap:butt;stroke-linejoin:round;}</style>
 </defs>
 <g id="figure_1">
  <g id="patch_1">
   <path d="M 0 682.354687 
L 1400.352187 682.354687 
L 1400.352187 0 
L 0 0 
z
" style="fill:#ffffff;"/>
  </g>
  <g id="axes_1">
   <g id="patch_2">
    <path d="M 761.164062 638.469375 
L 1393.152188 638.469375 
L 1393.152188 7.2 
L 761.164062 7.2 
z
" style="fill:#ffffff;"/>
   </g>
   <g id="matplotlib.axis_1">
    <g id="xtick_1">
     <g id="line2d_1">
      <path clip-path="url(#pe328c2a3d7)" d="M 761.164062 638.469375 
L 761.164062 7.2 
" style="fill:none;stroke:#cccccc;stroke-linecap:round;stroke-width:2;"/>
     </g>
     <g id="text_1">
      <!-- 0 -->
      <g style="fill:#262626;" transform="translate(755.026406 670.469375)scale(0.22 -0.22)">
       <defs>
        <path d="M 1786 4346 
Q 2496 4346 2857 3779 
Q 3219 3213 3219 2138 
Q 3219 1062 2857 492 
Q 2496 -77 1786 -77 
Q 1075 -77 713 492 
Q 352 1062 352 2138 
Q 352 3213 713 3779 
Q 1075 4346 1786 4346 
z
M 1786 3878 
Q 1370 3878 1168 3468 
Q 966 3059 966 2138 
Q 966 1216 1168 803 
Q 1370 390 1786 390 
Q 2195 390 2400 803 
Q 2605 1216 2605 2138 
Q 2605 3053 2400 3465 
Q 2195 3878 1786 3878 
z
" id="FiraSans-Regular-30" transform="scale(0.015625)"/>
       </defs>
       <use xlink:href="#FiraSans-Regular-30"/>
      </g>
     </g>
    </g>
    <g id="xtick_2">
     <g id="line2d_2">
      <path clip-path="url(#pe328c2a3d7)" d="M 870.599236 638.469375 
L 870.599236 7.2 
" style="fill:none;stroke:#cccccc;stroke-linecap:round;stroke-width:2;"/>
     </g>
     <g id="text_2">
      <!-- 2 -->
      <g style="fill:#262626;" transform="translate(865.154236 670.469375)scale(0.22 -0.22)">
       <defs>
        <path d="M 1459 4346 
Q 1843 4346 2134 4192 
Q 2426 4038 2586 3772 
Q 2746 3507 2746 3174 
Q 2746 2784 2570 2425 
Q 2394 2067 2029 1651 
Q 1664 1235 922 493 
L 2848 493 
L 2778 0 
L 250 0 
L 250 467 
Q 1107 1357 1465 1769 
Q 1824 2182 1977 2489 
Q 2131 2797 2131 3149 
Q 2131 3482 1939 3670 
Q 1747 3859 1427 3859 
Q 1165 3859 966 3750 
Q 768 3642 544 3392 
L 160 3699 
Q 422 4026 742 4186 
Q 1062 4346 1459 4346 
z
" id="FiraSans-Regular-32" transform="scale(0.015625)"/>
       </defs>
       <use xlink:href="#FiraSans-Regular-32"/>
      </g>
     </g>
    </g>
    <g id="xtick_3">
     <g id="line2d_3">
      <path clip-path="url(#pe328c2a3d7)" d="M 980.034409 638.469375 
L 980.034409 7.2 
" style="fill:none;stroke:#cccccc;stroke-linecap:round;stroke-width:2;"/>
     </g>
     <g id="text_3">
      <!-- 4 -->
      <g style="fill:#262626;" transform="translate(974.182065 670.469375)scale(0.22 -0.22)">
       <defs>
        <path d="M 3213 1523 
L 3213 1056 
L 2656 1056 
L 2656 0 
L 2086 0 
L 2086 1056 
L 256 1056 
L 256 1478 
L 1542 4346 
L 2035 4141 
L 877 1523 
L 2093 1523 
L 2144 2675 
L 2656 2675 
L 2656 1523 
L 3213 1523 
z
" id="FiraSans-Regular-34" transform="scale(0.015625)"/>
       </defs>
       <use xlink:href="#FiraSans-Regular-34"/>
      </g>
     </g>
    </g>
    <g id="xtick_4">
     <g id="line2d_4">
      <path clip-path="url(#pe328c2a3d7)" d="M 1089.469582 638.469375 
L 1089.469582 7.2 
" style="fill:none;stroke:#cccccc;stroke-linecap:round;stroke-width:2;"/>
     </g>
     <g id="text_4">
      <!-- 6 -->
      <g style="fill:#262626;" transform="translate(1083.606926 670.469375)scale(0.22 -0.22)">
       <defs>
        <path d="M 1971 2816 
Q 2298 2816 2566 2662 
Q 2835 2509 2995 2201 
Q 3155 1894 3155 1453 
Q 3155 998 2972 649 
Q 2790 301 2480 112 
Q 2170 -77 1792 -77 
Q 1043 -77 697 476 
Q 352 1030 352 2010 
Q 352 2707 547 3235 
Q 742 3763 1107 4054 
Q 1472 4346 1971 4346 
Q 2458 4346 2854 4083 
L 2624 3693 
Q 2323 3878 1965 3878 
Q 1504 3878 1235 3436 
Q 966 2995 941 2253 
Q 1338 2816 1971 2816 
z
M 1792 390 
Q 2163 390 2361 672 
Q 2560 954 2560 1434 
Q 2560 2349 1869 2349 
Q 1587 2349 1350 2192 
Q 1114 2035 947 1760 
Q 966 1056 1168 723 
Q 1370 390 1792 390 
z
" id="FiraSans-Regular-36" transform="scale(0.015625)"/>
       </defs>
       <use xlink:href="#FiraSans-Regular-36"/>
      </g>
     </g>
    </g>
    <g id="xtick_5">
     <g id="line2d_5">
      <path clip-path="url(#pe328c2a3d7)" d="M 1198.904755 638.469375 
L 1198.904755 7.2 
" style="fill:none;stroke:#cccccc;stroke-linecap:round;stroke-width:2;"/>
     </g>
     <g id="text_5">
      <!-- 8 -->
      <g style="fill:#262626;" transform="translate(1192.844443 670.469375)scale(0.22 -0.22)">
       <defs>
        <path d="M 2336 2298 
Q 3238 1933 3238 1146 
Q 3238 794 3049 515 
Q 2861 237 2521 80 
Q 2182 -77 1754 -77 
Q 1318 -77 985 76 
Q 653 230 470 505 
Q 288 781 288 1133 
Q 288 1530 502 1798 
Q 717 2067 1133 2246 
Q 794 2419 630 2665 
Q 467 2912 467 3245 
Q 467 3590 649 3840 
Q 832 4090 1129 4218 
Q 1427 4346 1766 4346 
Q 2099 4346 2396 4224 
Q 2694 4102 2880 3856 
Q 3066 3610 3066 3264 
Q 3066 2944 2886 2713 
Q 2707 2483 2336 2298 
z
M 1766 3904 
Q 1434 3904 1238 3731 
Q 1043 3558 1043 3238 
Q 1043 2931 1232 2771 
Q 1421 2611 1837 2477 
L 1946 2438 
Q 2234 2605 2362 2790 
Q 2490 2976 2490 3245 
Q 2490 3546 2301 3725 
Q 2112 3904 1766 3904 
z
M 1760 390 
Q 2157 390 2390 595 
Q 2624 800 2624 1139 
Q 2624 1370 2534 1526 
Q 2445 1683 2246 1801 
Q 2048 1920 1690 2042 
L 1530 2099 
Q 1210 1946 1056 1712 
Q 902 1478 902 1133 
Q 902 781 1132 585 
Q 1363 390 1760 390 
z
" id="FiraSans-Regular-38" transform="scale(0.015625)"/>
       </defs>
       <use xlink:href="#FiraSans-Regular-38"/>
      </g>
     </g>
    </g>
    <g id="xtick_6">
     <g id="line2d_6">
      <path clip-path="url(#pe328c2a3d7)" d="M 1308.339928 638.469375 
L 1308.339928 7.2 
" style="fill:none;stroke:#cccccc;stroke-linecap:round;stroke-width:2;"/>
     </g>
     <g id="text_6">
      <!-- 10 -->
      <g style="fill:#262626;" transform="translate(1297.439616 670.469375)scale(0.22 -0.22)">
       <defs>
        <path d="M 2067 4282 
L 2067 0 
L 1478 0 
L 1478 3654 
L 480 3046 
L 224 3462 
L 1549 4282 
L 2067 4282 
z
" id="FiraSans-Regular-31" transform="scale(0.015625)"/>
       </defs>
       <use xlink:href="#FiraSans-Regular-31"/>
       <use x="43.299988" xlink:href="#FiraSans-Regular-30"/>
      </g>
     </g>
    </g>
   </g>
   <g id="matplotlib.axis_2">
    <g id="ytick_1">
     <g id="line2d_7">
      <path clip-path="url(#pe328c2a3d7)" d="M 761.164062 622.687641 
L 1393.152188 622.687641 
" style="fill:none;stroke:#cccccc;stroke-linecap:round;stroke-width:2;"/>
     </g>
     <g id="text_7">
      <!-- Ateneu de Fabricació -->
      <g style="fill:#262626;" transform="translate(536.04875 630.937641)scale(0.22 -0.22)">
       <defs>
        <path d="M 2989 0 
L 2656 1107 
L 986 1107 
L 653 0 
L 38 0 
L 1453 4410 
L 2221 4410 
L 3629 0 
L 2989 0 
z
M 1133 1600 
L 2509 1600 
L 1824 3904 
L 1133 1600 
z
" id="FiraSans-Regular-41" transform="scale(0.015625)"/>
        <path d="M 2310 154 
Q 1978 -77 1555 -77 
Q 1126 -77 886 169 
Q 646 416 646 883 
L 646 2918 
L 58 2918 
L 58 3373 
L 646 3373 
L 646 4134 
L 1235 4205 
L 1235 3373 
L 2035 3373 
L 1971 2918 
L 1235 2918 
L 1235 909 
Q 1235 646 1328 528 
Q 1421 410 1638 410 
Q 1837 410 2086 544 
L 2310 154 
z
" id="FiraSans-Regular-74" transform="scale(0.015625)"/>
        <path d="M 3155 1786 
Q 3155 1638 3142 1485 
L 992 1485 
Q 1030 928 1273 665 
Q 1517 403 1901 403 
Q 2144 403 2349 473 
Q 2554 544 2778 698 
L 3034 346 
Q 2496 -77 1856 -77 
Q 1152 -77 758 384 
Q 365 845 365 1651 
Q 365 2176 534 2582 
Q 704 2989 1021 3219 
Q 1338 3450 1766 3450 
Q 2438 3450 2796 3008 
Q 3155 2566 3155 1786 
z
M 2573 1958 
Q 2573 2458 2374 2720 
Q 2176 2982 1779 2982 
Q 1056 2982 992 1920 
L 2573 1920 
L 2573 1958 
z
" id="FiraSans-Regular-65" transform="scale(0.015625)"/>
        <path d="M 2195 3450 
Q 2656 3450 2915 3174 
Q 3174 2899 3174 2419 
L 3174 0 
L 2586 0 
L 2586 2336 
Q 2586 2694 2451 2841 
Q 2317 2989 2054 2989 
Q 1786 2989 1581 2835 
Q 1376 2682 1197 2394 
L 1197 0 
L 608 0 
L 608 3373 
L 1114 3373 
L 1165 2874 
Q 1344 3142 1609 3296 
Q 1875 3450 2195 3450 
z
" id="FiraSans-Regular-6e" transform="scale(0.015625)"/>
        <path d="M 3117 0 
L 2611 0 
L 2566 525 
Q 2374 211 2124 67 
Q 1875 -77 1517 -77 
Q 1075 -77 825 192 
Q 576 461 576 954 
L 576 3373 
L 1165 3373 
L 1165 1018 
Q 1165 672 1286 528 
Q 1408 384 1683 384 
Q 2176 384 2528 966 
L 2528 3373 
L 3117 3373 
L 3117 0 
z
" id="FiraSans-Regular-75" transform="scale(0.015625)"/>
        <path id="FiraSans-Regular-20" transform="scale(0.015625)"/>
        <path d="M 3219 4730 
L 3219 0 
L 2701 0 
L 2643 467 
Q 2477 211 2227 67 
Q 1978 -77 1670 -77 
Q 1069 -77 733 396 
Q 397 870 397 1670 
Q 397 2189 557 2592 
Q 717 2995 1017 3222 
Q 1318 3450 1722 3450 
Q 2240 3450 2630 3034 
L 2630 4800 
L 3219 4730 
z
M 1798 390 
Q 2067 390 2259 515 
Q 2451 640 2630 890 
L 2630 2541 
Q 2464 2758 2275 2870 
Q 2086 2982 1850 2982 
Q 1459 2982 1244 2656 
Q 1030 2330 1030 1683 
Q 1030 1030 1228 710 
Q 1427 390 1798 390 
z
" id="FiraSans-Regular-64" transform="scale(0.015625)"/>
        <path d="M 640 0 
L 640 4410 
L 2982 4410 
L 2912 3923 
L 1248 3923 
L 1248 2419 
L 2688 2419 
L 2688 1939 
L 1248 1939 
L 1248 0 
L 640 0 
z
" id="FiraSans-Regular-46" transform="scale(0.015625)"/>
        <path d="M 2880 787 
Q 2880 582 2950 483 
Q 3021 384 3162 333 
L 3027 -77 
Q 2765 -45 2605 70 
Q 2445 186 2368 429 
Q 2029 -77 1363 -77 
Q 864 -77 576 204 
Q 288 486 288 941 
Q 288 1478 675 1766 
Q 1062 2054 1773 2054 
L 2291 2054 
L 2291 2304 
Q 2291 2662 2118 2816 
Q 1946 2970 1587 2970 
Q 1216 2970 678 2790 
L 531 3219 
Q 1158 3450 1696 3450 
Q 2291 3450 2585 3158 
Q 2880 2867 2880 2330 
L 2880 787 
z
M 1498 365 
Q 2003 365 2291 890 
L 2291 1664 
L 1850 1664 
Q 915 1664 915 973 
Q 915 672 1062 518 
Q 1210 365 1498 365 
z
" id="FiraSans-Regular-61" transform="scale(0.015625)"/>
        <path d="M 2150 3450 
Q 2726 3450 3065 2986 
Q 3405 2522 3405 1690 
Q 3405 1165 3245 765 
Q 3085 365 2784 144 
Q 2483 -77 2080 -77 
Q 1549 -77 1184 371 
L 1126 0 
L 608 0 
L 608 4730 
L 1197 4800 
L 1197 2950 
Q 1562 3450 2150 3450 
z
M 1939 390 
Q 2330 390 2550 707 
Q 2771 1024 2771 1690 
Q 2771 2374 2566 2678 
Q 2362 2982 1984 2982 
Q 1536 2982 1197 2458 
L 1197 845 
Q 1331 634 1526 512 
Q 1722 390 1939 390 
z
" id="FiraSans-Regular-62" transform="scale(0.015625)"/>
        <path d="M 2074 3450 
Q 2253 3450 2406 3411 
L 2298 2835 
Q 2144 2874 2003 2874 
Q 1690 2874 1498 2643 
Q 1306 2413 1197 1926 
L 1197 0 
L 608 0 
L 608 3373 
L 1114 3373 
L 1171 2688 
Q 1306 3066 1536 3258 
Q 1766 3450 2074 3450 
z
" id="FiraSans-Regular-72" transform="scale(0.015625)"/>
        <path d="M 1197 3373 
L 1197 0 
L 608 0 
L 608 3373 
L 1197 3373 
z
M 896 4992 
Q 1082 4992 1197 4877 
Q 1312 4762 1312 4589 
Q 1312 4416 1197 4304 
Q 1082 4192 896 4192 
Q 717 4192 601 4304 
Q 486 4416 486 4589 
Q 486 4762 601 4877 
Q 717 4992 896 4992 
z
" id="FiraSans-Regular-69" transform="scale(0.015625)"/>
        <path d="M 1837 3450 
Q 2138 3450 2387 3363 
Q 2637 3277 2867 3085 
L 2586 2714 
Q 2406 2842 2236 2902 
Q 2067 2963 1862 2963 
Q 1453 2963 1225 2636 
Q 998 2310 998 1670 
Q 998 1030 1222 726 
Q 1446 422 1862 422 
Q 2061 422 2227 483 
Q 2394 544 2598 678 
L 2867 294 
Q 2406 -77 1837 -77 
Q 1152 -77 758 384 
Q 365 845 365 1658 
Q 365 2195 544 2598 
Q 723 3002 1052 3226 
Q 1382 3450 1837 3450 
z
" id="FiraSans-Regular-63" transform="scale(0.015625)"/>
        <path d="M 1875 3450 
Q 2586 3450 2979 2976 
Q 3373 2502 3373 1690 
Q 3373 1165 3193 765 
Q 3014 365 2675 144 
Q 2336 -77 1869 -77 
Q 1158 -77 761 396 
Q 365 870 365 1683 
Q 365 2208 544 2608 
Q 723 3008 1062 3229 
Q 1402 3450 1875 3450 
z
M 1875 2976 
Q 998 2976 998 1683 
Q 998 397 1869 397 
Q 2739 397 2739 1690 
Q 2739 2976 1875 2976 
z
M 2374 5126 
L 2637 4634 
L 1280 4083 
L 1101 4397 
L 2374 5126 
z
" id="FiraSans-Regular-f3" transform="scale(0.015625)"/>
       </defs>
       <use xlink:href="#FiraSans-Regular-41"/>
       <use x="57.299988" xlink:href="#FiraSans-Regular-74"/>
       <use x="93.399979" xlink:href="#FiraSans-Regular-65"/>
       <use x="147.899963" xlink:href="#FiraSans-Regular-6e"/>
       <use x="206.499954" xlink:href="#FiraSans-Regular-65"/>
       <use x="260.999939" xlink:href="#FiraSans-Regular-75"/>
       <use x="319.199936" xlink:href="#FiraSans-Regular-20"/>
       <use x="345.699921" xlink:href="#FiraSans-Regular-64"/>
       <use x="405.499908" xlink:href="#FiraSans-Regular-65"/>
       <use x="459.999893" xlink:href="#FiraSans-Regular-20"/>
       <use x="486.499878" xlink:href="#FiraSans-Regular-46"/>
       <use x="535.599869" xlink:href="#FiraSans-Regular-61"/>
       <use x="589.999863" xlink:href="#FiraSans-Regular-62"/>
       <use x="649.399857" xlink:href="#FiraSans-Regular-72"/>
       <use x="687.999847" xlink:href="#FiraSans-Regular-69"/>
       <use x="716.199844" xlink:href="#FiraSans-Regular-63"/>
       <use x="763.999832" xlink:href="#FiraSans-Regular-61"/>
       <use x="818.399826" xlink:href="#FiraSans-Regular-63"/>
       <use x="866.199814" xlink:href="#FiraSans-Regular-69"/>
       <use x="894.399811" xlink:href="#FiraSans-Regular-f3"/>
      </g>
     </g>
    </g>
    <g id="ytick_2">
     <g id="line2d_8">
      <path clip-path="url(#pe328c2a3d7)" d="M 761.164062 591.124172 
L 1393.152188 591.124172 
" style="fill:none;stroke:#cccccc;stroke-linecap:round;stroke-width:2;"/>
     </g>
     <g id="text_8">
      <!-- Ateneu de Fabricació / Barcelona Recircula – Tool Library / Repair Cafè -->
      <g style="fill:#262626;" transform="translate(34.31125 600.001516)scale(0.22 -0.22)">
       <defs>
        <path d="M 2157 5165 
L 2656 5050 
L 1178 -666 
L 672 -544 
L 2157 5165 
z
" id="FiraSans-Regular-2f" transform="scale(0.015625)"/>
        <path d="M 2586 2330 
Q 3040 2253 3321 2009 
Q 3603 1766 3603 1254 
Q 3603 0 1856 0 
L 640 0 
L 640 4410 
L 1683 4410 
Q 2522 4410 2966 4134 
Q 3411 3859 3411 3296 
Q 3411 2912 3171 2656 
Q 2931 2400 2586 2330 
z
M 1248 3930 
L 1248 2541 
L 1914 2541 
Q 2298 2541 2544 2726 
Q 2790 2912 2790 3251 
Q 2790 3635 2531 3782 
Q 2272 3930 1747 3930 
L 1248 3930 
z
M 1856 486 
Q 2394 486 2678 646 
Q 2963 806 2963 1254 
Q 2963 1690 2688 1882 
Q 2413 2074 1971 2074 
L 1248 2074 
L 1248 486 
L 1856 486 
z
" id="FiraSans-Regular-42" transform="scale(0.015625)"/>
        <path d="M 1280 -77 
Q 954 -77 765 118 
Q 576 314 576 666 
L 576 4730 
L 1165 4800 
L 1165 678 
Q 1165 538 1213 474 
Q 1261 410 1376 410 
Q 1498 410 1594 448 
L 1747 38 
Q 1536 -77 1280 -77 
z
" id="FiraSans-Regular-6c" transform="scale(0.015625)"/>
        <path d="M 1875 3450 
Q 2586 3450 2979 2976 
Q 3373 2502 3373 1690 
Q 3373 1165 3193 765 
Q 3014 365 2675 144 
Q 2336 -77 1869 -77 
Q 1158 -77 761 396 
Q 365 870 365 1683 
Q 365 2208 544 2608 
Q 723 3008 1062 3229 
Q 1402 3450 1875 3450 
z
M 1875 2976 
Q 998 2976 998 1683 
Q 998 397 1869 397 
Q 2739 397 2739 1690 
Q 2739 2976 1875 2976 
z
" id="FiraSans-Regular-6f" transform="scale(0.015625)"/>
        <path d="M 1933 1869 
L 1248 1869 
L 1248 0 
L 640 0 
L 640 4410 
L 1798 4410 
Q 2624 4410 3049 4096 
Q 3475 3782 3475 3162 
Q 3475 2701 3238 2413 
Q 3002 2125 2522 1978 
L 3712 0 
L 2989 0 
L 1933 1869 
z
M 1862 2336 
Q 2342 2336 2585 2531 
Q 2829 2726 2829 3162 
Q 2829 3571 2582 3753 
Q 2336 3936 1792 3936 
L 1248 3936 
L 1248 2336 
L 1862 2336 
z
" id="FiraSans-Regular-52" transform="scale(0.015625)"/>
        <path d="M 205 1754 
L 205 2253 
L 3123 2253 
L 3123 1754 
L 205 1754 
z
" id="FiraSans-Regular-2013" transform="scale(0.015625)"/>
        <path d="M 3245 4410 
L 3181 3891 
L 1958 3891 
L 1958 0 
L 1350 0 
L 1350 3891 
L 96 3891 
L 96 4410 
L 3245 4410 
z
" id="FiraSans-Regular-54" transform="scale(0.015625)"/>
        <path d="M 1248 4410 
L 1248 531 
L 3059 531 
L 2989 0 
L 640 0 
L 640 4410 
L 1248 4410 
z
" id="FiraSans-Regular-4c" transform="scale(0.015625)"/>
        <path d="M 1958 -19 
Q 1760 -608 1405 -950 
Q 1050 -1293 390 -1363 
L 326 -902 
Q 659 -845 857 -736 
Q 1056 -627 1174 -457 
Q 1293 -288 1395 0 
L 1197 0 
L 64 3373 
L 691 3373 
L 1594 429 
L 2477 3373 
L 3085 3373 
L 1958 -19 
z
" id="FiraSans-Regular-79" transform="scale(0.015625)"/>
        <path d="M 2157 3450 
Q 2803 3450 3104 2989 
Q 3405 2528 3405 1690 
Q 3405 896 3059 409 
Q 2714 -77 2080 -77 
Q 1517 -77 1197 307 
L 1197 -1293 
L 608 -1363 
L 608 3373 
L 1114 3373 
L 1158 2918 
Q 1344 3174 1606 3312 
Q 1869 3450 2157 3450 
z
M 1939 403 
Q 2771 403 2771 1690 
Q 2771 2982 2010 2982 
Q 1760 2982 1555 2835 
Q 1350 2688 1197 2458 
L 1197 813 
Q 1325 614 1517 508 
Q 1709 403 1939 403 
z
" id="FiraSans-Regular-70" transform="scale(0.015625)"/>
        <path d="M 2182 4486 
Q 2579 4486 2851 4384 
Q 3123 4282 3405 4051 
L 3072 3661 
Q 2669 3987 2221 3987 
Q 1670 3987 1334 3564 
Q 998 3142 998 2208 
Q 998 1299 1331 867 
Q 1664 435 2214 435 
Q 2496 435 2707 531 
Q 2918 627 3155 800 
L 3456 416 
Q 3251 205 2931 64 
Q 2611 -77 2195 -77 
Q 1658 -77 1238 188 
Q 819 454 585 969 
Q 352 1485 352 2208 
Q 352 2931 595 3446 
Q 838 3962 1254 4224 
Q 1670 4486 2182 4486 
z
" id="FiraSans-Regular-43" transform="scale(0.015625)"/>
        <path d="M 1754 4326 
Q 1485 4326 1369 4208 
Q 1254 4090 1254 3840 
L 1254 3373 
L 2074 3373 
L 2010 2918 
L 1254 2918 
L 1254 0 
L 666 0 
L 666 2918 
L 64 2918 
L 64 3373 
L 666 3373 
L 666 3834 
Q 666 4269 944 4534 
Q 1222 4800 1722 4800 
Q 1952 4800 2134 4758 
Q 2317 4717 2528 4627 
L 2342 4198 
Q 2054 4326 1754 4326 
z
" id="FiraSans-Regular-66" transform="scale(0.015625)"/>
        <path d="M 3155 1786 
Q 3155 1638 3142 1485 
L 992 1485 
Q 1030 928 1273 665 
Q 1517 403 1901 403 
Q 2144 403 2349 473 
Q 2554 544 2778 698 
L 3034 346 
Q 2496 -77 1856 -77 
Q 1152 -77 758 384 
Q 365 845 365 1651 
Q 365 2176 534 2582 
Q 704 2989 1021 3219 
Q 1338 3450 1766 3450 
Q 2438 3450 2796 3008 
Q 3155 2566 3155 1786 
z
M 2573 1958 
Q 2573 2458 2374 2720 
Q 2176 2982 1779 2982 
Q 1056 2982 992 1920 
L 2573 1920 
L 2573 1958 
z
M 1344 5126 
L 2618 4397 
L 2438 4083 
L 1082 4634 
L 1344 5126 
z
" id="FiraSans-Regular-e8" transform="scale(0.015625)"/>
       </defs>
       <use xlink:href="#FiraSans-Regular-41"/>
       <use x="57.299988" xlink:href="#FiraSans-Regular-74"/>
       <use x="93.399979" xlink:href="#FiraSans-Regular-65"/>
       <use x="147.899963" xlink:href="#FiraSans-Regular-6e"/>
       <use x="206.499954" xlink:href="#FiraSans-Regular-65"/>
       <use x="260.999939" xlink:href="#FiraSans-Regular-75"/>
       <use x="319.199936" xlink:href="#FiraSans-Regular-20"/>
       <use x="345.699921" xlink:href="#FiraSans-Regular-64"/>
       <use x="405.499908" xlink:href="#FiraSans-Regular-65"/>
       <use x="459.999893" xlink:href="#FiraSans-Regular-20"/>
       <use x="486.499878" xlink:href="#FiraSans-Regular-46"/>
       <use x="535.599869" xlink:href="#FiraSans-Regular-61"/>
       <use x="589.999863" xlink:href="#FiraSans-Regular-62"/>
       <use x="649.399857" xlink:href="#FiraSans-Regular-72"/>
       <use x="687.999847" xlink:href="#FiraSans-Regular-69"/>
       <use x="716.199844" xlink:href="#FiraSans-Regular-63"/>
       <use x="763.999832" xlink:href="#FiraSans-Regular-61"/>
       <use x="818.399826" xlink:href="#FiraSans-Regular-63"/>
       <use x="866.199814" xlink:href="#FiraSans-Regular-69"/>
       <use x="894.399811" xlink:href="#FiraSans-Regular-f3"/>
       <use x="952.799805" xlink:href="#FiraSans-Regular-20"/>
       <use x="979.299789" xlink:href="#FiraSans-Regular-2f"/>
       <use x="1031.299774" xlink:href="#FiraSans-Regular-20"/>
       <use x="1057.799759" xlink:href="#FiraSans-Regular-42"/>
       <use x="1118.599747" xlink:href="#FiraSans-Regular-61"/>
       <use x="1172.999741" xlink:href="#FiraSans-Regular-72"/>
       <use x="1211.599731" xlink:href="#FiraSans-Regular-63"/>
       <use x="1259.399719" xlink:href="#FiraSans-Regular-65"/>
       <use x="1313.899704" xlink:href="#FiraSans-Regular-6c"/>
       <use x="1343.199692" xlink:href="#FiraSans-Regular-6f"/>
       <use x="1401.599686" xlink:href="#FiraSans-Regular-6e"/>
       <use x="1460.199677" xlink:href="#FiraSans-Regular-61"/>
       <use x="1514.59967" xlink:href="#FiraSans-Regular-20"/>
       <use x="1541.099655" xlink:href="#FiraSans-Regular-52"/>
       <use x="1601.59964" xlink:href="#FiraSans-Regular-65"/>
       <use x="1656.099625" xlink:href="#FiraSans-Regular-63"/>
       <use x="1703.899612" xlink:href="#FiraSans-Regular-69"/>
       <use x="1732.099609" xlink:href="#FiraSans-Regular-72"/>
       <use x="1770.6996" xlink:href="#FiraSans-Regular-63"/>
       <use x="1818.499588" xlink:href="#FiraSans-Regular-75"/>
       <use x="1876.699585" xlink:href="#FiraSans-Regular-6c"/>
       <use x="1905.999573" xlink:href="#FiraSans-Regular-61"/>
       <use x="1960.399567" xlink:href="#FiraSans-Regular-20"/>
       <use x="1986.899551" xlink:href="#FiraSans-Regular-2013"/>
       <use x="2038.899536" xlink:href="#FiraSans-Regular-20"/>
       <use x="2065.399521" xlink:href="#FiraSans-Regular-54"/>
       <use x="2117.099518" xlink:href="#FiraSans-Regular-6f"/>
       <use x="2175.499512" xlink:href="#FiraSans-Regular-6f"/>
       <use x="2233.899506" xlink:href="#FiraSans-Regular-6c"/>
       <use x="2263.199493" xlink:href="#FiraSans-Regular-20"/>
       <use x="2289.699478" xlink:href="#FiraSans-Regular-4c"/>
       <use x="2339.499466" xlink:href="#FiraSans-Regular-69"/>
       <use x="2367.699463" xlink:href="#FiraSans-Regular-62"/>
       <use x="2427.099457" xlink:href="#FiraSans-Regular-72"/>
       <use x="2465.699448" xlink:href="#FiraSans-Regular-61"/>
       <use x="2520.099442" xlink:href="#FiraSans-Regular-72"/>
       <use x="2558.699432" xlink:href="#FiraSans-Regular-79"/>
       <use x="2607.899429" xlink:href="#FiraSans-Regular-20"/>
       <use x="2634.399414" xlink:href="#FiraSans-Regular-2f"/>
       <use x="2686.399399" xlink:href="#FiraSans-Regular-20"/>
       <use x="2712.899384" xlink:href="#FiraSans-Regular-52"/>
       <use x="2773.399368" xlink:href="#FiraSans-Regular-65"/>
       <use x="2827.899353" xlink:href="#FiraSans-Regular-70"/>
       <use x="2887.299347" xlink:href="#FiraSans-Regular-61"/>
       <use x="2941.699341" xlink:href="#FiraSans-Regular-69"/>
       <use x="2969.899338" xlink:href="#FiraSans-Regular-72"/>
       <use x="3008.499329" xlink:href="#FiraSans-Regular-20"/>
       <use x="3034.999313" xlink:href="#FiraSans-Regular-43"/>
       <use x="3090.999298" xlink:href="#FiraSans-Regular-61"/>
       <use x="3145.399292" xlink:href="#FiraSans-Regular-66"/>
       <use x="3178.899277" xlink:href="#FiraSans-Regular-e8"/>
      </g>
     </g>
    </g>
    <g id="ytick_3">
     <g id="line2d_9">
      <path clip-path="url(#pe328c2a3d7)" d="M 761.164062 559.560703 
L 1393.152188 559.560703 
" style="fill:none;stroke:#cccccc;stroke-linecap:round;stroke-width:2;"/>
     </g>
     <g id="text_9">
      <!-- Barcelona Recircula – Tool Library / Repair Cafè -->
      <g style="fill:#262626;" transform="translate(267.026563 568.438047)scale(0.22 -0.22)">
       <use xlink:href="#FiraSans-Regular-42"/>
       <use x="60.799988" xlink:href="#FiraSans-Regular-61"/>
       <use x="115.199982" xlink:href="#FiraSans-Regular-72"/>
       <use x="153.799973" xlink:href="#FiraSans-Regular-63"/>
       <use x="201.59996" xlink:href="#FiraSans-Regular-65"/>
       <use x="256.099945" xlink:href="#FiraSans-Regular-6c"/>
       <use x="285.399933" xlink:href="#FiraSans-Regular-6f"/>
       <use x="343.799927" xlink:href="#FiraSans-Regular-6e"/>
       <use x="402.399918" xlink:href="#FiraSans-Regular-61"/>
       <use x="456.799911" xlink:href="#FiraSans-Regular-20"/>
       <use x="483.299896" xlink:href="#FiraSans-Regular-52"/>
       <use x="543.799881" xlink:href="#FiraSans-Regular-65"/>
       <use x="598.299866" xlink:href="#FiraSans-Regular-63"/>
       <use x="646.099854" xlink:href="#FiraSans-Regular-69"/>
       <use x="674.29985" xlink:href="#FiraSans-Regular-72"/>
       <use x="712.899841" xlink:href="#FiraSans-Regular-63"/>
       <use x="760.699829" xlink:href="#FiraSans-Regular-75"/>
       <use x="818.899826" xlink:href="#FiraSans-Regular-6c"/>
       <use x="848.199814" xlink:href="#FiraSans-Regular-61"/>
       <use x="902.599808" xlink:href="#FiraSans-Regular-20"/>
       <use x="929.099792" xlink:href="#FiraSans-Regular-2013"/>
       <use x="981.099777" xlink:href="#FiraSans-Regular-20"/>
       <use x="1007.599762" xlink:href="#FiraSans-Regular-54"/>
       <use x="1059.299759" xlink:href="#FiraSans-Regular-6f"/>
       <use x="1117.699753" xlink:href="#FiraSans-Regular-6f"/>
       <use x="1176.099747" xlink:href="#FiraSans-Regular-6c"/>
       <use x="1205.399734" xlink:href="#FiraSans-Regular-20"/>
       <use x="1231.899719" xlink:href="#FiraSans-Regular-4c"/>
       <use x="1281.699707" xlink:href="#FiraSans-Regular-69"/>
       <use x="1309.899704" xlink:href="#FiraSans-Regular-62"/>
       <use x="1369.299698" xlink:href="#FiraSans-Regular-72"/>
       <use x="1407.899689" xlink:href="#FiraSans-Regular-61"/>
       <use x="1462.299683" xlink:href="#FiraSans-Regular-72"/>
       <use x="1500.899673" xlink:href="#FiraSans-Regular-79"/>
       <use x="1550.09967" xlink:href="#FiraSans-Regular-20"/>
       <use x="1576.599655" xlink:href="#FiraSans-Regular-2f"/>
       <use x="1628.59964" xlink:href="#FiraSans-Regular-20"/>
       <use x="1655.099625" xlink:href="#FiraSans-Regular-52"/>
       <use x="1715.599609" xlink:href="#FiraSans-Regular-65"/>
       <use x="1770.099594" xlink:href="#FiraSans-Regular-70"/>
       <use x="1829.499588" xlink:href="#FiraSans-Regular-61"/>
       <use x="1883.899582" xlink:href="#FiraSans-Regular-69"/>
       <use x="1912.099579" xlink:href="#FiraSans-Regular-72"/>
       <use x="1950.69957" xlink:href="#FiraSans-Regular-20"/>
       <use x="1977.199554" xlink:href="#FiraSans-Regular-43"/>
       <use x="2033.199539" xlink:href="#FiraSans-Regular-61"/>
       <use x="2087.599533" xlink:href="#FiraSans-Regular-66"/>
       <use x="2121.099518" xlink:href="#FiraSans-Regular-e8"/>
      </g>
     </g>
    </g>
    <g id="ytick_4">
     <g id="line2d_10">
      <path clip-path="url(#pe328c2a3d7)" d="M 761.164062 527.997234 
L 1393.152188 527.997234 
" style="fill:none;stroke:#cccccc;stroke-linecap:round;stroke-width:2;"/>
     </g>
     <g id="text_10">
      <!-- City Manufacturing Network Hub -->
      <g style="fill:#262626;" transform="translate(422.30875 536.577234)scale(0.22 -0.22)">
       <defs>
        <path d="M 4582 0 
L 3994 0 
L 3840 1990 
Q 3744 3162 3731 3789 
L 2778 499 
L 2208 499 
L 1203 3795 
Q 1203 2995 1120 1946 
L 973 0 
L 397 0 
L 762 4410 
L 1581 4410 
L 2509 1203 
L 3392 4410 
L 4218 4410 
L 4582 0 
z
" id="FiraSans-Regular-4d" transform="scale(0.015625)"/>
        <path d="M 3328 3219 
Q 3136 3155 2905 3136 
Q 2675 3117 2342 3117 
Q 2938 2848 2938 2266 
Q 2938 1760 2592 1440 
Q 2246 1120 1651 1120 
Q 1421 1120 1222 1184 
Q 1146 1133 1101 1046 
Q 1056 960 1056 870 
Q 1056 595 1498 595 
L 2035 595 
Q 2374 595 2636 473 
Q 2899 352 3043 141 
Q 3187 -70 3187 -339 
Q 3187 -832 2784 -1097 
Q 2381 -1363 1606 -1363 
Q 1062 -1363 745 -1251 
Q 429 -1139 294 -915 
Q 160 -691 160 -339 
L 691 -339 
Q 691 -544 768 -662 
Q 845 -781 1043 -841 
Q 1242 -902 1606 -902 
Q 2138 -902 2365 -771 
Q 2592 -640 2592 -378 
Q 2592 -141 2413 -19 
Q 2234 102 1914 102 
L 1382 102 
Q 954 102 733 284 
Q 512 467 512 742 
Q 512 909 608 1062 
Q 704 1216 883 1338 
Q 589 1491 451 1718 
Q 314 1946 314 2272 
Q 314 2611 483 2880 
Q 653 3149 950 3299 
Q 1248 3450 1613 3450 
Q 2010 3443 2278 3478 
Q 2547 3514 2723 3574 
Q 2899 3635 3155 3750 
L 3328 3219 
z
M 1613 3027 
Q 1280 3027 1097 2819 
Q 915 2611 915 2272 
Q 915 1926 1100 1718 
Q 1286 1510 1626 1510 
Q 1971 1510 2153 1712 
Q 2336 1914 2336 2278 
Q 2336 3027 1613 3027 
z
" id="FiraSans-Regular-67" transform="scale(0.015625)"/>
        <path d="M 3731 0 
L 2918 0 
L 1126 3744 
Q 1165 3302 1187 2928 
Q 1210 2554 1210 2022 
L 1210 0 
L 640 0 
L 640 4410 
L 1434 4410 
L 3245 659 
Q 3226 826 3194 1242 
Q 3162 1658 3162 2003 
L 3162 4410 
L 3731 4410 
L 3731 0 
z
" id="FiraSans-Regular-4e" transform="scale(0.015625)"/>
        <path d="M 4461 3373 
L 3693 0 
L 2893 0 
L 2304 2842 
L 1696 0 
L 915 0 
L 128 3373 
L 717 3373 
L 1325 410 
L 1990 3373 
L 2650 3373 
L 3283 410 
L 3898 3373 
L 4461 3373 
z
" id="FiraSans-Regular-77" transform="scale(0.015625)"/>
        <path d="M 1197 4800 
L 1197 0 
L 608 0 
L 608 4730 
L 1197 4800 
z
M 3136 3373 
L 1894 1882 
L 3277 0 
L 2573 0 
L 1235 1843 
L 2477 3373 
L 3136 3373 
z
" id="FiraSans-Regular-6b" transform="scale(0.015625)"/>
        <path d="M 3104 0 
L 3104 2067 
L 1248 2067 
L 1248 0 
L 640 0 
L 640 4410 
L 1248 4410 
L 1248 2566 
L 3104 2566 
L 3104 4410 
L 3712 4410 
L 3712 0 
L 3104 0 
z
" id="FiraSans-Regular-48" transform="scale(0.015625)"/>
       </defs>
       <use xlink:href="#FiraSans-Regular-43"/>
       <use x="55.999985" xlink:href="#FiraSans-Regular-69"/>
       <use x="84.199982" xlink:href="#FiraSans-Regular-74"/>
       <use x="120.299973" xlink:href="#FiraSans-Regular-79"/>
       <use x="169.499969" xlink:href="#FiraSans-Regular-20"/>
       <use x="195.999954" xlink:href="#FiraSans-Regular-4d"/>
       <use x="273.799942" xlink:href="#FiraSans-Regular-61"/>
       <use x="328.199936" xlink:href="#FiraSans-Regular-6e"/>
       <use x="386.799927" xlink:href="#FiraSans-Regular-75"/>
       <use x="444.999924" xlink:href="#FiraSans-Regular-66"/>
       <use x="478.499908" xlink:href="#FiraSans-Regular-61"/>
       <use x="532.899902" xlink:href="#FiraSans-Regular-63"/>
       <use x="580.69989" xlink:href="#FiraSans-Regular-74"/>
       <use x="616.799881" xlink:href="#FiraSans-Regular-75"/>
       <use x="674.999878" xlink:href="#FiraSans-Regular-72"/>
       <use x="713.599869" xlink:href="#FiraSans-Regular-69"/>
       <use x="741.799866" xlink:href="#FiraSans-Regular-6e"/>
       <use x="800.399857" xlink:href="#FiraSans-Regular-67"/>
       <use x="852.399841" xlink:href="#FiraSans-Regular-20"/>
       <use x="878.899826" xlink:href="#FiraSans-Regular-4e"/>
       <use x="947.199814" xlink:href="#FiraSans-Regular-65"/>
       <use x="1001.699799" xlink:href="#FiraSans-Regular-74"/>
       <use x="1037.799789" xlink:href="#FiraSans-Regular-77"/>
       <use x="1109.499771" xlink:href="#FiraSans-Regular-6f"/>
       <use x="1167.899765" xlink:href="#FiraSans-Regular-72"/>
       <use x="1206.499756" xlink:href="#FiraSans-Regular-6b"/>
       <use x="1257.699753" xlink:href="#FiraSans-Regular-20"/>
       <use x="1284.199738" xlink:href="#FiraSans-Regular-48"/>
       <use x="1352.199722" xlink:href="#FiraSans-Regular-75"/>
       <use x="1410.399719" xlink:href="#FiraSans-Regular-62"/>
      </g>
     </g>
    </g>
    <g id="ytick_5">
     <g id="line2d_11">
      <path clip-path="url(#pe328c2a3d7)" d="M 761.164062 496.433766 
L 1393.152188 496.433766 
" style="fill:none;stroke:#cccccc;stroke-linecap:round;stroke-width:2;"/>
     </g>
     <g id="text_11">
      <!-- City Space -->
      <g style="fill:#262626;" transform="translate(643.01 505.013766)scale(0.22 -0.22)">
       <defs>
        <path d="M 1728 4486 
Q 2170 4486 2483 4361 
Q 2797 4237 3091 3974 
L 2758 3603 
Q 2509 3802 2269 3894 
Q 2029 3987 1754 3987 
Q 1408 3987 1184 3827 
Q 960 3667 960 3360 
Q 960 3168 1037 3037 
Q 1114 2906 1322 2797 
Q 1530 2688 1926 2566 
Q 2342 2438 2617 2291 
Q 2893 2144 3062 1885 
Q 3232 1626 3232 1229 
Q 3232 845 3043 550 
Q 2854 256 2499 89 
Q 2144 -77 1658 -77 
Q 742 -77 160 493 
L 493 864 
Q 762 646 1037 534 
Q 1312 422 1651 422 
Q 2061 422 2329 624 
Q 2598 826 2598 1210 
Q 2598 1427 2515 1571 
Q 2432 1715 2230 1830 
Q 2029 1946 1645 2061 
Q 966 2266 652 2554 
Q 339 2842 339 3334 
Q 339 3667 515 3929 
Q 691 4192 1008 4339 
Q 1325 4486 1728 4486 
z
" id="FiraSans-Regular-53" transform="scale(0.015625)"/>
       </defs>
       <use xlink:href="#FiraSans-Regular-43"/>
       <use x="55.999985" xlink:href="#FiraSans-Regular-69"/>
       <use x="84.199982" xlink:href="#FiraSans-Regular-74"/>
       <use x="120.299973" xlink:href="#FiraSans-Regular-79"/>
       <use x="169.499969" xlink:href="#FiraSans-Regular-20"/>
       <use x="195.999954" xlink:href="#FiraSans-Regular-53"/>
       <use x="250.499939" xlink:href="#FiraSans-Regular-70"/>
       <use x="309.899933" xlink:href="#FiraSans-Regular-61"/>
       <use x="364.299927" xlink:href="#FiraSans-Regular-63"/>
       <use x="412.099915" xlink:href="#FiraSans-Regular-65"/>
      </g>
     </g>
    </g>
    <g id="ytick_6">
     <g id="line2d_12">
      <path clip-path="url(#pe328c2a3d7)" d="M 761.164062 464.870297 
L 1393.152188 464.870297 
" style="fill:none;stroke:#cccccc;stroke-linecap:round;stroke-width:2;"/>
     </g>
     <g id="text_12">
      <!-- DIYBio Lab -->
      <g style="fill:#262626;" transform="translate(638.65125 473.120297)scale(0.22 -0.22)">
       <defs>
        <path d="M 1562 4410 
Q 2560 4410 3165 3946 
Q 3770 3482 3770 2227 
Q 3770 1005 3165 502 
Q 2560 0 1696 0 
L 640 0 
L 640 4410 
L 1562 4410 
z
M 1248 3923 
L 1248 480 
L 1741 480 
Q 2355 480 2739 857 
Q 3123 1235 3123 2227 
Q 3123 2925 2924 3299 
Q 2726 3674 2419 3798 
Q 2112 3923 1696 3923 
L 1248 3923 
z
" id="FiraSans-Regular-44" transform="scale(0.015625)"/>
        <path d="M 1248 4410 
L 1248 0 
L 640 0 
L 640 4410 
L 1248 4410 
z
" id="FiraSans-Regular-49" transform="scale(0.015625)"/>
        <path d="M 3488 4410 
L 2067 1696 
L 2067 0 
L 1453 0 
L 1453 1690 
L 32 4410 
L 704 4410 
L 1779 2227 
L 2854 4410 
L 3488 4410 
z
" id="FiraSans-Regular-59" transform="scale(0.015625)"/>
       </defs>
       <use xlink:href="#FiraSans-Regular-44"/>
       <use x="64.399994" xlink:href="#FiraSans-Regular-49"/>
       <use x="93.899979" xlink:href="#FiraSans-Regular-59"/>
       <use x="148.899963" xlink:href="#FiraSans-Regular-42"/>
       <use x="209.699951" xlink:href="#FiraSans-Regular-69"/>
       <use x="237.899948" xlink:href="#FiraSans-Regular-6f"/>
       <use x="296.299942" xlink:href="#FiraSans-Regular-20"/>
       <use x="322.799927" xlink:href="#FiraSans-Regular-4c"/>
       <use x="372.599915" xlink:href="#FiraSans-Regular-61"/>
       <use x="426.999908" xlink:href="#FiraSans-Regular-62"/>
      </g>
     </g>
    </g>
    <g id="ytick_7">
     <g id="line2d_13">
      <path clip-path="url(#pe328c2a3d7)" d="M 761.164062 433.306828 
L 1393.152188 433.306828 
" style="fill:none;stroke:#cccccc;stroke-linecap:round;stroke-width:2;"/>
     </g>
     <g id="text_13">
      <!-- Fab Lab -->
      <g style="fill:#262626;" transform="translate(668.000625 441.556828)scale(0.22 -0.22)">
       <use xlink:href="#FiraSans-Regular-46"/>
       <use x="49.099991" xlink:href="#FiraSans-Regular-61"/>
       <use x="103.499985" xlink:href="#FiraSans-Regular-62"/>
       <use x="162.899979" xlink:href="#FiraSans-Regular-20"/>
       <use x="189.399963" xlink:href="#FiraSans-Regular-4c"/>
       <use x="239.199951" xlink:href="#FiraSans-Regular-61"/>
       <use x="293.599945" xlink:href="#FiraSans-Regular-62"/>
      </g>
     </g>
    </g>
    <g id="ytick_8">
     <g id="line2d_14">
      <path clip-path="url(#pe328c2a3d7)" d="M 761.164062 401.743359 
L 1393.152188 401.743359 
" style="fill:none;stroke:#cccccc;stroke-linecap:round;stroke-width:2;"/>
     </g>
     <g id="text_14">
      <!-- Fab Lab / Incubator-Accelerator -->
      <g style="fill:#262626;" transform="translate(425.213437 409.993359)scale(0.22 -0.22)">
       <defs>
        <path d="M 384 1754 
L 384 2253 
L 2195 2253 
L 2195 1754 
L 384 1754 
z
" id="FiraSans-Regular-2d" transform="scale(0.015625)"/>
       </defs>
       <use xlink:href="#FiraSans-Regular-46"/>
       <use x="49.099991" xlink:href="#FiraSans-Regular-61"/>
       <use x="103.499985" xlink:href="#FiraSans-Regular-62"/>
       <use x="162.899979" xlink:href="#FiraSans-Regular-20"/>
       <use x="189.399963" xlink:href="#FiraSans-Regular-4c"/>
       <use x="239.199951" xlink:href="#FiraSans-Regular-61"/>
       <use x="293.599945" xlink:href="#FiraSans-Regular-62"/>
       <use x="352.999939" xlink:href="#FiraSans-Regular-20"/>
       <use x="379.499924" xlink:href="#FiraSans-Regular-2f"/>
       <use x="431.499908" xlink:href="#FiraSans-Regular-20"/>
       <use x="457.999893" xlink:href="#FiraSans-Regular-49"/>
       <use x="487.499878" xlink:href="#FiraSans-Regular-6e"/>
       <use x="546.099869" xlink:href="#FiraSans-Regular-63"/>
       <use x="593.899857" xlink:href="#FiraSans-Regular-75"/>
       <use x="652.099854" xlink:href="#FiraSans-Regular-62"/>
       <use x="711.499847" xlink:href="#FiraSans-Regular-61"/>
       <use x="765.899841" xlink:href="#FiraSans-Regular-74"/>
       <use x="801.999832" xlink:href="#FiraSans-Regular-6f"/>
       <use x="860.399826" xlink:href="#FiraSans-Regular-72"/>
       <use x="898.999817" xlink:href="#FiraSans-Regular-2d"/>
       <use x="939.299805" xlink:href="#FiraSans-Regular-41"/>
       <use x="996.599792" xlink:href="#FiraSans-Regular-63"/>
       <use x="1044.39978" xlink:href="#FiraSans-Regular-63"/>
       <use x="1092.199768" xlink:href="#FiraSans-Regular-65"/>
       <use x="1146.699753" xlink:href="#FiraSans-Regular-6c"/>
       <use x="1175.999741" xlink:href="#FiraSans-Regular-65"/>
       <use x="1230.499725" xlink:href="#FiraSans-Regular-72"/>
       <use x="1269.099716" xlink:href="#FiraSans-Regular-61"/>
       <use x="1323.49971" xlink:href="#FiraSans-Regular-74"/>
       <use x="1359.599701" xlink:href="#FiraSans-Regular-6f"/>
       <use x="1417.999695" xlink:href="#FiraSans-Regular-72"/>
      </g>
     </g>
    </g>
    <g id="ytick_9">
     <g id="line2d_15">
      <path clip-path="url(#pe328c2a3d7)" d="M 761.164062 370.179891 
L 1393.152188 370.179891 
" style="fill:none;stroke:#cccccc;stroke-linecap:round;stroke-width:2;"/>
     </g>
     <g id="text_15">
      <!-- FabCafé -->
      <g style="fill:#262626;" transform="translate(666.175313 378.429891)scale(0.22 -0.22)">
       <defs>
        <path d="M 3155 1786 
Q 3155 1638 3142 1485 
L 992 1485 
Q 1030 928 1273 665 
Q 1517 403 1901 403 
Q 2144 403 2349 473 
Q 2554 544 2778 698 
L 3034 346 
Q 2496 -77 1856 -77 
Q 1152 -77 758 384 
Q 365 845 365 1651 
Q 365 2176 534 2582 
Q 704 2989 1021 3219 
Q 1338 3450 1766 3450 
Q 2438 3450 2796 3008 
Q 3155 2566 3155 1786 
z
M 2573 1958 
Q 2573 2458 2374 2720 
Q 2176 2982 1779 2982 
Q 1056 2982 992 1920 
L 2573 1920 
L 2573 1958 
z
M 2291 5126 
L 2554 4634 
L 1197 4083 
L 1018 4397 
L 2291 5126 
z
" id="FiraSans-Regular-e9" transform="scale(0.015625)"/>
       </defs>
       <use xlink:href="#FiraSans-Regular-46"/>
       <use x="49.099991" xlink:href="#FiraSans-Regular-61"/>
       <use x="103.499985" xlink:href="#FiraSans-Regular-62"/>
       <use x="162.899979" xlink:href="#FiraSans-Regular-43"/>
       <use x="218.899963" xlink:href="#FiraSans-Regular-61"/>
       <use x="273.299957" xlink:href="#FiraSans-Regular-66"/>
       <use x="306.799942" xlink:href="#FiraSans-Regular-e9"/>
      </g>
     </g>
    </g>
    <g id="ytick_10">
     <g id="line2d_16">
      <path clip-path="url(#pe328c2a3d7)" d="M 761.164062 338.616422 
L 1393.152188 338.616422 
" style="fill:none;stroke:#cccccc;stroke-linecap:round;stroke-width:2;"/>
     </g>
     <g id="text_16">
      <!-- Foundation -->
      <g style="fill:#262626;" transform="translate(631.30875 346.866422)scale(0.22 -0.22)">
       <use xlink:href="#FiraSans-Regular-46"/>
       <use x="49.099991" xlink:href="#FiraSans-Regular-6f"/>
       <use x="107.499985" xlink:href="#FiraSans-Regular-75"/>
       <use x="165.699982" xlink:href="#FiraSans-Regular-6e"/>
       <use x="224.299973" xlink:href="#FiraSans-Regular-64"/>
       <use x="284.09996" xlink:href="#FiraSans-Regular-61"/>
       <use x="338.499954" xlink:href="#FiraSans-Regular-74"/>
       <use x="374.599945" xlink:href="#FiraSans-Regular-69"/>
       <use x="402.799942" xlink:href="#FiraSans-Regular-6f"/>
       <use x="461.199936" xlink:href="#FiraSans-Regular-6e"/>
      </g>
     </g>
    </g>
    <g id="ytick_11">
     <g id="line2d_17">
      <path clip-path="url(#pe328c2a3d7)" d="M 761.164062 307.052953 
L 1393.152188 307.052953 
" style="fill:none;stroke:#cccccc;stroke-linecap:round;stroke-width:2;"/>
     </g>
     <g id="text_17">
      <!-- Hackerspace -->
      <g style="fill:#262626;" transform="translate(618.655313 315.302953)scale(0.22 -0.22)">
       <defs>
        <path d="M 1523 3450 
Q 1869 3450 2144 3354 
Q 2419 3258 2669 3066 
L 2419 2694 
Q 2189 2842 1981 2912 
Q 1773 2982 1542 2982 
Q 1254 2982 1088 2864 
Q 922 2746 922 2541 
Q 922 2336 1078 2221 
Q 1235 2106 1645 1997 
Q 2208 1856 2486 1613 
Q 2765 1370 2765 947 
Q 2765 448 2377 185 
Q 1990 -77 1434 -77 
Q 666 -77 160 365 
L 474 723 
Q 902 397 1421 397 
Q 1754 397 1949 534 
Q 2144 672 2144 909 
Q 2144 1082 2073 1187 
Q 2003 1293 1830 1373 
Q 1658 1453 1325 1542 
Q 787 1683 547 1920 
Q 307 2157 307 2522 
Q 307 2784 464 2998 
Q 621 3213 899 3331 
Q 1178 3450 1523 3450 
z
" id="FiraSans-Regular-73" transform="scale(0.015625)"/>
       </defs>
       <use xlink:href="#FiraSans-Regular-48"/>
       <use x="67.999985" xlink:href="#FiraSans-Regular-61"/>
       <use x="122.399979" xlink:href="#FiraSans-Regular-63"/>
       <use x="170.199966" xlink:href="#FiraSans-Regular-6b"/>
       <use x="221.399963" xlink:href="#FiraSans-Regular-65"/>
       <use x="275.899948" xlink:href="#FiraSans-Regular-72"/>
       <use x="314.499939" xlink:href="#FiraSans-Regular-73"/>
       <use x="361.199936" xlink:href="#FiraSans-Regular-70"/>
       <use x="420.59993" xlink:href="#FiraSans-Regular-61"/>
       <use x="474.999924" xlink:href="#FiraSans-Regular-63"/>
       <use x="522.799911" xlink:href="#FiraSans-Regular-65"/>
      </g>
     </g>
    </g>
    <g id="ytick_12">
     <g id="line2d_18">
      <path clip-path="url(#pe328c2a3d7)" d="M 761.164062 275.489484 
L 1393.152188 275.489484 
" style="fill:none;stroke:#cccccc;stroke-linecap:round;stroke-width:2;"/>
     </g>
     <g id="text_18">
      <!-- Incubator-Accelerator -->
      <g style="fill:#262626;" transform="translate(525.976875 283.739484)scale(0.22 -0.22)">
       <use xlink:href="#FiraSans-Regular-49"/>
       <use x="29.499985" xlink:href="#FiraSans-Regular-6e"/>
       <use x="88.099976" xlink:href="#FiraSans-Regular-63"/>
       <use x="135.899963" xlink:href="#FiraSans-Regular-75"/>
       <use x="194.09996" xlink:href="#FiraSans-Regular-62"/>
       <use x="253.499954" xlink:href="#FiraSans-Regular-61"/>
       <use x="307.899948" xlink:href="#FiraSans-Regular-74"/>
       <use x="343.999939" xlink:href="#FiraSans-Regular-6f"/>
       <use x="402.399933" xlink:href="#FiraSans-Regular-72"/>
       <use x="440.999924" xlink:href="#FiraSans-Regular-2d"/>
       <use x="481.299911" xlink:href="#FiraSans-Regular-41"/>
       <use x="538.599899" xlink:href="#FiraSans-Regular-63"/>
       <use x="586.399887" xlink:href="#FiraSans-Regular-63"/>
       <use x="634.199875" xlink:href="#FiraSans-Regular-65"/>
       <use x="688.69986" xlink:href="#FiraSans-Regular-6c"/>
       <use x="717.999847" xlink:href="#FiraSans-Regular-65"/>
       <use x="772.499832" xlink:href="#FiraSans-Regular-72"/>
       <use x="811.099823" xlink:href="#FiraSans-Regular-61"/>
       <use x="865.499817" xlink:href="#FiraSans-Regular-74"/>
       <use x="901.599808" xlink:href="#FiraSans-Regular-6f"/>
       <use x="959.999802" xlink:href="#FiraSans-Regular-72"/>
      </g>
     </g>
    </g>
    <g id="ytick_13">
     <g id="line2d_19">
      <path clip-path="url(#pe328c2a3d7)" d="M 761.164062 243.926016 
L 1393.152188 243.926016 
" style="fill:none;stroke:#cccccc;stroke-linecap:round;stroke-width:2;"/>
     </g>
     <g id="text_19">
      <!-- Industry R&amp;D Lab -->
      <g style="fill:#262626;" transform="translate(571.62 252.176016)scale(0.22 -0.22)">
       <defs>
        <path d="M 1933 4486 
Q 2278 4486 2544 4361 
Q 2810 4237 2957 4013 
Q 3104 3789 3104 3514 
Q 3104 3136 2864 2864 
Q 2624 2592 2202 2342 
L 3328 1280 
Q 3584 1798 3712 2362 
L 4262 2202 
Q 4038 1459 3693 941 
L 4410 269 
L 3987 -77 
L 3366 525 
Q 3091 224 2745 73 
Q 2400 -77 1952 -77 
Q 1530 -77 1206 70 
Q 883 218 700 490 
Q 518 762 518 1120 
Q 518 1517 742 1814 
Q 966 2112 1408 2394 
Q 1088 2701 937 2944 
Q 787 3187 787 3494 
Q 787 3930 1091 4208 
Q 1395 4486 1933 4486 
z
M 1939 4051 
Q 1670 4051 1516 3897 
Q 1363 3744 1363 3501 
Q 1363 3270 1484 3088 
Q 1606 2906 1869 2656 
Q 2195 2854 2361 3049 
Q 2528 3245 2528 3482 
Q 2528 3750 2368 3900 
Q 2208 4051 1939 4051 
z
M 1747 2074 
Q 1427 1862 1273 1641 
Q 1120 1421 1120 1139 
Q 1120 787 1366 588 
Q 1613 390 2016 390 
Q 2317 390 2560 505 
Q 2803 621 3027 851 
L 1747 2074 
z
" id="FiraSans-Regular-26" transform="scale(0.015625)"/>
       </defs>
       <use xlink:href="#FiraSans-Regular-49"/>
       <use x="29.499985" xlink:href="#FiraSans-Regular-6e"/>
       <use x="88.099976" xlink:href="#FiraSans-Regular-64"/>
       <use x="147.899963" xlink:href="#FiraSans-Regular-75"/>
       <use x="206.09996" xlink:href="#FiraSans-Regular-73"/>
       <use x="252.799957" xlink:href="#FiraSans-Regular-74"/>
       <use x="288.899948" xlink:href="#FiraSans-Regular-72"/>
       <use x="327.499939" xlink:href="#FiraSans-Regular-79"/>
       <use x="376.699936" xlink:href="#FiraSans-Regular-20"/>
       <use x="403.199921" xlink:href="#FiraSans-Regular-52"/>
       <use x="463.699905" xlink:href="#FiraSans-Regular-26"/>
       <use x="536.599899" xlink:href="#FiraSans-Regular-44"/>
       <use x="600.999893" xlink:href="#FiraSans-Regular-20"/>
       <use x="627.499878" xlink:href="#FiraSans-Regular-4c"/>
       <use x="677.299866" xlink:href="#FiraSans-Regular-61"/>
       <use x="731.69986" xlink:href="#FiraSans-Regular-62"/>
      </g>
     </g>
    </g>
    <g id="ytick_14">
     <g id="line2d_20">
      <path clip-path="url(#pe328c2a3d7)" d="M 761.164062 212.362547 
L 1393.152188 212.362547 
" style="fill:none;stroke:#cccccc;stroke-linecap:round;stroke-width:2;"/>
     </g>
     <g id="text_20">
      <!-- Library -->
      <g style="fill:#262626;" transform="translate(675.659375 220.942547)scale(0.22 -0.22)">
       <use xlink:href="#FiraSans-Regular-4c"/>
       <use x="49.799988" xlink:href="#FiraSans-Regular-69"/>
       <use x="77.999985" xlink:href="#FiraSans-Regular-62"/>
       <use x="137.399979" xlink:href="#FiraSans-Regular-72"/>
       <use x="175.999969" xlink:href="#FiraSans-Regular-61"/>
       <use x="230.399963" xlink:href="#FiraSans-Regular-72"/>
       <use x="268.999954" xlink:href="#FiraSans-Regular-79"/>
      </g>
     </g>
    </g>
    <g id="ytick_15">
     <g id="line2d_21">
      <path clip-path="url(#pe328c2a3d7)" d="M 761.164062 180.799078 
L 1393.152188 180.799078 
" style="fill:none;stroke:#cccccc;stroke-linecap:round;stroke-width:2;"/>
     </g>
     <g id="text_21">
      <!-- Makerspace -->
      <g style="fill:#262626;" transform="translate(627.015312 189.049078)scale(0.22 -0.22)">
       <use xlink:href="#FiraSans-Regular-4d"/>
       <use x="77.799988" xlink:href="#FiraSans-Regular-61"/>
       <use x="132.199982" xlink:href="#FiraSans-Regular-6b"/>
       <use x="183.399979" xlink:href="#FiraSans-Regular-65"/>
       <use x="237.899963" xlink:href="#FiraSans-Regular-72"/>
       <use x="276.499954" xlink:href="#FiraSans-Regular-73"/>
       <use x="323.199951" xlink:href="#FiraSans-Regular-70"/>
       <use x="382.599945" xlink:href="#FiraSans-Regular-61"/>
       <use x="436.999939" xlink:href="#FiraSans-Regular-63"/>
       <use x="484.799927" xlink:href="#FiraSans-Regular-65"/>
      </g>
     </g>
    </g>
    <g id="ytick_16">
     <g id="line2d_22">
      <path clip-path="url(#pe328c2a3d7)" d="M 761.164062 149.235609 
L 1393.152188 149.235609 
" style="fill:none;stroke:#cccccc;stroke-linecap:round;stroke-width:2;"/>
     </g>
     <g id="text_22">
      <!-- Museum Lab -->
      <g style="fill:#262626;" transform="translate(619.995937 157.485609)scale(0.22 -0.22)">
       <defs>
        <path d="M 3994 3450 
Q 4410 3450 4659 3171 
Q 4909 2893 4909 2419 
L 4909 0 
L 4320 0 
L 4320 2336 
Q 4320 2989 3846 2989 
Q 3597 2989 3424 2845 
Q 3251 2701 3053 2394 
L 3053 0 
L 2464 0 
L 2464 2336 
Q 2464 2989 1990 2989 
Q 1734 2989 1561 2841 
Q 1389 2694 1197 2394 
L 1197 0 
L 608 0 
L 608 3373 
L 1114 3373 
L 1165 2880 
Q 1542 3450 2138 3450 
Q 2451 3450 2672 3290 
Q 2893 3130 2989 2842 
Q 3187 3136 3427 3293 
Q 3667 3450 3994 3450 
z
" id="FiraSans-Regular-6d" transform="scale(0.015625)"/>
       </defs>
       <use xlink:href="#FiraSans-Regular-4d"/>
       <use x="77.799988" xlink:href="#FiraSans-Regular-75"/>
       <use x="135.999985" xlink:href="#FiraSans-Regular-73"/>
       <use x="182.699982" xlink:href="#FiraSans-Regular-65"/>
       <use x="237.199966" xlink:href="#FiraSans-Regular-75"/>
       <use x="295.399963" xlink:href="#FiraSans-Regular-6d"/>
       <use x="381.099945" xlink:href="#FiraSans-Regular-20"/>
       <use x="407.59993" xlink:href="#FiraSans-Regular-4c"/>
       <use x="457.399918" xlink:href="#FiraSans-Regular-61"/>
       <use x="511.799911" xlink:href="#FiraSans-Regular-62"/>
      </g>
     </g>
    </g>
    <g id="ytick_17">
     <g id="line2d_23">
      <path clip-path="url(#pe328c2a3d7)" d="M 761.164062 117.672141 
L 1393.152188 117.672141 
" style="fill:none;stroke:#cccccc;stroke-linecap:round;stroke-width:2;"/>
     </g>
     <g id="text_23">
      <!-- Repair Cafè -->
      <g style="fill:#262626;" transform="translate(631.150625 126.482453)scale(0.22 -0.22)">
       <use xlink:href="#FiraSans-Regular-52"/>
       <use x="60.499985" xlink:href="#FiraSans-Regular-65"/>
       <use x="114.999969" xlink:href="#FiraSans-Regular-70"/>
       <use x="174.399963" xlink:href="#FiraSans-Regular-61"/>
       <use x="228.799957" xlink:href="#FiraSans-Regular-69"/>
       <use x="256.999954" xlink:href="#FiraSans-Regular-72"/>
       <use x="295.599945" xlink:href="#FiraSans-Regular-20"/>
       <use x="322.09993" xlink:href="#FiraSans-Regular-43"/>
       <use x="378.099915" xlink:href="#FiraSans-Regular-61"/>
       <use x="432.499908" xlink:href="#FiraSans-Regular-66"/>
       <use x="465.999893" xlink:href="#FiraSans-Regular-e8"/>
      </g>
     </g>
    </g>
    <g id="ytick_18">
     <g id="line2d_24">
      <path clip-path="url(#pe328c2a3d7)" d="M 761.164062 86.108672 
L 1393.152188 86.108672 
" style="fill:none;stroke:#cccccc;stroke-linecap:round;stroke-width:2;"/>
     </g>
     <g id="text_24">
      <!-- Service -->
      <g style="fill:#262626;" transform="translate(673.65875 94.358672)scale(0.22 -0.22)">
       <defs>
        <path d="M 3085 3373 
L 1939 0 
L 1229 0 
L 64 3373 
L 704 3373 
L 1587 525 
L 2464 3373 
L 3085 3373 
z
" id="FiraSans-Regular-76" transform="scale(0.015625)"/>
       </defs>
       <use xlink:href="#FiraSans-Regular-53"/>
       <use x="54.499985" xlink:href="#FiraSans-Regular-65"/>
       <use x="108.999969" xlink:href="#FiraSans-Regular-72"/>
       <use x="147.59996" xlink:href="#FiraSans-Regular-76"/>
       <use x="196.799957" xlink:href="#FiraSans-Regular-69"/>
       <use x="224.999954" xlink:href="#FiraSans-Regular-63"/>
       <use x="272.799942" xlink:href="#FiraSans-Regular-65"/>
      </g>
     </g>
    </g>
    <g id="ytick_19">
     <g id="line2d_25">
      <path clip-path="url(#pe328c2a3d7)" d="M 761.164062 54.545203 
L 1393.152188 54.545203 
" style="fill:none;stroke:#cccccc;stroke-linecap:round;stroke-width:2;"/>
     </g>
     <g id="text_25">
      <!-- University Lab -->
      <g style="fill:#262626;" transform="translate(603.63 63.125203)scale(0.22 -0.22)">
       <defs>
        <path d="M 3661 1414 
Q 3661 973 3478 637 
Q 3296 301 2947 112 
Q 2598 -77 2112 -77 
Q 1376 -77 976 329 
Q 576 736 576 1414 
L 576 4410 
L 1184 4410 
L 1184 1459 
Q 1184 947 1414 691 
Q 1645 435 2112 435 
Q 2586 435 2816 688 
Q 3046 941 3046 1459 
L 3046 4410 
L 3661 4410 
L 3661 1414 
z
" id="FiraSans-Regular-55" transform="scale(0.015625)"/>
       </defs>
       <use xlink:href="#FiraSans-Regular-55"/>
       <use x="66.199997" xlink:href="#FiraSans-Regular-6e"/>
       <use x="124.799988" xlink:href="#FiraSans-Regular-69"/>
       <use x="152.999985" xlink:href="#FiraSans-Regular-76"/>
       <use x="202.199982" xlink:href="#FiraSans-Regular-65"/>
       <use x="256.699966" xlink:href="#FiraSans-Regular-72"/>
       <use x="295.299957" xlink:href="#FiraSans-Regular-73"/>
       <use x="341.999954" xlink:href="#FiraSans-Regular-69"/>
       <use x="370.199951" xlink:href="#FiraSans-Regular-74"/>
       <use x="406.299942" xlink:href="#FiraSans-Regular-79"/>
       <use x="455.499939" xlink:href="#FiraSans-Regular-20"/>
       <use x="481.999924" xlink:href="#FiraSans-Regular-4c"/>
       <use x="531.799911" xlink:href="#FiraSans-Regular-61"/>
       <use x="586.199905" xlink:href="#FiraSans-Regular-62"/>
      </g>
     </g>
    </g>
    <g id="ytick_20">
     <g id="line2d_26">
      <path clip-path="url(#pe328c2a3d7)" d="M 761.164062 22.981734 
L 1393.152188 22.981734 
" style="fill:none;stroke:#cccccc;stroke-linecap:round;stroke-width:2;"/>
     </g>
     <g id="text_26">
      <!-- University Lab / Industry R&amp;D Lab -->
      <g style="fill:#262626;" transform="translate(406.485937 31.859078)scale(0.22 -0.22)">
       <use xlink:href="#FiraSans-Regular-55"/>
       <use x="66.199997" xlink:href="#FiraSans-Regular-6e"/>
       <use x="124.799988" xlink:href="#FiraSans-Regular-69"/>
       <use x="152.999985" xlink:href="#FiraSans-Regular-76"/>
       <use x="202.199982" xlink:href="#FiraSans-Regular-65"/>
       <use x="256.699966" xlink:href="#FiraSans-Regular-72"/>
       <use x="295.299957" xlink:href="#FiraSans-Regular-73"/>
       <use x="341.999954" xlink:href="#FiraSans-Regular-69"/>
       <use x="370.199951" xlink:href="#FiraSans-Regular-74"/>
       <use x="406.299942" xlink:href="#FiraSans-Regular-79"/>
       <use x="455.499939" xlink:href="#FiraSans-Regular-20"/>
       <use x="481.999924" xlink:href="#FiraSans-Regular-4c"/>
       <use x="531.799911" xlink:href="#FiraSans-Regular-61"/>
       <use x="586.199905" xlink:href="#FiraSans-Regular-62"/>
       <use x="645.599899" xlink:href="#FiraSans-Regular-20"/>
       <use x="672.099884" xlink:href="#FiraSans-Regular-2f"/>
       <use x="724.099869" xlink:href="#FiraSans-Regular-20"/>
       <use x="750.599854" xlink:href="#FiraSans-Regular-49"/>
       <use x="780.099838" xlink:href="#FiraSans-Regular-6e"/>
       <use x="838.699829" xlink:href="#FiraSans-Regular-64"/>
       <use x="898.499817" xlink:href="#FiraSans-Regular-75"/>
       <use x="956.699814" xlink:href="#FiraSans-Regular-73"/>
       <use x="1003.399811" xlink:href="#FiraSans-Regular-74"/>
       <use x="1039.499802" xlink:href="#FiraSans-Regular-72"/>
       <use x="1078.099792" xlink:href="#FiraSans-Regular-79"/>
       <use x="1127.299789" xlink:href="#FiraSans-Regular-20"/>
       <use x="1153.799774" xlink:href="#FiraSans-Regular-52"/>
       <use x="1214.299759" xlink:href="#FiraSans-Regular-26"/>
       <use x="1287.199753" xlink:href="#FiraSans-Regular-44"/>
       <use x="1351.599747" xlink:href="#FiraSans-Regular-20"/>
       <use x="1378.099731" xlink:href="#FiraSans-Regular-4c"/>
       <use x="1427.899719" xlink:href="#FiraSans-Regular-61"/>
       <use x="1482.299713" xlink:href="#FiraSans-Regular-62"/>
      </g>
     </g>
    </g>
    <g id="text_27">
     <!-- Type -->
     <g style="fill:#262626;" transform="translate(25.2 348.612188)rotate(-90)scale(0.24 -0.24)">
      <use xlink:href="#FiraSans-Regular-54"/>
      <use x="51.699997" xlink:href="#FiraSans-Regular-79"/>
      <use x="100.899994" xlink:href="#FiraSans-Regular-70"/>
      <use x="160.299988" xlink:href="#FiraSans-Regular-65"/>
     </g>
    </g>
   </g>
   <g id="patch_3">
    <path clip-path="url(#pe328c2a3d7)" d="M 761.164062 630.578508 
L 1034.751995 630.578508 
L 1034.751995 622.687641 
L 761.164062 622.687641 
z
" style="fill:#1f77b4;stroke:#ffffff;stroke-linejoin:miter;stroke-width:2;"/>
   </g>
   <g id="patch_4">
    <path clip-path="url(#pe328c2a3d7)" d="M 761.164062 599.015039 
L 815.881649 599.015039 
L 815.881649 591.124172 
L 761.164062 591.124172 
z
" style="fill:#1f77b4;stroke:#ffffff;stroke-linejoin:miter;stroke-width:2;"/>
   </g>
   <g id="patch_5">
    <path clip-path="url(#pe328c2a3d7)" d="M 761.164062 567.45157 
L 1144.187169 567.45157 
L 1144.187169 559.560703 
L 761.164062 559.560703 
z
" style="fill:#1f77b4;stroke:#ffffff;stroke-linejoin:miter;stroke-width:2;"/>
   </g>
   <g id="patch_6">
    <path clip-path="url(#pe328c2a3d7)" d="M 761.164062 535.888102 
L 761.164062 535.888102 
L 761.164062 527.997234 
L 761.164062 527.997234 
z
" style="fill:#1f77b4;stroke:#ffffff;stroke-linejoin:miter;stroke-width:2;"/>
   </g>
   <g id="patch_7">
    <path clip-path="url(#pe328c2a3d7)" d="M 761.164062 504.324633 
L 1089.469582 504.324633 
L 1089.469582 496.433766 
L 761.164062 496.433766 
z
" style="fill:#1f77b4;stroke:#ffffff;stroke-linejoin:miter;stroke-width:2;"/>
   </g>
   <g id="patch_8">
    <path clip-path="url(#pe328c2a3d7)" d="M 761.164062 472.761164 
L 870.599236 472.761164 
L 870.599236 464.870297 
L 761.164062 464.870297 
z
" style="fill:#1f77b4;stroke:#ffffff;stroke-linejoin:miter;stroke-width:2;"/>
   </g>
   <g id="patch_9">
    <path clip-path="url(#pe328c2a3d7)" d="M 761.164062 441.197695 
L 1363.057515 441.197695 
L 1363.057515 433.306828 
L 761.164062 433.306828 
z
" style="fill:#1f77b4;stroke:#ffffff;stroke-linejoin:miter;stroke-width:2;"/>
   </g>
   <g id="patch_10">
    <path clip-path="url(#pe328c2a3d7)" d="M 761.164062 409.634227 
L 761.164062 409.634227 
L 761.164062 401.743359 
L 761.164062 401.743359 
z
" style="fill:#1f77b4;stroke:#ffffff;stroke-linejoin:miter;stroke-width:2;"/>
   </g>
   <g id="patch_11">
    <path clip-path="url(#pe328c2a3d7)" d="M 761.164062 378.070758 
L 815.881649 378.070758 
L 815.881649 370.179891 
L 761.164062 370.179891 
z
" style="fill:#1f77b4;stroke:#ffffff;stroke-linejoin:miter;stroke-width:2;"/>
   </g>
   <g id="patch_12">
    <path clip-path="url(#pe328c2a3d7)" d="M 761.164062 346.507289 
L 925.316822 346.507289 
L 925.316822 338.616422 
L 761.164062 338.616422 
z
" style="fill:#1f77b4;stroke:#ffffff;stroke-linejoin:miter;stroke-width:2;"/>
   </g>
   <g id="patch_13">
    <path clip-path="url(#pe328c2a3d7)" d="M 761.164062 314.94382 
L 980.034409 314.94382 
L 980.034409 307.052953 
L 761.164062 307.052953 
z
" style="fill:#1f77b4;stroke:#ffffff;stroke-linejoin:miter;stroke-width:2;"/>
   </g>
   <g id="patch_14">
    <path clip-path="url(#pe328c2a3d7)" d="M 761.164062 283.380352 
L 980.034409 283.380352 
L 980.034409 275.489484 
L 761.164062 275.489484 
z
" style="fill:#1f77b4;stroke:#ffffff;stroke-linejoin:miter;stroke-width:2;"/>
   </g>
   <g id="patch_15">
    <path clip-path="url(#pe328c2a3d7)" d="M 761.164062 251.816883 
L 815.881649 251.816883 
L 815.881649 243.926016 
L 761.164062 243.926016 
z
" style="fill:#1f77b4;stroke:#ffffff;stroke-linejoin:miter;stroke-width:2;"/>
   </g>
   <g id="patch_16">
    <path clip-path="url(#pe328c2a3d7)" d="M 761.164062 220.253414 
L 815.881649 220.253414 
L 815.881649 212.362547 
L 761.164062 212.362547 
z
" style="fill:#1f77b4;stroke:#ffffff;stroke-linejoin:miter;stroke-width:2;"/>
   </g>
   <g id="patch_17">
    <path clip-path="url(#pe328c2a3d7)" d="M 761.164062 188.689945 
L 980.034409 188.689945 
L 980.034409 180.799078 
L 761.164062 180.799078 
z
" style="fill:#1f77b4;stroke:#ffffff;stroke-linejoin:miter;stroke-width:2;"/>
   </g>
   <g id="patch_18">
    <path clip-path="url(#pe328c2a3d7)" d="M 761.164062 157.126477 
L 761.164062 157.126477 
L 761.164062 149.235609 
L 761.164062 149.235609 
z
" style="fill:#1f77b4;stroke:#ffffff;stroke-linejoin:miter;stroke-width:2;"/>
   </g>
   <g id="patch_19">
    <path clip-path="url(#pe328c2a3d7)" d="M 761.164062 125.563008 
L 870.599236 125.563008 
L 870.599236 117.672141 
L 761.164062 117.672141 
z
" style="fill:#1f77b4;stroke:#ffffff;stroke-linejoin:miter;stroke-width:2;"/>
   </g>
   <g id="patch_20">
    <path clip-path="url(#pe328c2a3d7)" d="M 761.164062 93.999539 
L 815.881649 93.999539 
L 815.881649 86.108672 
L 761.164062 86.108672 
z
" style="fill:#1f77b4;stroke:#ffffff;stroke-linejoin:miter;stroke-width:2;"/>
   </g>
   <g id="patch_21">
    <path clip-path="url(#pe328c2a3d7)" d="M 761.164062 62.43607 
L 1034.751995 62.43607 
L 1034.751995 54.545203 
L 761.164062 54.545203 
z
" style="fill:#1f77b4;stroke:#ffffff;stroke-linejoin:miter;stroke-width:2;"/>
   </g>
   <g id="patch_22">
    <path clip-path="url(#pe328c2a3d7)" d="M 761.164062 30.872602 
L 815.881649 30.872602 
L 815.881649 22.981734 
L 761.164062 22.981734 
z
" style="fill:#1f77b4;stroke:#ffffff;stroke-linejoin:miter;stroke-width:2;"/>
   </g>
   <g id="patch_23">
    <path clip-path="url(#pe328c2a3d7)" d="M 761.164062 622.687641 
L 761.164062 622.687641 
L 761.164062 614.796773 
L 761.164062 614.796773 
z
" style="fill:#ff7f0e;stroke:#ffffff;stroke-linejoin:miter;stroke-width:2;"/>
   </g>
   <g id="patch_24">
    <path clip-path="url(#pe328c2a3d7)" d="M 761.164062 591.124172 
L 761.164062 591.124172 
L 761.164062 583.233305 
L 761.164062 583.233305 
z
" style="fill:#ff7f0e;stroke:#ffffff;stroke-linejoin:miter;stroke-width:2;"/>
   </g>
   <g id="patch_25">
    <path clip-path="url(#pe328c2a3d7)" d="M 761.164062 559.560703 
L 761.164062 559.560703 
L 761.164062 551.669836 
L 761.164062 551.669836 
z
" style="fill:#ff7f0e;stroke:#ffffff;stroke-linejoin:miter;stroke-width:2;"/>
   </g>
   <g id="patch_26">
    <path clip-path="url(#pe328c2a3d7)" d="M 761.164062 527.997234 
L 815.881649 527.997234 
L 815.881649 520.106367 
L 761.164062 520.106367 
z
" style="fill:#ff7f0e;stroke:#ffffff;stroke-linejoin:miter;stroke-width:2;"/>
   </g>
   <g id="patch_27">
    <path clip-path="url(#pe328c2a3d7)" d="M 761.164062 496.433766 
L 761.164062 496.433766 
L 761.164062 488.542898 
L 761.164062 488.542898 
z
" style="fill:#ff7f0e;stroke:#ffffff;stroke-linejoin:miter;stroke-width:2;"/>
   </g>
   <g id="patch_28">
    <path clip-path="url(#pe328c2a3d7)" d="M 761.164062 464.870297 
L 815.881649 464.870297 
L 815.881649 456.97943 
L 761.164062 456.97943 
z
" style="fill:#ff7f0e;stroke:#ffffff;stroke-linejoin:miter;stroke-width:2;"/>
   </g>
   <g id="patch_29">
    <path clip-path="url(#pe328c2a3d7)" d="M 761.164062 433.306828 
L 1144.187169 433.306828 
L 1144.187169 425.415961 
L 761.164062 425.415961 
z
" style="fill:#ff7f0e;stroke:#ffffff;stroke-linejoin:miter;stroke-width:2;"/>
   </g>
   <g id="patch_30">
    <path clip-path="url(#pe328c2a3d7)" d="M 761.164062 401.743359 
L 815.881649 401.743359 
L 815.881649 393.852492 
L 761.164062 393.852492 
z
" style="fill:#ff7f0e;stroke:#ffffff;stroke-linejoin:miter;stroke-width:2;"/>
   </g>
   <g id="patch_31">
    <path clip-path="url(#pe328c2a3d7)" d="M 761.164062 370.179891 
L 761.164062 370.179891 
L 761.164062 362.289023 
L 761.164062 362.289023 
z
" style="fill:#ff7f0e;stroke:#ffffff;stroke-linejoin:miter;stroke-width:2;"/>
   </g>
   <g id="patch_32">
    <path clip-path="url(#pe328c2a3d7)" d="M 761.164062 338.616422 
L 761.164062 338.616422 
L 761.164062 330.725555 
L 761.164062 330.725555 
z
" style="fill:#ff7f0e;stroke:#ffffff;stroke-linejoin:miter;stroke-width:2;"/>
   </g>
   <g id="patch_33">
    <path clip-path="url(#pe328c2a3d7)" d="M 761.164062 307.052953 
L 870.599236 307.052953 
L 870.599236 299.162086 
L 761.164062 299.162086 
z
" style="fill:#ff7f0e;stroke:#ffffff;stroke-linejoin:miter;stroke-width:2;"/>
   </g>
   <g id="patch_34">
    <path clip-path="url(#pe328c2a3d7)" d="M 761.164062 275.489484 
L 761.164062 275.489484 
L 761.164062 267.598617 
L 761.164062 267.598617 
z
" style="fill:#ff7f0e;stroke:#ffffff;stroke-linejoin:miter;stroke-width:2;"/>
   </g>
   <g id="patch_35">
    <path clip-path="url(#pe328c2a3d7)" d="M 761.164062 243.926016 
L 761.164062 243.926016 
L 761.164062 236.035148 
L 761.164062 236.035148 
z
" style="fill:#ff7f0e;stroke:#ffffff;stroke-linejoin:miter;stroke-width:2;"/>
   </g>
   <g id="patch_36">
    <path clip-path="url(#pe328c2a3d7)" d="M 761.164062 212.362547 
L 761.164062 212.362547 
L 761.164062 204.47168 
L 761.164062 204.47168 
z
" style="fill:#ff7f0e;stroke:#ffffff;stroke-linejoin:miter;stroke-width:2;"/>
   </g>
   <g id="patch_37">
    <path clip-path="url(#pe328c2a3d7)" d="M 761.164062 180.799078 
L 1198.904755 180.799078 
L 1198.904755 172.908211 
L 761.164062 172.908211 
z
" style="fill:#ff7f0e;stroke:#ffffff;stroke-linejoin:miter;stroke-width:2;"/>
   </g>
   <g id="patch_38">
    <path clip-path="url(#pe328c2a3d7)" d="M 761.164062 149.235609 
L 815.881649 149.235609 
L 815.881649 141.344742 
L 761.164062 141.344742 
z
" style="fill:#ff7f0e;stroke:#ffffff;stroke-linejoin:miter;stroke-width:2;"/>
   </g>
   <g id="patch_39">
    <path clip-path="url(#pe328c2a3d7)" d="M 761.164062 117.672141 
L 815.881649 117.672141 
L 815.881649 109.781273 
L 761.164062 109.781273 
z
" style="fill:#ff7f0e;stroke:#ffffff;stroke-linejoin:miter;stroke-width:2;"/>
   </g>
   <g id="patch_40">
    <path clip-path="url(#pe328c2a3d7)" d="M 761.164062 86.108672 
L 925.316822 86.108672 
L 925.316822 78.217805 
L 761.164062 78.217805 
z
" style="fill:#ff7f0e;stroke:#ffffff;stroke-linejoin:miter;stroke-width:2;"/>
   </g>
   <g id="patch_41">
    <path clip-path="url(#pe328c2a3d7)" d="M 761.164062 54.545203 
L 925.316822 54.545203 
L 925.316822 46.654336 
L 761.164062 46.654336 
z
" style="fill:#ff7f0e;stroke:#ffffff;stroke-linejoin:miter;stroke-width:2;"/>
   </g>
   <g id="patch_42">
    <path clip-path="url(#pe328c2a3d7)" d="M 761.164062 22.981734 
L 761.164062 22.981734 
L 761.164062 15.090867 
L 761.164062 15.090867 
z
" style="fill:#ff7f0e;stroke:#ffffff;stroke-linejoin:miter;stroke-width:2;"/>
   </g>
   <g id="patch_43">
    <path d="M 761.164062 638.469375 
L 761.164062 7.2 
" style="fill:none;stroke:#cccccc;stroke-linecap:square;stroke-linejoin:miter;stroke-width:2.5;"/>
   </g>
   <g id="patch_44">
    <path d="M 1393.152188 638.469375 
L 1393.152188 7.2 
" style="fill:none;stroke:#cccccc;stroke-linecap:square;stroke-linejoin:miter;stroke-width:2.5;"/>
   </g>
   <g id="patch_45">
    <path d="M 761.164062 638.469375 
L 1393.152188 638.469375 
" style="fill:none;stroke:#cccccc;stroke-linecap:square;stroke-linejoin:miter;stroke-width:2.5;"/>
   </g>
   <g id="patch_46">
    <path d="M 761.164062 7.2 
L 1393.152188 7.2 
" style="fill:none;stroke:#cccccc;stroke-linecap:square;stroke-linejoin:miter;stroke-width:2.5;"/>
   </g>
   <g id="text_28">
    <!-- 5 -->
    <g style="fill:#262626;" transform="translate(1037.751995 630.929324)scale(0.16 -0.16)">
     <defs>
      <path d="M 2688 3821 
L 1018 3821 
L 1018 2560 
Q 1344 2726 1702 2726 
Q 2253 2726 2585 2364 
Q 2918 2003 2918 1370 
Q 2918 947 2732 617 
Q 2547 288 2211 105 
Q 1875 -77 1434 -77 
Q 1043 -77 736 60 
Q 429 198 166 467 
L 512 806 
Q 717 602 934 502 
Q 1152 403 1427 403 
Q 1837 403 2070 659 
Q 2304 915 2304 1382 
Q 2304 1850 2093 2061 
Q 1882 2272 1523 2272 
Q 1357 2272 1216 2237 
Q 1075 2202 915 2125 
L 454 2125 
L 454 4282 
L 2771 4282 
L 2688 3821 
z
" id="FiraSans-Regular-35" transform="scale(0.015625)"/>
     </defs>
     <use xlink:href="#FiraSans-Regular-35"/>
    </g>
   </g>
   <g id="text_29">
    <!-- 1 -->
    <g style="fill:#262626;" transform="translate(818.881649 599.365855)scale(0.16 -0.16)">
     <use xlink:href="#FiraSans-Regular-31"/>
    </g>
   </g>
   <g id="text_30">
    <!-- 7 -->
    <g style="fill:#262626;" transform="translate(1147.187169 567.802387)scale(0.16 -0.16)">
     <defs>
      <path d="M 2650 4282 
L 2650 3840 
L 1050 -64 
L 512 115 
L 2054 3802 
L 160 3802 
L 160 4282 
L 2650 4282 
z
" id="FiraSans-Regular-37" transform="scale(0.015625)"/>
     </defs>
     <use xlink:href="#FiraSans-Regular-37"/>
    </g>
   </g>
   <g id="text_31">
    <!-- 0 -->
    <g style="fill:#262626;" transform="translate(764.164062 536.238918)scale(0.16 -0.16)">
     <use xlink:href="#FiraSans-Regular-30"/>
    </g>
   </g>
   <g id="text_32">
    <!-- 6 -->
    <g style="fill:#262626;" transform="translate(1092.469582 504.675449)scale(0.16 -0.16)">
     <use xlink:href="#FiraSans-Regular-36"/>
    </g>
   </g>
   <g id="text_33">
    <!-- 2 -->
    <g style="fill:#262626;" transform="translate(873.599236 473.11198)scale(0.16 -0.16)">
     <use xlink:href="#FiraSans-Regular-32"/>
    </g>
   </g>
   <g id="text_34">
    <!-- 11 -->
    <g style="fill:#262626;" transform="translate(1366.057515 441.548512)scale(0.16 -0.16)">
     <use xlink:href="#FiraSans-Regular-31"/>
     <use x="43.299988" xlink:href="#FiraSans-Regular-31"/>
    </g>
   </g>
   <g id="text_35">
    <!-- 0 -->
    <g style="fill:#262626;" transform="translate(764.164062 409.985043)scale(0.16 -0.16)">
     <use xlink:href="#FiraSans-Regular-30"/>
    </g>
   </g>
   <g id="text_36">
    <!-- 1 -->
    <g style="fill:#262626;" transform="translate(818.881649 378.421574)scale(0.16 -0.16)">
     <use xlink:href="#FiraSans-Regular-31"/>
    </g>
   </g>
   <g id="text_37">
    <!-- 3 -->
    <g style="fill:#262626;" transform="translate(928.316822 346.858105)scale(0.16 -0.16)">
     <defs>
      <path d="M 1440 4346 
Q 1837 4346 2121 4198 
Q 2406 4051 2556 3801 
Q 2707 3552 2707 3258 
Q 2707 2867 2480 2614 
Q 2253 2362 1875 2272 
Q 2304 2234 2573 1965 
Q 2842 1696 2842 1235 
Q 2842 864 2662 563 
Q 2483 262 2150 92 
Q 1818 -77 1382 -77 
Q 992 -77 665 67 
Q 339 211 96 499 
L 448 826 
Q 659 608 880 505 
Q 1101 403 1363 403 
Q 1766 403 1996 630 
Q 2227 858 2227 1242 
Q 2227 1664 2009 1837 
Q 1792 2010 1376 2010 
L 1056 2010 
L 1126 2464 
L 1344 2464 
Q 1677 2464 1897 2662 
Q 2118 2861 2118 3219 
Q 2118 3520 1926 3696 
Q 1734 3872 1408 3872 
Q 1158 3872 950 3782 
Q 742 3693 525 3488 
L 218 3840 
Q 762 4346 1440 4346 
z
" id="FiraSans-Regular-33" transform="scale(0.015625)"/>
     </defs>
     <use xlink:href="#FiraSans-Regular-33"/>
    </g>
   </g>
   <g id="text_38">
    <!-- 4 -->
    <g style="fill:#262626;" transform="translate(983.034409 315.294637)scale(0.16 -0.16)">
     <use xlink:href="#FiraSans-Regular-34"/>
    </g>
   </g>
   <g id="text_39">
    <!-- 4 -->
    <g style="fill:#262626;" transform="translate(983.034409 283.731168)scale(0.16 -0.16)">
     <use xlink:href="#FiraSans-Regular-34"/>
    </g>
   </g>
   <g id="text_40">
    <!-- 1 -->
    <g style="fill:#262626;" transform="translate(818.881649 252.167699)scale(0.16 -0.16)">
     <use xlink:href="#FiraSans-Regular-31"/>
    </g>
   </g>
   <g id="text_41">
    <!-- 1 -->
    <g style="fill:#262626;" transform="translate(818.881649 220.60423)scale(0.16 -0.16)">
     <use xlink:href="#FiraSans-Regular-31"/>
    </g>
   </g>
   <g id="text_42">
    <!-- 4 -->
    <g style="fill:#262626;" transform="translate(983.034409 189.040762)scale(0.16 -0.16)">
     <use xlink:href="#FiraSans-Regular-34"/>
    </g>
   </g>
   <g id="text_43">
    <!-- 0 -->
    <g style="fill:#262626;" transform="translate(764.164062 157.477293)scale(0.16 -0.16)">
     <use xlink:href="#FiraSans-Regular-30"/>
    </g>
   </g>
   <g id="text_44">
    <!-- 2 -->
    <g style="fill:#262626;" transform="translate(873.599236 125.913824)scale(0.16 -0.16)">
     <use xlink:href="#FiraSans-Regular-32"/>
    </g>
   </g>
   <g id="text_45">
    <!-- 1 -->
    <g style="fill:#262626;" transform="translate(818.881649 94.350355)scale(0.16 -0.16)">
     <use xlink:href="#FiraSans-Regular-31"/>
    </g>
   </g>
   <g id="text_46">
    <!-- 5 -->
    <g style="fill:#262626;" transform="translate(1037.751995 62.786887)scale(0.16 -0.16)">
     <use xlink:href="#FiraSans-Regular-35"/>
    </g>
   </g>
   <g id="text_47">
    <!-- 1 -->
    <g style="fill:#262626;" transform="translate(818.881649 31.223418)scale(0.16 -0.16)">
     <use xlink:href="#FiraSans-Regular-31"/>
    </g>
   </g>
   <g id="text_48">
    <!-- 0 -->
    <g style="fill:#262626;" transform="translate(764.164062 623.038457)scale(0.16 -0.16)">
     <use xlink:href="#FiraSans-Regular-30"/>
    </g>
   </g>
   <g id="text_49">
    <!-- 0 -->
    <g style="fill:#262626;" transform="translate(764.164062 591.474988)scale(0.16 -0.16)">
     <use xlink:href="#FiraSans-Regular-30"/>
    </g>
   </g>
   <g id="text_50">
    <!-- 0 -->
    <g style="fill:#262626;" transform="translate(764.164062 559.91152)scale(0.16 -0.16)">
     <use xlink:href="#FiraSans-Regular-30"/>
    </g>
   </g>
   <g id="text_51">
    <!-- 1 -->
    <g style="fill:#262626;" transform="translate(818.881649 528.348051)scale(0.16 -0.16)">
     <use xlink:href="#FiraSans-Regular-31"/>
    </g>
   </g>
   <g id="text_52">
    <!-- 0 -->
    <g style="fill:#262626;" transform="translate(764.164062 496.784582)scale(0.16 -0.16)">
     <use xlink:href="#FiraSans-Regular-30"/>
    </g>
   </g>
   <g id="text_53">
    <!-- 1 -->
    <g style="fill:#262626;" transform="translate(818.881649 465.221113)scale(0.16 -0.16)">
     <use xlink:href="#FiraSans-Regular-31"/>
    </g>
   </g>
   <g id="text_54">
    <!-- 7 -->
    <g style="fill:#262626;" transform="translate(1147.187169 433.657645)scale(0.16 -0.16)">
     <use xlink:href="#FiraSans-Regular-37"/>
    </g>
   </g>
   <g id="text_55">
    <!-- 1 -->
    <g style="fill:#262626;" transform="translate(818.881649 402.094176)scale(0.16 -0.16)">
     <use xlink:href="#FiraSans-Regular-31"/>
    </g>
   </g>
   <g id="text_56">
    <!-- 0 -->
    <g style="fill:#262626;" transform="translate(764.164062 370.530707)scale(0.16 -0.16)">
     <use xlink:href="#FiraSans-Regular-30"/>
    </g>
   </g>
   <g id="text_57">
    <!-- 0 -->
    <g style="fill:#262626;" transform="translate(764.164062 338.967238)scale(0.16 -0.16)">
     <use xlink:href="#FiraSans-Regular-30"/>
    </g>
   </g>
   <g id="text_58">
    <!-- 2 -->
    <g style="fill:#262626;" transform="translate(873.599236 307.40377)scale(0.16 -0.16)">
     <use xlink:href="#FiraSans-Regular-32"/>
    </g>
   </g>
   <g id="text_59">
    <!-- 0 -->
    <g style="fill:#262626;" transform="translate(764.164062 275.840301)scale(0.16 -0.16)">
     <use xlink:href="#FiraSans-Regular-30"/>
    </g>
   </g>
   <g id="text_60">
    <!-- 0 -->
    <g style="fill:#262626;" transform="translate(764.164062 244.276832)scale(0.16 -0.16)">
     <use xlink:href="#FiraSans-Regular-30"/>
    </g>
   </g>
   <g id="text_61">
    <!-- 0 -->
    <g style="fill:#262626;" transform="translate(764.164062 212.713363)scale(0.16 -0.16)">
     <use xlink:href="#FiraSans-Regular-30"/>
    </g>
   </g>
   <g id="text_62">
    <!-- 8 -->
    <g style="fill:#262626;" transform="translate(1201.904755 181.149895)scale(0.16 -0.16)">
     <use xlink:href="#FiraSans-Regular-38"/>
    </g>
   </g>
   <g id="text_63">
    <!-- 1 -->
    <g style="fill:#262626;" transform="translate(818.881649 149.586426)scale(0.16 -0.16)">
     <use xlink:href="#FiraSans-Regular-31"/>
    </g>
   </g>
   <g id="text_64">
    <!-- 1 -->
    <g style="fill:#262626;" transform="translate(818.881649 118.022957)scale(0.16 -0.16)">
     <use xlink:href="#FiraSans-Regular-31"/>
    </g>
   </g>
   <g id="text_65">
    <!-- 3 -->
    <g style="fill:#262626;" transform="translate(928.316822 86.459488)scale(0.16 -0.16)">
     <use xlink:href="#FiraSans-Regular-33"/>
    </g>
   </g>
   <g id="text_66">
    <!-- 3 -->
    <g style="fill:#262626;" transform="translate(928.316822 54.89602)scale(0.16 -0.16)">
     <use xlink:href="#FiraSans-Regular-33"/>
    </g>
   </g>
   <g id="text_67">
    <!-- 0 -->
    <g style="fill:#262626;" transform="translate(764.164062 23.332551)scale(0.16 -0.16)">
     <use xlink:href="#FiraSans-Regular-30"/>
    </g>
   </g>
   <g id="legend_1">
    <g id="patch_47">
     <path d="M 1266.631563 123.281875 
L 1377.752187 123.281875 
Q 1382.152188 123.281875 1382.152188 118.881875 
L 1382.152188 22.6 
Q 1382.152188 18.2 1377.752187 18.2 
L 1266.631563 18.2 
Q 1262.231563 18.2 1262.231563 22.6 
L 1262.231563 118.881875 
Q 1262.231563 123.281875 1266.631563 123.281875 
z
" style="fill:#ffffff;opacity:0.8;stroke:#cccccc;stroke-linejoin:miter;stroke-width:2;"/>
    </g>
    <g id="text_68">
     <!-- Cluster -->
     <g style="fill:#262626;" transform="translate(1283.865 45)scale(0.24 -0.24)">
      <use xlink:href="#FiraSans-Regular-43"/>
      <use x="55.999985" xlink:href="#FiraSans-Regular-6c"/>
      <use x="85.299973" xlink:href="#FiraSans-Regular-75"/>
      <use x="143.499969" xlink:href="#FiraSans-Regular-73"/>
      <use x="190.199966" xlink:href="#FiraSans-Regular-74"/>
      <use x="226.299957" xlink:href="#FiraSans-Regular-65"/>
      <use x="280.799942" xlink:href="#FiraSans-Regular-72"/>
     </g>
    </g>
    <g id="patch_48">
     <path d="M 1271.031563 77.61125 
L 1315.031563 77.61125 
L 1315.031563 62.21125 
L 1271.031563 62.21125 
z
" style="fill:#1f77b4;stroke:#ffffff;stroke-linejoin:miter;stroke-width:2;"/>
    </g>
    <g id="text_69">
     <!-- BCN -->
     <g style="fill:#262626;" transform="translate(1332.631562 77.61125)scale(0.22 -0.22)">
      <use xlink:href="#FiraSans-Regular-42"/>
      <use x="60.799988" xlink:href="#FiraSans-Regular-43"/>
      <use x="116.799973" xlink:href="#FiraSans-Regular-4e"/>
     </g>
    </g>
    <g id="patch_49">
     <path d="M 1271.031563 109.796563 
L 1315.031563 109.796563 
L 1315.031563 94.396563 
L 1271.031563 94.396563 
z
" style="fill:#ff7f0e;stroke:#ffffff;stroke-linejoin:miter;stroke-width:2;"/>
    </g>
    <g id="text_70">
     <!-- MI -->
     <g style="fill:#262626;" transform="translate(1332.631562 109.796563)scale(0.22 -0.22)">
      <use xlink:href="#FiraSans-Regular-4d"/>
      <use x="77.799988" xlink:href="#FiraSans-Regular-49"/>
     </g>
    </g>
   </g>
  </g>
 </g>
 <defs>
  <clipPath id="pe328c2a3d7">
   <rect height="631.269375" width="631.988125" x="761.164062" y="7.2"/>
  </clipPath>
 </defs>
</svg>
