<?xml version="1.0" encoding="utf-8" standalone="no"?>
<!DOCTYPE svg PUBLIC "-//W3C//DTD SVG 1.1//EN"
  "http://www.w3.org/Graphics/SVG/1.1/DTD/svg11.dtd">
<svg height="645.024844pt" version="1.1" viewBox="0 0 1202.979844 645.024844" width="1202.979844pt" xmlns="http://www.w3.org/2000/svg" xmlns:xlink="http://www.w3.org/1999/xlink">
 <metadata>
  <rdf:RDF xmlns:cc="http://creativecommons.org/ns#" xmlns:dc="http://purl.org/dc/elements/1.1/" xmlns:rdf="http://www.w3.org/1999/02/22-rdf-syntax-ns#">
   <cc:Work>
    <dc:type rdf:resource="http://purl.org/dc/dcmitype/StillImage"/>
    <dc:date>2021-12-14T19:08:36.489606</dc:date>
    <dc:format>image/svg+xml</dc:format>
    <dc:creator>
     <cc:Agent>
      <dc:title>Matplotlib v3.4.3, https://matplotlib.org/</dc:title>
     </cc:Agent>
    </dc:creator>
   </cc:Work>
  </rdf:RDF>
 </metadata>
 <defs>
  <style type="text/css">*{stroke-linecap:butt;stroke-linejoin:round;}</style>
 </defs>
 <g id="figure_1">
  <g id="patch_1">
   <path d="M -0 645.024844 
L 1202.979844 645.024844 
L 1202.979844 0 
L -0 0 
z
" style="fill:#ffffff;"/>
  </g>
  <g id="axes_1">
   <g id="patch_2">
    <path d="M 79.779844 550.8 
L 1195.779844 550.8 
L 1195.779844 7.2 
L 79.779844 7.2 
z
" style="fill:#ffffff;"/>
   </g>
   <g id="matplotlib.axis_1">
    <g id="xtick_1">
     <g id="line2d_1">
      <path clip-path="url(#p3fac443f5c)" d="M 130.019464 550.8 
L 130.019464 7.2 
" style="fill:none;stroke:#cccccc;stroke-linecap:round;stroke-width:2;"/>
     </g>
     <g id="text_1">
      <!-- 0 -->
      <g style="fill:#262626;" transform="translate(120.81298 591.05)scale(0.33 -0.33)">
       <defs>
        <path d="M 1786 4346 
Q 2496 4346 2857 3779 
Q 3219 3213 3219 2138 
Q 3219 1062 2857 492 
Q 2496 -77 1786 -77 
Q 1075 -77 713 492 
Q 352 1062 352 2138 
Q 352 3213 713 3779 
Q 1075 4346 1786 4346 
z
M 1786 3878 
Q 1370 3878 1168 3468 
Q 966 3059 966 2138 
Q 966 1216 1168 803 
Q 1370 390 1786 390 
Q 2195 390 2400 803 
Q 2605 1216 2605 2138 
Q 2605 3053 2400 3465 
Q 2195 3878 1786 3878 
z
" id="FiraSans-Regular-30" transform="scale(0.015625)"/>
       </defs>
       <use xlink:href="#FiraSans-Regular-30"/>
      </g>
     </g>
    </g>
    <g id="xtick_2">
     <g id="line2d_2">
      <path clip-path="url(#p3fac443f5c)" d="M 329.061175 550.8 
L 329.061175 7.2 
" style="fill:none;stroke:#cccccc;stroke-linecap:round;stroke-width:2;"/>
     </g>
     <g id="text_2">
      <!-- 20000 -->
      <g style="fill:#262626;" transform="translate(284.067737 591.05)scale(0.33 -0.33)">
       <defs>
        <path d="M 1459 4346 
Q 1843 4346 2134 4192 
Q 2426 4038 2586 3772 
Q 2746 3507 2746 3174 
Q 2746 2784 2570 2425 
Q 2394 2067 2029 1651 
Q 1664 1235 922 493 
L 2848 493 
L 2778 0 
L 250 0 
L 250 467 
Q 1107 1357 1465 1769 
Q 1824 2182 1977 2489 
Q 2131 2797 2131 3149 
Q 2131 3482 1939 3670 
Q 1747 3859 1427 3859 
Q 1165 3859 966 3750 
Q 768 3642 544 3392 
L 160 3699 
Q 422 4026 742 4186 
Q 1062 4346 1459 4346 
z
" id="FiraSans-Regular-32" transform="scale(0.015625)"/>
       </defs>
       <use xlink:href="#FiraSans-Regular-32"/>
       <use x="49.499985" xlink:href="#FiraSans-Regular-30"/>
       <use x="105.299973" xlink:href="#FiraSans-Regular-30"/>
       <use x="161.09996" xlink:href="#FiraSans-Regular-30"/>
       <use x="216.899948" xlink:href="#FiraSans-Regular-30"/>
      </g>
     </g>
    </g>
    <g id="xtick_3">
     <g id="line2d_3">
      <path clip-path="url(#p3fac443f5c)" d="M 528.102885 550.8 
L 528.102885 7.2 
" style="fill:none;stroke:#cccccc;stroke-linecap:round;stroke-width:2;"/>
     </g>
     <g id="text_3">
      <!-- 40000 -->
      <g style="fill:#262626;" transform="translate(482.498432 591.05)scale(0.33 -0.33)">
       <defs>
        <path d="M 3213 1523 
L 3213 1056 
L 2656 1056 
L 2656 0 
L 2086 0 
L 2086 1056 
L 256 1056 
L 256 1478 
L 1542 4346 
L 2035 4141 
L 877 1523 
L 2093 1523 
L 2144 2675 
L 2656 2675 
L 2656 1523 
L 3213 1523 
z
" id="FiraSans-Regular-34" transform="scale(0.015625)"/>
       </defs>
       <use xlink:href="#FiraSans-Regular-34"/>
       <use x="53.199997" xlink:href="#FiraSans-Regular-30"/>
       <use x="108.999985" xlink:href="#FiraSans-Regular-30"/>
       <use x="164.799973" xlink:href="#FiraSans-Regular-30"/>
       <use x="220.59996" xlink:href="#FiraSans-Regular-30"/>
      </g>
     </g>
    </g>
    <g id="xtick_4">
     <g id="line2d_4">
      <path clip-path="url(#p3fac443f5c)" d="M 727.144596 550.8 
L 727.144596 7.2 
" style="fill:none;stroke:#cccccc;stroke-linecap:round;stroke-width:2;"/>
     </g>
     <g id="text_4">
      <!-- 60000 -->
      <g style="fill:#262626;" transform="translate(681.524674 591.05)scale(0.33 -0.33)">
       <defs>
        <path d="M 1971 2816 
Q 2298 2816 2566 2662 
Q 2835 2509 2995 2201 
Q 3155 1894 3155 1453 
Q 3155 998 2972 649 
Q 2790 301 2480 112 
Q 2170 -77 1792 -77 
Q 1043 -77 697 476 
Q 352 1030 352 2010 
Q 352 2707 547 3235 
Q 742 3763 1107 4054 
Q 1472 4346 1971 4346 
Q 2458 4346 2854 4083 
L 2624 3693 
Q 2323 3878 1965 3878 
Q 1504 3878 1235 3436 
Q 966 2995 941 2253 
Q 1338 2816 1971 2816 
z
M 1792 390 
Q 2163 390 2361 672 
Q 2560 954 2560 1434 
Q 2560 2349 1869 2349 
Q 1587 2349 1350 2192 
Q 1114 2035 947 1760 
Q 966 1056 1168 723 
Q 1370 390 1792 390 
z
" id="FiraSans-Regular-36" transform="scale(0.015625)"/>
       </defs>
       <use xlink:href="#FiraSans-Regular-36"/>
       <use x="53.299988" xlink:href="#FiraSans-Regular-30"/>
       <use x="109.099976" xlink:href="#FiraSans-Regular-30"/>
       <use x="164.899963" xlink:href="#FiraSans-Regular-30"/>
       <use x="220.699951" xlink:href="#FiraSans-Regular-30"/>
      </g>
     </g>
    </g>
    <g id="xtick_5">
     <g id="line2d_5">
      <path clip-path="url(#p3fac443f5c)" d="M 926.186306 550.8 
L 926.186306 7.2 
" style="fill:none;stroke:#cccccc;stroke-linecap:round;stroke-width:2;"/>
     </g>
     <g id="text_5">
      <!-- 80000 -->
      <g style="fill:#262626;" transform="translate(880.2699 591.05)scale(0.33 -0.33)">
       <defs>
        <path d="M 2336 2298 
Q 3238 1933 3238 1146 
Q 3238 794 3049 515 
Q 2861 237 2521 80 
Q 2182 -77 1754 -77 
Q 1318 -77 985 76 
Q 653 230 470 505 
Q 288 781 288 1133 
Q 288 1530 502 1798 
Q 717 2067 1133 2246 
Q 794 2419 630 2665 
Q 467 2912 467 3245 
Q 467 3590 649 3840 
Q 832 4090 1129 4218 
Q 1427 4346 1766 4346 
Q 2099 4346 2396 4224 
Q 2694 4102 2880 3856 
Q 3066 3610 3066 3264 
Q 3066 2944 2886 2713 
Q 2707 2483 2336 2298 
z
M 1766 3904 
Q 1434 3904 1238 3731 
Q 1043 3558 1043 3238 
Q 1043 2931 1232 2771 
Q 1421 2611 1837 2477 
L 1946 2438 
Q 2234 2605 2362 2790 
Q 2490 2976 2490 3245 
Q 2490 3546 2301 3725 
Q 2112 3904 1766 3904 
z
M 1760 390 
Q 2157 390 2390 595 
Q 2624 800 2624 1139 
Q 2624 1370 2534 1526 
Q 2445 1683 2246 1801 
Q 2048 1920 1690 2042 
L 1530 2099 
Q 1210 1946 1056 1712 
Q 902 1478 902 1133 
Q 902 781 1132 585 
Q 1363 390 1760 390 
z
" id="FiraSans-Regular-38" transform="scale(0.015625)"/>
       </defs>
       <use xlink:href="#FiraSans-Regular-38"/>
       <use x="55.099991" xlink:href="#FiraSans-Regular-30"/>
       <use x="110.899979" xlink:href="#FiraSans-Regular-30"/>
       <use x="166.699966" xlink:href="#FiraSans-Regular-30"/>
       <use x="222.499954" xlink:href="#FiraSans-Regular-30"/>
      </g>
     </g>
    </g>
    <g id="xtick_6">
     <g id="line2d_6">
      <path clip-path="url(#p3fac443f5c)" d="M 1125.228017 550.8 
L 1125.228017 7.2 
" style="fill:none;stroke:#cccccc;stroke-linecap:round;stroke-width:2;"/>
     </g>
     <g id="text_6">
      <!-- 100000 -->
      <g style="fill:#262626;" transform="translate(1072.05161 591.05)scale(0.33 -0.33)">
       <defs>
        <path d="M 2067 4282 
L 2067 0 
L 1478 0 
L 1478 3654 
L 480 3046 
L 224 3462 
L 1549 4282 
L 2067 4282 
z
" id="FiraSans-Regular-31" transform="scale(0.015625)"/>
       </defs>
       <use xlink:href="#FiraSans-Regular-31"/>
       <use x="43.299988" xlink:href="#FiraSans-Regular-30"/>
       <use x="99.099976" xlink:href="#FiraSans-Regular-30"/>
       <use x="154.899963" xlink:href="#FiraSans-Regular-30"/>
       <use x="210.699951" xlink:href="#FiraSans-Regular-30"/>
       <use x="266.499939" xlink:href="#FiraSans-Regular-30"/>
      </g>
     </g>
    </g>
    <g id="text_7">
     <!-- Population reached -->
     <g style="fill:#262626;" transform="translate(476.896406 630.157969)scale(0.36 -0.36)">
      <defs>
       <path d="M 1798 4410 
Q 2618 4410 3066 4067 
Q 3514 3725 3514 3046 
Q 3514 2323 3046 1971 
Q 2579 1619 1805 1619 
L 1248 1619 
L 1248 0 
L 640 0 
L 640 4410 
L 1798 4410 
z
M 1779 2099 
Q 2310 2099 2588 2304 
Q 2867 2509 2867 3040 
Q 2867 3514 2588 3725 
Q 2310 3936 1792 3936 
L 1248 3936 
L 1248 2099 
L 1779 2099 
z
" id="FiraSans-Regular-50" transform="scale(0.015625)"/>
       <path d="M 1875 3450 
Q 2586 3450 2979 2976 
Q 3373 2502 3373 1690 
Q 3373 1165 3193 765 
Q 3014 365 2675 144 
Q 2336 -77 1869 -77 
Q 1158 -77 761 396 
Q 365 870 365 1683 
Q 365 2208 544 2608 
Q 723 3008 1062 3229 
Q 1402 3450 1875 3450 
z
M 1875 2976 
Q 998 2976 998 1683 
Q 998 397 1869 397 
Q 2739 397 2739 1690 
Q 2739 2976 1875 2976 
z
" id="FiraSans-Regular-6f" transform="scale(0.015625)"/>
       <path d="M 2157 3450 
Q 2803 3450 3104 2989 
Q 3405 2528 3405 1690 
Q 3405 896 3059 409 
Q 2714 -77 2080 -77 
Q 1517 -77 1197 307 
L 1197 -1293 
L 608 -1363 
L 608 3373 
L 1114 3373 
L 1158 2918 
Q 1344 3174 1606 3312 
Q 1869 3450 2157 3450 
z
M 1939 403 
Q 2771 403 2771 1690 
Q 2771 2982 2010 2982 
Q 1760 2982 1555 2835 
Q 1350 2688 1197 2458 
L 1197 813 
Q 1325 614 1517 508 
Q 1709 403 1939 403 
z
" id="FiraSans-Regular-70" transform="scale(0.015625)"/>
       <path d="M 3117 0 
L 2611 0 
L 2566 525 
Q 2374 211 2124 67 
Q 1875 -77 1517 -77 
Q 1075 -77 825 192 
Q 576 461 576 954 
L 576 3373 
L 1165 3373 
L 1165 1018 
Q 1165 672 1286 528 
Q 1408 384 1683 384 
Q 2176 384 2528 966 
L 2528 3373 
L 3117 3373 
L 3117 0 
z
" id="FiraSans-Regular-75" transform="scale(0.015625)"/>
       <path d="M 1280 -77 
Q 954 -77 765 118 
Q 576 314 576 666 
L 576 4730 
L 1165 4800 
L 1165 678 
Q 1165 538 1213 474 
Q 1261 410 1376 410 
Q 1498 410 1594 448 
L 1747 38 
Q 1536 -77 1280 -77 
z
" id="FiraSans-Regular-6c" transform="scale(0.015625)"/>
       <path d="M 2880 787 
Q 2880 582 2950 483 
Q 3021 384 3162 333 
L 3027 -77 
Q 2765 -45 2605 70 
Q 2445 186 2368 429 
Q 2029 -77 1363 -77 
Q 864 -77 576 204 
Q 288 486 288 941 
Q 288 1478 675 1766 
Q 1062 2054 1773 2054 
L 2291 2054 
L 2291 2304 
Q 2291 2662 2118 2816 
Q 1946 2970 1587 2970 
Q 1216 2970 678 2790 
L 531 3219 
Q 1158 3450 1696 3450 
Q 2291 3450 2585 3158 
Q 2880 2867 2880 2330 
L 2880 787 
z
M 1498 365 
Q 2003 365 2291 890 
L 2291 1664 
L 1850 1664 
Q 915 1664 915 973 
Q 915 672 1062 518 
Q 1210 365 1498 365 
z
" id="FiraSans-Regular-61" transform="scale(0.015625)"/>
       <path d="M 2310 154 
Q 1978 -77 1555 -77 
Q 1126 -77 886 169 
Q 646 416 646 883 
L 646 2918 
L 58 2918 
L 58 3373 
L 646 3373 
L 646 4134 
L 1235 4205 
L 1235 3373 
L 2035 3373 
L 1971 2918 
L 1235 2918 
L 1235 909 
Q 1235 646 1328 528 
Q 1421 410 1638 410 
Q 1837 410 2086 544 
L 2310 154 
z
" id="FiraSans-Regular-74" transform="scale(0.015625)"/>
       <path d="M 1197 3373 
L 1197 0 
L 608 0 
L 608 3373 
L 1197 3373 
z
M 896 4992 
Q 1082 4992 1197 4877 
Q 1312 4762 1312 4589 
Q 1312 4416 1197 4304 
Q 1082 4192 896 4192 
Q 717 4192 601 4304 
Q 486 4416 486 4589 
Q 486 4762 601 4877 
Q 717 4992 896 4992 
z
" id="FiraSans-Regular-69" transform="scale(0.015625)"/>
       <path d="M 2195 3450 
Q 2656 3450 2915 3174 
Q 3174 2899 3174 2419 
L 3174 0 
L 2586 0 
L 2586 2336 
Q 2586 2694 2451 2841 
Q 2317 2989 2054 2989 
Q 1786 2989 1581 2835 
Q 1376 2682 1197 2394 
L 1197 0 
L 608 0 
L 608 3373 
L 1114 3373 
L 1165 2874 
Q 1344 3142 1609 3296 
Q 1875 3450 2195 3450 
z
" id="FiraSans-Regular-6e" transform="scale(0.015625)"/>
       <path id="FiraSans-Regular-20" transform="scale(0.015625)"/>
       <path d="M 2074 3450 
Q 2253 3450 2406 3411 
L 2298 2835 
Q 2144 2874 2003 2874 
Q 1690 2874 1498 2643 
Q 1306 2413 1197 1926 
L 1197 0 
L 608 0 
L 608 3373 
L 1114 3373 
L 1171 2688 
Q 1306 3066 1536 3258 
Q 1766 3450 2074 3450 
z
" id="FiraSans-Regular-72" transform="scale(0.015625)"/>
       <path d="M 3155 1786 
Q 3155 1638 3142 1485 
L 992 1485 
Q 1030 928 1273 665 
Q 1517 403 1901 403 
Q 2144 403 2349 473 
Q 2554 544 2778 698 
L 3034 346 
Q 2496 -77 1856 -77 
Q 1152 -77 758 384 
Q 365 845 365 1651 
Q 365 2176 534 2582 
Q 704 2989 1021 3219 
Q 1338 3450 1766 3450 
Q 2438 3450 2796 3008 
Q 3155 2566 3155 1786 
z
M 2573 1958 
Q 2573 2458 2374 2720 
Q 2176 2982 1779 2982 
Q 1056 2982 992 1920 
L 2573 1920 
L 2573 1958 
z
" id="FiraSans-Regular-65" transform="scale(0.015625)"/>
       <path d="M 1837 3450 
Q 2138 3450 2387 3363 
Q 2637 3277 2867 3085 
L 2586 2714 
Q 2406 2842 2236 2902 
Q 2067 2963 1862 2963 
Q 1453 2963 1225 2636 
Q 998 2310 998 1670 
Q 998 1030 1222 726 
Q 1446 422 1862 422 
Q 2061 422 2227 483 
Q 2394 544 2598 678 
L 2867 294 
Q 2406 -77 1837 -77 
Q 1152 -77 758 384 
Q 365 845 365 1658 
Q 365 2195 544 2598 
Q 723 3002 1052 3226 
Q 1382 3450 1837 3450 
z
" id="FiraSans-Regular-63" transform="scale(0.015625)"/>
       <path d="M 2195 3450 
Q 2656 3450 2915 3174 
Q 3174 2899 3174 2419 
L 3174 0 
L 2586 0 
L 2586 2336 
Q 2586 2694 2448 2841 
Q 2310 2989 2048 2989 
Q 1786 2989 1581 2835 
Q 1376 2682 1197 2400 
L 1197 0 
L 608 0 
L 608 4723 
L 1197 4787 
L 1197 2906 
Q 1594 3450 2195 3450 
z
" id="FiraSans-Regular-68" transform="scale(0.015625)"/>
       <path d="M 3219 4730 
L 3219 0 
L 2701 0 
L 2643 467 
Q 2477 211 2227 67 
Q 1978 -77 1670 -77 
Q 1069 -77 733 396 
Q 397 870 397 1670 
Q 397 2189 557 2592 
Q 717 2995 1017 3222 
Q 1318 3450 1722 3450 
Q 2240 3450 2630 3034 
L 2630 4800 
L 3219 4730 
z
M 1798 390 
Q 2067 390 2259 515 
Q 2451 640 2630 890 
L 2630 2541 
Q 2464 2758 2275 2870 
Q 2086 2982 1850 2982 
Q 1459 2982 1244 2656 
Q 1030 2330 1030 1683 
Q 1030 1030 1228 710 
Q 1427 390 1798 390 
z
" id="FiraSans-Regular-64" transform="scale(0.015625)"/>
      </defs>
      <use xlink:href="#FiraSans-Regular-50"/>
      <use x="58.099991" xlink:href="#FiraSans-Regular-6f"/>
      <use x="116.499985" xlink:href="#FiraSans-Regular-70"/>
      <use x="175.899979" xlink:href="#FiraSans-Regular-75"/>
      <use x="234.099976" xlink:href="#FiraSans-Regular-6c"/>
      <use x="263.399963" xlink:href="#FiraSans-Regular-61"/>
      <use x="317.799957" xlink:href="#FiraSans-Regular-74"/>
      <use x="353.899948" xlink:href="#FiraSans-Regular-69"/>
      <use x="382.099945" xlink:href="#FiraSans-Regular-6f"/>
      <use x="440.499939" xlink:href="#FiraSans-Regular-6e"/>
      <use x="499.09993" xlink:href="#FiraSans-Regular-20"/>
      <use x="525.599915" xlink:href="#FiraSans-Regular-72"/>
      <use x="564.199905" xlink:href="#FiraSans-Regular-65"/>
      <use x="618.69989" xlink:href="#FiraSans-Regular-61"/>
      <use x="673.099884" xlink:href="#FiraSans-Regular-63"/>
      <use x="720.899872" xlink:href="#FiraSans-Regular-68"/>
      <use x="779.499863" xlink:href="#FiraSans-Regular-65"/>
      <use x="833.999847" xlink:href="#FiraSans-Regular-64"/>
     </g>
    </g>
   </g>
   <g id="matplotlib.axis_2">
    <g id="ytick_1">
     <g id="line2d_7">
      <path clip-path="url(#p3fac443f5c)" d="M 79.779844 550.8 
L 1195.779844 550.8 
" style="fill:none;stroke:#cccccc;stroke-linecap:round;stroke-width:2;"/>
     </g>
     <g id="text_8">
      <!-- 0 -->
      <g style="fill:#262626;" transform="translate(45.866875 563.175)scale(0.33 -0.33)">
       <use xlink:href="#FiraSans-Regular-30"/>
      </g>
     </g>
    </g>
    <g id="ytick_2">
     <g id="line2d_8">
      <path clip-path="url(#p3fac443f5c)" d="M 79.779844 447.257143 
L 1195.779844 447.257143 
" style="fill:none;stroke:#cccccc;stroke-linecap:round;stroke-width:2;"/>
     </g>
     <g id="text_9">
      <!-- 1 -->
      <g style="fill:#262626;" transform="translate(49.991875 459.632143)scale(0.33 -0.33)">
       <use xlink:href="#FiraSans-Regular-31"/>
      </g>
     </g>
    </g>
    <g id="ytick_3">
     <g id="line2d_9">
      <path clip-path="url(#p3fac443f5c)" d="M 79.779844 343.714286 
L 1195.779844 343.714286 
" style="fill:none;stroke:#cccccc;stroke-linecap:round;stroke-width:2;"/>
     </g>
     <g id="text_10">
      <!-- 2 -->
      <g style="fill:#262626;" transform="translate(47.944844 356.089286)scale(0.33 -0.33)">
       <use xlink:href="#FiraSans-Regular-32"/>
      </g>
     </g>
    </g>
    <g id="ytick_4">
     <g id="line2d_10">
      <path clip-path="url(#p3fac443f5c)" d="M 79.779844 240.171429 
L 1195.779844 240.171429 
" style="fill:none;stroke:#cccccc;stroke-linecap:round;stroke-width:2;"/>
     </g>
     <g id="text_11">
      <!-- 3 -->
      <g style="fill:#262626;" transform="translate(47.810781 252.546429)scale(0.33 -0.33)">
       <defs>
        <path d="M 1440 4346 
Q 1837 4346 2121 4198 
Q 2406 4051 2556 3801 
Q 2707 3552 2707 3258 
Q 2707 2867 2480 2614 
Q 2253 2362 1875 2272 
Q 2304 2234 2573 1965 
Q 2842 1696 2842 1235 
Q 2842 864 2662 563 
Q 2483 262 2150 92 
Q 1818 -77 1382 -77 
Q 992 -77 665 67 
Q 339 211 96 499 
L 448 826 
Q 659 608 880 505 
Q 1101 403 1363 403 
Q 1766 403 1996 630 
Q 2227 858 2227 1242 
Q 2227 1664 2009 1837 
Q 1792 2010 1376 2010 
L 1056 2010 
L 1126 2464 
L 1344 2464 
Q 1677 2464 1897 2662 
Q 2118 2861 2118 3219 
Q 2118 3520 1926 3696 
Q 1734 3872 1408 3872 
Q 1158 3872 950 3782 
Q 742 3693 525 3488 
L 218 3840 
Q 762 4346 1440 4346 
z
" id="FiraSans-Regular-33" transform="scale(0.015625)"/>
       </defs>
       <use xlink:href="#FiraSans-Regular-33"/>
      </g>
     </g>
    </g>
    <g id="ytick_5">
     <g id="line2d_11">
      <path clip-path="url(#p3fac443f5c)" d="M 79.779844 136.628571 
L 1195.779844 136.628571 
" style="fill:none;stroke:#cccccc;stroke-linecap:round;stroke-width:2;"/>
     </g>
     <g id="text_12">
      <!-- 4 -->
      <g style="fill:#262626;" transform="translate(46.722813 149.003571)scale(0.33 -0.33)">
       <use xlink:href="#FiraSans-Regular-34"/>
      </g>
     </g>
    </g>
    <g id="ytick_6">
     <g id="line2d_12">
      <path clip-path="url(#p3fac443f5c)" d="M 79.779844 33.085714 
L 1195.779844 33.085714 
" style="fill:none;stroke:#cccccc;stroke-linecap:round;stroke-width:2;"/>
     </g>
     <g id="text_13">
      <!-- 5 -->
      <g style="fill:#262626;" transform="translate(47.748906 45.460714)scale(0.33 -0.33)">
       <defs>
        <path d="M 2688 3821 
L 1018 3821 
L 1018 2560 
Q 1344 2726 1702 2726 
Q 2253 2726 2585 2364 
Q 2918 2003 2918 1370 
Q 2918 947 2732 617 
Q 2547 288 2211 105 
Q 1875 -77 1434 -77 
Q 1043 -77 736 60 
Q 429 198 166 467 
L 512 806 
Q 717 602 934 502 
Q 1152 403 1427 403 
Q 1837 403 2070 659 
Q 2304 915 2304 1382 
Q 2304 1850 2093 2061 
Q 1882 2272 1523 2272 
Q 1357 2272 1216 2237 
Q 1075 2202 915 2125 
L 454 2125 
L 454 4282 
L 2771 4282 
L 2688 3821 
z
" id="FiraSans-Regular-35" transform="scale(0.015625)"/>
       </defs>
       <use xlink:href="#FiraSans-Regular-35"/>
      </g>
     </g>
    </g>
    <g id="text_14">
     <!-- Labs -->
     <g style="fill:#262626;" transform="translate(34.2 316.85625)rotate(-90)scale(0.36 -0.36)">
      <defs>
       <path d="M 1248 4410 
L 1248 531 
L 3059 531 
L 2989 0 
L 640 0 
L 640 4410 
L 1248 4410 
z
" id="FiraSans-Regular-4c" transform="scale(0.015625)"/>
       <path d="M 2150 3450 
Q 2726 3450 3065 2986 
Q 3405 2522 3405 1690 
Q 3405 1165 3245 765 
Q 3085 365 2784 144 
Q 2483 -77 2080 -77 
Q 1549 -77 1184 371 
L 1126 0 
L 608 0 
L 608 4730 
L 1197 4800 
L 1197 2950 
Q 1562 3450 2150 3450 
z
M 1939 390 
Q 2330 390 2550 707 
Q 2771 1024 2771 1690 
Q 2771 2374 2566 2678 
Q 2362 2982 1984 2982 
Q 1536 2982 1197 2458 
L 1197 845 
Q 1331 634 1526 512 
Q 1722 390 1939 390 
z
" id="FiraSans-Regular-62" transform="scale(0.015625)"/>
       <path d="M 1523 3450 
Q 1869 3450 2144 3354 
Q 2419 3258 2669 3066 
L 2419 2694 
Q 2189 2842 1981 2912 
Q 1773 2982 1542 2982 
Q 1254 2982 1088 2864 
Q 922 2746 922 2541 
Q 922 2336 1078 2221 
Q 1235 2106 1645 1997 
Q 2208 1856 2486 1613 
Q 2765 1370 2765 947 
Q 2765 448 2377 185 
Q 1990 -77 1434 -77 
Q 666 -77 160 365 
L 474 723 
Q 902 397 1421 397 
Q 1754 397 1949 534 
Q 2144 672 2144 909 
Q 2144 1082 2073 1187 
Q 2003 1293 1830 1373 
Q 1658 1453 1325 1542 
Q 787 1683 547 1920 
Q 307 2157 307 2522 
Q 307 2784 464 2998 
Q 621 3213 899 3331 
Q 1178 3450 1523 3450 
z
" id="FiraSans-Regular-73" transform="scale(0.015625)"/>
      </defs>
      <use xlink:href="#FiraSans-Regular-4c"/>
      <use x="49.799988" xlink:href="#FiraSans-Regular-61"/>
      <use x="104.199982" xlink:href="#FiraSans-Regular-62"/>
      <use x="163.599976" xlink:href="#FiraSans-Regular-73"/>
     </g>
    </g>
   </g>
   <g id="patch_3">
    <path clip-path="url(#p3fac443f5c)" d="M 130.507116 550.8 
L 155.870753 550.8 
L 155.870753 447.257143 
L 130.507116 447.257143 
z
" style="fill:#1f77b4;stroke:#ffffff;stroke-linejoin:miter;stroke-width:2;"/>
   </g>
   <g id="patch_4">
    <path clip-path="url(#p3fac443f5c)" d="M 155.870753 550.8 
L 181.234389 550.8 
L 181.234389 447.257143 
L 155.870753 447.257143 
z
" style="fill:#1f77b4;stroke:#ffffff;stroke-linejoin:miter;stroke-width:2;"/>
   </g>
   <g id="patch_5">
    <path clip-path="url(#p3fac443f5c)" d="M 181.234389 550.8 
L 206.598026 550.8 
L 206.598026 447.257143 
L 181.234389 447.257143 
z
" style="fill:#1f77b4;stroke:#ffffff;stroke-linejoin:miter;stroke-width:2;"/>
   </g>
   <g id="patch_6">
    <path clip-path="url(#p3fac443f5c)" d="M 206.598026 550.8 
L 231.961662 550.8 
L 231.961662 550.8 
L 206.598026 550.8 
z
" style="fill:#1f77b4;stroke:#ffffff;stroke-linejoin:miter;stroke-width:2;"/>
   </g>
   <g id="patch_7">
    <path clip-path="url(#p3fac443f5c)" d="M 231.961662 550.8 
L 257.325298 550.8 
L 257.325298 240.171429 
L 231.961662 240.171429 
z
" style="fill:#1f77b4;stroke:#ffffff;stroke-linejoin:miter;stroke-width:2;"/>
   </g>
   <g id="patch_8">
    <path clip-path="url(#p3fac443f5c)" d="M 257.325298 550.8 
L 282.688935 550.8 
L 282.688935 550.8 
L 257.325298 550.8 
z
" style="fill:#1f77b4;stroke:#ffffff;stroke-linejoin:miter;stroke-width:2;"/>
   </g>
   <g id="patch_9">
    <path clip-path="url(#p3fac443f5c)" d="M 282.688935 550.8 
L 308.052571 550.8 
L 308.052571 550.8 
L 282.688935 550.8 
z
" style="fill:#1f77b4;stroke:#ffffff;stroke-linejoin:miter;stroke-width:2;"/>
   </g>
   <g id="patch_10">
    <path clip-path="url(#p3fac443f5c)" d="M 308.052571 550.8 
L 333.416207 550.8 
L 333.416207 550.8 
L 308.052571 550.8 
z
" style="fill:#1f77b4;stroke:#ffffff;stroke-linejoin:miter;stroke-width:2;"/>
   </g>
   <g id="patch_11">
    <path clip-path="url(#p3fac443f5c)" d="M 333.416207 550.8 
L 358.779844 550.8 
L 358.779844 447.257143 
L 333.416207 447.257143 
z
" style="fill:#1f77b4;stroke:#ffffff;stroke-linejoin:miter;stroke-width:2;"/>
   </g>
   <g id="patch_12">
    <path clip-path="url(#p3fac443f5c)" d="M 358.779844 550.8 
L 384.14348 550.8 
L 384.14348 550.8 
L 358.779844 550.8 
z
" style="fill:#1f77b4;stroke:#ffffff;stroke-linejoin:miter;stroke-width:2;"/>
   </g>
   <g id="patch_13">
    <path clip-path="url(#p3fac443f5c)" d="M 384.14348 550.8 
L 409.507116 550.8 
L 409.507116 550.8 
L 384.14348 550.8 
z
" style="fill:#1f77b4;stroke:#ffffff;stroke-linejoin:miter;stroke-width:2;"/>
   </g>
   <g id="patch_14">
    <path clip-path="url(#p3fac443f5c)" d="M 409.507116 550.8 
L 434.870753 550.8 
L 434.870753 447.257143 
L 409.507116 447.257143 
z
" style="fill:#1f77b4;stroke:#ffffff;stroke-linejoin:miter;stroke-width:2;"/>
   </g>
   <g id="patch_15">
    <path clip-path="url(#p3fac443f5c)" d="M 434.870753 550.8 
L 460.234389 550.8 
L 460.234389 550.8 
L 434.870753 550.8 
z
" style="fill:#1f77b4;stroke:#ffffff;stroke-linejoin:miter;stroke-width:2;"/>
   </g>
   <g id="patch_16">
    <path clip-path="url(#p3fac443f5c)" d="M 460.234389 550.8 
L 485.598026 550.8 
L 485.598026 447.257143 
L 460.234389 447.257143 
z
" style="fill:#1f77b4;stroke:#ffffff;stroke-linejoin:miter;stroke-width:2;"/>
   </g>
   <g id="patch_17">
    <path clip-path="url(#p3fac443f5c)" d="M 485.598026 550.8 
L 510.961662 550.8 
L 510.961662 550.8 
L 485.598026 550.8 
z
" style="fill:#1f77b4;stroke:#ffffff;stroke-linejoin:miter;stroke-width:2;"/>
   </g>
   <g id="patch_18">
    <path clip-path="url(#p3fac443f5c)" d="M 510.961662 550.8 
L 536.325298 550.8 
L 536.325298 550.8 
L 510.961662 550.8 
z
" style="fill:#1f77b4;stroke:#ffffff;stroke-linejoin:miter;stroke-width:2;"/>
   </g>
   <g id="patch_19">
    <path clip-path="url(#p3fac443f5c)" d="M 536.325298 550.8 
L 561.688935 550.8 
L 561.688935 550.8 
L 536.325298 550.8 
z
" style="fill:#1f77b4;stroke:#ffffff;stroke-linejoin:miter;stroke-width:2;"/>
   </g>
   <g id="patch_20">
    <path clip-path="url(#p3fac443f5c)" d="M 561.688935 550.8 
L 587.052571 550.8 
L 587.052571 550.8 
L 561.688935 550.8 
z
" style="fill:#1f77b4;stroke:#ffffff;stroke-linejoin:miter;stroke-width:2;"/>
   </g>
   <g id="patch_21">
    <path clip-path="url(#p3fac443f5c)" d="M 587.052571 550.8 
L 612.416207 550.8 
L 612.416207 447.257143 
L 587.052571 447.257143 
z
" style="fill:#1f77b4;stroke:#ffffff;stroke-linejoin:miter;stroke-width:2;"/>
   </g>
   <g id="patch_22">
    <path clip-path="url(#p3fac443f5c)" d="M 612.416207 550.8 
L 637.779844 550.8 
L 637.779844 550.8 
L 612.416207 550.8 
z
" style="fill:#1f77b4;stroke:#ffffff;stroke-linejoin:miter;stroke-width:2;"/>
   </g>
   <g id="patch_23">
    <path clip-path="url(#p3fac443f5c)" d="M 637.779844 550.8 
L 663.14348 550.8 
L 663.14348 550.8 
L 637.779844 550.8 
z
" style="fill:#1f77b4;stroke:#ffffff;stroke-linejoin:miter;stroke-width:2;"/>
   </g>
   <g id="patch_24">
    <path clip-path="url(#p3fac443f5c)" d="M 663.14348 550.8 
L 688.507116 550.8 
L 688.507116 550.8 
L 663.14348 550.8 
z
" style="fill:#1f77b4;stroke:#ffffff;stroke-linejoin:miter;stroke-width:2;"/>
   </g>
   <g id="patch_25">
    <path clip-path="url(#p3fac443f5c)" d="M 688.507116 550.8 
L 713.870753 550.8 
L 713.870753 447.257143 
L 688.507116 447.257143 
z
" style="fill:#1f77b4;stroke:#ffffff;stroke-linejoin:miter;stroke-width:2;"/>
   </g>
   <g id="patch_26">
    <path clip-path="url(#p3fac443f5c)" d="M 713.870753 550.8 
L 739.234389 550.8 
L 739.234389 550.8 
L 713.870753 550.8 
z
" style="fill:#1f77b4;stroke:#ffffff;stroke-linejoin:miter;stroke-width:2;"/>
   </g>
   <g id="patch_27">
    <path clip-path="url(#p3fac443f5c)" d="M 739.234389 550.8 
L 764.598026 550.8 
L 764.598026 343.714286 
L 739.234389 343.714286 
z
" style="fill:#1f77b4;stroke:#ffffff;stroke-linejoin:miter;stroke-width:2;"/>
   </g>
   <g id="patch_28">
    <path clip-path="url(#p3fac443f5c)" d="M 764.598026 550.8 
L 789.961662 550.8 
L 789.961662 447.257143 
L 764.598026 447.257143 
z
" style="fill:#1f77b4;stroke:#ffffff;stroke-linejoin:miter;stroke-width:2;"/>
   </g>
   <g id="patch_29">
    <path clip-path="url(#p3fac443f5c)" d="M 789.961662 550.8 
L 815.325298 550.8 
L 815.325298 550.8 
L 789.961662 550.8 
z
" style="fill:#1f77b4;stroke:#ffffff;stroke-linejoin:miter;stroke-width:2;"/>
   </g>
   <g id="patch_30">
    <path clip-path="url(#p3fac443f5c)" d="M 815.325298 550.8 
L 840.688935 550.8 
L 840.688935 447.257143 
L 815.325298 447.257143 
z
" style="fill:#1f77b4;stroke:#ffffff;stroke-linejoin:miter;stroke-width:2;"/>
   </g>
   <g id="patch_31">
    <path clip-path="url(#p3fac443f5c)" d="M 840.688935 550.8 
L 866.052571 550.8 
L 866.052571 550.8 
L 840.688935 550.8 
z
" style="fill:#1f77b4;stroke:#ffffff;stroke-linejoin:miter;stroke-width:2;"/>
   </g>
   <g id="patch_32">
    <path clip-path="url(#p3fac443f5c)" d="M 866.052571 550.8 
L 891.416207 550.8 
L 891.416207 550.8 
L 866.052571 550.8 
z
" style="fill:#1f77b4;stroke:#ffffff;stroke-linejoin:miter;stroke-width:2;"/>
   </g>
   <g id="patch_33">
    <path clip-path="url(#p3fac443f5c)" d="M 891.416207 550.8 
L 916.779844 550.8 
L 916.779844 447.257143 
L 891.416207 447.257143 
z
" style="fill:#1f77b4;stroke:#ffffff;stroke-linejoin:miter;stroke-width:2;"/>
   </g>
   <g id="patch_34">
    <path clip-path="url(#p3fac443f5c)" d="M 916.779844 550.8 
L 942.14348 550.8 
L 942.14348 550.8 
L 916.779844 550.8 
z
" style="fill:#1f77b4;stroke:#ffffff;stroke-linejoin:miter;stroke-width:2;"/>
   </g>
   <g id="patch_35">
    <path clip-path="url(#p3fac443f5c)" d="M 942.14348 550.8 
L 967.507116 550.8 
L 967.507116 343.714286 
L 942.14348 343.714286 
z
" style="fill:#1f77b4;stroke:#ffffff;stroke-linejoin:miter;stroke-width:2;"/>
   </g>
   <g id="patch_36">
    <path clip-path="url(#p3fac443f5c)" d="M 967.507116 550.8 
L 992.870753 550.8 
L 992.870753 343.714286 
L 967.507116 343.714286 
z
" style="fill:#1f77b4;stroke:#ffffff;stroke-linejoin:miter;stroke-width:2;"/>
   </g>
   <g id="patch_37">
    <path clip-path="url(#p3fac443f5c)" d="M 992.870753 550.8 
L 1018.234389 550.8 
L 1018.234389 136.628571 
L 992.870753 136.628571 
z
" style="fill:#1f77b4;stroke:#ffffff;stroke-linejoin:miter;stroke-width:2;"/>
   </g>
   <g id="patch_38">
    <path clip-path="url(#p3fac443f5c)" d="M 1018.234389 550.8 
L 1043.598026 550.8 
L 1043.598026 33.085714 
L 1018.234389 33.085714 
z
" style="fill:#1f77b4;stroke:#ffffff;stroke-linejoin:miter;stroke-width:2;"/>
   </g>
   <g id="patch_39">
    <path clip-path="url(#p3fac443f5c)" d="M 1043.598026 550.8 
L 1068.961662 550.8 
L 1068.961662 33.085714 
L 1043.598026 33.085714 
z
" style="fill:#1f77b4;stroke:#ffffff;stroke-linejoin:miter;stroke-width:2;"/>
   </g>
   <g id="patch_40">
    <path clip-path="url(#p3fac443f5c)" d="M 1068.961662 550.8 
L 1094.325298 550.8 
L 1094.325298 136.628571 
L 1068.961662 136.628571 
z
" style="fill:#1f77b4;stroke:#ffffff;stroke-linejoin:miter;stroke-width:2;"/>
   </g>
   <g id="patch_41">
    <path clip-path="url(#p3fac443f5c)" d="M 1094.325298 550.8 
L 1119.688935 550.8 
L 1119.688935 447.257143 
L 1094.325298 447.257143 
z
" style="fill:#1f77b4;stroke:#ffffff;stroke-linejoin:miter;stroke-width:2;"/>
   </g>
   <g id="patch_42">
    <path clip-path="url(#p3fac443f5c)" d="M 1119.688935 550.8 
L 1145.052571 550.8 
L 1145.052571 240.171429 
L 1119.688935 240.171429 
z
" style="fill:#1f77b4;stroke:#ffffff;stroke-linejoin:miter;stroke-width:2;"/>
   </g>
   <g id="patch_43">
    <path clip-path="url(#p3fac443f5c)" d="M 245.393992 550.8 
L 257.492245 550.8 
L 257.492245 447.257143 
L 245.393992 447.257143 
z
" style="fill:#ff7f0e;stroke:#ffffff;stroke-linejoin:miter;stroke-width:2;"/>
   </g>
   <g id="patch_44">
    <path clip-path="url(#p3fac443f5c)" d="M 257.492245 550.8 
L 269.590497 550.8 
L 269.590497 550.8 
L 257.492245 550.8 
z
" style="fill:#ff7f0e;stroke:#ffffff;stroke-linejoin:miter;stroke-width:2;"/>
   </g>
   <g id="patch_45">
    <path clip-path="url(#p3fac443f5c)" d="M 269.590497 550.8 
L 281.68875 550.8 
L 281.68875 550.8 
L 269.590497 550.8 
z
" style="fill:#ff7f0e;stroke:#ffffff;stroke-linejoin:miter;stroke-width:2;"/>
   </g>
   <g id="patch_46">
    <path clip-path="url(#p3fac443f5c)" d="M 281.68875 550.8 
L 293.787003 550.8 
L 293.787003 447.257143 
L 281.68875 447.257143 
z
" style="fill:#ff7f0e;stroke:#ffffff;stroke-linejoin:miter;stroke-width:2;"/>
   </g>
   <g id="patch_47">
    <path clip-path="url(#p3fac443f5c)" d="M 293.787003 550.8 
L 305.885256 550.8 
L 305.885256 550.8 
L 293.787003 550.8 
z
" style="fill:#ff7f0e;stroke:#ffffff;stroke-linejoin:miter;stroke-width:2;"/>
   </g>
   <g id="patch_48">
    <path clip-path="url(#p3fac443f5c)" d="M 305.885256 550.8 
L 317.983508 550.8 
L 317.983508 550.8 
L 305.885256 550.8 
z
" style="fill:#ff7f0e;stroke:#ffffff;stroke-linejoin:miter;stroke-width:2;"/>
   </g>
   <g id="patch_49">
    <path clip-path="url(#p3fac443f5c)" d="M 317.983508 550.8 
L 330.081761 550.8 
L 330.081761 550.8 
L 317.983508 550.8 
z
" style="fill:#ff7f0e;stroke:#ffffff;stroke-linejoin:miter;stroke-width:2;"/>
   </g>
   <g id="patch_50">
    <path clip-path="url(#p3fac443f5c)" d="M 330.081761 550.8 
L 342.180014 550.8 
L 342.180014 447.257143 
L 330.081761 447.257143 
z
" style="fill:#ff7f0e;stroke:#ffffff;stroke-linejoin:miter;stroke-width:2;"/>
   </g>
   <g id="patch_51">
    <path clip-path="url(#p3fac443f5c)" d="M 342.180014 550.8 
L 354.278267 550.8 
L 354.278267 550.8 
L 342.180014 550.8 
z
" style="fill:#ff7f0e;stroke:#ffffff;stroke-linejoin:miter;stroke-width:2;"/>
   </g>
   <g id="patch_52">
    <path clip-path="url(#p3fac443f5c)" d="M 354.278267 550.8 
L 366.376519 550.8 
L 366.376519 550.8 
L 354.278267 550.8 
z
" style="fill:#ff7f0e;stroke:#ffffff;stroke-linejoin:miter;stroke-width:2;"/>
   </g>
   <g id="patch_53">
    <path clip-path="url(#p3fac443f5c)" d="M 366.376519 550.8 
L 378.474772 550.8 
L 378.474772 343.714286 
L 366.376519 343.714286 
z
" style="fill:#ff7f0e;stroke:#ffffff;stroke-linejoin:miter;stroke-width:2;"/>
   </g>
   <g id="patch_54">
    <path clip-path="url(#p3fac443f5c)" d="M 378.474772 550.8 
L 390.573025 550.8 
L 390.573025 447.257143 
L 378.474772 447.257143 
z
" style="fill:#ff7f0e;stroke:#ffffff;stroke-linejoin:miter;stroke-width:2;"/>
   </g>
   <g id="patch_55">
    <path clip-path="url(#p3fac443f5c)" d="M 390.573025 550.8 
L 402.671278 550.8 
L 402.671278 550.8 
L 390.573025 550.8 
z
" style="fill:#ff7f0e;stroke:#ffffff;stroke-linejoin:miter;stroke-width:2;"/>
   </g>
   <g id="patch_56">
    <path clip-path="url(#p3fac443f5c)" d="M 402.671278 550.8 
L 414.769531 550.8 
L 414.769531 550.8 
L 402.671278 550.8 
z
" style="fill:#ff7f0e;stroke:#ffffff;stroke-linejoin:miter;stroke-width:2;"/>
   </g>
   <g id="patch_57">
    <path clip-path="url(#p3fac443f5c)" d="M 414.769531 550.8 
L 426.867783 550.8 
L 426.867783 550.8 
L 414.769531 550.8 
z
" style="fill:#ff7f0e;stroke:#ffffff;stroke-linejoin:miter;stroke-width:2;"/>
   </g>
   <g id="patch_58">
    <path clip-path="url(#p3fac443f5c)" d="M 426.867783 550.8 
L 438.966036 550.8 
L 438.966036 343.714286 
L 426.867783 343.714286 
z
" style="fill:#ff7f0e;stroke:#ffffff;stroke-linejoin:miter;stroke-width:2;"/>
   </g>
   <g id="patch_59">
    <path clip-path="url(#p3fac443f5c)" d="M 438.966036 550.8 
L 451.064289 550.8 
L 451.064289 550.8 
L 438.966036 550.8 
z
" style="fill:#ff7f0e;stroke:#ffffff;stroke-linejoin:miter;stroke-width:2;"/>
   </g>
   <g id="patch_60">
    <path clip-path="url(#p3fac443f5c)" d="M 451.064289 550.8 
L 463.162542 550.8 
L 463.162542 343.714286 
L 451.064289 343.714286 
z
" style="fill:#ff7f0e;stroke:#ffffff;stroke-linejoin:miter;stroke-width:2;"/>
   </g>
   <g id="patch_61">
    <path clip-path="url(#p3fac443f5c)" d="M 463.162542 550.8 
L 475.260794 550.8 
L 475.260794 550.8 
L 463.162542 550.8 
z
" style="fill:#ff7f0e;stroke:#ffffff;stroke-linejoin:miter;stroke-width:2;"/>
   </g>
   <g id="patch_62">
    <path clip-path="url(#p3fac443f5c)" d="M 475.260794 550.8 
L 487.359047 550.8 
L 487.359047 550.8 
L 475.260794 550.8 
z
" style="fill:#ff7f0e;stroke:#ffffff;stroke-linejoin:miter;stroke-width:2;"/>
   </g>
   <g id="patch_63">
    <path clip-path="url(#p3fac443f5c)" d="M 487.359047 550.8 
L 499.4573 550.8 
L 499.4573 550.8 
L 487.359047 550.8 
z
" style="fill:#ff7f0e;stroke:#ffffff;stroke-linejoin:miter;stroke-width:2;"/>
   </g>
   <g id="patch_64">
    <path clip-path="url(#p3fac443f5c)" d="M 499.4573 550.8 
L 511.555553 550.8 
L 511.555553 550.8 
L 499.4573 550.8 
z
" style="fill:#ff7f0e;stroke:#ffffff;stroke-linejoin:miter;stroke-width:2;"/>
   </g>
   <g id="patch_65">
    <path clip-path="url(#p3fac443f5c)" d="M 511.555553 550.8 
L 523.653805 550.8 
L 523.653805 343.714286 
L 511.555553 343.714286 
z
" style="fill:#ff7f0e;stroke:#ffffff;stroke-linejoin:miter;stroke-width:2;"/>
   </g>
   <g id="patch_66">
    <path clip-path="url(#p3fac443f5c)" d="M 523.653805 550.8 
L 535.752058 550.8 
L 535.752058 550.8 
L 523.653805 550.8 
z
" style="fill:#ff7f0e;stroke:#ffffff;stroke-linejoin:miter;stroke-width:2;"/>
   </g>
   <g id="patch_67">
    <path clip-path="url(#p3fac443f5c)" d="M 535.752058 550.8 
L 547.850311 550.8 
L 547.850311 343.714286 
L 535.752058 343.714286 
z
" style="fill:#ff7f0e;stroke:#ffffff;stroke-linejoin:miter;stroke-width:2;"/>
   </g>
   <g id="patch_68">
    <path clip-path="url(#p3fac443f5c)" d="M 547.850311 550.8 
L 559.948564 550.8 
L 559.948564 550.8 
L 547.850311 550.8 
z
" style="fill:#ff7f0e;stroke:#ffffff;stroke-linejoin:miter;stroke-width:2;"/>
   </g>
   <g id="patch_69">
    <path clip-path="url(#p3fac443f5c)" d="M 559.948564 550.8 
L 572.046816 550.8 
L 572.046816 550.8 
L 559.948564 550.8 
z
" style="fill:#ff7f0e;stroke:#ffffff;stroke-linejoin:miter;stroke-width:2;"/>
   </g>
   <g id="patch_70">
    <path clip-path="url(#p3fac443f5c)" d="M 572.046816 550.8 
L 584.145069 550.8 
L 584.145069 550.8 
L 572.046816 550.8 
z
" style="fill:#ff7f0e;stroke:#ffffff;stroke-linejoin:miter;stroke-width:2;"/>
   </g>
   <g id="patch_71">
    <path clip-path="url(#p3fac443f5c)" d="M 584.145069 550.8 
L 596.243322 550.8 
L 596.243322 447.257143 
L 584.145069 447.257143 
z
" style="fill:#ff7f0e;stroke:#ffffff;stroke-linejoin:miter;stroke-width:2;"/>
   </g>
   <g id="patch_72">
    <path clip-path="url(#p3fac443f5c)" d="M 596.243322 550.8 
L 608.341575 550.8 
L 608.341575 550.8 
L 596.243322 550.8 
z
" style="fill:#ff7f0e;stroke:#ffffff;stroke-linejoin:miter;stroke-width:2;"/>
   </g>
   <g id="patch_73">
    <path clip-path="url(#p3fac443f5c)" d="M 608.341575 550.8 
L 620.439828 550.8 
L 620.439828 550.8 
L 608.341575 550.8 
z
" style="fill:#ff7f0e;stroke:#ffffff;stroke-linejoin:miter;stroke-width:2;"/>
   </g>
   <g id="patch_74">
    <path clip-path="url(#p3fac443f5c)" d="M 620.439828 550.8 
L 632.53808 550.8 
L 632.53808 550.8 
L 620.439828 550.8 
z
" style="fill:#ff7f0e;stroke:#ffffff;stroke-linejoin:miter;stroke-width:2;"/>
   </g>
   <g id="patch_75">
    <path clip-path="url(#p3fac443f5c)" d="M 632.53808 550.8 
L 644.636333 550.8 
L 644.636333 550.8 
L 632.53808 550.8 
z
" style="fill:#ff7f0e;stroke:#ffffff;stroke-linejoin:miter;stroke-width:2;"/>
   </g>
   <g id="patch_76">
    <path clip-path="url(#p3fac443f5c)" d="M 644.636333 550.8 
L 656.734586 550.8 
L 656.734586 447.257143 
L 644.636333 447.257143 
z
" style="fill:#ff7f0e;stroke:#ffffff;stroke-linejoin:miter;stroke-width:2;"/>
   </g>
   <g id="patch_77">
    <path clip-path="url(#p3fac443f5c)" d="M 656.734586 550.8 
L 668.832839 550.8 
L 668.832839 550.8 
L 656.734586 550.8 
z
" style="fill:#ff7f0e;stroke:#ffffff;stroke-linejoin:miter;stroke-width:2;"/>
   </g>
   <g id="patch_78">
    <path clip-path="url(#p3fac443f5c)" d="M 668.832839 550.8 
L 680.931091 550.8 
L 680.931091 550.8 
L 668.832839 550.8 
z
" style="fill:#ff7f0e;stroke:#ffffff;stroke-linejoin:miter;stroke-width:2;"/>
   </g>
   <g id="patch_79">
    <path clip-path="url(#p3fac443f5c)" d="M 680.931091 550.8 
L 693.029344 550.8 
L 693.029344 550.8 
L 680.931091 550.8 
z
" style="fill:#ff7f0e;stroke:#ffffff;stroke-linejoin:miter;stroke-width:2;"/>
   </g>
   <g id="patch_80">
    <path clip-path="url(#p3fac443f5c)" d="M 693.029344 550.8 
L 705.127597 550.8 
L 705.127597 343.714286 
L 693.029344 343.714286 
z
" style="fill:#ff7f0e;stroke:#ffffff;stroke-linejoin:miter;stroke-width:2;"/>
   </g>
   <g id="patch_81">
    <path clip-path="url(#p3fac443f5c)" d="M 705.127597 550.8 
L 717.22585 550.8 
L 717.22585 447.257143 
L 705.127597 447.257143 
z
" style="fill:#ff7f0e;stroke:#ffffff;stroke-linejoin:miter;stroke-width:2;"/>
   </g>
   <g id="patch_82">
    <path clip-path="url(#p3fac443f5c)" d="M 717.22585 550.8 
L 729.324102 550.8 
L 729.324102 447.257143 
L 717.22585 447.257143 
z
" style="fill:#ff7f0e;stroke:#ffffff;stroke-linejoin:miter;stroke-width:2;"/>
   </g>
   <g id="patch_83">
    <path d="M 79.779844 550.8 
L 79.779844 7.2 
" style="fill:none;stroke:#cccccc;stroke-linecap:square;stroke-linejoin:miter;stroke-width:2.5;"/>
   </g>
   <g id="patch_84">
    <path d="M 1195.779844 550.8 
L 1195.779844 7.2 
" style="fill:none;stroke:#cccccc;stroke-linecap:square;stroke-linejoin:miter;stroke-width:2.5;"/>
   </g>
   <g id="patch_85">
    <path d="M 79.779844 550.8 
L 1195.779844 550.8 
" style="fill:none;stroke:#cccccc;stroke-linecap:square;stroke-linejoin:miter;stroke-width:2.5;"/>
   </g>
   <g id="patch_86">
    <path d="M 79.779844 7.2 
L 1195.779844 7.2 
" style="fill:none;stroke:#cccccc;stroke-linecap:square;stroke-linejoin:miter;stroke-width:2.5;"/>
   </g>
   <g id="legend_1">
    <g id="patch_87">
     <path d="M 102.879844 130.155937 
L 269.560781 130.155937 
Q 276.160781 130.155937 276.160781 123.555937 
L 276.160781 30.3 
Q 276.160781 23.7 269.560781 23.7 
L 102.879844 23.7 
Q 96.279844 23.7 96.279844 30.3 
L 96.279844 123.555937 
Q 96.279844 130.155937 102.879844 130.155937 
z
" style="fill:#ffffff;opacity:0.8;stroke:#cccccc;stroke-linejoin:miter;stroke-width:2;"/>
    </g>
    <g id="patch_88">
     <path d="M 109.479844 61.65 
L 175.479844 61.65 
L 175.479844 38.55 
L 109.479844 38.55 
z
" style="fill:#1f77b4;stroke:#ffffff;stroke-linejoin:miter;stroke-width:2;"/>
    </g>
    <g id="text_15">
     <!-- BCN -->
     <g style="fill:#262626;" transform="translate(201.879844 61.65)scale(0.33 -0.33)">
      <defs>
       <path d="M 2586 2330 
Q 3040 2253 3321 2009 
Q 3603 1766 3603 1254 
Q 3603 0 1856 0 
L 640 0 
L 640 4410 
L 1683 4410 
Q 2522 4410 2966 4134 
Q 3411 3859 3411 3296 
Q 3411 2912 3171 2656 
Q 2931 2400 2586 2330 
z
M 1248 3930 
L 1248 2541 
L 1914 2541 
Q 2298 2541 2544 2726 
Q 2790 2912 2790 3251 
Q 2790 3635 2531 3782 
Q 2272 3930 1747 3930 
L 1248 3930 
z
M 1856 486 
Q 2394 486 2678 646 
Q 2963 806 2963 1254 
Q 2963 1690 2688 1882 
Q 2413 2074 1971 2074 
L 1248 2074 
L 1248 486 
L 1856 486 
z
" id="FiraSans-Regular-42" transform="scale(0.015625)"/>
       <path d="M 2182 4486 
Q 2579 4486 2851 4384 
Q 3123 4282 3405 4051 
L 3072 3661 
Q 2669 3987 2221 3987 
Q 1670 3987 1334 3564 
Q 998 3142 998 2208 
Q 998 1299 1331 867 
Q 1664 435 2214 435 
Q 2496 435 2707 531 
Q 2918 627 3155 800 
L 3456 416 
Q 3251 205 2931 64 
Q 2611 -77 2195 -77 
Q 1658 -77 1238 188 
Q 819 454 585 969 
Q 352 1485 352 2208 
Q 352 2931 595 3446 
Q 838 3962 1254 4224 
Q 1670 4486 2182 4486 
z
" id="FiraSans-Regular-43" transform="scale(0.015625)"/>
       <path d="M 3731 0 
L 2918 0 
L 1126 3744 
Q 1165 3302 1187 2928 
Q 1210 2554 1210 2022 
L 1210 0 
L 640 0 
L 640 4410 
L 1434 4410 
L 3245 659 
Q 3226 826 3194 1242 
Q 3162 1658 3162 2003 
L 3162 4410 
L 3731 4410 
L 3731 0 
z
" id="FiraSans-Regular-4e" transform="scale(0.015625)"/>
      </defs>
      <use xlink:href="#FiraSans-Regular-42"/>
      <use x="60.799988" xlink:href="#FiraSans-Regular-43"/>
      <use x="116.799973" xlink:href="#FiraSans-Regular-4e"/>
     </g>
    </g>
    <g id="patch_89">
     <path d="M 109.479844 109.927969 
L 175.479844 109.927969 
L 175.479844 86.827969 
L 109.479844 86.827969 
z
" style="fill:#ff7f0e;stroke:#ffffff;stroke-linejoin:miter;stroke-width:2;"/>
    </g>
    <g id="text_16">
     <!-- MI -->
     <g style="fill:#262626;" transform="translate(201.879844 109.927969)scale(0.33 -0.33)">
      <defs>
       <path d="M 4582 0 
L 3994 0 
L 3840 1990 
Q 3744 3162 3731 3789 
L 2778 499 
L 2208 499 
L 1203 3795 
Q 1203 2995 1120 1946 
L 973 0 
L 397 0 
L 762 4410 
L 1581 4410 
L 2509 1203 
L 3392 4410 
L 4218 4410 
L 4582 0 
z
" id="FiraSans-Regular-4d" transform="scale(0.015625)"/>
       <path d="M 1248 4410 
L 1248 0 
L 640 0 
L 640 4410 
L 1248 4410 
z
" id="FiraSans-Regular-49" transform="scale(0.015625)"/>
      </defs>
      <use xlink:href="#FiraSans-Regular-4d"/>
      <use x="77.799988" xlink:href="#FiraSans-Regular-49"/>
     </g>
    </g>
   </g>
  </g>
 </g>
 <defs>
  <clipPath id="p3fac443f5c">
   <rect height="543.6" width="1116" x="79.779844" y="7.2"/>
  </clipPath>
 </defs>
</svg>
