<?xml version="1.0" encoding="utf-8" standalone="no"?>
<!DOCTYPE svg PUBLIC "-//W3C//DTD SVG 1.1//EN"
  "http://www.w3.org/Graphics/SVG/1.1/DTD/svg11.dtd">
<svg height="1376.369405pt" version="1.1" viewBox="0 0 2209.462031 1376.369405" width="2209.462031pt" xmlns="http://www.w3.org/2000/svg" xmlns:xlink="http://www.w3.org/1999/xlink">
 <metadata>
  <rdf:RDF xmlns:cc="http://creativecommons.org/ns#" xmlns:dc="http://purl.org/dc/elements/1.1/" xmlns:rdf="http://www.w3.org/1999/02/22-rdf-syntax-ns#">
   <cc:Work>
    <dc:type rdf:resource="http://purl.org/dc/dcmitype/StillImage"/>
    <dc:date>2022-04-14T21:57:40.032092</dc:date>
    <dc:format>image/svg+xml</dc:format>
    <dc:creator>
     <cc:Agent>
      <dc:title>Matplotlib v3.4.3, https://matplotlib.org/</dc:title>
     </cc:Agent>
    </dc:creator>
   </cc:Work>
  </rdf:RDF>
 </metadata>
 <defs>
  <style type="text/css">*{stroke-linecap:butt;stroke-linejoin:round;}</style>
 </defs>
 <g id="figure_1">
  <g id="patch_1">
   <path d="M 0 1376.369405 
L 2209.462031 1376.369405 
L 2209.462031 0 
L 0 0 
z
" style="fill:#ffffff;"/>
  </g>
  <g id="axes_1">
   <g id="patch_2">
    <path d="M 323.936016 1097.801375 
L 1885.526016 1097.801375 
L 1885.526016 7.2 
L 323.936016 7.2 
z
" style="fill:#ffffff;"/>
   </g>
   <g id="matplotlib.axis_1">
    <g id="xtick_1">
     <g id="line2d_1">
      <path clip-path="url(#p99b3012b42)" d="M 323.936016 1097.801375 
L 323.936016 7.2 
" style="fill:none;stroke:#cccccc;stroke-linecap:round;stroke-width:2;"/>
     </g>
     <g id="text_1">
      <!-- 0 -->
      <g style="fill:#262626;" transform="translate(314.729531 1138.051375)scale(0.33 -0.33)">
       <defs>
        <path d="M 1786 4346 
Q 2496 4346 2857 3779 
Q 3219 3213 3219 2138 
Q 3219 1062 2857 492 
Q 2496 -77 1786 -77 
Q 1075 -77 713 492 
Q 352 1062 352 2138 
Q 352 3213 713 3779 
Q 1075 4346 1786 4346 
z
M 1786 3878 
Q 1370 3878 1168 3468 
Q 966 3059 966 2138 
Q 966 1216 1168 803 
Q 1370 390 1786 390 
Q 2195 390 2400 803 
Q 2605 1216 2605 2138 
Q 2605 3053 2400 3465 
Q 2195 3878 1786 3878 
z
" id="FiraSans-Regular-30" transform="scale(0.015625)"/>
       </defs>
       <use xlink:href="#FiraSans-Regular-30"/>
      </g>
     </g>
    </g>
    <g id="xtick_2">
     <g id="line2d_2">
      <path clip-path="url(#p99b3012b42)" d="M 594.34121 1097.801375 
L 594.34121 7.2 
" style="fill:none;stroke:#cccccc;stroke-linecap:round;stroke-width:2;"/>
     </g>
     <g id="text_2">
      <!-- 2 -->
      <g style="fill:#262626;" transform="translate(586.17371 1138.051375)scale(0.33 -0.33)">
       <defs>
        <path d="M 1459 4346 
Q 1843 4346 2134 4192 
Q 2426 4038 2586 3772 
Q 2746 3507 2746 3174 
Q 2746 2784 2570 2425 
Q 2394 2067 2029 1651 
Q 1664 1235 922 493 
L 2848 493 
L 2778 0 
L 250 0 
L 250 467 
Q 1107 1357 1465 1769 
Q 1824 2182 1977 2489 
Q 2131 2797 2131 3149 
Q 2131 3482 1939 3670 
Q 1747 3859 1427 3859 
Q 1165 3859 966 3750 
Q 768 3642 544 3392 
L 160 3699 
Q 422 4026 742 4186 
Q 1062 4346 1459 4346 
z
" id="FiraSans-Regular-32" transform="scale(0.015625)"/>
       </defs>
       <use xlink:href="#FiraSans-Regular-32"/>
      </g>
     </g>
    </g>
    <g id="xtick_3">
     <g id="line2d_3">
      <path clip-path="url(#p99b3012b42)" d="M 864.746405 1097.801375 
L 864.746405 7.2 
" style="fill:none;stroke:#cccccc;stroke-linecap:round;stroke-width:2;"/>
     </g>
     <g id="text_3">
      <!-- 4 -->
      <g style="fill:#262626;" transform="translate(855.96789 1138.051375)scale(0.33 -0.33)">
       <defs>
        <path d="M 3213 1523 
L 3213 1056 
L 2656 1056 
L 2656 0 
L 2086 0 
L 2086 1056 
L 256 1056 
L 256 1478 
L 1542 4346 
L 2035 4141 
L 877 1523 
L 2093 1523 
L 2144 2675 
L 2656 2675 
L 2656 1523 
L 3213 1523 
z
" id="FiraSans-Regular-34" transform="scale(0.015625)"/>
       </defs>
       <use xlink:href="#FiraSans-Regular-34"/>
      </g>
     </g>
    </g>
    <g id="xtick_4">
     <g id="line2d_4">
      <path clip-path="url(#p99b3012b42)" d="M 1135.1516 1097.801375 
L 1135.1516 7.2 
" style="fill:none;stroke:#cccccc;stroke-linecap:round;stroke-width:2;"/>
     </g>
     <g id="text_4">
      <!-- 6 -->
      <g style="fill:#262626;" transform="translate(1126.357616 1138.051375)scale(0.33 -0.33)">
       <defs>
        <path d="M 1971 2816 
Q 2298 2816 2566 2662 
Q 2835 2509 2995 2201 
Q 3155 1894 3155 1453 
Q 3155 998 2972 649 
Q 2790 301 2480 112 
Q 2170 -77 1792 -77 
Q 1043 -77 697 476 
Q 352 1030 352 2010 
Q 352 2707 547 3235 
Q 742 3763 1107 4054 
Q 1472 4346 1971 4346 
Q 2458 4346 2854 4083 
L 2624 3693 
Q 2323 3878 1965 3878 
Q 1504 3878 1235 3436 
Q 966 2995 941 2253 
Q 1338 2816 1971 2816 
z
M 1792 390 
Q 2163 390 2361 672 
Q 2560 954 2560 1434 
Q 2560 2349 1869 2349 
Q 1587 2349 1350 2192 
Q 1114 2035 947 1760 
Q 966 1056 1168 723 
Q 1370 390 1792 390 
z
" id="FiraSans-Regular-36" transform="scale(0.015625)"/>
       </defs>
       <use xlink:href="#FiraSans-Regular-36"/>
      </g>
     </g>
    </g>
    <g id="xtick_5">
     <g id="line2d_5">
      <path clip-path="url(#p99b3012b42)" d="M 1405.556795 1097.801375 
L 1405.556795 7.2 
" style="fill:none;stroke:#cccccc;stroke-linecap:round;stroke-width:2;"/>
     </g>
     <g id="text_5">
      <!-- 8 -->
      <g style="fill:#262626;" transform="translate(1396.466326 1138.051375)scale(0.33 -0.33)">
       <defs>
        <path d="M 2336 2298 
Q 3238 1933 3238 1146 
Q 3238 794 3049 515 
Q 2861 237 2521 80 
Q 2182 -77 1754 -77 
Q 1318 -77 985 76 
Q 653 230 470 505 
Q 288 781 288 1133 
Q 288 1530 502 1798 
Q 717 2067 1133 2246 
Q 794 2419 630 2665 
Q 467 2912 467 3245 
Q 467 3590 649 3840 
Q 832 4090 1129 4218 
Q 1427 4346 1766 4346 
Q 2099 4346 2396 4224 
Q 2694 4102 2880 3856 
Q 3066 3610 3066 3264 
Q 3066 2944 2886 2713 
Q 2707 2483 2336 2298 
z
M 1766 3904 
Q 1434 3904 1238 3731 
Q 1043 3558 1043 3238 
Q 1043 2931 1232 2771 
Q 1421 2611 1837 2477 
L 1946 2438 
Q 2234 2605 2362 2790 
Q 2490 2976 2490 3245 
Q 2490 3546 2301 3725 
Q 2112 3904 1766 3904 
z
M 1760 390 
Q 2157 390 2390 595 
Q 2624 800 2624 1139 
Q 2624 1370 2534 1526 
Q 2445 1683 2246 1801 
Q 2048 1920 1690 2042 
L 1530 2099 
Q 1210 1946 1056 1712 
Q 902 1478 902 1133 
Q 902 781 1132 585 
Q 1363 390 1760 390 
z
" id="FiraSans-Regular-38" transform="scale(0.015625)"/>
       </defs>
       <use xlink:href="#FiraSans-Regular-38"/>
      </g>
     </g>
    </g>
    <g id="xtick_6">
     <g id="line2d_6">
      <path clip-path="url(#p99b3012b42)" d="M 1675.96199 1097.801375 
L 1675.96199 7.2 
" style="fill:none;stroke:#cccccc;stroke-linecap:round;stroke-width:2;"/>
     </g>
     <g id="text_6">
      <!-- 10 -->
      <g style="fill:#262626;" transform="translate(1659.611521 1138.051375)scale(0.33 -0.33)">
       <defs>
        <path d="M 2067 4282 
L 2067 0 
L 1478 0 
L 1478 3654 
L 480 3046 
L 224 3462 
L 1549 4282 
L 2067 4282 
z
" id="FiraSans-Regular-31" transform="scale(0.015625)"/>
       </defs>
       <use xlink:href="#FiraSans-Regular-31"/>
       <use x="43.299988" xlink:href="#FiraSans-Regular-30"/>
      </g>
     </g>
    </g>
    <g id="text_7">
     <!-- Labs -->
     <g style="fill:#262626;" transform="translate(1066.874766 1176.079344)scale(0.36 -0.36)">
      <defs>
       <path d="M 1248 4410 
L 1248 531 
L 3059 531 
L 2989 0 
L 640 0 
L 640 4410 
L 1248 4410 
z
" id="FiraSans-Regular-4c" transform="scale(0.015625)"/>
       <path d="M 2880 787 
Q 2880 582 2950 483 
Q 3021 384 3162 333 
L 3027 -77 
Q 2765 -45 2605 70 
Q 2445 186 2368 429 
Q 2029 -77 1363 -77 
Q 864 -77 576 204 
Q 288 486 288 941 
Q 288 1478 675 1766 
Q 1062 2054 1773 2054 
L 2291 2054 
L 2291 2304 
Q 2291 2662 2118 2816 
Q 1946 2970 1587 2970 
Q 1216 2970 678 2790 
L 531 3219 
Q 1158 3450 1696 3450 
Q 2291 3450 2585 3158 
Q 2880 2867 2880 2330 
L 2880 787 
z
M 1498 365 
Q 2003 365 2291 890 
L 2291 1664 
L 1850 1664 
Q 915 1664 915 973 
Q 915 672 1062 518 
Q 1210 365 1498 365 
z
" id="FiraSans-Regular-61" transform="scale(0.015625)"/>
       <path d="M 2150 3450 
Q 2726 3450 3065 2986 
Q 3405 2522 3405 1690 
Q 3405 1165 3245 765 
Q 3085 365 2784 144 
Q 2483 -77 2080 -77 
Q 1549 -77 1184 371 
L 1126 0 
L 608 0 
L 608 4730 
L 1197 4800 
L 1197 2950 
Q 1562 3450 2150 3450 
z
M 1939 390 
Q 2330 390 2550 707 
Q 2771 1024 2771 1690 
Q 2771 2374 2566 2678 
Q 2362 2982 1984 2982 
Q 1536 2982 1197 2458 
L 1197 845 
Q 1331 634 1526 512 
Q 1722 390 1939 390 
z
" id="FiraSans-Regular-62" transform="scale(0.015625)"/>
       <path d="M 1523 3450 
Q 1869 3450 2144 3354 
Q 2419 3258 2669 3066 
L 2419 2694 
Q 2189 2842 1981 2912 
Q 1773 2982 1542 2982 
Q 1254 2982 1088 2864 
Q 922 2746 922 2541 
Q 922 2336 1078 2221 
Q 1235 2106 1645 1997 
Q 2208 1856 2486 1613 
Q 2765 1370 2765 947 
Q 2765 448 2377 185 
Q 1990 -77 1434 -77 
Q 666 -77 160 365 
L 474 723 
Q 902 397 1421 397 
Q 1754 397 1949 534 
Q 2144 672 2144 909 
Q 2144 1082 2073 1187 
Q 2003 1293 1830 1373 
Q 1658 1453 1325 1542 
Q 787 1683 547 1920 
Q 307 2157 307 2522 
Q 307 2784 464 2998 
Q 621 3213 899 3331 
Q 1178 3450 1523 3450 
z
" id="FiraSans-Regular-73" transform="scale(0.015625)"/>
      </defs>
      <use xlink:href="#FiraSans-Regular-4c"/>
      <use x="49.799988" xlink:href="#FiraSans-Regular-61"/>
      <use x="104.199982" xlink:href="#FiraSans-Regular-62"/>
      <use x="163.599976" xlink:href="#FiraSans-Regular-73"/>
     </g>
    </g>
   </g>
   <g id="matplotlib.axis_2">
    <g id="ytick_1">
     <g id="line2d_7">
      <path clip-path="url(#p99b3012b42)" d="M 323.936016 825.151031 
L 1885.526016 825.151031 
" style="fill:none;stroke:#cccccc;stroke-linecap:round;stroke-width:2;"/>
     </g>
     <g id="text_8">
      <!-- BCN -->
      <g style="fill:#262626;" transform="translate(247.355078 837.526031)scale(0.33 -0.33)">
       <defs>
        <path d="M 2586 2330 
Q 3040 2253 3321 2009 
Q 3603 1766 3603 1254 
Q 3603 0 1856 0 
L 640 0 
L 640 4410 
L 1683 4410 
Q 2522 4410 2966 4134 
Q 3411 3859 3411 3296 
Q 3411 2912 3171 2656 
Q 2931 2400 2586 2330 
z
M 1248 3930 
L 1248 2541 
L 1914 2541 
Q 2298 2541 2544 2726 
Q 2790 2912 2790 3251 
Q 2790 3635 2531 3782 
Q 2272 3930 1747 3930 
L 1248 3930 
z
M 1856 486 
Q 2394 486 2678 646 
Q 2963 806 2963 1254 
Q 2963 1690 2688 1882 
Q 2413 2074 1971 2074 
L 1248 2074 
L 1248 486 
L 1856 486 
z
" id="FiraSans-Regular-42" transform="scale(0.015625)"/>
        <path d="M 2182 4486 
Q 2579 4486 2851 4384 
Q 3123 4282 3405 4051 
L 3072 3661 
Q 2669 3987 2221 3987 
Q 1670 3987 1334 3564 
Q 998 3142 998 2208 
Q 998 1299 1331 867 
Q 1664 435 2214 435 
Q 2496 435 2707 531 
Q 2918 627 3155 800 
L 3456 416 
Q 3251 205 2931 64 
Q 2611 -77 2195 -77 
Q 1658 -77 1238 188 
Q 819 454 585 969 
Q 352 1485 352 2208 
Q 352 2931 595 3446 
Q 838 3962 1254 4224 
Q 1670 4486 2182 4486 
z
" id="FiraSans-Regular-43" transform="scale(0.015625)"/>
        <path d="M 3731 0 
L 2918 0 
L 1126 3744 
Q 1165 3302 1187 2928 
Q 1210 2554 1210 2022 
L 1210 0 
L 640 0 
L 640 4410 
L 1434 4410 
L 3245 659 
Q 3226 826 3194 1242 
Q 3162 1658 3162 2003 
L 3162 4410 
L 3731 4410 
L 3731 0 
z
" id="FiraSans-Regular-4e" transform="scale(0.015625)"/>
       </defs>
       <use xlink:href="#FiraSans-Regular-42"/>
       <use x="60.799988" xlink:href="#FiraSans-Regular-43"/>
       <use x="116.799973" xlink:href="#FiraSans-Regular-4e"/>
      </g>
     </g>
    </g>
    <g id="ytick_2">
     <g id="line2d_8">
      <path clip-path="url(#p99b3012b42)" d="M 323.936016 279.850344 
L 1885.526016 279.850344 
" style="fill:none;stroke:#cccccc;stroke-linecap:round;stroke-width:2;"/>
     </g>
     <g id="text_9">
      <!-- MI -->
      <g style="fill:#262626;" transform="translate(273.028047 292.225344)scale(0.33 -0.33)">
       <defs>
        <path d="M 4582 0 
L 3994 0 
L 3840 1990 
Q 3744 3162 3731 3789 
L 2778 499 
L 2208 499 
L 1203 3795 
Q 1203 2995 1120 1946 
L 973 0 
L 397 0 
L 762 4410 
L 1581 4410 
L 2509 1203 
L 3392 4410 
L 4218 4410 
L 4582 0 
z
" id="FiraSans-Regular-4d" transform="scale(0.015625)"/>
        <path d="M 1248 4410 
L 1248 0 
L 640 0 
L 640 4410 
L 1248 4410 
z
" id="FiraSans-Regular-49" transform="scale(0.015625)"/>
       </defs>
       <use xlink:href="#FiraSans-Regular-4d"/>
       <use x="77.799988" xlink:href="#FiraSans-Regular-49"/>
      </g>
     </g>
    </g>
   </g>
   <g id="patch_3">
    <path clip-path="url(#p99b3012b42)" d="M 323.936016 961.476203 
L 1135.1516 961.476203 
L 1135.1516 942.001179 
L 323.936016 942.001179 
z
" style="fill:#d60000;stroke:#ffffff;stroke-linejoin:miter;stroke-width:2;"/>
   </g>
   <g id="patch_4">
    <path clip-path="url(#p99b3012b42)" d="M 323.936016 416.175516 
L 323.936016 416.175516 
L 323.936016 396.700491 
L 323.936016 396.700491 
z
" style="fill:#d60000;stroke:#ffffff;stroke-linejoin:miter;stroke-width:2;"/>
   </g>
   <g id="patch_5">
    <path clip-path="url(#p99b3012b42)" d="M 323.936016 942.001179 
L 1270.354197 942.001179 
L 1270.354197 922.526154 
L 323.936016 922.526154 
z
" style="fill:#018700;stroke:#ffffff;stroke-linejoin:miter;stroke-width:2;"/>
   </g>
   <g id="patch_6">
    <path clip-path="url(#p99b3012b42)" d="M 323.936016 396.700491 
L 323.936016 396.700491 
L 323.936016 377.225467 
L 323.936016 377.225467 
z
" style="fill:#018700;stroke:#ffffff;stroke-linejoin:miter;stroke-width:2;"/>
   </g>
   <g id="patch_7">
    <path clip-path="url(#p99b3012b42)" d="M 323.936016 922.526154 
L 594.34121 922.526154 
L 594.34121 903.051129 
L 323.936016 903.051129 
z
" style="fill:#b500ff;stroke:#ffffff;stroke-linejoin:miter;stroke-width:2;"/>
   </g>
   <g id="patch_8">
    <path clip-path="url(#p99b3012b42)" d="M 323.936016 377.225467 
L 459.138613 377.225467 
L 459.138613 357.750442 
L 323.936016 357.750442 
z
" style="fill:#b500ff;stroke:#ffffff;stroke-linejoin:miter;stroke-width:2;"/>
   </g>
   <g id="patch_9">
    <path clip-path="url(#p99b3012b42)" d="M 323.936016 903.051129 
L 1811.164587 903.051129 
L 1811.164587 883.576105 
L 323.936016 883.576105 
z
" style="fill:#05acc6;stroke:#ffffff;stroke-linejoin:miter;stroke-width:2;"/>
   </g>
   <g id="patch_10">
    <path clip-path="url(#p99b3012b42)" d="M 323.936016 357.750442 
L 1405.556795 357.750442 
L 1405.556795 338.275417 
L 323.936016 338.275417 
z
" style="fill:#05acc6;stroke:#ffffff;stroke-linejoin:miter;stroke-width:2;"/>
   </g>
   <g id="patch_11">
    <path clip-path="url(#p99b3012b42)" d="M 323.936016 883.576105 
L 459.138613 883.576105 
L 459.138613 864.10108 
L 323.936016 864.10108 
z
" style="fill:#97ff00;stroke:#ffffff;stroke-linejoin:miter;stroke-width:2;"/>
   </g>
   <g id="patch_12">
    <path clip-path="url(#p99b3012b42)" d="M 323.936016 338.275417 
L 323.936016 338.275417 
L 323.936016 318.800393 
L 323.936016 318.800393 
z
" style="fill:#97ff00;stroke:#ffffff;stroke-linejoin:miter;stroke-width:2;"/>
   </g>
   <g id="patch_13">
    <path clip-path="url(#p99b3012b42)" d="M 323.936016 864.10108 
L 594.34121 864.10108 
L 594.34121 844.626056 
L 323.936016 844.626056 
z
" style="fill:#ffa52f;stroke:#ffffff;stroke-linejoin:miter;stroke-width:2;"/>
   </g>
   <g id="patch_14">
    <path clip-path="url(#p99b3012b42)" d="M 323.936016 318.800393 
L 323.936016 318.800393 
L 323.936016 299.325368 
L 323.936016 299.325368 
z
" style="fill:#ffa52f;stroke:#ffffff;stroke-linejoin:miter;stroke-width:2;"/>
   </g>
   <g id="patch_15">
    <path clip-path="url(#p99b3012b42)" d="M 323.936016 844.626056 
L 864.746405 844.626056 
L 864.746405 825.151031 
L 323.936016 825.151031 
z
" style="fill:#ff8ec8;stroke:#ffffff;stroke-linejoin:miter;stroke-width:2;"/>
   </g>
   <g id="patch_16">
    <path clip-path="url(#p99b3012b42)" d="M 323.936016 299.325368 
L 594.34121 299.325368 
L 594.34121 279.850344 
L 323.936016 279.850344 
z
" style="fill:#ff8ec8;stroke:#ffffff;stroke-linejoin:miter;stroke-width:2;"/>
   </g>
   <g id="patch_17">
    <path clip-path="url(#p99b3012b42)" d="M 323.936016 825.151031 
L 864.746405 825.151031 
L 864.746405 805.676007 
L 323.936016 805.676007 
z
" style="fill:#79525e;stroke:#ffffff;stroke-linejoin:miter;stroke-width:2;"/>
   </g>
   <g id="patch_18">
    <path clip-path="url(#p99b3012b42)" d="M 323.936016 279.850344 
L 459.138613 279.850344 
L 459.138613 260.375319 
L 323.936016 260.375319 
z
" style="fill:#79525e;stroke:#ffffff;stroke-linejoin:miter;stroke-width:2;"/>
   </g>
   <g id="patch_19">
    <path clip-path="url(#p99b3012b42)" d="M 323.936016 805.676007 
L 459.138613 805.676007 
L 459.138613 786.200982 
L 323.936016 786.200982 
z
" style="fill:#00fdcf;stroke:#ffffff;stroke-linejoin:miter;stroke-width:2;"/>
   </g>
   <g id="patch_20">
    <path clip-path="url(#p99b3012b42)" d="M 323.936016 260.375319 
L 323.936016 260.375319 
L 323.936016 240.900295 
L 323.936016 240.900295 
z
" style="fill:#00fdcf;stroke:#ffffff;stroke-linejoin:miter;stroke-width:2;"/>
   </g>
   <g id="patch_21">
    <path clip-path="url(#p99b3012b42)" d="M 323.936016 786.200982 
L 459.138613 786.200982 
L 459.138613 766.725958 
L 323.936016 766.725958 
z
" style="fill:#afa5ff;stroke:#ffffff;stroke-linejoin:miter;stroke-width:2;"/>
   </g>
   <g id="patch_22">
    <path clip-path="url(#p99b3012b42)" d="M 323.936016 240.900295 
L 323.936016 240.900295 
L 323.936016 221.42527 
L 323.936016 221.42527 
z
" style="fill:#afa5ff;stroke:#ffffff;stroke-linejoin:miter;stroke-width:2;"/>
   </g>
   <g id="patch_23">
    <path clip-path="url(#p99b3012b42)" d="M 323.936016 766.725958 
L 864.746405 766.725958 
L 864.746405 747.250933 
L 323.936016 747.250933 
z
" style="fill:#93ac83;stroke:#ffffff;stroke-linejoin:miter;stroke-width:2;"/>
   </g>
   <g id="patch_24">
    <path clip-path="url(#p99b3012b42)" d="M 323.936016 221.42527 
L 1135.1516 221.42527 
L 1135.1516 201.950246 
L 323.936016 201.950246 
z
" style="fill:#93ac83;stroke:#ffffff;stroke-linejoin:miter;stroke-width:2;"/>
   </g>
   <g id="patch_25">
    <path clip-path="url(#p99b3012b42)" d="M 323.936016 747.250933 
L 459.138613 747.250933 
L 459.138613 727.775908 
L 323.936016 727.775908 
z
" style="fill:#9a6900;stroke:#ffffff;stroke-linejoin:miter;stroke-width:2;"/>
   </g>
   <g id="patch_26">
    <path clip-path="url(#p99b3012b42)" d="M 323.936016 201.950246 
L 729.543808 201.950246 
L 729.543808 182.475221 
L 323.936016 182.475221 
z
" style="fill:#9a6900;stroke:#ffffff;stroke-linejoin:miter;stroke-width:2;"/>
   </g>
   <g id="patch_27">
    <path clip-path="url(#p99b3012b42)" d="M 323.936016 727.775908 
L 459.138613 727.775908 
L 459.138613 708.300884 
L 323.936016 708.300884 
z
" style="fill:#366962;stroke:#ffffff;stroke-linejoin:miter;stroke-width:2;"/>
   </g>
   <g id="patch_28">
    <path clip-path="url(#p99b3012b42)" d="M 323.936016 182.475221 
L 323.936016 182.475221 
L 323.936016 163.000196 
L 323.936016 163.000196 
z
" style="fill:#366962;stroke:#ffffff;stroke-linejoin:miter;stroke-width:2;"/>
   </g>
   <g id="patch_29">
    <path clip-path="url(#p99b3012b42)" d="M 323.936016 708.300884 
L 999.949003 708.300884 
L 999.949003 688.825859 
L 323.936016 688.825859 
z
" style="fill:#d3008c;stroke:#ffffff;stroke-linejoin:miter;stroke-width:2;"/>
   </g>
   <g id="patch_30">
    <path clip-path="url(#p99b3012b42)" d="M 323.936016 163.000196 
L 459.138613 163.000196 
L 459.138613 143.525172 
L 323.936016 143.525172 
z
" style="fill:#d3008c;stroke:#ffffff;stroke-linejoin:miter;stroke-width:2;"/>
   </g>
   <g id="patch_31">
    <path d="M 323.936016 1097.801375 
L 323.936016 7.2 
" style="fill:none;stroke:#cccccc;stroke-linecap:square;stroke-linejoin:miter;stroke-width:2.5;"/>
   </g>
   <g id="patch_32">
    <path d="M 1885.526016 1097.801375 
L 1885.526016 7.2 
" style="fill:none;stroke:#cccccc;stroke-linecap:square;stroke-linejoin:miter;stroke-width:2.5;"/>
   </g>
   <g id="patch_33">
    <path d="M 323.936016 1097.801375 
L 1885.526016 1097.801375 
" style="fill:none;stroke:#cccccc;stroke-linecap:square;stroke-linejoin:miter;stroke-width:2.5;"/>
   </g>
   <g id="patch_34">
    <path d="M 323.936016 7.2 
L 1885.526016 7.2 
" style="fill:none;stroke:#cccccc;stroke-linecap:square;stroke-linejoin:miter;stroke-width:2.5;"/>
   </g>
   <g id="text_10">
    <!-- 6 -->
    <g style="fill:#262626;" transform="translate(1138.1516 960.331191)scale(0.32 -0.32)">
     <use xlink:href="#FiraSans-Regular-36"/>
    </g>
   </g>
   <g id="text_11">
    <!-- 0 -->
    <g style="fill:#262626;" transform="translate(326.936016 415.030503)scale(0.32 -0.32)">
     <use xlink:href="#FiraSans-Regular-30"/>
    </g>
   </g>
   <g id="text_12">
    <!-- 7 -->
    <g style="fill:#262626;" transform="translate(1273.354197 940.856166)scale(0.32 -0.32)">
     <defs>
      <path d="M 2650 4282 
L 2650 3840 
L 1050 -64 
L 512 115 
L 2054 3802 
L 160 3802 
L 160 4282 
L 2650 4282 
z
" id="FiraSans-Regular-37" transform="scale(0.015625)"/>
     </defs>
     <use xlink:href="#FiraSans-Regular-37"/>
    </g>
   </g>
   <g id="text_13">
    <!-- 0 -->
    <g style="fill:#262626;" transform="translate(326.936016 395.555479)scale(0.32 -0.32)">
     <use xlink:href="#FiraSans-Regular-30"/>
    </g>
   </g>
   <g id="text_14">
    <!-- 2 -->
    <g style="fill:#262626;" transform="translate(597.34121 921.381142)scale(0.32 -0.32)">
     <use xlink:href="#FiraSans-Regular-32"/>
    </g>
   </g>
   <g id="text_15">
    <!-- 1 -->
    <g style="fill:#262626;" transform="translate(462.138613 376.080454)scale(0.32 -0.32)">
     <use xlink:href="#FiraSans-Regular-31"/>
    </g>
   </g>
   <g id="text_16">
    <!-- 11 -->
    <g style="fill:#262626;" transform="translate(1814.164587 901.906117)scale(0.32 -0.32)">
     <use xlink:href="#FiraSans-Regular-31"/>
     <use x="43.299988" xlink:href="#FiraSans-Regular-31"/>
    </g>
   </g>
   <g id="text_17">
    <!-- 8 -->
    <g style="fill:#262626;" transform="translate(1408.556795 356.60543)scale(0.32 -0.32)">
     <use xlink:href="#FiraSans-Regular-38"/>
    </g>
   </g>
   <g id="text_18">
    <!-- 1 -->
    <g style="fill:#262626;" transform="translate(462.138613 882.431093)scale(0.32 -0.32)">
     <use xlink:href="#FiraSans-Regular-31"/>
    </g>
   </g>
   <g id="text_19">
    <!-- 0 -->
    <g style="fill:#262626;" transform="translate(326.936016 337.130405)scale(0.32 -0.32)">
     <use xlink:href="#FiraSans-Regular-30"/>
    </g>
   </g>
   <g id="text_20">
    <!-- 2 -->
    <g style="fill:#262626;" transform="translate(597.34121 862.956068)scale(0.32 -0.32)">
     <use xlink:href="#FiraSans-Regular-32"/>
    </g>
   </g>
   <g id="text_21">
    <!-- 0 -->
    <g style="fill:#262626;" transform="translate(326.936016 317.655381)scale(0.32 -0.32)">
     <use xlink:href="#FiraSans-Regular-30"/>
    </g>
   </g>
   <g id="text_22">
    <!-- 4 -->
    <g style="fill:#262626;" transform="translate(867.746405 843.481044)scale(0.32 -0.32)">
     <use xlink:href="#FiraSans-Regular-34"/>
    </g>
   </g>
   <g id="text_23">
    <!-- 2 -->
    <g style="fill:#262626;" transform="translate(597.34121 298.180356)scale(0.32 -0.32)">
     <use xlink:href="#FiraSans-Regular-32"/>
    </g>
   </g>
   <g id="text_24">
    <!-- 4 -->
    <g style="fill:#262626;" transform="translate(867.746405 824.006019)scale(0.32 -0.32)">
     <use xlink:href="#FiraSans-Regular-34"/>
    </g>
   </g>
   <g id="text_25">
    <!-- 1 -->
    <g style="fill:#262626;" transform="translate(462.138613 278.705331)scale(0.32 -0.32)">
     <use xlink:href="#FiraSans-Regular-31"/>
    </g>
   </g>
   <g id="text_26">
    <!-- 1 -->
    <g style="fill:#262626;" transform="translate(462.138613 804.530994)scale(0.32 -0.32)">
     <use xlink:href="#FiraSans-Regular-31"/>
    </g>
   </g>
   <g id="text_27">
    <!-- 0 -->
    <g style="fill:#262626;" transform="translate(326.936016 259.230307)scale(0.32 -0.32)">
     <use xlink:href="#FiraSans-Regular-30"/>
    </g>
   </g>
   <g id="text_28">
    <!-- 1 -->
    <g style="fill:#262626;" transform="translate(462.138613 785.05597)scale(0.32 -0.32)">
     <use xlink:href="#FiraSans-Regular-31"/>
    </g>
   </g>
   <g id="text_29">
    <!-- 0 -->
    <g style="fill:#262626;" transform="translate(326.936016 239.755282)scale(0.32 -0.32)">
     <use xlink:href="#FiraSans-Regular-30"/>
    </g>
   </g>
   <g id="text_30">
    <!-- 4 -->
    <g style="fill:#262626;" transform="translate(867.746405 765.580945)scale(0.32 -0.32)">
     <use xlink:href="#FiraSans-Regular-34"/>
    </g>
   </g>
   <g id="text_31">
    <!-- 6 -->
    <g style="fill:#262626;" transform="translate(1138.1516 220.280258)scale(0.32 -0.32)">
     <use xlink:href="#FiraSans-Regular-36"/>
    </g>
   </g>
   <g id="text_32">
    <!-- 1 -->
    <g style="fill:#262626;" transform="translate(462.138613 746.105921)scale(0.32 -0.32)">
     <use xlink:href="#FiraSans-Regular-31"/>
    </g>
   </g>
   <g id="text_33">
    <!-- 3 -->
    <g style="fill:#262626;" transform="translate(732.543808 200.805233)scale(0.32 -0.32)">
     <defs>
      <path d="M 1440 4346 
Q 1837 4346 2121 4198 
Q 2406 4051 2556 3801 
Q 2707 3552 2707 3258 
Q 2707 2867 2480 2614 
Q 2253 2362 1875 2272 
Q 2304 2234 2573 1965 
Q 2842 1696 2842 1235 
Q 2842 864 2662 563 
Q 2483 262 2150 92 
Q 1818 -77 1382 -77 
Q 992 -77 665 67 
Q 339 211 96 499 
L 448 826 
Q 659 608 880 505 
Q 1101 403 1363 403 
Q 1766 403 1996 630 
Q 2227 858 2227 1242 
Q 2227 1664 2009 1837 
Q 1792 2010 1376 2010 
L 1056 2010 
L 1126 2464 
L 1344 2464 
Q 1677 2464 1897 2662 
Q 2118 2861 2118 3219 
Q 2118 3520 1926 3696 
Q 1734 3872 1408 3872 
Q 1158 3872 950 3782 
Q 742 3693 525 3488 
L 218 3840 
Q 762 4346 1440 4346 
z
" id="FiraSans-Regular-33" transform="scale(0.015625)"/>
     </defs>
     <use xlink:href="#FiraSans-Regular-33"/>
    </g>
   </g>
   <g id="text_34">
    <!-- 1 -->
    <g style="fill:#262626;" transform="translate(462.138613 726.630896)scale(0.32 -0.32)">
     <use xlink:href="#FiraSans-Regular-31"/>
    </g>
   </g>
   <g id="text_35">
    <!-- 0 -->
    <g style="fill:#262626;" transform="translate(326.936016 181.330209)scale(0.32 -0.32)">
     <use xlink:href="#FiraSans-Regular-30"/>
    </g>
   </g>
   <g id="text_36">
    <!-- 5 -->
    <g style="fill:#262626;" transform="translate(1002.949003 707.155872)scale(0.32 -0.32)">
     <defs>
      <path d="M 2688 3821 
L 1018 3821 
L 1018 2560 
Q 1344 2726 1702 2726 
Q 2253 2726 2585 2364 
Q 2918 2003 2918 1370 
Q 2918 947 2732 617 
Q 2547 288 2211 105 
Q 1875 -77 1434 -77 
Q 1043 -77 736 60 
Q 429 198 166 467 
L 512 806 
Q 717 602 934 502 
Q 1152 403 1427 403 
Q 1837 403 2070 659 
Q 2304 915 2304 1382 
Q 2304 1850 2093 2061 
Q 1882 2272 1523 2272 
Q 1357 2272 1216 2237 
Q 1075 2202 915 2125 
L 454 2125 
L 454 4282 
L 2771 4282 
L 2688 3821 
z
" id="FiraSans-Regular-35" transform="scale(0.015625)"/>
     </defs>
     <use xlink:href="#FiraSans-Regular-35"/>
    </g>
   </g>
   <g id="text_37">
    <!-- 1 -->
    <g style="fill:#262626;" transform="translate(462.138613 161.855184)scale(0.32 -0.32)">
     <use xlink:href="#FiraSans-Regular-31"/>
    </g>
   </g>
   <g id="legend_1">
    <g id="patch_35">
     <path d="M 13.8 1369.169405 
L 2195.662031 1369.169405 
Q 2202.262031 1369.169405 2202.262031 1362.569405 
L 2202.262031 1219.055499 
Q 2202.262031 1212.455499 2195.662031 1212.455499 
L 13.8 1212.455499 
Q 7.2 1212.455499 7.2 1219.055499 
L 7.2 1362.569405 
Q 7.2 1369.169405 13.8 1369.169405 
z
" style="fill:#ffffff;opacity:0.8;stroke:#cccccc;stroke-linejoin:miter;stroke-width:2;"/>
    </g>
    <g id="patch_36">
     <path d="M 20.4 1251.395499 
L 86.4 1251.395499 
L 86.4 1228.295499 
L 20.4 1228.295499 
z
" style="fill:#d60000;stroke:#ffffff;stroke-linejoin:miter;stroke-width:2;"/>
    </g>
    <g id="text_38">
     <!-- Ateneu de Fabricació -->
     <g style="fill:#262626;" transform="translate(112.8 1251.395499)scale(0.33 -0.33)">
      <defs>
       <path d="M 2989 0 
L 2656 1107 
L 986 1107 
L 653 0 
L 38 0 
L 1453 4410 
L 2221 4410 
L 3629 0 
L 2989 0 
z
M 1133 1600 
L 2509 1600 
L 1824 3904 
L 1133 1600 
z
" id="FiraSans-Regular-41" transform="scale(0.015625)"/>
       <path d="M 2310 154 
Q 1978 -77 1555 -77 
Q 1126 -77 886 169 
Q 646 416 646 883 
L 646 2918 
L 58 2918 
L 58 3373 
L 646 3373 
L 646 4134 
L 1235 4205 
L 1235 3373 
L 2035 3373 
L 1971 2918 
L 1235 2918 
L 1235 909 
Q 1235 646 1328 528 
Q 1421 410 1638 410 
Q 1837 410 2086 544 
L 2310 154 
z
" id="FiraSans-Regular-74" transform="scale(0.015625)"/>
       <path d="M 3155 1786 
Q 3155 1638 3142 1485 
L 992 1485 
Q 1030 928 1273 665 
Q 1517 403 1901 403 
Q 2144 403 2349 473 
Q 2554 544 2778 698 
L 3034 346 
Q 2496 -77 1856 -77 
Q 1152 -77 758 384 
Q 365 845 365 1651 
Q 365 2176 534 2582 
Q 704 2989 1021 3219 
Q 1338 3450 1766 3450 
Q 2438 3450 2796 3008 
Q 3155 2566 3155 1786 
z
M 2573 1958 
Q 2573 2458 2374 2720 
Q 2176 2982 1779 2982 
Q 1056 2982 992 1920 
L 2573 1920 
L 2573 1958 
z
" id="FiraSans-Regular-65" transform="scale(0.015625)"/>
       <path d="M 2195 3450 
Q 2656 3450 2915 3174 
Q 3174 2899 3174 2419 
L 3174 0 
L 2586 0 
L 2586 2336 
Q 2586 2694 2451 2841 
Q 2317 2989 2054 2989 
Q 1786 2989 1581 2835 
Q 1376 2682 1197 2394 
L 1197 0 
L 608 0 
L 608 3373 
L 1114 3373 
L 1165 2874 
Q 1344 3142 1609 3296 
Q 1875 3450 2195 3450 
z
" id="FiraSans-Regular-6e" transform="scale(0.015625)"/>
       <path d="M 3117 0 
L 2611 0 
L 2566 525 
Q 2374 211 2124 67 
Q 1875 -77 1517 -77 
Q 1075 -77 825 192 
Q 576 461 576 954 
L 576 3373 
L 1165 3373 
L 1165 1018 
Q 1165 672 1286 528 
Q 1408 384 1683 384 
Q 2176 384 2528 966 
L 2528 3373 
L 3117 3373 
L 3117 0 
z
" id="FiraSans-Regular-75" transform="scale(0.015625)"/>
       <path id="FiraSans-Regular-20" transform="scale(0.015625)"/>
       <path d="M 3219 4730 
L 3219 0 
L 2701 0 
L 2643 467 
Q 2477 211 2227 67 
Q 1978 -77 1670 -77 
Q 1069 -77 733 396 
Q 397 870 397 1670 
Q 397 2189 557 2592 
Q 717 2995 1017 3222 
Q 1318 3450 1722 3450 
Q 2240 3450 2630 3034 
L 2630 4800 
L 3219 4730 
z
M 1798 390 
Q 2067 390 2259 515 
Q 2451 640 2630 890 
L 2630 2541 
Q 2464 2758 2275 2870 
Q 2086 2982 1850 2982 
Q 1459 2982 1244 2656 
Q 1030 2330 1030 1683 
Q 1030 1030 1228 710 
Q 1427 390 1798 390 
z
" id="FiraSans-Regular-64" transform="scale(0.015625)"/>
       <path d="M 640 0 
L 640 4410 
L 2982 4410 
L 2912 3923 
L 1248 3923 
L 1248 2419 
L 2688 2419 
L 2688 1939 
L 1248 1939 
L 1248 0 
L 640 0 
z
" id="FiraSans-Regular-46" transform="scale(0.015625)"/>
       <path d="M 2074 3450 
Q 2253 3450 2406 3411 
L 2298 2835 
Q 2144 2874 2003 2874 
Q 1690 2874 1498 2643 
Q 1306 2413 1197 1926 
L 1197 0 
L 608 0 
L 608 3373 
L 1114 3373 
L 1171 2688 
Q 1306 3066 1536 3258 
Q 1766 3450 2074 3450 
z
" id="FiraSans-Regular-72" transform="scale(0.015625)"/>
       <path d="M 1197 3373 
L 1197 0 
L 608 0 
L 608 3373 
L 1197 3373 
z
M 896 4992 
Q 1082 4992 1197 4877 
Q 1312 4762 1312 4589 
Q 1312 4416 1197 4304 
Q 1082 4192 896 4192 
Q 717 4192 601 4304 
Q 486 4416 486 4589 
Q 486 4762 601 4877 
Q 717 4992 896 4992 
z
" id="FiraSans-Regular-69" transform="scale(0.015625)"/>
       <path d="M 1837 3450 
Q 2138 3450 2387 3363 
Q 2637 3277 2867 3085 
L 2586 2714 
Q 2406 2842 2236 2902 
Q 2067 2963 1862 2963 
Q 1453 2963 1225 2636 
Q 998 2310 998 1670 
Q 998 1030 1222 726 
Q 1446 422 1862 422 
Q 2061 422 2227 483 
Q 2394 544 2598 678 
L 2867 294 
Q 2406 -77 1837 -77 
Q 1152 -77 758 384 
Q 365 845 365 1658 
Q 365 2195 544 2598 
Q 723 3002 1052 3226 
Q 1382 3450 1837 3450 
z
" id="FiraSans-Regular-63" transform="scale(0.015625)"/>
       <path d="M 1875 3450 
Q 2586 3450 2979 2976 
Q 3373 2502 3373 1690 
Q 3373 1165 3193 765 
Q 3014 365 2675 144 
Q 2336 -77 1869 -77 
Q 1158 -77 761 396 
Q 365 870 365 1683 
Q 365 2208 544 2608 
Q 723 3008 1062 3229 
Q 1402 3450 1875 3450 
z
M 1875 2976 
Q 998 2976 998 1683 
Q 998 397 1869 397 
Q 2739 397 2739 1690 
Q 2739 2976 1875 2976 
z
M 2374 5126 
L 2637 4634 
L 1280 4083 
L 1101 4397 
L 2374 5126 
z
" id="FiraSans-Regular-f3" transform="scale(0.015625)"/>
      </defs>
      <use xlink:href="#FiraSans-Regular-41"/>
      <use x="57.299988" xlink:href="#FiraSans-Regular-74"/>
      <use x="93.399979" xlink:href="#FiraSans-Regular-65"/>
      <use x="147.899963" xlink:href="#FiraSans-Regular-6e"/>
      <use x="206.499954" xlink:href="#FiraSans-Regular-65"/>
      <use x="260.999939" xlink:href="#FiraSans-Regular-75"/>
      <use x="319.199936" xlink:href="#FiraSans-Regular-20"/>
      <use x="345.699921" xlink:href="#FiraSans-Regular-64"/>
      <use x="405.499908" xlink:href="#FiraSans-Regular-65"/>
      <use x="459.999893" xlink:href="#FiraSans-Regular-20"/>
      <use x="486.499878" xlink:href="#FiraSans-Regular-46"/>
      <use x="535.599869" xlink:href="#FiraSans-Regular-61"/>
      <use x="589.999863" xlink:href="#FiraSans-Regular-62"/>
      <use x="649.399857" xlink:href="#FiraSans-Regular-72"/>
      <use x="687.999847" xlink:href="#FiraSans-Regular-69"/>
      <use x="716.199844" xlink:href="#FiraSans-Regular-63"/>
      <use x="763.999832" xlink:href="#FiraSans-Regular-61"/>
      <use x="818.399826" xlink:href="#FiraSans-Regular-63"/>
      <use x="866.199814" xlink:href="#FiraSans-Regular-69"/>
      <use x="894.399811" xlink:href="#FiraSans-Regular-f3"/>
     </g>
    </g>
    <g id="patch_37">
     <path d="M 20.4 1300.663468 
L 86.4 1300.663468 
L 86.4 1277.563468 
L 20.4 1277.563468 
z
" style="fill:#018700;stroke:#ffffff;stroke-linejoin:miter;stroke-width:2;"/>
    </g>
    <g id="text_39">
     <!-- City Space -->
     <g style="fill:#262626;" transform="translate(112.8 1300.663468)scale(0.33 -0.33)">
      <defs>
       <path d="M 1958 -19 
Q 1760 -608 1405 -950 
Q 1050 -1293 390 -1363 
L 326 -902 
Q 659 -845 857 -736 
Q 1056 -627 1174 -457 
Q 1293 -288 1395 0 
L 1197 0 
L 64 3373 
L 691 3373 
L 1594 429 
L 2477 3373 
L 3085 3373 
L 1958 -19 
z
" id="FiraSans-Regular-79" transform="scale(0.015625)"/>
       <path d="M 1728 4486 
Q 2170 4486 2483 4361 
Q 2797 4237 3091 3974 
L 2758 3603 
Q 2509 3802 2269 3894 
Q 2029 3987 1754 3987 
Q 1408 3987 1184 3827 
Q 960 3667 960 3360 
Q 960 3168 1037 3037 
Q 1114 2906 1322 2797 
Q 1530 2688 1926 2566 
Q 2342 2438 2617 2291 
Q 2893 2144 3062 1885 
Q 3232 1626 3232 1229 
Q 3232 845 3043 550 
Q 2854 256 2499 89 
Q 2144 -77 1658 -77 
Q 742 -77 160 493 
L 493 864 
Q 762 646 1037 534 
Q 1312 422 1651 422 
Q 2061 422 2329 624 
Q 2598 826 2598 1210 
Q 2598 1427 2515 1571 
Q 2432 1715 2230 1830 
Q 2029 1946 1645 2061 
Q 966 2266 652 2554 
Q 339 2842 339 3334 
Q 339 3667 515 3929 
Q 691 4192 1008 4339 
Q 1325 4486 1728 4486 
z
" id="FiraSans-Regular-53" transform="scale(0.015625)"/>
       <path d="M 2157 3450 
Q 2803 3450 3104 2989 
Q 3405 2528 3405 1690 
Q 3405 896 3059 409 
Q 2714 -77 2080 -77 
Q 1517 -77 1197 307 
L 1197 -1293 
L 608 -1363 
L 608 3373 
L 1114 3373 
L 1158 2918 
Q 1344 3174 1606 3312 
Q 1869 3450 2157 3450 
z
M 1939 403 
Q 2771 403 2771 1690 
Q 2771 2982 2010 2982 
Q 1760 2982 1555 2835 
Q 1350 2688 1197 2458 
L 1197 813 
Q 1325 614 1517 508 
Q 1709 403 1939 403 
z
" id="FiraSans-Regular-70" transform="scale(0.015625)"/>
      </defs>
      <use xlink:href="#FiraSans-Regular-43"/>
      <use x="55.999985" xlink:href="#FiraSans-Regular-69"/>
      <use x="84.199982" xlink:href="#FiraSans-Regular-74"/>
      <use x="120.299973" xlink:href="#FiraSans-Regular-79"/>
      <use x="169.499969" xlink:href="#FiraSans-Regular-20"/>
      <use x="195.999954" xlink:href="#FiraSans-Regular-53"/>
      <use x="250.499939" xlink:href="#FiraSans-Regular-70"/>
      <use x="309.899933" xlink:href="#FiraSans-Regular-61"/>
      <use x="364.299927" xlink:href="#FiraSans-Regular-63"/>
      <use x="412.099915" xlink:href="#FiraSans-Regular-65"/>
     </g>
    </g>
    <g id="patch_38">
     <path d="M 20.4 1348.941436 
L 86.4 1348.941436 
L 86.4 1325.841436 
L 20.4 1325.841436 
z
" style="fill:#b500ff;stroke:#ffffff;stroke-linejoin:miter;stroke-width:2;"/>
    </g>
    <g id="text_40">
     <!-- DIYBio Lab -->
     <g style="fill:#262626;" transform="translate(112.8 1348.941436)scale(0.33 -0.33)">
      <defs>
       <path d="M 1562 4410 
Q 2560 4410 3165 3946 
Q 3770 3482 3770 2227 
Q 3770 1005 3165 502 
Q 2560 0 1696 0 
L 640 0 
L 640 4410 
L 1562 4410 
z
M 1248 3923 
L 1248 480 
L 1741 480 
Q 2355 480 2739 857 
Q 3123 1235 3123 2227 
Q 3123 2925 2924 3299 
Q 2726 3674 2419 3798 
Q 2112 3923 1696 3923 
L 1248 3923 
z
" id="FiraSans-Regular-44" transform="scale(0.015625)"/>
       <path d="M 3488 4410 
L 2067 1696 
L 2067 0 
L 1453 0 
L 1453 1690 
L 32 4410 
L 704 4410 
L 1779 2227 
L 2854 4410 
L 3488 4410 
z
" id="FiraSans-Regular-59" transform="scale(0.015625)"/>
       <path d="M 1875 3450 
Q 2586 3450 2979 2976 
Q 3373 2502 3373 1690 
Q 3373 1165 3193 765 
Q 3014 365 2675 144 
Q 2336 -77 1869 -77 
Q 1158 -77 761 396 
Q 365 870 365 1683 
Q 365 2208 544 2608 
Q 723 3008 1062 3229 
Q 1402 3450 1875 3450 
z
M 1875 2976 
Q 998 2976 998 1683 
Q 998 397 1869 397 
Q 2739 397 2739 1690 
Q 2739 2976 1875 2976 
z
" id="FiraSans-Regular-6f" transform="scale(0.015625)"/>
      </defs>
      <use xlink:href="#FiraSans-Regular-44"/>
      <use x="64.399994" xlink:href="#FiraSans-Regular-49"/>
      <use x="93.899979" xlink:href="#FiraSans-Regular-59"/>
      <use x="148.899963" xlink:href="#FiraSans-Regular-42"/>
      <use x="209.699951" xlink:href="#FiraSans-Regular-69"/>
      <use x="237.899948" xlink:href="#FiraSans-Regular-6f"/>
      <use x="296.299942" xlink:href="#FiraSans-Regular-20"/>
      <use x="322.799927" xlink:href="#FiraSans-Regular-4c"/>
      <use x="372.599915" xlink:href="#FiraSans-Regular-61"/>
      <use x="426.999908" xlink:href="#FiraSans-Regular-62"/>
     </g>
    </g>
    <g id="patch_39">
     <path d="M 493.222969 1251.395499 
L 559.222969 1251.395499 
L 559.222969 1228.295499 
L 493.222969 1228.295499 
z
" style="fill:#05acc6;stroke:#ffffff;stroke-linejoin:miter;stroke-width:2;"/>
    </g>
    <g id="text_41">
     <!-- Fab Lab -->
     <g style="fill:#262626;" transform="translate(585.622969 1251.395499)scale(0.33 -0.33)">
      <use xlink:href="#FiraSans-Regular-46"/>
      <use x="49.099991" xlink:href="#FiraSans-Regular-61"/>
      <use x="103.499985" xlink:href="#FiraSans-Regular-62"/>
      <use x="162.899979" xlink:href="#FiraSans-Regular-20"/>
      <use x="189.399963" xlink:href="#FiraSans-Regular-4c"/>
      <use x="239.199951" xlink:href="#FiraSans-Regular-61"/>
      <use x="293.599945" xlink:href="#FiraSans-Regular-62"/>
     </g>
    </g>
    <g id="patch_40">
     <path d="M 493.222969 1299.673468 
L 559.222969 1299.673468 
L 559.222969 1276.573468 
L 493.222969 1276.573468 
z
" style="fill:#97ff00;stroke:#ffffff;stroke-linejoin:miter;stroke-width:2;"/>
    </g>
    <g id="text_42">
     <!-- FabCafé -->
     <g style="fill:#262626;" transform="translate(585.622969 1299.673468)scale(0.33 -0.33)">
      <defs>
       <path d="M 1754 4326 
Q 1485 4326 1369 4208 
Q 1254 4090 1254 3840 
L 1254 3373 
L 2074 3373 
L 2010 2918 
L 1254 2918 
L 1254 0 
L 666 0 
L 666 2918 
L 64 2918 
L 64 3373 
L 666 3373 
L 666 3834 
Q 666 4269 944 4534 
Q 1222 4800 1722 4800 
Q 1952 4800 2134 4758 
Q 2317 4717 2528 4627 
L 2342 4198 
Q 2054 4326 1754 4326 
z
" id="FiraSans-Regular-66" transform="scale(0.015625)"/>
       <path d="M 3155 1786 
Q 3155 1638 3142 1485 
L 992 1485 
Q 1030 928 1273 665 
Q 1517 403 1901 403 
Q 2144 403 2349 473 
Q 2554 544 2778 698 
L 3034 346 
Q 2496 -77 1856 -77 
Q 1152 -77 758 384 
Q 365 845 365 1651 
Q 365 2176 534 2582 
Q 704 2989 1021 3219 
Q 1338 3450 1766 3450 
Q 2438 3450 2796 3008 
Q 3155 2566 3155 1786 
z
M 2573 1958 
Q 2573 2458 2374 2720 
Q 2176 2982 1779 2982 
Q 1056 2982 992 1920 
L 2573 1920 
L 2573 1958 
z
M 2291 5126 
L 2554 4634 
L 1197 4083 
L 1018 4397 
L 2291 5126 
z
" id="FiraSans-Regular-e9" transform="scale(0.015625)"/>
      </defs>
      <use xlink:href="#FiraSans-Regular-46"/>
      <use x="49.099991" xlink:href="#FiraSans-Regular-61"/>
      <use x="103.499985" xlink:href="#FiraSans-Regular-62"/>
      <use x="162.899979" xlink:href="#FiraSans-Regular-43"/>
      <use x="218.899963" xlink:href="#FiraSans-Regular-61"/>
      <use x="273.299957" xlink:href="#FiraSans-Regular-66"/>
      <use x="306.799942" xlink:href="#FiraSans-Regular-e9"/>
     </g>
    </g>
    <g id="patch_41">
     <path d="M 493.222969 1347.951436 
L 559.222969 1347.951436 
L 559.222969 1324.851436 
L 493.222969 1324.851436 
z
" style="fill:#ffa52f;stroke:#ffffff;stroke-linejoin:miter;stroke-width:2;"/>
    </g>
    <g id="text_43">
     <!-- Foundation -->
     <g style="fill:#262626;" transform="translate(585.622969 1347.951436)scale(0.33 -0.33)">
      <use xlink:href="#FiraSans-Regular-46"/>
      <use x="49.099991" xlink:href="#FiraSans-Regular-6f"/>
      <use x="107.499985" xlink:href="#FiraSans-Regular-75"/>
      <use x="165.699982" xlink:href="#FiraSans-Regular-6e"/>
      <use x="224.299973" xlink:href="#FiraSans-Regular-64"/>
      <use x="284.09996" xlink:href="#FiraSans-Regular-61"/>
      <use x="338.499954" xlink:href="#FiraSans-Regular-74"/>
      <use x="374.599945" xlink:href="#FiraSans-Regular-69"/>
      <use x="402.799942" xlink:href="#FiraSans-Regular-6f"/>
      <use x="461.199936" xlink:href="#FiraSans-Regular-6e"/>
     </g>
    </g>
    <g id="patch_42">
     <path d="M 823.155938 1251.395499 
L 889.155938 1251.395499 
L 889.155938 1228.295499 
L 823.155938 1228.295499 
z
" style="fill:#ff8ec8;stroke:#ffffff;stroke-linejoin:miter;stroke-width:2;"/>
    </g>
    <g id="text_44">
     <!-- Hackerspace -->
     <g style="fill:#262626;" transform="translate(915.555938 1251.395499)scale(0.33 -0.33)">
      <defs>
       <path d="M 3104 0 
L 3104 2067 
L 1248 2067 
L 1248 0 
L 640 0 
L 640 4410 
L 1248 4410 
L 1248 2566 
L 3104 2566 
L 3104 4410 
L 3712 4410 
L 3712 0 
L 3104 0 
z
" id="FiraSans-Regular-48" transform="scale(0.015625)"/>
       <path d="M 1197 4800 
L 1197 0 
L 608 0 
L 608 4730 
L 1197 4800 
z
M 3136 3373 
L 1894 1882 
L 3277 0 
L 2573 0 
L 1235 1843 
L 2477 3373 
L 3136 3373 
z
" id="FiraSans-Regular-6b" transform="scale(0.015625)"/>
      </defs>
      <use xlink:href="#FiraSans-Regular-48"/>
      <use x="67.999985" xlink:href="#FiraSans-Regular-61"/>
      <use x="122.399979" xlink:href="#FiraSans-Regular-63"/>
      <use x="170.199966" xlink:href="#FiraSans-Regular-6b"/>
      <use x="221.399963" xlink:href="#FiraSans-Regular-65"/>
      <use x="275.899948" xlink:href="#FiraSans-Regular-72"/>
      <use x="314.499939" xlink:href="#FiraSans-Regular-73"/>
      <use x="361.199936" xlink:href="#FiraSans-Regular-70"/>
      <use x="420.59993" xlink:href="#FiraSans-Regular-61"/>
      <use x="474.999924" xlink:href="#FiraSans-Regular-63"/>
      <use x="522.799911" xlink:href="#FiraSans-Regular-65"/>
     </g>
    </g>
    <g id="patch_43">
     <path d="M 823.155938 1299.673468 
L 889.155938 1299.673468 
L 889.155938 1276.573468 
L 823.155938 1276.573468 
z
" style="fill:#79525e;stroke:#ffffff;stroke-linejoin:miter;stroke-width:2;"/>
    </g>
    <g id="text_45">
     <!-- Incubator/Accelerator -->
     <g style="fill:#262626;" transform="translate(915.555938 1299.673468)scale(0.33 -0.33)">
      <defs>
       <path d="M 2157 5165 
L 2656 5050 
L 1178 -666 
L 672 -544 
L 2157 5165 
z
" id="FiraSans-Regular-2f" transform="scale(0.015625)"/>
       <path d="M 1280 -77 
Q 954 -77 765 118 
Q 576 314 576 666 
L 576 4730 
L 1165 4800 
L 1165 678 
Q 1165 538 1213 474 
Q 1261 410 1376 410 
Q 1498 410 1594 448 
L 1747 38 
Q 1536 -77 1280 -77 
z
" id="FiraSans-Regular-6c" transform="scale(0.015625)"/>
      </defs>
      <use xlink:href="#FiraSans-Regular-49"/>
      <use x="29.499985" xlink:href="#FiraSans-Regular-6e"/>
      <use x="88.099976" xlink:href="#FiraSans-Regular-63"/>
      <use x="135.899963" xlink:href="#FiraSans-Regular-75"/>
      <use x="194.09996" xlink:href="#FiraSans-Regular-62"/>
      <use x="253.499954" xlink:href="#FiraSans-Regular-61"/>
      <use x="307.899948" xlink:href="#FiraSans-Regular-74"/>
      <use x="343.999939" xlink:href="#FiraSans-Regular-6f"/>
      <use x="402.399933" xlink:href="#FiraSans-Regular-72"/>
      <use x="440.999924" xlink:href="#FiraSans-Regular-2f"/>
      <use x="492.999908" xlink:href="#FiraSans-Regular-41"/>
      <use x="550.299896" xlink:href="#FiraSans-Regular-63"/>
      <use x="598.099884" xlink:href="#FiraSans-Regular-63"/>
      <use x="645.899872" xlink:href="#FiraSans-Regular-65"/>
      <use x="700.399857" xlink:href="#FiraSans-Regular-6c"/>
      <use x="729.699844" xlink:href="#FiraSans-Regular-65"/>
      <use x="784.199829" xlink:href="#FiraSans-Regular-72"/>
      <use x="822.79982" xlink:href="#FiraSans-Regular-61"/>
      <use x="877.199814" xlink:href="#FiraSans-Regular-74"/>
      <use x="913.299805" xlink:href="#FiraSans-Regular-6f"/>
      <use x="971.699799" xlink:href="#FiraSans-Regular-72"/>
     </g>
    </g>
    <g id="patch_44">
     <path d="M 823.155938 1347.951436 
L 889.155938 1347.951436 
L 889.155938 1324.851436 
L 823.155938 1324.851436 
z
" style="fill:#00fdcf;stroke:#ffffff;stroke-linejoin:miter;stroke-width:2;"/>
    </g>
    <g id="text_46">
     <!-- Industry R&amp;D Lab -->
     <g style="fill:#262626;" transform="translate(915.555938 1347.951436)scale(0.33 -0.33)">
      <defs>
       <path d="M 1933 1869 
L 1248 1869 
L 1248 0 
L 640 0 
L 640 4410 
L 1798 4410 
Q 2624 4410 3049 4096 
Q 3475 3782 3475 3162 
Q 3475 2701 3238 2413 
Q 3002 2125 2522 1978 
L 3712 0 
L 2989 0 
L 1933 1869 
z
M 1862 2336 
Q 2342 2336 2585 2531 
Q 2829 2726 2829 3162 
Q 2829 3571 2582 3753 
Q 2336 3936 1792 3936 
L 1248 3936 
L 1248 2336 
L 1862 2336 
z
" id="FiraSans-Regular-52" transform="scale(0.015625)"/>
       <path d="M 1933 4486 
Q 2278 4486 2544 4361 
Q 2810 4237 2957 4013 
Q 3104 3789 3104 3514 
Q 3104 3136 2864 2864 
Q 2624 2592 2202 2342 
L 3328 1280 
Q 3584 1798 3712 2362 
L 4262 2202 
Q 4038 1459 3693 941 
L 4410 269 
L 3987 -77 
L 3366 525 
Q 3091 224 2745 73 
Q 2400 -77 1952 -77 
Q 1530 -77 1206 70 
Q 883 218 700 490 
Q 518 762 518 1120 
Q 518 1517 742 1814 
Q 966 2112 1408 2394 
Q 1088 2701 937 2944 
Q 787 3187 787 3494 
Q 787 3930 1091 4208 
Q 1395 4486 1933 4486 
z
M 1939 4051 
Q 1670 4051 1516 3897 
Q 1363 3744 1363 3501 
Q 1363 3270 1484 3088 
Q 1606 2906 1869 2656 
Q 2195 2854 2361 3049 
Q 2528 3245 2528 3482 
Q 2528 3750 2368 3900 
Q 2208 4051 1939 4051 
z
M 1747 2074 
Q 1427 1862 1273 1641 
Q 1120 1421 1120 1139 
Q 1120 787 1366 588 
Q 1613 390 2016 390 
Q 2317 390 2560 505 
Q 2803 621 3027 851 
L 1747 2074 
z
" id="FiraSans-Regular-26" transform="scale(0.015625)"/>
      </defs>
      <use xlink:href="#FiraSans-Regular-49"/>
      <use x="29.499985" xlink:href="#FiraSans-Regular-6e"/>
      <use x="88.099976" xlink:href="#FiraSans-Regular-64"/>
      <use x="147.899963" xlink:href="#FiraSans-Regular-75"/>
      <use x="206.09996" xlink:href="#FiraSans-Regular-73"/>
      <use x="252.799957" xlink:href="#FiraSans-Regular-74"/>
      <use x="288.899948" xlink:href="#FiraSans-Regular-72"/>
      <use x="327.499939" xlink:href="#FiraSans-Regular-79"/>
      <use x="376.699936" xlink:href="#FiraSans-Regular-20"/>
      <use x="403.199921" xlink:href="#FiraSans-Regular-52"/>
      <use x="463.699905" xlink:href="#FiraSans-Regular-26"/>
      <use x="536.599899" xlink:href="#FiraSans-Regular-44"/>
      <use x="600.999893" xlink:href="#FiraSans-Regular-20"/>
      <use x="627.499878" xlink:href="#FiraSans-Regular-4c"/>
      <use x="677.299866" xlink:href="#FiraSans-Regular-61"/>
      <use x="731.69986" xlink:href="#FiraSans-Regular-62"/>
     </g>
    </g>
    <g id="patch_45">
     <path d="M 1314.94875 1251.395499 
L 1380.94875 1251.395499 
L 1380.94875 1228.295499 
L 1314.94875 1228.295499 
z
" style="fill:#afa5ff;stroke:#ffffff;stroke-linejoin:miter;stroke-width:2;"/>
    </g>
    <g id="text_47">
     <!-- Library -->
     <g style="fill:#262626;" transform="translate(1407.34875 1251.395499)scale(0.33 -0.33)">
      <use xlink:href="#FiraSans-Regular-4c"/>
      <use x="49.799988" xlink:href="#FiraSans-Regular-69"/>
      <use x="77.999985" xlink:href="#FiraSans-Regular-62"/>
      <use x="137.399979" xlink:href="#FiraSans-Regular-72"/>
      <use x="175.999969" xlink:href="#FiraSans-Regular-61"/>
      <use x="230.399963" xlink:href="#FiraSans-Regular-72"/>
      <use x="268.999954" xlink:href="#FiraSans-Regular-79"/>
     </g>
    </g>
    <g id="patch_46">
     <path d="M 1314.94875 1299.673468 
L 1380.94875 1299.673468 
L 1380.94875 1276.573468 
L 1314.94875 1276.573468 
z
" style="fill:#93ac83;stroke:#ffffff;stroke-linejoin:miter;stroke-width:2;"/>
    </g>
    <g id="text_48">
     <!-- Makerspace -->
     <g style="fill:#262626;" transform="translate(1407.34875 1299.673468)scale(0.33 -0.33)">
      <use xlink:href="#FiraSans-Regular-4d"/>
      <use x="77.799988" xlink:href="#FiraSans-Regular-61"/>
      <use x="132.199982" xlink:href="#FiraSans-Regular-6b"/>
      <use x="183.399979" xlink:href="#FiraSans-Regular-65"/>
      <use x="237.899963" xlink:href="#FiraSans-Regular-72"/>
      <use x="276.499954" xlink:href="#FiraSans-Regular-73"/>
      <use x="323.199951" xlink:href="#FiraSans-Regular-70"/>
      <use x="382.599945" xlink:href="#FiraSans-Regular-61"/>
      <use x="436.999939" xlink:href="#FiraSans-Regular-63"/>
      <use x="484.799927" xlink:href="#FiraSans-Regular-65"/>
     </g>
    </g>
    <g id="patch_47">
     <path d="M 1314.94875 1347.951436 
L 1380.94875 1347.951436 
L 1380.94875 1324.851436 
L 1314.94875 1324.851436 
z
" style="fill:#9a6900;stroke:#ffffff;stroke-linejoin:miter;stroke-width:2;"/>
    </g>
    <g id="text_49">
     <!-- Service -->
     <g style="fill:#262626;" transform="translate(1407.34875 1347.951436)scale(0.33 -0.33)">
      <defs>
       <path d="M 3085 3373 
L 1939 0 
L 1229 0 
L 64 3373 
L 704 3373 
L 1587 525 
L 2464 3373 
L 3085 3373 
z
" id="FiraSans-Regular-76" transform="scale(0.015625)"/>
      </defs>
      <use xlink:href="#FiraSans-Regular-53"/>
      <use x="54.499985" xlink:href="#FiraSans-Regular-65"/>
      <use x="108.999969" xlink:href="#FiraSans-Regular-72"/>
      <use x="147.59996" xlink:href="#FiraSans-Regular-76"/>
      <use x="196.799957" xlink:href="#FiraSans-Regular-69"/>
      <use x="224.999954" xlink:href="#FiraSans-Regular-63"/>
      <use x="272.799942" xlink:href="#FiraSans-Regular-65"/>
     </g>
    </g>
    <g id="patch_48">
     <path d="M 1651.321875 1251.395499 
L 1717.321875 1251.395499 
L 1717.321875 1228.295499 
L 1651.321875 1228.295499 
z
" style="fill:#366962;stroke:#ffffff;stroke-linejoin:miter;stroke-width:2;"/>
    </g>
    <g id="text_50">
     <!-- University + Industry R&amp;D Lab -->
     <g style="fill:#262626;" transform="translate(1743.721875 1251.395499)scale(0.33 -0.33)">
      <defs>
       <path d="M 3661 1414 
Q 3661 973 3478 637 
Q 3296 301 2947 112 
Q 2598 -77 2112 -77 
Q 1376 -77 976 329 
Q 576 736 576 1414 
L 576 4410 
L 1184 4410 
L 1184 1459 
Q 1184 947 1414 691 
Q 1645 435 2112 435 
Q 2586 435 2816 688 
Q 3046 941 3046 1459 
L 3046 4410 
L 3661 4410 
L 3661 1414 
z
" id="FiraSans-Regular-55" transform="scale(0.015625)"/>
       <path d="M 1862 3322 
L 1862 2362 
L 2797 2362 
L 2797 1875 
L 1862 1875 
L 1862 922 
L 1325 922 
L 1325 1875 
L 397 1875 
L 397 2362 
L 1325 2362 
L 1325 3322 
L 1862 3322 
z
" id="FiraSans-Regular-2b" transform="scale(0.015625)"/>
      </defs>
      <use xlink:href="#FiraSans-Regular-55"/>
      <use x="66.199997" xlink:href="#FiraSans-Regular-6e"/>
      <use x="124.799988" xlink:href="#FiraSans-Regular-69"/>
      <use x="152.999985" xlink:href="#FiraSans-Regular-76"/>
      <use x="202.199982" xlink:href="#FiraSans-Regular-65"/>
      <use x="256.699966" xlink:href="#FiraSans-Regular-72"/>
      <use x="295.299957" xlink:href="#FiraSans-Regular-73"/>
      <use x="341.999954" xlink:href="#FiraSans-Regular-69"/>
      <use x="370.199951" xlink:href="#FiraSans-Regular-74"/>
      <use x="406.299942" xlink:href="#FiraSans-Regular-79"/>
      <use x="455.499939" xlink:href="#FiraSans-Regular-20"/>
      <use x="481.999924" xlink:href="#FiraSans-Regular-2b"/>
      <use x="531.899918" xlink:href="#FiraSans-Regular-20"/>
      <use x="558.399902" xlink:href="#FiraSans-Regular-49"/>
      <use x="587.899887" xlink:href="#FiraSans-Regular-6e"/>
      <use x="646.499878" xlink:href="#FiraSans-Regular-64"/>
      <use x="706.299866" xlink:href="#FiraSans-Regular-75"/>
      <use x="764.499863" xlink:href="#FiraSans-Regular-73"/>
      <use x="811.19986" xlink:href="#FiraSans-Regular-74"/>
      <use x="847.29985" xlink:href="#FiraSans-Regular-72"/>
      <use x="885.899841" xlink:href="#FiraSans-Regular-79"/>
      <use x="935.099838" xlink:href="#FiraSans-Regular-20"/>
      <use x="961.599823" xlink:href="#FiraSans-Regular-52"/>
      <use x="1022.099808" xlink:href="#FiraSans-Regular-26"/>
      <use x="1094.999802" xlink:href="#FiraSans-Regular-44"/>
      <use x="1159.399796" xlink:href="#FiraSans-Regular-20"/>
      <use x="1185.89978" xlink:href="#FiraSans-Regular-4c"/>
      <use x="1235.699768" xlink:href="#FiraSans-Regular-61"/>
      <use x="1290.099762" xlink:href="#FiraSans-Regular-62"/>
     </g>
    </g>
    <g id="patch_49">
     <path d="M 1651.321875 1300.663468 
L 1717.321875 1300.663468 
L 1717.321875 1277.563468 
L 1651.321875 1277.563468 
z
" style="fill:#d3008c;stroke:#ffffff;stroke-linejoin:miter;stroke-width:2;"/>
    </g>
    <g id="text_51">
     <!-- University Lab -->
     <g style="fill:#262626;" transform="translate(1743.721875 1300.663468)scale(0.33 -0.33)">
      <use xlink:href="#FiraSans-Regular-55"/>
      <use x="66.199997" xlink:href="#FiraSans-Regular-6e"/>
      <use x="124.799988" xlink:href="#FiraSans-Regular-69"/>
      <use x="152.999985" xlink:href="#FiraSans-Regular-76"/>
      <use x="202.199982" xlink:href="#FiraSans-Regular-65"/>
      <use x="256.699966" xlink:href="#FiraSans-Regular-72"/>
      <use x="295.299957" xlink:href="#FiraSans-Regular-73"/>
      <use x="341.999954" xlink:href="#FiraSans-Regular-69"/>
      <use x="370.199951" xlink:href="#FiraSans-Regular-74"/>
      <use x="406.299942" xlink:href="#FiraSans-Regular-79"/>
      <use x="455.499939" xlink:href="#FiraSans-Regular-20"/>
      <use x="481.999924" xlink:href="#FiraSans-Regular-4c"/>
      <use x="531.799911" xlink:href="#FiraSans-Regular-61"/>
      <use x="586.199905" xlink:href="#FiraSans-Regular-62"/>
     </g>
    </g>
   </g>
  </g>
 </g>
 <defs>
  <clipPath id="p99b3012b42">
   <rect height="1090.601375" width="1561.59" x="323.936016" y="7.2"/>
  </clipPath>
 </defs>
</svg>
