<?xml version="1.0" encoding="utf-8" standalone="no"?>
<!DOCTYPE svg PUBLIC "-//W3C//DTD SVG 1.1//EN"
  "http://www.w3.org/Graphics/SVG/1.1/DTD/svg11.dtd">
<svg xmlns:xlink="http://www.w3.org/1999/xlink" width="1185.286563pt" height="622.516562pt" viewBox="0 0 1185.286563 622.516562" xmlns="http://www.w3.org/2000/svg" version="1.1">
 <metadata>
  <rdf:RDF xmlns:dc="http://purl.org/dc/elements/1.1/" xmlns:cc="http://creativecommons.org/ns#" xmlns:rdf="http://www.w3.org/1999/02/22-rdf-syntax-ns#">
   <cc:Work>
    <dc:type rdf:resource="http://purl.org/dc/dcmitype/StillImage"/>
    <dc:date>2022-12-11T12:43:51.304937</dc:date>
    <dc:format>image/svg+xml</dc:format>
    <dc:creator>
     <cc:Agent>
      <dc:title>Matplotlib v3.6.1, https://matplotlib.org/</dc:title>
     </cc:Agent>
    </dc:creator>
   </cc:Work>
  </rdf:RDF>
 </metadata>
 <defs>
  <style type="text/css">*{stroke-linejoin: round; stroke-linecap: butt}</style>
 </defs>
 <g id="figure_1">
  <g id="patch_1">
   <path d="M 0 622.516562 
L 1185.286563 622.516562 
L 1185.286563 0 
L 0 0 
L 0 622.516562 
z
" style="fill: none"/>
  </g>
  <g id="axes_1">
   <g id="patch_2">
    <path d="M 62.086563 550.8 
L 1178.086563 550.8 
L 1178.086563 7.2 
L 62.086563 7.2 
z
" style="fill: #ffffff"/>
   </g>
   <g id="matplotlib.axis_1">
    <g id="xtick_1">
     <g id="line2d_1">
      <path d="M 112.326183 550.8 
L 112.326183 7.2 
" clip-path="url(#pe5d1560d6a)" style="fill: none; stroke: #cccccc; stroke-width: 2; stroke-linecap: round"/>
     </g>
     <g id="line2d_2">
      <defs>
       <path id="m3cf5af135c" d="M 0 0 
L 0 12 
" style="stroke: #262626; stroke-width: 2.5"/>
      </defs>
      <g>
       <use xlink:href="#m3cf5af135c" x="112.326183" y="550.8" style="fill: #262626; stroke: #262626; stroke-width: 2.5"/>
      </g>
     </g>
     <g id="text_1">
      <!-- 0 -->
      <g style="fill: #262626" transform="translate(106.188527 582.8) scale(0.22 -0.22)">
       <defs>
        <path id="FiraSans-Regular-30" d="M 1786 4346 
Q 2496 4346 2857 3779 
Q 3219 3213 3219 2138 
Q 3219 1062 2857 492 
Q 2496 -77 1786 -77 
Q 1075 -77 713 492 
Q 352 1062 352 2138 
Q 352 3213 713 3779 
Q 1075 4346 1786 4346 
z
M 1786 3878 
Q 1370 3878 1168 3468 
Q 966 3059 966 2138 
Q 966 1216 1168 803 
Q 1370 390 1786 390 
Q 2195 390 2400 803 
Q 2605 1216 2605 2138 
Q 2605 3053 2400 3465 
Q 2195 3878 1786 3878 
z
" transform="scale(0.015625)"/>
       </defs>
       <use xlink:href="#FiraSans-Regular-30"/>
      </g>
     </g>
    </g>
    <g id="xtick_2">
     <g id="line2d_3">
      <path d="M 311.367894 550.8 
L 311.367894 7.2 
" clip-path="url(#pe5d1560d6a)" style="fill: none; stroke: #cccccc; stroke-width: 2; stroke-linecap: round"/>
     </g>
     <g id="line2d_4">
      <g>
       <use xlink:href="#m3cf5af135c" x="311.367894" y="550.8" style="fill: #262626; stroke: #262626; stroke-width: 2.5"/>
      </g>
     </g>
     <g id="text_2">
      <!-- 20000 -->
      <g style="fill: #262626" transform="translate(281.372269 582.8) scale(0.22 -0.22)">
       <defs>
        <path id="FiraSans-Regular-32" d="M 1459 4346 
Q 1843 4346 2134 4192 
Q 2426 4038 2586 3772 
Q 2746 3507 2746 3174 
Q 2746 2784 2570 2425 
Q 2394 2067 2029 1651 
Q 1664 1235 922 493 
L 2848 493 
L 2778 0 
L 250 0 
L 250 467 
Q 1107 1357 1465 1769 
Q 1824 2182 1977 2489 
Q 2131 2797 2131 3149 
Q 2131 3482 1939 3670 
Q 1747 3859 1427 3859 
Q 1165 3859 966 3750 
Q 768 3642 544 3392 
L 160 3699 
Q 422 4026 742 4186 
Q 1062 4346 1459 4346 
z
" transform="scale(0.015625)"/>
       </defs>
       <use xlink:href="#FiraSans-Regular-32"/>
       <use xlink:href="#FiraSans-Regular-30" x="49.499985"/>
       <use xlink:href="#FiraSans-Regular-30" x="105.299973"/>
       <use xlink:href="#FiraSans-Regular-30" x="161.09996"/>
       <use xlink:href="#FiraSans-Regular-30" x="216.899948"/>
      </g>
     </g>
    </g>
    <g id="xtick_3">
     <g id="line2d_5">
      <path d="M 510.409604 550.8 
L 510.409604 7.2 
" clip-path="url(#pe5d1560d6a)" style="fill: none; stroke: #cccccc; stroke-width: 2; stroke-linecap: round"/>
     </g>
     <g id="line2d_6">
      <g>
       <use xlink:href="#m3cf5af135c" x="510.409604" y="550.8" style="fill: #262626; stroke: #262626; stroke-width: 2.5"/>
      </g>
     </g>
     <g id="text_3">
      <!-- 40000 -->
      <g style="fill: #262626" transform="translate(480.006635 582.8) scale(0.22 -0.22)">
       <defs>
        <path id="FiraSans-Regular-34" d="M 3213 1523 
L 3213 1056 
L 2656 1056 
L 2656 0 
L 2086 0 
L 2086 1056 
L 256 1056 
L 256 1478 
L 1542 4346 
L 2035 4141 
L 877 1523 
L 2093 1523 
L 2144 2675 
L 2656 2675 
L 2656 1523 
L 3213 1523 
z
" transform="scale(0.015625)"/>
       </defs>
       <use xlink:href="#FiraSans-Regular-34"/>
       <use xlink:href="#FiraSans-Regular-30" x="53.199997"/>
       <use xlink:href="#FiraSans-Regular-30" x="108.999985"/>
       <use xlink:href="#FiraSans-Regular-30" x="164.799973"/>
       <use xlink:href="#FiraSans-Regular-30" x="220.59996"/>
      </g>
     </g>
    </g>
    <g id="xtick_4">
     <g id="line2d_7">
      <path d="M 709.451314 550.8 
L 709.451314 7.2 
" clip-path="url(#pe5d1560d6a)" style="fill: none; stroke: #cccccc; stroke-width: 2; stroke-linecap: round"/>
     </g>
     <g id="line2d_8">
      <g>
       <use xlink:href="#m3cf5af135c" x="709.451314" y="550.8" style="fill: #262626; stroke: #262626; stroke-width: 2.5"/>
      </g>
     </g>
     <g id="text_4">
      <!-- 60000 -->
      <g style="fill: #262626" transform="translate(679.038033 582.8) scale(0.22 -0.22)">
       <defs>
        <path id="FiraSans-Regular-36" d="M 1971 2816 
Q 2298 2816 2566 2662 
Q 2835 2509 2995 2201 
Q 3155 1894 3155 1453 
Q 3155 998 2972 649 
Q 2790 301 2480 112 
Q 2170 -77 1792 -77 
Q 1043 -77 697 476 
Q 352 1030 352 2010 
Q 352 2707 547 3235 
Q 742 3763 1107 4054 
Q 1472 4346 1971 4346 
Q 2458 4346 2854 4083 
L 2624 3693 
Q 2323 3878 1965 3878 
Q 1504 3878 1235 3436 
Q 966 2995 941 2253 
Q 1338 2816 1971 2816 
z
M 1792 390 
Q 2163 390 2361 672 
Q 2560 954 2560 1434 
Q 2560 2349 1869 2349 
Q 1587 2349 1350 2192 
Q 1114 2035 947 1760 
Q 966 1056 1168 723 
Q 1370 390 1792 390 
z
" transform="scale(0.015625)"/>
       </defs>
       <use xlink:href="#FiraSans-Regular-36"/>
       <use xlink:href="#FiraSans-Regular-30" x="53.299988"/>
       <use xlink:href="#FiraSans-Regular-30" x="109.099976"/>
       <use xlink:href="#FiraSans-Regular-30" x="164.899963"/>
       <use xlink:href="#FiraSans-Regular-30" x="220.699951"/>
      </g>
     </g>
    </g>
    <g id="xtick_5">
     <g id="line2d_9">
      <path d="M 908.493025 550.8 
L 908.493025 7.2 
" clip-path="url(#pe5d1560d6a)" style="fill: none; stroke: #cccccc; stroke-width: 2; stroke-linecap: round"/>
     </g>
     <g id="line2d_10">
      <g>
       <use xlink:href="#m3cf5af135c" x="908.493025" y="550.8" style="fill: #262626; stroke: #262626; stroke-width: 2.5"/>
      </g>
     </g>
     <g id="text_5">
      <!-- 80000 -->
      <g style="fill: #262626" transform="translate(877.882087 582.8) scale(0.22 -0.22)">
       <defs>
        <path id="FiraSans-Regular-38" d="M 2336 2298 
Q 3238 1933 3238 1146 
Q 3238 794 3049 515 
Q 2861 237 2521 80 
Q 2182 -77 1754 -77 
Q 1318 -77 985 76 
Q 653 230 470 505 
Q 288 781 288 1133 
Q 288 1530 502 1798 
Q 717 2067 1133 2246 
Q 794 2419 630 2665 
Q 467 2912 467 3245 
Q 467 3590 649 3840 
Q 832 4090 1129 4218 
Q 1427 4346 1766 4346 
Q 2099 4346 2396 4224 
Q 2694 4102 2880 3856 
Q 3066 3610 3066 3264 
Q 3066 2944 2886 2713 
Q 2707 2483 2336 2298 
z
M 1766 3904 
Q 1434 3904 1238 3731 
Q 1043 3558 1043 3238 
Q 1043 2931 1232 2771 
Q 1421 2611 1837 2477 
L 1946 2438 
Q 2234 2605 2362 2790 
Q 2490 2976 2490 3245 
Q 2490 3546 2301 3725 
Q 2112 3904 1766 3904 
z
M 1760 390 
Q 2157 390 2390 595 
Q 2624 800 2624 1139 
Q 2624 1370 2534 1526 
Q 2445 1683 2246 1801 
Q 2048 1920 1690 2042 
L 1530 2099 
Q 1210 1946 1056 1712 
Q 902 1478 902 1133 
Q 902 781 1132 585 
Q 1363 390 1760 390 
z
" transform="scale(0.015625)"/>
       </defs>
       <use xlink:href="#FiraSans-Regular-38"/>
       <use xlink:href="#FiraSans-Regular-30" x="55.099991"/>
       <use xlink:href="#FiraSans-Regular-30" x="110.899979"/>
       <use xlink:href="#FiraSans-Regular-30" x="166.699966"/>
       <use xlink:href="#FiraSans-Regular-30" x="222.499954"/>
      </g>
     </g>
    </g>
    <g id="xtick_6">
     <g id="line2d_11">
      <path d="M 1107.534735 550.8 
L 1107.534735 7.2 
" clip-path="url(#pe5d1560d6a)" style="fill: none; stroke: #cccccc; stroke-width: 2; stroke-linecap: round"/>
     </g>
     <g id="line2d_12">
      <g>
       <use xlink:href="#m3cf5af135c" x="1107.534735" y="550.8" style="fill: #262626; stroke: #262626; stroke-width: 2.5"/>
      </g>
     </g>
     <g id="text_6">
      <!-- 100000 -->
      <g style="fill: #262626" transform="translate(1072.083798 582.8) scale(0.22 -0.22)">
       <defs>
        <path id="FiraSans-Regular-31" d="M 2067 4282 
L 2067 0 
L 1478 0 
L 1478 3654 
L 480 3046 
L 224 3462 
L 1549 4282 
L 2067 4282 
z
" transform="scale(0.015625)"/>
       </defs>
       <use xlink:href="#FiraSans-Regular-31"/>
       <use xlink:href="#FiraSans-Regular-30" x="43.299988"/>
       <use xlink:href="#FiraSans-Regular-30" x="99.099976"/>
       <use xlink:href="#FiraSans-Regular-30" x="154.899963"/>
       <use xlink:href="#FiraSans-Regular-30" x="210.699951"/>
       <use xlink:href="#FiraSans-Regular-30" x="266.499939"/>
      </g>
     </g>
    </g>
    <g id="text_7">
     <!-- Reached population -->
     <g style="fill: #262626" transform="translate(510.044688 610.205312) scale(0.24 -0.24)">
      <defs>
       <path id="FiraSans-Regular-52" d="M 1933 1869 
L 1248 1869 
L 1248 0 
L 640 0 
L 640 4410 
L 1798 4410 
Q 2624 4410 3049 4096 
Q 3475 3782 3475 3162 
Q 3475 2701 3238 2413 
Q 3002 2125 2522 1978 
L 3712 0 
L 2989 0 
L 1933 1869 
z
M 1862 2336 
Q 2342 2336 2585 2531 
Q 2829 2726 2829 3162 
Q 2829 3571 2582 3753 
Q 2336 3936 1792 3936 
L 1248 3936 
L 1248 2336 
L 1862 2336 
z
" transform="scale(0.015625)"/>
       <path id="FiraSans-Regular-65" d="M 3155 1786 
Q 3155 1638 3142 1485 
L 992 1485 
Q 1030 928 1273 665 
Q 1517 403 1901 403 
Q 2144 403 2349 473 
Q 2554 544 2778 698 
L 3034 346 
Q 2496 -77 1856 -77 
Q 1152 -77 758 384 
Q 365 845 365 1651 
Q 365 2176 534 2582 
Q 704 2989 1021 3219 
Q 1338 3450 1766 3450 
Q 2438 3450 2796 3008 
Q 3155 2566 3155 1786 
z
M 2573 1958 
Q 2573 2458 2374 2720 
Q 2176 2982 1779 2982 
Q 1056 2982 992 1920 
L 2573 1920 
L 2573 1958 
z
" transform="scale(0.015625)"/>
       <path id="FiraSans-Regular-61" d="M 2880 787 
Q 2880 582 2950 483 
Q 3021 384 3162 333 
L 3027 -77 
Q 2765 -45 2605 70 
Q 2445 186 2368 429 
Q 2029 -77 1363 -77 
Q 864 -77 576 204 
Q 288 486 288 941 
Q 288 1478 675 1766 
Q 1062 2054 1773 2054 
L 2291 2054 
L 2291 2304 
Q 2291 2662 2118 2816 
Q 1946 2970 1587 2970 
Q 1216 2970 678 2790 
L 531 3219 
Q 1158 3450 1696 3450 
Q 2291 3450 2585 3158 
Q 2880 2867 2880 2330 
L 2880 787 
z
M 1498 365 
Q 2003 365 2291 890 
L 2291 1664 
L 1850 1664 
Q 915 1664 915 973 
Q 915 672 1062 518 
Q 1210 365 1498 365 
z
" transform="scale(0.015625)"/>
       <path id="FiraSans-Regular-63" d="M 1837 3450 
Q 2138 3450 2387 3363 
Q 2637 3277 2867 3085 
L 2586 2714 
Q 2406 2842 2236 2902 
Q 2067 2963 1862 2963 
Q 1453 2963 1225 2636 
Q 998 2310 998 1670 
Q 998 1030 1222 726 
Q 1446 422 1862 422 
Q 2061 422 2227 483 
Q 2394 544 2598 678 
L 2867 294 
Q 2406 -77 1837 -77 
Q 1152 -77 758 384 
Q 365 845 365 1658 
Q 365 2195 544 2598 
Q 723 3002 1052 3226 
Q 1382 3450 1837 3450 
z
" transform="scale(0.015625)"/>
       <path id="FiraSans-Regular-68" d="M 2195 3450 
Q 2656 3450 2915 3174 
Q 3174 2899 3174 2419 
L 3174 0 
L 2586 0 
L 2586 2336 
Q 2586 2694 2448 2841 
Q 2310 2989 2048 2989 
Q 1786 2989 1581 2835 
Q 1376 2682 1197 2400 
L 1197 0 
L 608 0 
L 608 4723 
L 1197 4787 
L 1197 2906 
Q 1594 3450 2195 3450 
z
" transform="scale(0.015625)"/>
       <path id="FiraSans-Regular-64" d="M 3219 4730 
L 3219 0 
L 2701 0 
L 2643 467 
Q 2477 211 2227 67 
Q 1978 -77 1670 -77 
Q 1069 -77 733 396 
Q 397 870 397 1670 
Q 397 2189 557 2592 
Q 717 2995 1017 3222 
Q 1318 3450 1722 3450 
Q 2240 3450 2630 3034 
L 2630 4800 
L 3219 4730 
z
M 1798 390 
Q 2067 390 2259 515 
Q 2451 640 2630 890 
L 2630 2541 
Q 2464 2758 2275 2870 
Q 2086 2982 1850 2982 
Q 1459 2982 1244 2656 
Q 1030 2330 1030 1683 
Q 1030 1030 1228 710 
Q 1427 390 1798 390 
z
" transform="scale(0.015625)"/>
       <path id="FiraSans-Regular-20" transform="scale(0.015625)"/>
       <path id="FiraSans-Regular-70" d="M 2157 3450 
Q 2803 3450 3104 2989 
Q 3405 2528 3405 1690 
Q 3405 896 3059 409 
Q 2714 -77 2080 -77 
Q 1517 -77 1197 307 
L 1197 -1293 
L 608 -1363 
L 608 3373 
L 1114 3373 
L 1158 2918 
Q 1344 3174 1606 3312 
Q 1869 3450 2157 3450 
z
M 1939 403 
Q 2771 403 2771 1690 
Q 2771 2982 2010 2982 
Q 1760 2982 1555 2835 
Q 1350 2688 1197 2458 
L 1197 813 
Q 1325 614 1517 508 
Q 1709 403 1939 403 
z
" transform="scale(0.015625)"/>
       <path id="FiraSans-Regular-6f" d="M 1875 3450 
Q 2586 3450 2979 2976 
Q 3373 2502 3373 1690 
Q 3373 1165 3193 765 
Q 3014 365 2675 144 
Q 2336 -77 1869 -77 
Q 1158 -77 761 396 
Q 365 870 365 1683 
Q 365 2208 544 2608 
Q 723 3008 1062 3229 
Q 1402 3450 1875 3450 
z
M 1875 2976 
Q 998 2976 998 1683 
Q 998 397 1869 397 
Q 2739 397 2739 1690 
Q 2739 2976 1875 2976 
z
" transform="scale(0.015625)"/>
       <path id="FiraSans-Regular-75" d="M 3117 0 
L 2611 0 
L 2566 525 
Q 2374 211 2124 67 
Q 1875 -77 1517 -77 
Q 1075 -77 825 192 
Q 576 461 576 954 
L 576 3373 
L 1165 3373 
L 1165 1018 
Q 1165 672 1286 528 
Q 1408 384 1683 384 
Q 2176 384 2528 966 
L 2528 3373 
L 3117 3373 
L 3117 0 
z
" transform="scale(0.015625)"/>
       <path id="FiraSans-Regular-6c" d="M 1280 -77 
Q 954 -77 765 118 
Q 576 314 576 666 
L 576 4730 
L 1165 4800 
L 1165 678 
Q 1165 538 1213 474 
Q 1261 410 1376 410 
Q 1498 410 1594 448 
L 1747 38 
Q 1536 -77 1280 -77 
z
" transform="scale(0.015625)"/>
       <path id="FiraSans-Regular-74" d="M 2310 154 
Q 1978 -77 1555 -77 
Q 1126 -77 886 169 
Q 646 416 646 883 
L 646 2918 
L 58 2918 
L 58 3373 
L 646 3373 
L 646 4134 
L 1235 4205 
L 1235 3373 
L 2035 3373 
L 1971 2918 
L 1235 2918 
L 1235 909 
Q 1235 646 1328 528 
Q 1421 410 1638 410 
Q 1837 410 2086 544 
L 2310 154 
z
" transform="scale(0.015625)"/>
       <path id="FiraSans-Regular-69" d="M 1197 3373 
L 1197 0 
L 608 0 
L 608 3373 
L 1197 3373 
z
M 896 4992 
Q 1082 4992 1197 4877 
Q 1312 4762 1312 4589 
Q 1312 4416 1197 4304 
Q 1082 4192 896 4192 
Q 717 4192 601 4304 
Q 486 4416 486 4589 
Q 486 4762 601 4877 
Q 717 4992 896 4992 
z
" transform="scale(0.015625)"/>
       <path id="FiraSans-Regular-6e" d="M 2195 3450 
Q 2656 3450 2915 3174 
Q 3174 2899 3174 2419 
L 3174 0 
L 2586 0 
L 2586 2336 
Q 2586 2694 2451 2841 
Q 2317 2989 2054 2989 
Q 1786 2989 1581 2835 
Q 1376 2682 1197 2394 
L 1197 0 
L 608 0 
L 608 3373 
L 1114 3373 
L 1165 2874 
Q 1344 3142 1609 3296 
Q 1875 3450 2195 3450 
z
" transform="scale(0.015625)"/>
      </defs>
      <use xlink:href="#FiraSans-Regular-52"/>
      <use xlink:href="#FiraSans-Regular-65" x="60.499985"/>
      <use xlink:href="#FiraSans-Regular-61" x="114.999969"/>
      <use xlink:href="#FiraSans-Regular-63" x="169.399963"/>
      <use xlink:href="#FiraSans-Regular-68" x="217.199951"/>
      <use xlink:href="#FiraSans-Regular-65" x="275.799942"/>
      <use xlink:href="#FiraSans-Regular-64" x="330.299927"/>
      <use xlink:href="#FiraSans-Regular-20" x="390.099915"/>
      <use xlink:href="#FiraSans-Regular-70" x="416.599899"/>
      <use xlink:href="#FiraSans-Regular-6f" x="475.999893"/>
      <use xlink:href="#FiraSans-Regular-70" x="534.399887"/>
      <use xlink:href="#FiraSans-Regular-75" x="593.799881"/>
      <use xlink:href="#FiraSans-Regular-6c" x="651.999878"/>
      <use xlink:href="#FiraSans-Regular-61" x="681.299866"/>
      <use xlink:href="#FiraSans-Regular-74" x="735.69986"/>
      <use xlink:href="#FiraSans-Regular-69" x="771.79985"/>
      <use xlink:href="#FiraSans-Regular-6f" x="799.999847"/>
      <use xlink:href="#FiraSans-Regular-6e" x="858.399841"/>
     </g>
    </g>
   </g>
   <g id="matplotlib.axis_2">
    <g id="ytick_1">
     <g id="line2d_13">
      <path d="M 62.086563 550.8 
L 1178.086563 550.8 
" clip-path="url(#pe5d1560d6a)" style="fill: none; stroke: #cccccc; stroke-width: 2; stroke-linecap: round"/>
     </g>
     <g id="line2d_14">
      <defs>
       <path id="m3c6c296a3a" d="M 0 0 
L -12 0 
" style="stroke: #262626; stroke-width: 2.5"/>
      </defs>
      <g>
       <use xlink:href="#m3c6c296a3a" x="62.086563" y="550.8" style="fill: #262626; stroke: #262626; stroke-width: 2.5"/>
      </g>
     </g>
     <g id="text_8">
      <!-- 0 -->
      <g style="fill: #262626" transform="translate(34.31125 559.05) scale(0.22 -0.22)">
       <use xlink:href="#FiraSans-Regular-30"/>
      </g>
     </g>
    </g>
    <g id="ytick_2">
     <g id="line2d_15">
      <path d="M 62.086563 486.085714 
L 1178.086563 486.085714 
" clip-path="url(#pe5d1560d6a)" style="fill: none; stroke: #cccccc; stroke-width: 2; stroke-linecap: round"/>
     </g>
     <g id="line2d_16">
      <g>
       <use xlink:href="#m3c6c296a3a" x="62.086563" y="486.085714" style="fill: #262626; stroke: #262626; stroke-width: 2.5"/>
      </g>
     </g>
     <g id="text_9">
      <!-- 1 -->
      <g style="fill: #262626" transform="translate(37.06125 494.335714) scale(0.22 -0.22)">
       <use xlink:href="#FiraSans-Regular-31"/>
      </g>
     </g>
    </g>
    <g id="ytick_3">
     <g id="line2d_17">
      <path d="M 62.086563 421.371429 
L 1178.086563 421.371429 
" clip-path="url(#pe5d1560d6a)" style="fill: none; stroke: #cccccc; stroke-width: 2; stroke-linecap: round"/>
     </g>
     <g id="line2d_18">
      <g>
       <use xlink:href="#m3c6c296a3a" x="62.086563" y="421.371429" style="fill: #262626; stroke: #262626; stroke-width: 2.5"/>
      </g>
     </g>
     <g id="text_10">
      <!-- 2 -->
      <g style="fill: #262626" transform="translate(35.696563 429.621429) scale(0.22 -0.22)">
       <use xlink:href="#FiraSans-Regular-32"/>
      </g>
     </g>
    </g>
    <g id="ytick_4">
     <g id="line2d_19">
      <path d="M 62.086563 356.657143 
L 1178.086563 356.657143 
" clip-path="url(#pe5d1560d6a)" style="fill: none; stroke: #cccccc; stroke-width: 2; stroke-linecap: round"/>
     </g>
     <g id="line2d_20">
      <g>
       <use xlink:href="#m3c6c296a3a" x="62.086563" y="356.657143" style="fill: #262626; stroke: #262626; stroke-width: 2.5"/>
      </g>
     </g>
     <g id="text_11">
      <!-- 3 -->
      <g style="fill: #262626" transform="translate(35.607188 364.907143) scale(0.22 -0.22)">
       <defs>
        <path id="FiraSans-Regular-33" d="M 1440 4346 
Q 1837 4346 2121 4198 
Q 2406 4051 2556 3801 
Q 2707 3552 2707 3258 
Q 2707 2867 2480 2614 
Q 2253 2362 1875 2272 
Q 2304 2234 2573 1965 
Q 2842 1696 2842 1235 
Q 2842 864 2662 563 
Q 2483 262 2150 92 
Q 1818 -77 1382 -77 
Q 992 -77 665 67 
Q 339 211 96 499 
L 448 826 
Q 659 608 880 505 
Q 1101 403 1363 403 
Q 1766 403 1996 630 
Q 2227 858 2227 1242 
Q 2227 1664 2009 1837 
Q 1792 2010 1376 2010 
L 1056 2010 
L 1126 2464 
L 1344 2464 
Q 1677 2464 1897 2662 
Q 2118 2861 2118 3219 
Q 2118 3520 1926 3696 
Q 1734 3872 1408 3872 
Q 1158 3872 950 3782 
Q 742 3693 525 3488 
L 218 3840 
Q 762 4346 1440 4346 
z
" transform="scale(0.015625)"/>
       </defs>
       <use xlink:href="#FiraSans-Regular-33"/>
      </g>
     </g>
    </g>
    <g id="ytick_5">
     <g id="line2d_21">
      <path d="M 62.086563 291.942857 
L 1178.086563 291.942857 
" clip-path="url(#pe5d1560d6a)" style="fill: none; stroke: #cccccc; stroke-width: 2; stroke-linecap: round"/>
     </g>
     <g id="line2d_22">
      <g>
       <use xlink:href="#m3c6c296a3a" x="62.086563" y="291.942857" style="fill: #262626; stroke: #262626; stroke-width: 2.5"/>
      </g>
     </g>
     <g id="text_12">
      <!-- 4 -->
      <g style="fill: #262626" transform="translate(34.881875 300.192857) scale(0.22 -0.22)">
       <use xlink:href="#FiraSans-Regular-34"/>
      </g>
     </g>
    </g>
    <g id="ytick_6">
     <g id="line2d_23">
      <path d="M 62.086563 227.228571 
L 1178.086563 227.228571 
" clip-path="url(#pe5d1560d6a)" style="fill: none; stroke: #cccccc; stroke-width: 2; stroke-linecap: round"/>
     </g>
     <g id="line2d_24">
      <g>
       <use xlink:href="#m3c6c296a3a" x="62.086563" y="227.228571" style="fill: #262626; stroke: #262626; stroke-width: 2.5"/>
      </g>
     </g>
     <g id="text_13">
      <!-- 5 -->
      <g style="fill: #262626" transform="translate(35.565938 235.478571) scale(0.22 -0.22)">
       <defs>
        <path id="FiraSans-Regular-35" d="M 2688 3821 
L 1018 3821 
L 1018 2560 
Q 1344 2726 1702 2726 
Q 2253 2726 2585 2364 
Q 2918 2003 2918 1370 
Q 2918 947 2732 617 
Q 2547 288 2211 105 
Q 1875 -77 1434 -77 
Q 1043 -77 736 60 
Q 429 198 166 467 
L 512 806 
Q 717 602 934 502 
Q 1152 403 1427 403 
Q 1837 403 2070 659 
Q 2304 915 2304 1382 
Q 2304 1850 2093 2061 
Q 1882 2272 1523 2272 
Q 1357 2272 1216 2237 
Q 1075 2202 915 2125 
L 454 2125 
L 454 4282 
L 2771 4282 
L 2688 3821 
z
" transform="scale(0.015625)"/>
       </defs>
       <use xlink:href="#FiraSans-Regular-35"/>
      </g>
     </g>
    </g>
    <g id="ytick_7">
     <g id="line2d_25">
      <path d="M 62.086563 162.514286 
L 1178.086563 162.514286 
" clip-path="url(#pe5d1560d6a)" style="fill: none; stroke: #cccccc; stroke-width: 2; stroke-linecap: round"/>
     </g>
     <g id="line2d_26">
      <g>
       <use xlink:href="#m3c6c296a3a" x="62.086563" y="162.514286" style="fill: #262626; stroke: #262626; stroke-width: 2.5"/>
      </g>
     </g>
     <g id="text_14">
      <!-- 6 -->
      <g style="fill: #262626" transform="translate(34.86125 170.764286) scale(0.22 -0.22)">
       <use xlink:href="#FiraSans-Regular-36"/>
      </g>
     </g>
    </g>
    <g id="ytick_8">
     <g id="line2d_27">
      <path d="M 62.086563 97.8 
L 1178.086563 97.8 
" clip-path="url(#pe5d1560d6a)" style="fill: none; stroke: #cccccc; stroke-width: 2; stroke-linecap: round"/>
     </g>
     <g id="line2d_28">
      <g>
       <use xlink:href="#m3c6c296a3a" x="62.086563" y="97.8" style="fill: #262626; stroke: #262626; stroke-width: 2.5"/>
      </g>
     </g>
     <g id="text_15">
      <!-- 7 -->
      <g style="fill: #262626" transform="translate(36.817188 106.05) scale(0.22 -0.22)">
       <defs>
        <path id="FiraSans-Regular-37" d="M 2650 4282 
L 2650 3840 
L 1050 -64 
L 512 115 
L 2054 3802 
L 160 3802 
L 160 4282 
L 2650 4282 
z
" transform="scale(0.015625)"/>
       </defs>
       <use xlink:href="#FiraSans-Regular-37"/>
      </g>
     </g>
    </g>
    <g id="ytick_9">
     <g id="line2d_29">
      <path d="M 62.086563 33.085714 
L 1178.086563 33.085714 
" clip-path="url(#pe5d1560d6a)" style="fill: none; stroke: #cccccc; stroke-width: 2; stroke-linecap: round"/>
     </g>
     <g id="line2d_30">
      <g>
       <use xlink:href="#m3c6c296a3a" x="62.086563" y="33.085714" style="fill: #262626; stroke: #262626; stroke-width: 2.5"/>
      </g>
     </g>
     <g id="text_16">
      <!-- 8 -->
      <g style="fill: #262626" transform="translate(34.465938 41.335714) scale(0.22 -0.22)">
       <use xlink:href="#FiraSans-Regular-38"/>
      </g>
     </g>
    </g>
    <g id="text_17">
     <!-- Labs -->
     <g style="fill: #262626" transform="translate(25.2 304.2375) rotate(-90) scale(0.24 -0.24)">
      <defs>
       <path id="FiraSans-Regular-4c" d="M 1248 4410 
L 1248 531 
L 3059 531 
L 2989 0 
L 640 0 
L 640 4410 
L 1248 4410 
z
" transform="scale(0.015625)"/>
       <path id="FiraSans-Regular-62" d="M 2150 3450 
Q 2726 3450 3065 2986 
Q 3405 2522 3405 1690 
Q 3405 1165 3245 765 
Q 3085 365 2784 144 
Q 2483 -77 2080 -77 
Q 1549 -77 1184 371 
L 1126 0 
L 608 0 
L 608 4730 
L 1197 4800 
L 1197 2950 
Q 1562 3450 2150 3450 
z
M 1939 390 
Q 2330 390 2550 707 
Q 2771 1024 2771 1690 
Q 2771 2374 2566 2678 
Q 2362 2982 1984 2982 
Q 1536 2982 1197 2458 
L 1197 845 
Q 1331 634 1526 512 
Q 1722 390 1939 390 
z
" transform="scale(0.015625)"/>
       <path id="FiraSans-Regular-73" d="M 1523 3450 
Q 1869 3450 2144 3354 
Q 2419 3258 2669 3066 
L 2419 2694 
Q 2189 2842 1981 2912 
Q 1773 2982 1542 2982 
Q 1254 2982 1088 2864 
Q 922 2746 922 2541 
Q 922 2336 1078 2221 
Q 1235 2106 1645 1997 
Q 2208 1856 2486 1613 
Q 2765 1370 2765 947 
Q 2765 448 2377 185 
Q 1990 -77 1434 -77 
Q 666 -77 160 365 
L 474 723 
Q 902 397 1421 397 
Q 1754 397 1949 534 
Q 2144 672 2144 909 
Q 2144 1082 2073 1187 
Q 2003 1293 1830 1373 
Q 1658 1453 1325 1542 
Q 787 1683 547 1920 
Q 307 2157 307 2522 
Q 307 2784 464 2998 
Q 621 3213 899 3331 
Q 1178 3450 1523 3450 
z
" transform="scale(0.015625)"/>
      </defs>
      <use xlink:href="#FiraSans-Regular-4c"/>
      <use xlink:href="#FiraSans-Regular-61" x="49.799988"/>
      <use xlink:href="#FiraSans-Regular-62" x="104.199982"/>
      <use xlink:href="#FiraSans-Regular-73" x="163.599976"/>
     </g>
    </g>
   </g>
   <g id="patch_3">
    <path d="M 112.813835 550.8 
L 138.177472 550.8 
L 138.177472 486.085714 
L 112.813835 486.085714 
z
" clip-path="url(#pe5d1560d6a)" style="fill: #ff0000; stroke: #ffffff; stroke-width: 2; stroke-linejoin: miter"/>
   </g>
   <g id="patch_4">
    <path d="M 138.177472 550.8 
L 163.541108 550.8 
L 163.541108 421.371429 
L 138.177472 421.371429 
z
" clip-path="url(#pe5d1560d6a)" style="fill: #ff0000; stroke: #ffffff; stroke-width: 2; stroke-linejoin: miter"/>
   </g>
   <g id="patch_5">
    <path d="M 163.541108 550.8 
L 188.904744 550.8 
L 188.904744 486.085714 
L 163.541108 486.085714 
z
" clip-path="url(#pe5d1560d6a)" style="fill: #ff0000; stroke: #ffffff; stroke-width: 2; stroke-linejoin: miter"/>
   </g>
   <g id="patch_6">
    <path d="M 188.904744 550.8 
L 214.268381 550.8 
L 214.268381 550.8 
L 188.904744 550.8 
z
" clip-path="url(#pe5d1560d6a)" style="fill: #ff0000; stroke: #ffffff; stroke-width: 2; stroke-linejoin: miter"/>
   </g>
   <g id="patch_7">
    <path d="M 214.268381 550.8 
L 239.632017 550.8 
L 239.632017 421.371429 
L 214.268381 421.371429 
z
" clip-path="url(#pe5d1560d6a)" style="fill: #ff0000; stroke: #ffffff; stroke-width: 2; stroke-linejoin: miter"/>
   </g>
   <g id="patch_8">
    <path d="M 239.632017 550.8 
L 264.995653 550.8 
L 264.995653 486.085714 
L 239.632017 486.085714 
z
" clip-path="url(#pe5d1560d6a)" style="fill: #ff0000; stroke: #ffffff; stroke-width: 2; stroke-linejoin: miter"/>
   </g>
   <g id="patch_9">
    <path d="M 264.995653 550.8 
L 290.35929 550.8 
L 290.35929 550.8 
L 264.995653 550.8 
z
" clip-path="url(#pe5d1560d6a)" style="fill: #ff0000; stroke: #ffffff; stroke-width: 2; stroke-linejoin: miter"/>
   </g>
   <g id="patch_10">
    <path d="M 290.35929 550.8 
L 315.722926 550.8 
L 315.722926 550.8 
L 290.35929 550.8 
z
" clip-path="url(#pe5d1560d6a)" style="fill: #ff0000; stroke: #ffffff; stroke-width: 2; stroke-linejoin: miter"/>
   </g>
   <g id="patch_11">
    <path d="M 315.722926 550.8 
L 341.086563 550.8 
L 341.086563 421.371429 
L 315.722926 421.371429 
z
" clip-path="url(#pe5d1560d6a)" style="fill: #ff0000; stroke: #ffffff; stroke-width: 2; stroke-linejoin: miter"/>
   </g>
   <g id="patch_12">
    <path d="M 341.086563 550.8 
L 366.450199 550.8 
L 366.450199 486.085714 
L 341.086563 486.085714 
z
" clip-path="url(#pe5d1560d6a)" style="fill: #ff0000; stroke: #ffffff; stroke-width: 2; stroke-linejoin: miter"/>
   </g>
   <g id="patch_13">
    <path d="M 366.450199 550.8 
L 391.813835 550.8 
L 391.813835 486.085714 
L 366.450199 486.085714 
z
" clip-path="url(#pe5d1560d6a)" style="fill: #ff0000; stroke: #ffffff; stroke-width: 2; stroke-linejoin: miter"/>
   </g>
   <g id="patch_14">
    <path d="M 391.813835 550.8 
L 417.177472 550.8 
L 417.177472 421.371429 
L 391.813835 421.371429 
z
" clip-path="url(#pe5d1560d6a)" style="fill: #ff0000; stroke: #ffffff; stroke-width: 2; stroke-linejoin: miter"/>
   </g>
   <g id="patch_15">
    <path d="M 417.177472 550.8 
L 442.541108 550.8 
L 442.541108 356.657143 
L 417.177472 356.657143 
z
" clip-path="url(#pe5d1560d6a)" style="fill: #ff0000; stroke: #ffffff; stroke-width: 2; stroke-linejoin: miter"/>
   </g>
   <g id="patch_16">
    <path d="M 442.541108 550.8 
L 467.904744 550.8 
L 467.904744 421.371429 
L 442.541108 421.371429 
z
" clip-path="url(#pe5d1560d6a)" style="fill: #ff0000; stroke: #ffffff; stroke-width: 2; stroke-linejoin: miter"/>
   </g>
   <g id="patch_17">
    <path d="M 467.904744 550.8 
L 493.268381 550.8 
L 493.268381 550.8 
L 467.904744 550.8 
z
" clip-path="url(#pe5d1560d6a)" style="fill: #ff0000; stroke: #ffffff; stroke-width: 2; stroke-linejoin: miter"/>
   </g>
   <g id="patch_18">
    <path d="M 493.268381 550.8 
L 518.632017 550.8 
L 518.632017 421.371429 
L 493.268381 421.371429 
z
" clip-path="url(#pe5d1560d6a)" style="fill: #ff0000; stroke: #ffffff; stroke-width: 2; stroke-linejoin: miter"/>
   </g>
   <g id="patch_19">
    <path d="M 518.632017 550.8 
L 543.995653 550.8 
L 543.995653 486.085714 
L 518.632017 486.085714 
z
" clip-path="url(#pe5d1560d6a)" style="fill: #ff0000; stroke: #ffffff; stroke-width: 2; stroke-linejoin: miter"/>
   </g>
   <g id="patch_20">
    <path d="M 543.995653 550.8 
L 569.35929 550.8 
L 569.35929 356.657143 
L 543.995653 356.657143 
z
" clip-path="url(#pe5d1560d6a)" style="fill: #ff0000; stroke: #ffffff; stroke-width: 2; stroke-linejoin: miter"/>
   </g>
   <g id="patch_21">
    <path d="M 569.35929 550.8 
L 594.722926 550.8 
L 594.722926 421.371429 
L 569.35929 421.371429 
z
" clip-path="url(#pe5d1560d6a)" style="fill: #ff0000; stroke: #ffffff; stroke-width: 2; stroke-linejoin: miter"/>
   </g>
   <g id="patch_22">
    <path d="M 594.722926 550.8 
L 620.086563 550.8 
L 620.086563 421.371429 
L 594.722926 421.371429 
z
" clip-path="url(#pe5d1560d6a)" style="fill: #ff0000; stroke: #ffffff; stroke-width: 2; stroke-linejoin: miter"/>
   </g>
   <g id="patch_23">
    <path d="M 620.086563 550.8 
L 645.450199 550.8 
L 645.450199 486.085714 
L 620.086563 486.085714 
z
" clip-path="url(#pe5d1560d6a)" style="fill: #ff0000; stroke: #ffffff; stroke-width: 2; stroke-linejoin: miter"/>
   </g>
   <g id="patch_24">
    <path d="M 645.450199 550.8 
L 670.813835 550.8 
L 670.813835 356.657143 
L 645.450199 356.657143 
z
" clip-path="url(#pe5d1560d6a)" style="fill: #ff0000; stroke: #ffffff; stroke-width: 2; stroke-linejoin: miter"/>
   </g>
   <g id="patch_25">
    <path d="M 670.813835 550.8 
L 696.177472 550.8 
L 696.177472 486.085714 
L 670.813835 486.085714 
z
" clip-path="url(#pe5d1560d6a)" style="fill: #ff0000; stroke: #ffffff; stroke-width: 2; stroke-linejoin: miter"/>
   </g>
   <g id="patch_26">
    <path d="M 696.177472 550.8 
L 721.541108 550.8 
L 721.541108 486.085714 
L 696.177472 486.085714 
z
" clip-path="url(#pe5d1560d6a)" style="fill: #ff0000; stroke: #ffffff; stroke-width: 2; stroke-linejoin: miter"/>
   </g>
   <g id="patch_27">
    <path d="M 721.541108 550.8 
L 746.904744 550.8 
L 746.904744 356.657143 
L 721.541108 356.657143 
z
" clip-path="url(#pe5d1560d6a)" style="fill: #ff0000; stroke: #ffffff; stroke-width: 2; stroke-linejoin: miter"/>
   </g>
   <g id="patch_28">
    <path d="M 746.904744 550.8 
L 772.268381 550.8 
L 772.268381 486.085714 
L 746.904744 486.085714 
z
" clip-path="url(#pe5d1560d6a)" style="fill: #ff0000; stroke: #ffffff; stroke-width: 2; stroke-linejoin: miter"/>
   </g>
   <g id="patch_29">
    <path d="M 772.268381 550.8 
L 797.632017 550.8 
L 797.632017 421.371429 
L 772.268381 421.371429 
z
" clip-path="url(#pe5d1560d6a)" style="fill: #ff0000; stroke: #ffffff; stroke-width: 2; stroke-linejoin: miter"/>
   </g>
   <g id="patch_30">
    <path d="M 797.632017 550.8 
L 822.995653 550.8 
L 822.995653 421.371429 
L 797.632017 421.371429 
z
" clip-path="url(#pe5d1560d6a)" style="fill: #ff0000; stroke: #ffffff; stroke-width: 2; stroke-linejoin: miter"/>
   </g>
   <g id="patch_31">
    <path d="M 822.995653 550.8 
L 848.35929 550.8 
L 848.35929 550.8 
L 822.995653 550.8 
z
" clip-path="url(#pe5d1560d6a)" style="fill: #ff0000; stroke: #ffffff; stroke-width: 2; stroke-linejoin: miter"/>
   </g>
   <g id="patch_32">
    <path d="M 848.35929 550.8 
L 873.722926 550.8 
L 873.722926 550.8 
L 848.35929 550.8 
z
" clip-path="url(#pe5d1560d6a)" style="fill: #ff0000; stroke: #ffffff; stroke-width: 2; stroke-linejoin: miter"/>
   </g>
   <g id="patch_33">
    <path d="M 873.722926 550.8 
L 899.086563 550.8 
L 899.086563 421.371429 
L 873.722926 421.371429 
z
" clip-path="url(#pe5d1560d6a)" style="fill: #ff0000; stroke: #ffffff; stroke-width: 2; stroke-linejoin: miter"/>
   </g>
   <g id="patch_34">
    <path d="M 899.086563 550.8 
L 924.450199 550.8 
L 924.450199 486.085714 
L 899.086563 486.085714 
z
" clip-path="url(#pe5d1560d6a)" style="fill: #ff0000; stroke: #ffffff; stroke-width: 2; stroke-linejoin: miter"/>
   </g>
   <g id="patch_35">
    <path d="M 924.450199 550.8 
L 949.813835 550.8 
L 949.813835 291.942857 
L 924.450199 291.942857 
z
" clip-path="url(#pe5d1560d6a)" style="fill: #ff0000; stroke: #ffffff; stroke-width: 2; stroke-linejoin: miter"/>
   </g>
   <g id="patch_36">
    <path d="M 949.813835 550.8 
L 975.177472 550.8 
L 975.177472 421.371429 
L 949.813835 421.371429 
z
" clip-path="url(#pe5d1560d6a)" style="fill: #ff0000; stroke: #ffffff; stroke-width: 2; stroke-linejoin: miter"/>
   </g>
   <g id="patch_37">
    <path d="M 975.177472 550.8 
L 1000.541108 550.8 
L 1000.541108 227.228571 
L 975.177472 227.228571 
z
" clip-path="url(#pe5d1560d6a)" style="fill: #ff0000; stroke: #ffffff; stroke-width: 2; stroke-linejoin: miter"/>
   </g>
   <g id="patch_38">
    <path d="M 1000.541108 550.8 
L 1025.904744 550.8 
L 1025.904744 227.228571 
L 1000.541108 227.228571 
z
" clip-path="url(#pe5d1560d6a)" style="fill: #ff0000; stroke: #ffffff; stroke-width: 2; stroke-linejoin: miter"/>
   </g>
   <g id="patch_39">
    <path d="M 1025.904744 550.8 
L 1051.268381 550.8 
L 1051.268381 33.085714 
L 1025.904744 33.085714 
z
" clip-path="url(#pe5d1560d6a)" style="fill: #ff0000; stroke: #ffffff; stroke-width: 2; stroke-linejoin: miter"/>
   </g>
   <g id="patch_40">
    <path d="M 1051.268381 550.8 
L 1076.632017 550.8 
L 1076.632017 291.942857 
L 1051.268381 291.942857 
z
" clip-path="url(#pe5d1560d6a)" style="fill: #ff0000; stroke: #ffffff; stroke-width: 2; stroke-linejoin: miter"/>
   </g>
   <g id="patch_41">
    <path d="M 1076.632017 550.8 
L 1101.995653 550.8 
L 1101.995653 486.085714 
L 1076.632017 486.085714 
z
" clip-path="url(#pe5d1560d6a)" style="fill: #ff0000; stroke: #ffffff; stroke-width: 2; stroke-linejoin: miter"/>
   </g>
   <g id="patch_42">
    <path d="M 1101.995653 550.8 
L 1127.35929 550.8 
L 1127.35929 356.657143 
L 1101.995653 356.657143 
z
" clip-path="url(#pe5d1560d6a)" style="fill: #ff0000; stroke: #ffffff; stroke-width: 2; stroke-linejoin: miter"/>
   </g>
   <g id="patch_43">
    <path d="M 62.086563 550.8 
L 62.086563 7.2 
" style="fill: none; stroke: #262626; stroke-width: 2.5; stroke-linejoin: miter; stroke-linecap: square"/>
   </g>
   <g id="patch_44">
    <path d="M 1178.086563 550.8 
L 1178.086563 7.2 
" style="fill: none; stroke: #262626; stroke-width: 2.5; stroke-linejoin: miter; stroke-linecap: square"/>
   </g>
   <g id="patch_45">
    <path d="M 62.086563 550.8 
L 1178.086563 550.8 
" style="fill: none; stroke: #262626; stroke-width: 2.5; stroke-linejoin: miter; stroke-linecap: square"/>
   </g>
   <g id="patch_46">
    <path d="M 62.086563 7.2 
L 1178.086563 7.2 
" style="fill: none; stroke: #262626; stroke-width: 2.5; stroke-linejoin: miter; stroke-linecap: square"/>
   </g>
  </g>
 </g>
 <defs>
  <clipPath id="pe5d1560d6a">
   <rect x="62.086563" y="7.2" width="1116" height="543.6"/>
  </clipPath>
 </defs>
</svg>
